<?xml version="1.0" encoding="UTF-8"?>
<!DOCTYPE svg PUBLIC "-//W3C//DTD SVG 1.1//EN" "http://www.w3.org/Graphics/SVG/1.1/DTD/svg11.dtd">
<!-- Creator: CorelDRAW -->
<svg xmlns="http://www.w3.org/2000/svg" xml:space="preserve" width="28.4201mm" height="38.9304mm" version="1.1" style="shape-rendering:geometricPrecision; text-rendering:geometricPrecision; image-rendering:optimizeQuality; fill-rule:evenodd; clip-rule:evenodd"
viewBox="0 0 758.45 1038.94"
 xmlns:xlink="http://www.w3.org/1999/xlink"
 xmlns:xodm="http://www.corel.com/coreldraw/odm/2003">
 <defs>
  <style type="text/css">
   <![CDATA[
    .str1 {stroke:#FEFEFE;stroke-width:5.34;stroke-miterlimit:22.9256}
    .str2 {stroke:#56368A;stroke-width:5.34;stroke-miterlimit:22.9256}
    .str0 {stroke:#7248B9;stroke-width:5.34;stroke-miterlimit:22.9256}
    .fil1 {fill:#FEFEFE}
    .fil2 {fill:#56368A}
    .fil0 {fill:#7248B9}
   ]]>
  </style>
 </defs>
 <g id="Camada_x0020_1">
  <metadata id="CorelCorpID_0Corel-Layer"/>
  <g id="_1317246607232">
   <path class="fil0 str0" d="M71.65 5.27l423.68 0c0,109.08 0.49,205.45 0.49,257.02l256.23 -0.04 0 705.04c0,37.94 -31.04,68.99 -68.99,68.99l-611.42 0c-37.94,0 -68.99,-31.04 -68.99,-68.99l0 -893.03c0,-37.94 31.04,-68.99 68.99,-68.99z"/>
   <ellipse class="fil1 str1" cx="200.33" cy="433.75" rx="33.71" ry="34.01"/>
   <rect class="fil1 str1" x="289.22" y="399.87" width="304.68" height="67.56"/>
   <ellipse class="fil1 str1" cx="200.33" cy="576" rx="33.71" ry="34.01"/>
   <rect class="fil1 str1" x="289.22" y="542.12" width="304.68" height="67.56"/>
   <ellipse class="fil1 str1" cx="200.33" cy="718.37" rx="33.71" ry="34.01"/>
   <rect class="fil1 str1" x="289.22" y="684.49" width="304.68" height="67.56"/>
   <polygon class="fil2 str2" points="751.99,262.52 495.17,6.42 494.72,262.52 "/>
  </g>
 </g>
</svg>
