<?xml version="1.0" encoding="UTF-8"?>
<!DOCTYPE svg PUBLIC "-//W3C//DTD SVG 1.1//EN" "http://www.w3.org/Graphics/SVG/1.1/DTD/svg11.dtd">
<!-- Creator: CorelDRAW -->
<svg xmlns="http://www.w3.org/2000/svg" xml:space="preserve" width="47.706mm" height="52.3283mm" version="1.1" style="shape-rendering:geometricPrecision; text-rendering:geometricPrecision; image-rendering:optimizeQuality; fill-rule:evenodd; clip-rule:evenodd"
viewBox="0 0 648.93 711.8"
 xmlns:xlink="http://www.w3.org/1999/xlink"
 xmlns:xodm="http://www.corel.com/coreldraw/odm/2003">
 <defs>
  <style type="text/css">
   <![CDATA[
    .str0 {stroke:#4F165B;stroke-width:4.8;stroke-miterlimit:22.9256}
    .fil0 {fill:none}
    .fil1 {fill:#4F165B}
    .fil2 {fill:#693CAA}
   ]]>
  </style>
 </defs>
 <g id="Camada_x0020_1">
  <metadata id="CorelCorpID_0Corel-Layer"/>
  <polygon class="fil0 str0" points="198.41,166.6 280.37,84.64 362.33,2.68 474.29,32.68 586.25,62.68 616.25,174.64 646.25,286.6 564.29,368.56 482.33,450.52 370.37,420.52 258.41,390.52 228.41,278.56 "/>
  <polygon class="fil1" points="-0,392.62 26.99,345.87 53.98,299.13 107.95,299.13 161.93,299.13 188.92,345.87 215.91,392.62 188.92,439.36 161.93,486.11 107.95,486.11 53.98,486.11 26.99,439.36 "/>
  <polygon class="fil1" points="112.27,577.08 104.94,604.42 97.61,631.77 70.27,639.1 42.92,646.42 22.9,626.41 2.88,606.39 10.21,579.04 17.54,551.7 44.88,544.37 72.23,537.04 92.25,557.06 "/>
  <polygon class="fil2" points="419.4,519.82 424.44,580.9 429.48,641.99 379.09,676.9 328.71,711.8 273.28,685.62 217.86,659.44 212.83,598.35 207.79,537.27 258.17,502.36 308.56,467.45 363.98,493.64 "/>
 </g>
</svg>
