<?xml version="1.0" encoding="UTF-8"?>
<!DOCTYPE svg PUBLIC "-//W3C//DTD SVG 1.1//EN" "http://www.w3.org/Graphics/SVG/1.1/DTD/svg11.dtd">
<!-- Creator: CorelDRAW -->
<svg xmlns="http://www.w3.org/2000/svg" xml:space="preserve" width="31.8314mm" height="6.4907mm" version="1.1" style="shape-rendering:geometricPrecision; text-rendering:geometricPrecision; image-rendering:optimizeQuality; fill-rule:evenodd; clip-rule:evenodd"
viewBox="0 0 8773.84 1789.06"
 xmlns:xlink="http://www.w3.org/1999/xlink"
 xmlns:xodm="http://www.corel.com/coreldraw/odm/2003">
 <defs>
  <style type="text/css">
   <![CDATA[
    .fil0 {fill:#FEFEFE}
   ]]>
  </style>
 </defs>
 <g id="Camada_x0020_1">
  <metadata id="CorelCorpID_0Corel-Layer"/>
  <g id="_2271386381728">
   <path class="fil0" d="M-0 0l1829.66 0 0 1758.16 -1829.66 0 0 -1758.16zm2148.82 1592.64c-1.46,0 -2.18,-0.72 -2.18,-2.12l0 -141.07c0,-1.41 0.72,-2.12 2.15,-2.12l51.6 0c6.95,0 13.29,1.02 18.99,3.09 5.68,2.07 10.5,4.99 14.5,8.77 3.97,3.78 7.06,8.32 9.26,13.67 2.21,5.35 3.31,11.3 3.31,17.86 0,6.53 -1.1,12.49 -3.31,17.83 -2.21,5.35 -5.24,9.9 -9.23,13.67 -4,3.78 -8.77,6.7 -14.47,8.77 -5.65,2.07 -11.96,3.09 -18.94,3.09l-33.38 0c-0.85,0 -1.27,0.44 -1.27,1.3l0 55.15c0,1.41 -0.72,2.12 -2.18,2.12l-14.86 0zm50.61 -76.3c8.93,0 15.85,-2.29 20.84,-6.84 4.93,-4.58 7.41,-10.83 7.41,-18.8 0,-7.99 -2.48,-14.25 -7.41,-18.83 -4.99,-4.55 -11.91,-6.84 -20.84,-6.84l-32.3 0c-0.85,0 -1.27,0.44 -1.27,1.3l0 48.73c0,0.83 0.41,1.27 1.27,1.27l32.3 0zm305.95 76.3c-1.32,0 -2.26,-0.72 -2.81,-2.12l-28.91 -59.43 -31.86 0c-0.85,0 -1.3,0.44 -1.3,1.27l0 58.16c0,1.41 -0.69,2.12 -2.15,2.12l-14.86 0c-1.46,0 -2.18,-0.72 -2.18,-2.12l0 -141.07c0,-1.41 0.72,-2.12 2.12,-2.12l52.56 0c6.86,0 13.04,0.99 18.61,2.98 5.57,2.01 10.34,4.82 14.31,8.46 4.02,3.61 7.11,8.02 9.32,13.23 2.21,5.21 3.31,10.94 3.31,17.2 0,9.84 -2.56,18.16 -7.69,25.03 -5.1,6.84 -12.07,11.66 -20.87,14.53l30.9 61.33c0.44,0.72 0.5,1.32 0.22,1.82 -0.28,0.5 -0.77,0.74 -1.49,0.74l-17.23 0zm-29.8 -79.27c8.49,0 15.08,-2.12 19.76,-6.31 4.66,-4.22 7,-10.14 7,-17.86 0,-7.69 -2.34,-13.64 -7,-17.83 -4.69,-4.19 -11.27,-6.31 -19.76,-6.31l-33.79 0c-0.85,0 -1.3,0.44 -1.3,1.3l0 45.73c0,0.85 0.44,1.3 1.3,1.3l33.79 0zm225.72 -63.92c0,-1.41 0.72,-2.12 2.18,-2.12l87.38 0c1.43,0 2.15,0.72 2.15,2.12l0 13.48c0,1.41 -0.72,2.12 -2.15,2.12l-69.07 0c-0.85,0 -1.3,0.44 -1.3,1.3l0 42.72c0,0.85 0.44,1.3 1.3,1.3l58.63 0c1.43,0 2.15,0.72 2.15,2.15l0 13.45c0,1.43 -0.72,2.12 -2.15,2.12l-58.63 0c-0.85,0 -1.3,0.44 -1.3,1.3l0 44.24c0,0.85 0.44,1.27 1.3,1.27l69.07 0c1.43,0 2.15,0.72 2.15,2.15l0 13.48c0,1.41 -0.72,2.12 -2.15,2.12l-87.38 0c-1.46,0 -2.18,-0.72 -2.18,-2.12l0 -141.07zm268.47 0c0,-1.41 0.72,-2.12 2.18,-2.12l87.4 0c1.41,0 2.12,0.72 2.12,2.12l0 13.48c0,1.41 -0.72,2.12 -2.12,2.12l-69.1 0c-0.85,0 -1.27,0.44 -1.27,1.3l0 44.24c0,0.85 0.41,1.27 1.27,1.27l58.66 0c1.41,0 2.12,0.72 2.12,2.15l0 13.45c0,1.43 -0.72,2.15 -2.12,2.15l-58.66 0c-0.85,0 -1.27,0.41 -1.27,1.27l0 59.65c0,1.41 -0.72,2.12 -2.18,2.12l-14.86 0c-1.46,0 -2.18,-0.72 -2.18,-2.12l0 -141.07zm266.98 0c0,-1.41 0.72,-2.12 2.18,-2.12l87.4 0c1.41,0 2.12,0.72 2.12,2.12l0 13.48c0,1.41 -0.72,2.12 -2.12,2.12l-69.1 0c-0.85,0 -1.27,0.44 -1.27,1.3l0 42.72c0,0.85 0.41,1.3 1.27,1.3l58.66 0c1.41,0 2.12,0.72 2.12,2.15l0 13.45c0,1.43 -0.72,2.12 -2.12,2.12l-58.66 0c-0.85,0 -1.27,0.44 -1.27,1.3l0 44.24c0,0.85 0.41,1.27 1.27,1.27l69.1 0c1.41,0 2.12,0.72 2.12,2.15l0 13.48c0,1.41 -0.72,2.12 -2.12,2.12l-87.4 0c-1.46,0 -2.18,-0.72 -2.18,-2.12l0 -141.07zm268.5 0c0,-1.41 0.72,-2.12 2.15,-2.12l14.86 0c1.46,0 2.18,0.72 2.18,2.12l0 141.07c0,1.41 -0.72,2.12 -2.18,2.12l-14.86 0c-1.43,0 -2.15,-0.72 -2.15,-2.12l0 -141.07zm235.23 143.19c-1.43,0 -2.15,-0.72 -2.15,-2.12l0 -124.17c0,-0.85 -0.44,-1.3 -1.3,-1.3l-39.66 0c-1.41,0 -2.12,-0.72 -2.12,-2.12l0 -13.48c0,-1.41 0.72,-2.12 2.12,-2.12l101.1 0c1.41,0 2.12,0.72 2.12,2.12l0 13.48c0,1.41 -0.72,2.12 -2.12,2.12l-39.69 0c-0.85,0 -1.27,0.44 -1.27,1.3l0 124.17c0,1.41 -0.72,2.12 -2.18,2.12l-14.86 0zm281.34 2.34c-16.1,0 -28.69,-4.52 -37.79,-13.56 -9.15,-9.04 -13.7,-22.19 -13.7,-39.44l0 -92.53c0,-1.41 0.72,-2.12 2.18,-2.12l14.86 0c1.46,0 2.15,0.72 2.15,2.12l0 92.34c0,11.82 2.95,20.67 8.82,26.6 5.9,5.93 13.73,8.88 23.48,8.88 9.65,0 17.39,-2.95 23.29,-8.88 5.87,-5.93 8.82,-14.77 8.82,-26.6l0 -92.34c0,-1.41 0.72,-2.12 2.15,-2.12l14.86 0c1.46,0 2.18,0.72 2.18,2.12l0 92.53c0,17.25 -4.55,30.4 -13.67,39.44 -9.12,9.04 -21.66,13.56 -37.62,13.56zm318.3 -2.34c-1.3,0 -2.23,-0.72 -2.78,-2.12l-28.91 -59.43 -31.86 0c-0.85,0 -1.3,0.44 -1.3,1.27l0 58.16c0,1.41 -0.69,2.12 -2.18,2.12l-14.83 0c-1.46,0 -2.18,-0.72 -2.18,-2.12l0 -141.07c0,-1.41 0.72,-2.12 2.12,-2.12l52.56 0c6.86,0 13.04,0.99 18.61,2.98 5.57,2.01 10.34,4.82 14.31,8.46 4.02,3.61 7.11,8.02 9.32,13.23 2.21,5.21 3.31,10.94 3.31,17.2 0,9.84 -2.56,18.16 -7.69,25.03 -5.1,6.84 -12.07,11.66 -20.87,14.53l30.9 61.33c0.44,0.72 0.5,1.32 0.22,1.82 -0.28,0.5 -0.77,0.74 -1.49,0.74l-17.25 0zm-29.77 -79.27c8.49,0 15.08,-2.12 19.76,-6.31 4.66,-4.22 7,-10.14 7,-17.86 0,-7.69 -2.34,-13.64 -7,-17.83 -4.69,-4.19 -11.27,-6.31 -19.76,-6.31l-33.79 0c-0.85,0 -1.3,0.44 -1.3,1.3l0 45.73c0,0.85 0.44,1.3 1.3,1.3l33.79 0zm263.23 -63.92c0.44,-1.41 1.3,-2.12 2.59,-2.12l13.84 0c1.43,0 2.37,0.72 2.78,2.12l49.7 141.07c0.41,1.41 -0.08,2.12 -1.52,2.12l-14.91 0c-1.43,0 -2.34,-0.72 -2.78,-2.12l-11.08 -31.64 -58.66 0 -11.08 31.64c-0.55,1.41 -1.49,2.12 -2.76,2.12l-14.94 0c-1.41,0 -1.9,-0.72 -1.49,-2.12l50.3 -141.07zm32.41 91.9l-22.79 -66.04 -0.44 0 -23.04 66.04 46.28 0zm-1740.77 -1383.27c51.63,40.44 0,0 51.63,40.44 57.55,-66.04 66.51,-9.12 119.9,7.52 58.99,15.57 103.11,-26.16 120.31,-59.7 -54.13,-42.39 0,0 -54.13,-42.39 -12.95,23.29 -21.91,39.39 -51.63,30.93 -22.33,-4.02 -33.96,-26.68 -63.48,-35.45 -59.43,-17.64 -100.63,26.05 -122.6,58.66zm-716.29 617.53l0 -105.84c7.72,1.49 14,2.48 18.99,2.98 4.99,0.52 9.48,0.77 13.75,0.77 15.44,0 26.46,-4.88 33.02,-14.53 6.5,-9.65 9.73,-27.15 9.73,-52.29l0 -366.4 129.58 0 0 376.27c0,61.82 -10.67,104.6 -32.14,128.14 -21.5,23.65 -59.12,35.42 -113.12,35.42 -9.98,0 -19.96,-0.39 -29.91,-1.13 -9.98,-0.77 -19.96,-1.87 -29.91,-3.39zm459.32 -90.85c22.19,0 37.62,-11.38 46.28,-34.01 8.54,-22.79 12.82,-70.45 12.82,-143.03 0,-72.71 -4.27,-120.65 -12.82,-143.66 -8.65,-22.91 -24.09,-34.43 -46.28,-34.43 -22.55,0 -38.09,11.66 -46.78,35.03 -8.65,23.29 -13.04,70.95 -13.04,143.05 0,71.8 4.38,119.38 13.04,142.39 8.68,23.15 24.23,34.65 46.78,34.65zm-0.47 100.61c-65.88,0 -115.27,-23.15 -148.15,-69.43 -32.86,-46.31 -49.37,-115.77 -49.37,-208.35 0,-92.83 16.51,-162.57 49.37,-208.99 32.88,-46.42 82.28,-69.57 148.15,-69.57 65.74,0 115.11,23.26 148.24,69.82 32.99,46.55 49.48,116.15 49.48,208.74 0,92.59 -16.48,162.05 -49.48,208.35 -33.13,46.28 -82.5,69.43 -148.24,69.43zm354.85 -212.46l78.58 0 -37.87 -215.6 -40.71 215.6zm-149.42 202.7l120.23 -535.31 167.59 0 110.25 535.31 -131.73 0 -19.24 -108.1 -118.19 0 -21.5 108.1 -107.41 0zm603.78 -90.85c22.16,0 37.6,-11.38 46.28,-34.01 8.54,-22.79 12.82,-70.45 12.82,-143.03 0,-72.71 -4.27,-120.65 -12.82,-143.66 -8.68,-22.91 -24.12,-34.43 -46.28,-34.43 -22.57,0 -38.12,11.66 -46.78,35.03 -8.65,23.29 -13.07,70.95 -13.07,143.05 0,71.8 4.41,119.38 13.07,142.39 8.65,23.15 24.2,34.65 46.78,34.65zm-0.5 100.61c-65.88,0 -115.24,-23.15 -148.13,-69.43 -32.86,-46.31 -49.37,-115.77 -49.37,-208.35 0,-92.83 16.51,-162.57 49.37,-208.99 32.88,-46.42 82.25,-69.57 148.13,-69.57 65.77,0 115.13,23.26 148.24,69.82 32.99,46.55 49.5,116.15 49.5,208.74 0,92.59 -16.51,162.05 -49.5,208.35 -33.1,46.28 -82.47,69.43 -148.24,69.43zm-1131.37 136.33l0 126.16 16.35 0c31.59,0 54.24,-4.88 67.97,-14.64 13.62,-9.76 20.45,-25.91 20.45,-48.43 0,-22.52 -6.84,-38.67 -20.45,-48.43 -13.73,-9.76 -36.38,-14.66 -67.97,-14.66l-16.35 0zm-139 438.48l3.03 -535.31 182.77 0c65.52,0 114.69,13.37 147.63,40.16 32.8,26.76 49.28,66.7 49.28,119.76 0,50.55 -16.23,89.97 -48.79,117.86 -32.47,28.03 -78.14,42.06 -136.85,42.06 -7.8,0 -16.35,-0.28 -25.63,-0.88 -9.29,-0.63 -20.07,-1.63 -32.44,-2.76l0 219.1 -139 0zm424.2 0l0 -535.31 332.17 0 0 102.1 -196.2 0 0 104.36 130.79 0 0 102.12 -130.79 0 0 124.64 196.2 0 0 102.1 -332.17 0zm457.61 -169.68c10.39,25.91 23.15,45.56 38.26,58.82 15.1,13.4 32.19,20.01 51.02,20.01 17.7,0 31.45,-4.24 41.48,-12.62 10.03,-8.38 15.1,-20.29 15.1,-35.42 0,-12.9 -4.82,-24.28 -14.36,-33.9 -9.54,-9.65 -32.83,-23.15 -69.85,-40.41 -60.69,-28.67 -100.94,-54.82 -120.87,-78.36 -19.82,-23.65 -29.71,-52.92 -29.71,-88.2 0,-48.57 16.7,-88.48 50.28,-119.52 33.54,-31.04 76.41,-46.55 128.67,-46.55 39.99,0 74.7,10.53 104.41,31.53 29.6,21.03 51.38,50.58 65.13,88.59l-105.65 42.06c-7.8,-21.14 -17.34,-36.66 -28.47,-46.66 -11.27,-9.9 -24.78,-14.91 -40.49,-14.91 -14,0 -25.39,4.02 -33.93,11.91 -8.54,7.99 -12.87,18.52 -12.87,31.53 0,11.49 5.07,21.78 15.22,30.79 10.17,9.12 32.58,21.5 67.14,37.16 3.58,1.49 9.15,3.89 16.7,7.39 36.3,15.63 64.03,30.65 83.1,45.04 18.19,13.89 32.06,31.04 41.84,51.43 9.67,20.4 14.5,42.81 14.5,67.2 0,20.76 -3.83,41.04 -11.63,60.69 -7.69,19.63 -18.96,37.65 -33.68,54.05 -17.23,19.27 -38.04,33.79 -62.43,43.66 -24.39,9.9 -51.87,14.88 -82.36,14.88 -47.93,0 -88.53,-11.63 -121.97,-34.9 -33.32,-23.4 -58.35,-57.44 -75.06,-102.37l110.47 -42.92zm399.15 0c10.39,25.91 23.15,45.56 38.26,58.82 15.1,13.4 32.19,20.01 51.02,20.01 17.7,0 31.45,-4.24 41.48,-12.62 10.03,-8.38 15.1,-20.29 15.1,-35.42 0,-12.9 -4.82,-24.28 -14.36,-33.9 -9.54,-9.65 -32.8,-23.15 -69.85,-40.41 -60.67,-28.67 -100.94,-54.82 -120.87,-78.36 -19.82,-23.65 -29.71,-52.92 -29.71,-88.2 0,-48.57 16.7,-88.48 50.28,-119.52 33.54,-31.04 76.41,-46.55 128.67,-46.55 39.99,0 74.67,10.53 104.41,31.53 29.58,21.03 51.38,50.58 65.13,88.59l-105.65 42.06c-7.8,-21.14 -17.34,-36.66 -28.47,-46.66 -11.27,-9.9 -24.78,-14.91 -40.49,-14.91 -14,0 -25.39,4.02 -33.93,11.91 -8.57,7.99 -12.9,18.52 -12.9,31.53 0,11.49 5.1,21.78 15.24,30.79 10.17,9.12 32.58,21.5 67.12,37.16 3.58,1.49 9.18,3.89 16.73,7.39 36.27,15.63 64.03,30.65 83.1,45.04 18.19,13.89 32.08,31.04 41.84,51.43 9.67,20.4 14.5,42.81 14.5,67.2 0,20.76 -3.83,41.04 -11.63,60.69 -7.69,19.63 -18.96,37.65 -33.71,54.05 -17.2,19.27 -38.01,33.79 -62.4,43.66 -24.39,9.9 -51.87,14.88 -82.36,14.88 -47.93,0 -88.53,-11.63 -121.97,-34.9 -33.32,-23.4 -58.35,-57.44 -75.06,-102.37l110.47 -42.92zm513.07 78.83c23.15,0 39.25,-11.38 48.29,-34.01 8.93,-22.79 13.4,-70.48 13.4,-143.05 0,-72.68 -4.47,-120.62 -13.4,-143.66 -9.04,-22.88 -25.14,-34.4 -48.29,-34.4 -23.54,0 -39.75,11.63 -48.79,35.03 -9.04,23.29 -13.62,70.95 -13.62,143.03 0,71.83 4.58,119.38 13.62,142.42 9.04,23.15 25.25,34.65 48.79,34.65zm-0.5 100.61c-68.74,0 -120.26,-23.15 -154.55,-69.43 -34.32,-46.31 -51.52,-115.77 -51.52,-208.35 0,-92.86 17.2,-162.54 51.52,-208.99 34.29,-46.42 85.81,-69.57 154.55,-69.57 68.61,0 120.12,23.29 154.69,69.85 34.43,46.53 51.63,116.12 51.63,208.71 0,92.59 -17.2,162.05 -51.63,208.35 -34.56,46.28 -86.08,69.43 -154.69,69.43zm370.29 -212.46l82 0 -39.53 -215.63 -42.48 215.63zm-155.93 202.7l125.47 -535.31 174.86 0 115.05 535.31 -137.49 0 -20.04 -108.1 -123.35 0 -22.44 108.1 -112.07 0zm-3419.41 -857.25c-39.61,5.51 -81.73,13.53 -120.59,22.91 -12.49,3 -26.24,7.36 -38.53,9.67l-3.09 -11.36c88.95,-30.43 245.09,-43 341.21,-42.81 95.18,0.19 210.5,9.87 304,32.36 13.04,3.14 25.96,7.36 38.2,10.25l-3.28 11.36 -37.87 -9.29c-151.68,-37.29 -325.86,-44.6 -480.05,-23.1zm-114.33 -6.2c-11.96,2.98 -25.25,7.88 -36.69,10.28 -2.34,-4.19 -4.11,-21.39 -5.07,-27.65 45.92,-15.99 104.69,-27.09 156.51,-33.71 116.92,-14.94 240.11,-14.99 357.39,1.41 27.34,3.86 54.91,8.6 81.15,14.64 17.83,4.11 39.03,9.1 56.7,14.5 5.49,1.65 13.51,4.55 18.88,5.57l-3.83 26.1c-5.76,-1.07 -11.82,-3.36 -17.64,-5.02 -6.34,-1.82 -11.93,-3.25 -18.47,-5.02 -35.58,-9.54 -81.01,-17.42 -117.7,-22.13 -116.65,-14.97 -236.41,-14.72 -353.06,-0.83 -40.6,4.82 -78.91,12.13 -118.16,21.86zm68.63 -82.88l-48.79 9.56 -57.17 -184.18 82.06 -13.95c2.4,14.28 3.89,31.59 5.9,47.05 2.04,15.82 4,31.59 6.06,47.41 3,23.02 10.5,74.26 11.93,94.1zm-65.74 12.07l-22.11 6.2c-7.06,-15.33 -9.37,-62.32 -23.21,-72.93 -7.97,-6.06 -13.07,-6.64 -25.36,-6.73l-31.56 -154.63 11.85 -2.59 6.53 31.39 28.28 -6.09c-0.39,-9.73 -5.65,-23.59 -4.91,-31.62l20.48 -4.19 4.96 30.15c6.06,-0.33 24.53,-2.81 28.78,-5.26l-2.32 -30.95 10.75 -1.74 6.42 43.61 -64.77 13.07c0.41,6.28 25.58,88.81 27.81,95.89 5.02,15.93 9.34,31.95 14.22,47.96l14.14 48.46zm160.58 -24.26l-21.36 1.63c-1.98,-18.22 -4.77,-39.72 -7.91,-57.64 -7.17,-40.99 -42.5,-34.7 -53.78,-15.82 -4.74,7.94 -3.86,16.65 -2.56,26.6 1.3,9.62 2.67,19.18 3.97,28.89 0.63,4.82 1.3,9.56 1.98,14.55 1.65,11.77 2.48,10.17 -2.09,10.53 -0.63,-1.3 -31.56,-232.3 -31.01,-240.96 4.52,-0.55 10.53,-2.37 14.75,-1.46l4.52 30.13c4.11,0.69 19.02,-2.15 23.62,-3.45l-2.23 -30.73c4.99,-0.69 17.81,-2.78 22.08,-2.09l3.25 30.71c7.11,0.17 8.16,-2.07 14.39,-2.43 4.85,-0.3 1.93,0.88 13.2,-0.39l-0.55 -31.53 21.22 -1.65c0.83,6.86 2.4,40.19 1.3,45.51l-17.45 1.27 14.66 198.35zm-60.42 146.28c11.63,-0.83 49.61,-4 58.77,-2.4l0.74 92.83 -217.34 0.08 -4.91 -70.34c2.12,-1.13 2.65,-1.19 5.54,-1.68 1.87,-0.33 5.07,-0.85 6.67,-1.13 52.23,-9.04 97.35,-13.51 150.52,-17.36zm-158.6 99.72l219.13 -0.22 0.58 101.16 -210.5 0.28c-3.91,-0.41 -3.03,-1.98 -3.2,-6.64 -1.21,-30.65 -4.96,-62.49 -6.01,-94.57zm8.08 110.14l210.58 0 0.41 89.64 -205.27 0.06 -5.73 -89.69zm5.35 98.62l206.84 0 0.41 99.86 -200.08 0 -7.17 -99.86zm8.49 108.85l197.8 0 0.39 96.17 -191.65 0c-1.85,-3.61 -7.58,-89.03 -6.53,-96.17zm-20.12 60.72c2.23,31.39 4.93,63.37 6.31,94.79 -5.62,-1.07 -5.21,-0.19 -7.08,-5.04 -1.16,-2.92 -2.32,-5.26 -3.97,-7.22 -4.11,-4.88 -7.61,-6.12 -15.38,-7.25 1.9,-18.96 -4.27,-25.99 -18.22,-31.97 -2.01,-12.95 -5.95,-24.34 -12.54,-32.39 -6.45,-7.83 -16.15,-14.03 -28.8,-17.14 -28.25,-6.97 -54.93,0.61 -81.81,4.93 -59.81,9.62 -73.04,-44.46 -46.75,-62.57 15.46,-10.67 26.05,-0.85 33.77,2.81 2.45,-1.96 3.56,-1.85 5.98,-4.74 -2.01,-7.41 -7.58,-12.43 -12.71,-15.79 -6.37,-4.13 -14.06,-5.62 -22.79,-5.98 2.59,-4.93 6.73,-8.65 10.12,-12.93 5.51,-7 22.19,-22.82 29.02,-29.02 2.4,-2.15 3.58,-3.94 6.09,-6.01l24.94 -21.86c4.49,-3.45 8.02,-7.11 12.51,-10.89l49.56 -44.05c4.19,-3.97 7.77,-7.44 11.69,-11.69 7.36,-7.97 14.88,-15.99 21.86,-24.89 4.47,-5.71 16.59,-21.75 18.69,-29.27 2.34,4.05 6.78,88.59 7.08,92.56l12.43 185.61zm-33.38 97.99c3.14,-1.98 4.49,-3.58 6.92,-6.12 2.76,-2.89 3.42,-5.26 6.09,-7.86 15.22,7.22 2.89,25.52 -4,34.1 -3.09,3.83 -6.12,5.57 -8.96,8.82 15.27,-2.73 26.76,-11.14 31.28,-22.85 24.04,0.19 3.39,38.78 -41.07,47.13 -19.85,3.75 -59.79,-6.62 -72.85,4.6 -5.51,4.71 -4.96,13.81 0.69,18.61 1.93,-2.98 1.05,-3.53 3.83,-6.34 5.93,-6.04 16.73,-7.64 24.09,-4 -0.52,5.93 -9.67,8.05 -14.77,9.79 -50.69,17.34 -104.88,-0.25 -156.84,-0.19 -21.09,0 -51.68,3.39 -68.25,11.82 -24.23,12.29 -18.47,32.86 -5.26,51.85 -11.3,-1.74 -24.12,-16.46 -28.22,-26.65 -10.89,-27.01 13.84,-56.09 41.98,-63.29 19.57,-5.02 30.71,-1.65 49.37,0.44 -6.7,-10.09 -13.4,-11.36 -12.13,-26.65 0.3,-3.83 0.11,-8.24 1.3,-11.88 0.08,-0.22 0.19,-0.52 0.33,-0.77 12.95,-1.16 22.13,2.43 31.34,8.3 25.36,16.23 45.18,46.66 79.66,29.77l3.34 -2.34c-30.1,1.43 -37.79,-9.18 -62.6,-26.9 -8.1,-5.82 -17.45,-11.58 -29.24,-14.99 -11.3,-3.28 -29.66,-3.14 -38.31,3.31 5.76,13.34 -1.38,16.12 3.14,31.2 -8.16,-1.76 -21.55,-20.04 -26.08,-26.46 -26.27,-37.4 -33.68,-76.74 -29.85,-124.42 4.58,-56.78 31.67,-100.52 70.62,-137.71 28.64,-27.32 55.51,-44.76 89.55,-66.51l47.24 -31.67c13.04,-9.26 32.11,-23.87 41.76,-36.19 13.31,-17.06 19.71,-36.63 -2.04,-52.09 -4.19,-2.98 -12.27,-7.55 -18.85,-7.52 0.14,27.81 -17.42,39.55 -46.22,35.78 -36.3,-4.77 -57.28,-31.39 -96.03,-27.37 -13.84,1.43 -21.42,6.37 -28.25,13.42 -7.22,7.44 -9.92,19.98 -5.32,31.89 2.92,7.55 7.36,13.42 13.07,18.08l5.84 4.93c-33.24,-1.27 -39.31,-34.81 -24.72,-56.97 -3.94,-7.91 -12.98,-15.22 -0.36,-33.41 6.31,-9.1 17.94,-13.51 32.25,-15.3 56.15,-6.95 78.45,47.88 104.47,29.93 9.81,-6.75 10.17,-20.45 -9.98,-24.39 -15.3,-3 -26.08,0 -39.09,-7.8 -7.14,-4.3 -20.2,-14.8 -20.67,-26.32 9.56,8.96 19.98,-4.41 27.18,-10.31 11.69,-9.56 23.81,0.5 29.44,7.08 6.62,7.8 13.07,16.29 21.78,22.41 25.69,18.05 51.24,-5.71 18.36,-27.65 -15.6,-10.42 -60.78,-5.87 -56.09,-33.24 1.27,-7.58 3.8,-11.14 -0.39,-18.61 -4.02,-7.11 -6.17,-6.75 -10.61,-11.6 6.97,-9.48 25.61,-6.89 34.4,-2.45 20.89,10.53 35.12,41.29 49.78,42.23 12.18,0.77 23.87,-13.09 15.05,-24.5 -5.18,-6.7 -20.45,-11.47 -30.76,-15.24 -20.62,-7.52 -44.9,-16.84 -57.39,-34.56 -6.81,-9.67 -5.18,-27.81 -1.63,-39.31 7.28,5.21 12.95,15.1 20.01,18.72 1.57,-21 3.25,-42.14 31.09,-40.33 -7.28,7.88 -15.16,10.56 -17.53,23.59 -5.82,32.19 38.2,50.41 60.58,62.98 28.5,15.96 63.09,39.91 32.83,69.21 -6.45,6.26 -16.92,10.28 -26.82,14.86 8.96,6.89 23.26,11.71 36.41,23.02 48.02,41.35 41.84,84.76 5.15,129.3l-13.84 15.57c-9.18,10.83 -19.85,19.96 -30.15,29.63l-15.77 14.53c-2.95,2.32 -4.99,4.66 -7.88,6.86l-40.16 34.37c-3.5,2.76 -4.66,4.66 -8.82,7.25 3.72,-10.34 28.28,-34.56 38.12,-43.74 7.03,-6.56 13.59,-13.4 20.73,-19.98 7.28,-6.73 13.84,-12.93 20.4,-20.34 6.31,-7.11 13.2,-14 18.94,-21.75 5.4,-7.28 11,-15.9 15.19,-25.5 4.52,-10.42 7.28,-21.33 6.95,-33.79 -0.39,-14.42 -4.82,-20.89 -7.86,-33.02l-6.39 1.71c4.33,20.89 8.54,28.97 1.63,51.76 -7.99,26.27 -32.72,52.37 -52.76,70.15l-62.87 60.12c-16.54,18.25 -33.27,39.5 -45.09,62.24 -2.48,4.74 -2.37,6.78 -5.98,9.62 -12.57,9.81 -18.74,21.22 -17.97,43.38 -10.97,0.44 -13.67,-7.8 -12.57,-18.08 -18.91,4.41 -29.3,24.17 -22.68,41.57 2.67,7.11 6.26,9.23 8.79,14.22 -9.76,7.11 -15.77,25.88 -9.84,41.1 5.49,14.14 15.68,18.96 31.09,25.25 -5.51,5.54 -9.23,13.18 -9.79,24.42l18.69 4.52c-0.08,-6.7 0.44,-13.12 3,-18.66 1.3,-2.84 2.48,-4.47 4.13,-6.26 2.34,-2.59 3.47,-3 5.73,-5.21 -7.19,-4.82 -28.94,-2.98 -35.75,-26.38 -3.69,-12.71 0.44,-25.85 9.4,-34.45 2.87,-2.76 6.73,-4.16 8.71,-7.55 -7.41,-3.34 -19.43,-13.04 -18.8,-22.08 0.3,-4.52 3.06,-6.73 4.49,-9.59 8.21,4.02 8.19,10.39 24.83,6.48 2.56,-9.56 -3.78,-20.87 5.4,-33.35 7.17,-9.76 15.57,-11.69 31.12,-9.21 -0.77,0.85 -0.36,0.5 -1.52,1.35 -9.04,6.67 -14.86,8.08 -20.84,19.96 -14.42,28.69 3.31,69.1 60.97,59.56 29.36,-4.85 80.29,-25.17 103.61,6.37 8.32,11.27 6.92,21.28 2.89,34.4 -8.82,-7.69 -9.07,-16.21 -26.85,-18.61 -8.9,-1.21 -31.95,2.78 -38.78,6.39 10.34,5.13 30.04,-2.32 43.08,4.99 8.35,4.63 20.67,19.79 8.54,29.08 -6.62,-4.49 -7.94,-6.73 -16.4,-10.12 -25.44,-10.17 -42.37,0.55 -61.88,13.23 -11.52,7.47 -22.88,12.76 -38.31,16.32 -11.74,2.67 -24.48,3.75 -36.63,3.89 -3.34,0 -7.19,-0.69 -10.47,-0.06 -2.65,0.52 -1.32,-0.08 -2.84,1.27 6.56,4.19 24.94,6.39 34.18,6.04 13.48,-0.55 22.99,-3.83 35.09,-5.29 16.04,23.84 73.9,35.12 96.97,17.09 11.33,-8.85 10.06,-17.39 7.33,-33.35 5.76,-2.04 10.2,-5.82 13.86,-9.45 5.73,-5.73 5.62,-8.99 9.56,-14.5 7.91,5.07 9.04,16.79 3.94,26.98 -4.41,8.9 -11.69,13.07 -17.83,20.01 8.32,-0.47 15.02,-1.98 20.92,-5.73zm-139.88 93.41c54.3,-7.33 146.36,-13.81 199.78,4.88 20.34,7.11 29.71,15.24 40.9,31.92 18.38,27.45 25.25,83.93 22.6,122.96 -11.85,-9.92 -15.79,-13.73 -32.52,-20.09 -41.87,-15.93 -98.43,-17.61 -143.22,-16.12 -45.7,1.49 -96.42,8.43 -140.3,19.76 -14.39,3.72 -27.21,9.04 -40.46,12.84 -1.79,-32.08 1.82,-37.38 -7.47,-73.59 -2.78,-10.89 -6.09,-20.7 -9.87,-30.76 -2.32,-6.17 -11.74,-25.55 -12.24,-28.94 4.91,-2.15 23.15,-5.29 29.49,-6.59 31.62,-6.53 60.83,-11.91 93.3,-16.26zm-15.96 154.85c66.1,-14.25 155.18,-25.74 220.89,-8.6 17.45,4.55 31.2,9.7 43.27,18.41 11.41,8.24 12.87,23.81 -16.7,29.82l-56.86 4.77c-55.98,4.77 -111.03,12.84 -166.98,18.69 -32.77,3.39 -138.98,10.92 -144.49,-35.75 -2.12,-17.89 19.16,-30.04 27.98,-32.17 1.05,11.91 -0.96,21.91 -2.56,33.13 7.14,-1.93 14.94,-5.73 22.49,-8.41 22.88,-8.13 49.09,-14.77 72.96,-19.9zm421.06 -771.89c-3,-16.35 -5.26,-17.42 0.5,-19.13 12.24,-3.64 27.45,-9.07 40.68,-10.94l4.13 32.88 18.61 -1.43 -0.96 -34.43 42.83 -3.83 0.08 33.54 23.15 0.11 0.3 -33.1c14.5,-0.58 28.75,1.9 42.86,3.22l-0.94 34.56 17.97 1.32c2.51,-5.26 4.05,-25.22 4.69,-32.47 5.07,-0.39 39.86,9.7 44.16,12.07 -0.83,17.75 -22.85,112.98 -21.86,124.95l15.27 4.85 -5.13 23.21c-3.86,-0.41 -8.9,-2.54 -11.88,-3.17 -0.17,-0.03 -1.71,-0.22 -1.98,-0.22 -1.35,0 -1.16,0.06 -1.87,0.33l-1.76 8.1 14.99 4.85 -5.54 22.22c-2.56,3.78 -49.12,13.12 -51.93,13.59 -46.11,7.77 -102.4,4.11 -146.11,-11.66 -4.85,-1.76 -4.3,-5.29 -5.71,-10.75 -1.19,-4.63 -2.34,-8.93 -3.2,-13.67l14.5 -4.71c-0.08,-3.28 -0.55,-6.56 -2.04,-8.74l-14.72 3.94 -5.68 -23.57 15.99 -4.27c-0.58,-8.57 -12.98,-72.13 -15.6,-86.55 -1.27,-7.06 -2.54,-14.03 -3.8,-21.11zm63.59 205.29l42.25 -3.78 0 33.43 23.46 0.25 0 -33.1c7.75,-0.41 35.83,1.38 42.5,3.47l-0.5 34.29 17.92 1.38c2.56,-4.93 3.97,-25.69 4.77,-32.69 7.8,-0.41 34.92,9.7 44.18,11.77l-22.57 125.77 15.88 4.36 -5.07 23.21 -15.3 -3.78 -2.29 9.01 14.8 4.71c-0.55,4.52 -2.09,9.4 -3.06,13.29 -2.81,11.27 0.19,10.8 -31.34,18.08 -40.52,9.29 -77.7,11.3 -119.1,5.02 -14.08,-2.15 -41.1,-7.97 -52.54,-13.31 -2.7,-4.08 -5.32,-16.87 -5.95,-22.71l14.55 -5.37 -1.68 -8.54 -15.41 3.83 -5.71 -23.57 16.1 -4.11 -22.77 -125.72c13.51,-3.89 30.35,-10.31 44.29,-12.13l4.3 32.55 18.38 -1.05c0.74,-8.35 -2.01,-28.45 -0.11,-34.56zm126.27 276.13l4.13 -32.64c10.09,-0.28 33.6,9.7 44.38,11.66l-22.68 125.11 15.99 5.29 -5.29 22.99 -15.74 -3.94 -1.65 9.12 14.58 4.66 -5.35 23.32c-19.18,4.16 -25.58,8.46 -53.17,12.93 -39.8,6.45 -80.43,4.82 -119.35,-4.69 -8.05,-1.98 -18.19,-4.52 -25.69,-7.3 -4.41,-1.63 -2.92,-0.69 -5.46,-10.92 -1.05,-4.24 -2.59,-9.04 -3.03,-13.4l14.5 -4.77 -1.63 -8.77 -15.63 4.11 -5.24 -23.35 15.93 -4.52 -22.74 -125.66c13.75,-3.8 29.8,-10.17 44.43,-12.13l4.19 32.64 18.05 -1.16 -0.36 -34.54 42.78 -3.8 0.03 33.52 23.46 0.22 0 -33.1c7.64,-0.61 36.8,1.13 42.7,3.69l-0.72 34.01 18.58 1.41zm56.42 140.38c0.06,-9.48 -1.02,-40.93 0.74,-47.88l168.61 0c-0.61,3.94 -10.72,16.68 -13.09,19.4 -17.09,19.87 -31.56,30.65 -55.21,43.63 -24.2,13.23 -69.9,28.75 -101.27,32.77 0.06,-15.99 0.14,-31.97 0.22,-47.93zm25.19 71c34.7,-8.93 62.16,-19.74 92.31,-36.16 4.93,-2.67 9.04,-5.32 13.51,-8.16 4.27,-2.73 8.82,-6.56 13.12,-8.63 -14.69,28.78 -20.2,42.56 -26.46,76.52 -4.93,26.57 -10.97,68.36 1.24,91.48 -19.46,-0.83 -40.44,-3.64 -60.17,-5.15 -128.83,-9.98 -248.24,-9.76 -376.99,0 -19.85,1.49 -40.57,4.19 -60.25,5.18 16.7,-34.34 -0.22,-113.89 -15.41,-149.15 -2.48,-5.71 -7.17,-12.82 -8.74,-17.56l26.52 16.37c116.12,61.63 275.77,67.64 401.32,35.25zm-155.38 116.76c172.08,0.17 351.13,33.3 525.91,40.66 46.06,1.96 122.05,10.8 142.42,-42.17 -0.3,25.44 -10.72,69.82 -17.78,93.08 -6.89,22.66 -23.73,63.2 -37.62,73.93 -19.24,14.86 -64.72,18.27 -93.96,18.08 -63.7,-0.41 -230.27,-26.38 -303.23,-35.01 -126.71,-14.99 -302.89,-14.55 -429.69,0.06 -66.29,7.64 -132.75,17.64 -199.67,25.44 -33.3,3.89 -69.02,9.12 -102.73,9.48 -29.66,0.33 -75.33,-2.89 -95.31,-17.59 -22.19,-16.37 -42.92,-85.61 -49.01,-118.66 -2.29,-12.49 -7.08,-36.49 -6.78,-48.81 3.58,10.94 13.07,20.73 20.18,26.05 31.7,23.68 81.45,17.72 121.39,16.15 58.68,-2.32 117.2,-7.77 175.06,-13.67 116.18,-11.8 232.36,-27.15 350.83,-27.01zm129.52 -244.6l0.41 -94.76 193.96 -0.19c-0.74,17.61 -2.07,34.95 -5.07,52.07 -1.52,8.74 -8.19,39.77 -14.08,42.89l-175.22 0zm129.22 211.8c-1.93,-18.5 0.74,-50.19 3.69,-68.38 3.2,-19.68 9.26,-39.64 18.52,-54.13 9.76,-15.35 20.01,-24.81 40.66,-32.14 52.78,-18.8 146,-12.71 199.81,-5.15 21.03,2.98 41.95,6.12 62.73,10.17 9.12,1.79 55.57,10.5 60.67,12.76l-11.99 28.25c-13.62,35.64 -18.66,65.71 -17.45,104.85l-41.26 -12.82c-41.92,-11.08 -97.08,-18.3 -140.52,-19.63 -53.34,-1.65 -136.22,-0.25 -174.86,36.22zm10.75 25.55c-6.81,-7.52 -1.02,-16.12 4.36,-20.65 9.18,-7.72 28.31,-14.66 43.27,-18.38 38.31,-9.51 72.22,-10.58 113.04,-7.08 55.35,4.74 127.45,16.54 180.18,35.39 7.25,2.59 15.96,6.67 23.04,8.63 -1.52,-11.14 -3.78,-21.36 -2.54,-33.21 6.89,2.34 13.78,7.03 18.61,10.89 18.05,14.47 10.92,40.99 -21.66,51.6 -32.11,10.45 -78.23,9.15 -113.37,5.49 -56.31,-5.84 -110.42,-13.64 -167.03,-18.66 -20.15,-1.79 -65.74,-0.63 -77.89,-14zm-139.09 -446.39l0.5 -99.45 206.78 -0.41 -6.37 99.86 -200.91 0zm1.05 8.99l198.24 0 -6.15 95.65c-6.48,1.57 -181.2,0.52 -192.59,0.52l0.5 -96.17zm-454.03 105.1c21.39,0 188.12,-1.19 194.07,0.58l0.41 94.27 -176.71 0.11c-6.04,-18.72 -8.6,-18.55 -12.76,-43.38 -2.87,-17.09 -4.05,-33.88 -5.02,-51.57zm24.42 104.02l168.85 -0.11 0.69 95.87c-76.74,-12.98 -142.03,-45.53 -169.54,-95.76zm430.1 -326.9l0.5 -89.64 210.45 -0.06 -5.57 89.06c-5.79,1.96 -88.75,0.63 -102.23,0.63 -34.37,0 -68.74,0 -103.14,0zm209.65 273.57l25.03 -374.7c2.65,2.98 6.23,10.89 8.71,14.72 10.45,16.15 19.4,25.52 31.78,39.22l61.41 56.37c11.66,9.12 27.56,24.61 37.98,33.1 8.52,6.95 42.31,40.16 46.22,48.62 -14.61,0.77 -31.59,6.31 -35.53,21.8 2.67,2.4 3.28,2.98 6.09,4.74 9.54,-5.73 20.15,-12.05 33.13,-3.09 21.14,14.58 16.15,44.38 -5.87,58.05 -10.92,6.81 -25.58,7.06 -39.55,4.91 -26.9,-4.11 -53.67,-12.05 -81.84,-5.29 -25.41,6.09 -37.82,22.33 -42.12,49.7 -13.26,6.37 -20.62,12.57 -18.25,31.42 -0.25,0.14 -0.61,0 -0.74,0.3 -0.47,1.07 -0.72,0.3 -1.46,0.52 -0.72,0.19 -1.54,0.36 -2.21,0.5 -9.73,2.18 -12.02,7.44 -15.35,14.97 -1.57,3.56 -3.14,3.39 -7.44,4.13zm64 -45.31c-9.1,-27.21 5.07,-45.92 30.43,-50.3 28.83,-5.02 50.69,5.18 76.13,9.56 55.18,9.51 75.63,-28.75 61.16,-58.85 -5.68,-11.8 -11.82,-14.66 -22.66,-21.5 12.87,-5.15 24.53,0.44 30.49,7.75 8.52,10.42 5.04,20.67 5.79,33.96 9.48,4.19 17.94,-0.3 24.31,-6.01 13.26,11.47 -2.23,26.35 -13.48,31.51 1.74,3.2 5.65,4.71 8.35,7.17 9.18,8.27 13.29,21.39 9.9,34.12 -2.34,8.79 -7.06,14.25 -12.95,18.19 -8.13,5.4 -16.18,5.4 -22.71,8.96l5.68 5.13c5.62,7.08 6.89,15.71 6.95,25.03l18.55 -5.02c0.25,-11.82 -5.02,-18 -9.65,-24.06 15.27,-5.49 25.77,-11.69 31.12,-25.22 8.19,-20.65 -3.69,-32.3 -9.62,-42.2 18.14,-18.88 11.6,-48.51 -14.11,-54.6 0.99,10.47 -1.49,18.11 -12.57,18.16 0.22,-10.09 -0.11,-17.92 -3.83,-26.38 -2.89,-6.59 -8.85,-13.04 -13.59,-16.73 -4.58,-3.56 -8.46,-13.64 -11.44,-18.83 -9.26,-16.21 -20.84,-30.07 -32.41,-44.6 -11.11,-13.95 -55.93,-55.76 -70.2,-68.38 -20.31,-18.03 -43.8,-42.03 -52.98,-69.96 -7.52,-22.91 -2.78,-31.81 1.38,-52.48l-6.34 -1.87c-3.2,12.16 -7.5,17.81 -7.88,33.19 -0.99,40.96 34.07,76.38 61.88,101.9 7.28,6.7 13.97,13.67 21.17,20.4 6.89,6.45 14.28,13.09 20.18,20.53 3.09,3.89 6.39,7.03 9.59,11.19 2.76,3.58 6.45,7.99 8.35,11.99 -2.92,-2.26 -4.55,-3.86 -7.72,-6.56l-56.31 -48.57c-10.53,-8.38 -36.22,-33.74 -45.51,-44.54 -4.52,-5.26 -9.18,-11.08 -13.53,-16.79 -40.63,-53.25 -26.05,-101.43 28.09,-134.21 6.2,-3.75 13.01,-6.78 19.05,-10.69 -10.67,-5.43 -18.52,-7.41 -26.68,-14.94 -41.4,-38.2 32.66,-67.56 59.84,-83.82 16.9,-10.09 37.24,-26.05 33.49,-48.21 -2.23,-13.04 -12.4,-17.81 -17.56,-23.79 27.21,-1.21 28.67,16.9 31.12,40.24 8.05,-4.27 12.21,-13.59 19.98,-18.63 8.05,29.6 0.36,45.65 -26.27,59.67 -10.28,5.4 -20.37,9.67 -32.06,13.95 -10.06,3.69 -25.77,8.63 -31.09,14.91 -9.37,11.05 1.49,25.39 13.92,25.14 6.2,-0.11 12.54,-4.96 14.91,-7.77 1.96,-2.32 2.56,-3.39 5.02,-6.23 1.74,-2.01 3.86,-4.44 5.54,-6.62 9.37,-12.02 25.77,-27.01 43.19,-25.77 5.51,0.41 13.78,3.31 16.26,6.59 -4.82,4.96 -6.17,4 -10.2,11.08 -4.66,8.24 -2.56,10.28 -0.91,18.41 3.06,15.02 -8.79,20.81 -20.81,23.81 -11.19,2.84 -25.96,3.94 -34.62,9.7 -5.79,3.86 -21.2,15.46 -15.02,26.71 5.84,10.69 21.47,8.21 31.28,2.32 5.18,-3.11 8.6,-6.84 11.96,-10.61 3.75,-4.22 7.11,-7.61 10.58,-11.88 5.18,-6.42 17.89,-17.75 29.74,-8.24l12.02 10.53c5.71,4.33 10.86,4.16 15.68,0.03 -0.88,10.97 -12.95,21.91 -20.09,26.02 -17.89,10.31 -47.93,3.8 -54.74,15.68 -3.45,5.98 0.8,13.7 4.08,16.23 25.94,19.74 48.35,-35.75 104.77,-29.36 13.97,1.57 26.63,6.2 32.19,14.44 7.33,10.89 11.14,23.57 0.33,33.27 3.61,12.65 11.58,21.53 5.51,38.34 -4.19,11.66 -14.8,18.91 -30.21,19.68l5.35 -4.63c2.37,-1.82 3.47,-2.76 5.35,-5.04 29.82,-36.36 -7.08,-71.61 -60.75,-54.11 -21.64,7.03 -35.06,19.13 -59.81,22.71 -29.02,4.19 -47.11,-7.64 -47.08,-35.53 -5.37,-0.52 -14.97,4.71 -18.33,6.97 -21.06,14.14 -16.4,35.28 -3.28,51.63 30.26,37.6 110.58,78.14 151.24,110.56 2.54,2.04 5.26,4.08 7.11,5.87 16.48,15.96 31.17,27.26 45.84,46 26.6,34.1 41.95,64.25 45.78,111.25 3.8,46.75 -4,87.82 -30.26,124.12 -3.89,5.35 -7.69,9.48 -11.58,14.39 -3.56,4.52 -7.86,9.29 -14.08,11.91 0.99,-6.7 2.89,-6.95 1.3,-15.88 -1.38,-7.55 -0.91,-9.7 1.79,-15.57 -8.52,-6.42 -26.46,-6.42 -37.57,-3.56 -23.65,6.15 -36.25,21.8 -55.87,33.52 -13.34,7.94 -18.5,9.65 -36.69,8.6 3.34,3.5 9.73,5.13 14.39,6.2 41.18,9.62 55.21,-44.9 100.74,-41.84 0.74,4.88 1.43,19.32 -0.08,23.57 -3,8.43 -7.97,10.39 -11.25,15.71 18.38,-2.37 30.51,-5.35 49.45,-0.44 35.5,9.15 61.77,51.41 30.57,79.52 -3.34,3 -11.14,9.21 -16.9,10.45 4.66,-8.3 13.31,-18.99 11.08,-32.58 -1.96,-11.77 -11.49,-17.59 -22.22,-21.94 -20.37,-8.3 -56.28,-9.92 -80.15,-8.63 -27.26,1.49 -54.08,6.53 -81.39,7.14 -17.97,0.41 -66.35,-4 -72.74,-16.07 4.02,-6.7 18.77,-2.54 23.95,2.43 3.17,3 2.45,4.08 4.38,6.67 5.32,-5.54 6.31,-13.48 0.61,-18.5 -18.61,-16.43 -68.11,12.82 -109.87,-21.39 -4.47,-3.64 -9.56,-8.27 -12.29,-14.58 -3.47,-8.1 -1.68,-15.99 8.21,-15.82 5.98,12.05 14.69,20.18 31.31,22.79 -6.12,-5.98 -11.47,-10.56 -16.23,-18.83 -4.82,-8.38 -7.14,-19.82 3.36,-24.09 10.36,11.47 11.8,18.61 33.85,19.68 -6.64,-6.59 -12.38,-9.87 -17.53,-19.35 -5.24,-9.67 -4.27,-23.59 4,-27.76 4.24,12.24 11.96,18.74 23.07,24.2 -2.87,13.97 -3.06,24.78 6.31,32.58 16.95,14.06 52.09,10.42 71.72,2.18 10.92,-4.6 21.06,-11.49 26.24,-18.63 12.13,1.65 21.8,4.8 35.17,5.32 10.36,0.39 21.39,-1.1 31.04,-4.6 4.82,-1.71 1.93,0.28 2.92,-2.29 -12.38,-4.55 -42.67,7.58 -88.09,-20.51 -20.18,-12.46 -34.26,-23.43 -61.22,-13.56 -3.67,1.35 -6.04,2.62 -9.23,4.66 -3.64,2.34 -4.74,3.45 -7.72,5.9 -7.94,-6.06 -5.43,-16.68 0.88,-22.99 12.02,-12.05 22.74,-9.76 38.31,-9.84l11.82 -1.41c-0.66,-0.39 -0.41,-0.33 -2.09,-0.96l-7 -1.82c-15.68,-3.78 -31.42,-7.14 -45.29,2.95 -3.97,2.89 -5.9,6.2 -8.99,10.03 -0.99,1.27 -0.77,1.02 -1.76,1.96zm23.59 36.03c8.35,-26.24 54.08,-23.1 45.48,2.67 -8.82,26.46 -53.69,23.15 -45.48,-2.67zm-297.46 -362.96l0.14 -101.05 219.21 -0.33 -6.45 101.27 -212.9 0.11zm1.65 -110.36l0.06 -93.05c15.08,-1.79 95.23,5.15 114.83,7.14 36.66,3.72 71.25,8.82 106.81,14.86l-4.38 70.95 -217.31 0.11zm139.61 -215.74c-5.37,1.21 -40.3,-7.64 -49.53,-8.79l24.34 -188.23 82.86 13.29 -57.66 183.74zm-158.93 -22.49l-58.08 -3.17c-1.57,-5.9 4.66,-167.03 5.21,-188.07l66.62 2.62c0.72,9.48 -12.76,186.11 -13.75,188.62zm-173.43 -3.28l-58.16 3.53 -13.75 -188.73c8.27,-0.85 62.1,-3.72 66.21,-2.34l5.71 187.54zm102.76 -0.47c-24.37,0.47 -18.63,4 -18.66,-29.16 -0.03,-23.1 5.37,-60.56 -28.2,-60.61 -17.64,-0.03 -28.28,13.12 -28.28,31.31l-0.22 57.97 -15.57 0.52c-2.37,-61 -3.2,-122.71 -5.04,-183.88 -0.14,-5.02 -0.25,-10.06 -0.39,-15.08 -0.17,-6.34 0.88,-8.96 0.69,-14.66 -0.22,-6.64 -1.74,-25.3 -0.28,-30.46l11.8 -0.17c-1.79,5.95 0.11,28.45 0.3,36.33 4.99,1.3 20.48,0.39 26.63,0.36l0.91 -36.85 21.31 -0.03 1.02 36.19c3.78,1.27 23.1,1.02 26.49,-0.03l1.27 -35.14c3.67,-1.13 7.86,-1.27 11.6,-0.36 1.19,7.66 -0.52,22.41 -0.5,31.04 0.03,5.49 0.83,9.32 0.61,15.52l-2.07 75.83c-0.91,40.24 -1.68,81.17 -3.42,121.36zm87.73 -44.65c1.38,-16.76 2.51,-33.32 3.8,-50 1.24,-16.21 5.73,-89.11 7.75,-98.29l-18.44 -1.52 1.63 -45.29 21.78 1.49 -0.69 31.62c2.29,0.14 4.99,0.58 7.14,0.58 16.51,0 12.07,2.34 20.78,2.15l3.28 -30.71c4.27,-0.77 17.17,1.46 22.44,1.96l-2.34 31.26 23.93 3.64 4.58 -30.98 14.94 1.71c0.36,6.56 -24.42,191.37 -27.23,212.73l-2.92 23.02c-0.47,4.99 0.41,5.13 -3.42,5.07 -0.14,-0.17 -0.3,-0.69 -0.33,-0.55l0.74 -12.54c0.69,-4.96 1.38,-9.81 2.01,-14.55 1.3,-9.48 2.54,-18.66 3.91,-28.14 1.52,-10.58 1.3,-18.61 -4.05,-26.46 -7.19,-10.58 -21.61,-15.68 -34.73,-10.92 -11.19,4.11 -17.03,17.48 -18.91,29.63 -2.95,18.74 -5.49,38.12 -7.8,56.89 -6.59,-0.52 -16.15,-0.19 -21.39,-2.7 0.25,-15.41 2.32,-33.57 3.56,-49.09zm157.64 -174.31c0.14,-0.14 -0.11,-0.06 0,0zm26.35 49.34c-11.19,-2.34 -22.05,-4.3 -33.54,-6.37l6.37 -42.37c0.52,-0.33 0.74,-0.52 0.83,-0.61 0.08,0.06 0.36,0.08 1.16,-0.03l8.63 1.21 -2.32 31.45 29.27 4.96 4.88 -30.1 21.33 3.83 -5.6 31.09c4.19,2.4 23.26,6.34 28.69,6.45 1.43,-5.37 2.32,-10.25 3.5,-15.57l3.03 -13.42c1.1,-2.98 0.22,-0.74 0.91,-1.96 3.67,0.61 8.49,1.24 11,2.98l-31.81 154.27c-22.63,-2.34 -32.11,9.12 -36.47,27.78 -3.78,16.26 -9.7,35.94 -12.1,51.71l-22.96 -5.9 57.22 -191.57c-0.55,-0.22 -0.85,-0.61 -0.96,-0.44 -0.11,0.19 -0.47,-0.25 -0.61,-0.3 -0.47,-0.19 -1.43,-0.58 -1.96,-0.74l-28.5 -6.37zm-813.32 890.16l12.38 -6.62c2.32,2.89 1.32,8.54 8.57,16.21 3.09,3.28 9.12,8.79 14.61,10.67 -10.45,0.33 -24.78,-7.86 -32.06,-15.79 -0.61,-0.69 -3.14,-4.16 -3.5,-4.47zm24.01 -3.42c-6.73,-26.79 39.31,-26.43 46,-1.13 7.08,26.82 -39.5,26.87 -46,1.13zm960.15 -3.5l13.15 6.78c-4.11,7.77 -21.47,20.4 -35.64,20.45 10.23,-4.19 20.09,-14.22 22.49,-27.23zm-530.79 -57.44l0.58 34.81 -33.1 2.67 -4.27 -31.86 -28.78 7.94 21.64 119.35c25.33,-4.05 29.16,-7.17 61.47,-10.36 2.65,-10.75 -0.88,-36.8 0.8,-49.89 4.38,-34.45 47.52,-34.01 52.76,-1.43 1.98,12.29 1.07,36.63 1.35,50.3 3.97,1.57 26.27,3.39 32.88,4.52 6.04,1.05 27.98,6.39 31.39,6.12l21.58 -118.61 -28.89 -8.19 -4.02 31.84 -33.19 -2.43 0.69 -34.67 -27.04 -2.65 0 33.3 -39.06 -0.03 0 -32.88 -26.79 2.15zm65.79 -447.77l-38.81 0 -0.22 -32.91 -27.07 2.12c0.19,6.95 2.01,30.04 0.25,34.81l-32.77 2.65 -3.94 -31.42c-5.73,-0.06 -23.48,5.79 -28.75,7.77l21.58 119.1c20.7,-3.53 39.2,-8.99 61.94,-10.34 0,-26.63 -8.32,-75.85 26.85,-75.8 14.94,0 24.53,11.49 26.38,25.39 1.93,14.36 -1.07,36.6 1.6,49.95 11.19,0.85 22.11,2.15 32.83,4 9.43,1.63 22.41,5.51 30.62,6.31 2.01,-3.86 16.73,-91.01 20.62,-111.11l0.83 -5.82c-0.17,-1.65 -0.06,-1.07 -0.55,-2.09l-27.78 -8.08 -4.02 31.92 -32.36 -2.43c-0.11,-0.41 -0.25,-0.96 -0.28,-0.85l0.19 -33.96 -26.82 -2.54 -0.3 33.32zm-65.6 207.58l0.41 34.81 -33.38 2.7 -3.97 -31.37c-3.91,-0.85 -25.08,5.93 -28.58,7.99l21.42 118.85c20.62,-4.52 39.53,-8.57 61.77,-10.36 0.99,-15.57 -1.49,-35.58 0.5,-50.28 1.85,-13.62 11.11,-25.14 25.61,-25.5 35.39,-0.8 27.95,47.85 28.47,74.53 3.06,1.43 26.68,3.67 32.69,4.69 9.18,1.52 23.37,5.71 31.15,6.26l22 -118.66 -28.69 -8.3 -4.16 31.7 -33.38 -2.26 0.91 -34.7 -27.09 -2.65 0 33.38 -39.06 -0.03 0 -32.97 -26.6 2.15zm87.02 654.6l8.13 33.93 -20.45 -0.41 12.32 -33.52zm28.39 19.65c26.96,-1.24 27.29,37.62 23.87,41.9 -2.95,3.69 -10.09,2.62 -12.68,-0.63 -2.21,-2.73 -3.45,-8.93 -4.47,-12.87 -2.29,-8.96 -5.24,-19.51 -6.73,-28.39zm-1.1 -4.36c-1.02,-4.19 -9.95,-33.88 -8.52,-36.69 2.01,-3.97 14.53,-3.47 20.81,20.2 3.36,12.73 0.19,16.59 -12.29,16.48zm-37.9 -42.2c2.54,4.41 7.69,1.16 10.92,7 2.07,3.75 -1.07,9.32 -2.4,13.04l-18.14 50.99c-1.9,5.51 -3.78,14.42 -8.24,17.78 -3.14,2.4 -3.11,0.06 -2.81,4.52l20.12 0.25c1.6,-4.05 -1.24,-3.28 -3.34,-4.02 -2.89,-1.05 -1.68,-0.17 -4.22,-2.32 -1.05,-5.98 2.43,-16.84 5.1,-21.17l22.63 0.14c2.21,4.22 5.73,17.64 3.64,21.61 -1.79,2.62 0.41,0.88 -3.28,2.07 -4.58,1.49 -3.14,0.11 -4.13,2.34 0.94,1.52 -1.27,1.63 7.25,1.79 2.7,0.06 5.4,0.11 8.08,0.17 17.75,0.52 39.53,4.38 47.6,-6.34 5.68,-7.52 2.23,-21.06 -1.98,-28.09 -6.26,-10.42 -9.7,-9.98 -20.48,-15.79 5.65,-4.58 11.36,-4.38 11.33,-15.52 -0.03,-20.12 -18.91,-28.31 -38.29,-28.83 -12.9,-0.36 -7.39,-0.17 -11.47,-2.54l-3.03 1.57c-1.71,0.52 -2.84,0.41 -4.77,0.33 -1.49,-0.06 -3.94,-0.33 -5.32,-0.28 -1.1,0.03 -1.43,0 -2.51,0.3 -2.15,0.55 -1.07,0.14 -2.26,0.99zm-438.23 75.08c-0.96,-8.13 -8.57,-41.37 -5.65,-46.91 1.96,-3.72 9.84,-2.78 12.9,-0.17 5.65,4.82 7.72,17.92 8.57,27.12 1.21,13.48 -1.98,19.93 -15.82,19.96zm1.82 5.49c3.89,0.19 5.35,4.85 9.15,11 5.95,9.62 17.23,29.16 20.81,38.59 5.87,-0.5 15.82,-0.41 20.56,-2.62 0.08,-6.45 -0.55,-0.72 -4.33,-6.28 -1.41,-2.09 -2.62,-4.82 -3.67,-6.73 -6.48,-11.91 -19.54,-31.34 -22.91,-37.82 0.69,-0.83 0.25,-0.44 1.35,-1.38 0.19,-0.17 0.83,-0.61 1.02,-0.77 2.81,-2.04 3.86,-1.96 6.34,-6.64 6.28,-11.8 2.67,-31.26 -4.93,-39.58 -6.7,-7.33 -13.07,-8.74 -26.24,-7.88 -9.65,0.63 -22.44,0.99 -31.75,2.43 -0.47,7.77 4.93,0.63 8.27,8.99l8.32 45.18c1.87,10.28 3.86,20.29 5.71,30.54 5.54,31.09 -6.48,15.46 -5.79,25.8 3.72,0.94 30.32,-0.96 33.46,-2.4 0.19,-5.1 0.52,-2.98 -4.16,-4.44 -2.84,-0.88 -3.42,-1.24 -4.58,-4.05l-6.64 -41.92zm674.51 -21.22c0.8,-9.1 3.53,-19.4 4.82,-28.86 0.52,-3.86 0.11,-11.8 3.31,-13.92 5.62,-3.75 22.77,1.32 13.12,30.26 -3.58,10.78 -8.32,12.87 -21.25,12.51zm12.43 -48.35c-5.6,-0.3 -29.33,-3.31 -32.03,-0.63 0.88,6.84 10.5,-3.91 6.92,21.89l-11.22 67.23c-3.2,7.36 -7.8,0.74 -8.16,7.39 3.67,2.04 18.91,2.65 26.05,3.53l7.83 -0.08c-0.33,-4.13 0.74,-2.01 -3.75,-4.02 -6.42,-2.89 -4.69,-9.79 -3.53,-17.89 0.61,-4.22 2.04,-21.75 5.54,-24.23 3,1.65 3.2,6.5 4.69,12.16 3.78,14.44 9.48,28.83 11.52,36.8 5.04,0.39 17.64,2.78 20.67,1.49 -0.39,-5.73 -0.25,-0.55 -3.34,-5.62 -1.05,-1.71 -1.74,-4.19 -2.43,-6.2 -1.49,-4.33 -2.7,-8.16 -4.05,-12.38 -2.29,-7.19 -6.12,-19.35 -7,-26.63 4.69,-2.81 7.22,-1.98 11.27,-6.06 10.69,-10.75 13.89,-26.35 6.06,-36.99 -5.26,-7.17 -14.25,-9.15 -25.06,-9.73zm-443.58 17.45c-0.58,-9.54 -4.16,-22.91 7.17,-22.52 23.84,0.8 28.58,75.96 9.9,90.02 -2.4,1.79 -7.44,3.89 -10.92,2.48 -4.3,-1.74 -3.22,-8.13 -3.39,-12.24 -0.85,-19.24 -1.54,-38.62 -2.76,-57.75zm-26.9 -25c0.83,10.56 8.13,-8.68 9.56,21.55 0.47,9.87 1.13,19.74 1.68,29.66 0.55,9.59 1.24,19.27 1.68,28.91 0.22,4.24 0.96,10.92 -0.44,14.88 -0.94,2.65 -1.6,2.89 -3.75,4.02 -4.08,2.15 -3.42,-0.06 -3.42,4.38 3,1.19 39.06,-1.41 50.44,-10.45 21.94,-17.39 25.47,-70.29 -0.52,-89.77 -7.08,-5.29 -15.13,-6.23 -25.52,-5.57 -6.92,0.47 -24.83,-0.03 -29.71,2.37zm390.6 5.93c31.51,-8.74 16.46,85.58 -2.37,91.29 -11.08,3.34 -16.21,-6.5 -18.22,-15.1 -3.8,-16.26 1.85,-70.95 20.59,-76.19zm-4.27 -4.3c-31.26,7.39 -46.66,60.17 -25.44,87.73 5.24,6.81 17.14,15.63 31.64,12.82 25.03,-4.88 47.44,-60.06 25.19,-88.89 -5.37,-6.97 -17.2,-15.02 -31.39,-11.66zm-530.73 60.61c-2.43,-4.52 -3.31,-18.52 -4.02,-24.83 -0.88,-7.94 -4.16,-18.74 4,-21.03 3.25,-0.91 8.88,-0.85 12.29,-0.08 14.14,3.17 12.95,20.73 17.34,24.61l-0.99 -32.33c-8.24,-0.06 -35.25,2.81 -46.55,3.83 -2.67,0.25 -5.35,0.39 -8.02,0.61 -0.72,0.06 -3.11,0.3 -3.64,0.44 -2.89,0.83 -0.74,-0.3 -2.45,1.21l0.17 2.59c6.2,2.32 7.77,-0.06 9.34,7.58l10.45 74.23c3.97,31.12 -6.78,12.93 -6.75,25.33l58.52 -6.75c1.3,-4.6 2.98,-30.98 1.24,-33.77 -4.52,0.77 -1.85,1.68 -4.77,11.36 -4.55,15.1 -18.52,24.67 -27.56,19.71 -5.24,-3.83 -4.05,-16.46 -4.85,-22.96 -1.02,-8.19 -2.51,-16.01 -3.34,-24.26 8.99,0.19 12.05,2.04 15.24,8.16 4.52,8.65 3,13.81 6.15,15.41 1.27,-1.65 0.28,0.69 0.72,-1.9 0.5,-2.73 -4.3,-35.2 -5.04,-41.1 -1.32,-10.5 0.03,-10.97 -3.69,-11.85 -3.31,10.17 3.53,23.84 -13.75,25.8zm64.91 -41.54c-1.27,-15.88 12.18,-11.47 15.74,-3.09 1.76,4.19 9.32,34.51 -4.63,40.44 -8.41,3.56 -7.55,0.55 -8.19,-6.17 -0.99,-10.31 -2.07,-20.81 -2.92,-31.17zm-16.43 94.79l1.41 0.47c3.89,0.66 30.18,-3.22 31.95,-3.91 0.63,-11.11 -7.75,7.36 -9.79,-19.85 -0.63,-8.79 -2.29,-18.19 -2.59,-26.71 4.58,-2.07 38.81,-0.25 31.45,-39.5 -4.91,-26.32 -24.17,-21.64 -49.92,-19.51 -3,0.25 -17.03,-0.06 -11.66,4.47 4.11,3.47 6.26,-1.68 8.38,9.87l8.32 82.66c-0.88,10.97 -6.92,5.15 -7.55,12.02zm679.49 -35.34c10.25,6.48 9.29,-1.54 5.02,23.1 -1.63,9.37 -2.73,20.62 -15.66,15.82 -7.52,-2.78 -11.3,-12.95 -11.3,-22.52 0,-20.34 11,-63.18 24.48,-75.03 8.57,-7.55 16.76,-0.88 21.09,5.02 7.69,10.56 5.54,21.42 7.66,25.5 2.87,-0.88 1.52,1.32 2.89,-3.53 1.79,-6.26 5.51,-27.89 4.49,-33.38 -3.45,0.17 -3.94,3.69 -5.43,6.48 -8.52,0.33 -13.86,-11.36 -29.99,-8.05 -9.98,2.04 -18.11,10.75 -22.44,16.65 -32.94,44.96 -21.89,101.79 21.94,94.18 26.54,-4.6 12.84,-18.08 22.35,-35.72 4.55,-8.43 9.9,-0.08 10.2,-8.52 -4.16,-1.1 -14.75,-1.54 -19.65,-1.96 -14.64,-1.24 -14.8,-3.17 -15.66,1.96zm127.56 -25.47c-2.89,-12.51 -7.41,-22 -10.83,-33.08l-22.22 -0.06c0.06,5.71 2.98,2.26 6.42,12.95 1.93,5.93 -16.12,61.08 -18.66,71.11 -2.04,8.13 -2.34,17.09 -8.24,19.4 -4.88,1.96 -4.36,-1.24 -4.47,4.24 4.19,2.26 17.01,2.07 22.63,2.12 0.14,-5.57 1.13,-2.98 -3.06,-5.13 -1.74,-0.91 -2.34,-0.72 -3.67,-3.22 -1.82,-3.5 -1.07,-8.05 -0.19,-11.82l18.83 -65.08c3.25,5.68 10.25,51.85 16.43,70.65 1.38,4.19 4.8,18.5 9.15,19.07 0.88,-1.41 4.99,-26.3 6.09,-30.71 4.41,-17.64 12.43,-37.54 17.75,-56.53 1.27,-4.49 2.56,-11.16 4.11,-14.88 3.61,-8.71 8.1,-0.77 8.63,-9.67l-22.63 -0.96c-0.14,7.08 1.43,2.37 5.35,6.95 1.9,2.23 2.43,5.49 2.29,8.68 -0.33,8.35 -13.31,48.81 -16.37,53.2 -1.85,-3.94 -5.68,-30.18 -7.33,-37.24zm42.72 -28.83c0.66,6.56 8.02,-0.58 7.64,11.19 -0.17,4.82 -2.18,10.56 -3.5,15.02 -5.49,18.52 -13.31,37.4 -18.47,55.84 -2.01,7.19 -3.03,17.01 -8.08,19.57 -4.52,2.32 -4.69,-0.19 -5.62,4.38 0.22,0.14 0.58,0.03 0.74,0.33l15.41 -0.14c5.35,-0.44 10.64,-1.02 15.79,-1.74 10.25,-1.43 20.07,-3.94 29.71,-5.26 0.91,-5.32 2.48,-11.33 4.38,-16.21 2.04,-5.26 5.07,-10.28 6.59,-14.75 -3.97,0.5 -3.31,0.83 -5.15,4.11 -1.19,2.09 -2.26,3.72 -3.67,5.82 -4.63,6.84 -11.49,15.16 -19.18,18.94 -4.58,2.26 -10.17,3.86 -15.99,2.54 -3.8,-5.21 1.05,-17.03 2.98,-23.15 1.9,-6.01 5.21,-17.09 8.05,-22.22 19.21,-1.68 7.08,17.92 9.56,22.6 3.06,-1.24 3.91,-6.81 5.95,-12.4 1.6,-4.47 3.28,-8.77 4.99,-13.15l8.38 -22.82c0.25,-0.94 0.3,-0.96 0.28,-1.82 -0.08,-2.34 0.58,0.03 -0.44,-1.49 -5.57,1.71 -5.95,22.52 -26.57,23.54 0.36,-3.64 5.13,-14.83 6.56,-19.43 1.19,-3.8 4.66,-19.51 6.01,-21.58 3.45,-5.21 16.9,-3.06 21.53,0.36 5.76,4.24 5.1,13.23 4.27,21.64 3.69,0.06 3.03,-0.83 4.13,-4.47 0.8,-2.7 1.57,-5.32 2.26,-8.13 1.21,-4.88 2.51,-11.36 2.07,-16.48l-57.97 -2.18c-5.4,0.94 -0.61,0 -2.65,1.54zm-1093.77 48.76c-9.34,-12.51 -30.35,-39.58 -36.77,-52.12l-22.52 -0.83c0.28,5.07 1.19,3.17 4.22,6.59 7.3,8.32 6.7,11.58 9.34,22.6 2.73,11.25 17.59,62.02 15.44,68.63 -1.46,4.47 -4.63,2.23 -6.86,4.6 -3.03,3.25 2.62,3.61 5.04,3.89 3.94,0.47 15.27,2.59 18,1.3 -1.05,-7.61 -7.86,0.17 -11.52,-16.32 -3.78,-16.84 -15.57,-57.3 -16.37,-66.32 14.61,17.28 45.09,58.3 57.69,77.92 4,6.23 4.55,9.9 8.3,10.78 3.45,-6.67 -13.97,-77.34 -15.79,-86 -5.98,-28.34 3.89,-17.03 4.77,-25.19 -1.41,-1.24 -1.41,-1.43 -5.49,-1.46l-17.12 1.46c0.94,5.15 -1.1,1.54 3,3.61 3.11,1.57 5.15,2.21 7.5,8.93l12.6 54.82c-3.89,-3.86 -9.7,-11.91 -13.45,-16.9zm445.12 -274.53c1.68,1.1 2.15,1.21 4.52,1.87 1.71,0.5 3.14,0.8 4.8,1.21 3.34,0.85 6.34,1.63 9.79,2.45 6.7,1.57 13.48,2.76 20.45,3.83 14.77,2.29 29.93,3.42 45.18,3.34 19.05,-0.08 70.26,-5.13 84.01,-12.71l-4.6 -1.96c-25,-6.78 -54.49,-10.97 -80.26,-10.8 -17.64,0.11 -72.08,5.76 -83.88,12.76zm170.07 -478.89c-30.6,-6.75 -52.21,-12.57 -86.19,-12.46 -28.22,0.08 -59.79,5.07 -85.09,12.68 21.2,8.52 60.92,12.87 85.94,12.79 19.82,-0.08 69.52,-5.1 85.34,-13.01zm-170.95 238.4c0.19,0.14 0.47,0.28 0.61,0.36 14.28,7.47 65.13,12.68 83.27,12.71 22.57,0.06 45.48,-2.59 67.28,-7.52l18.88 -5.46c-16.43,-7.72 -64.61,-12.57 -85.28,-12.49 -31.95,0.14 -56.04,5.65 -84.76,12.4zm-425.33 463.12c-0.14,4.74 2.07,25.11 3.53,29.58 1.6,4.91 -0.63,1.76 2.43,2.92 3.78,-4.85 -5.9,-26.65 17.36,-28.36l15.41 81.09c5.79,28.64 -6.37,14.83 -6.81,23.93 0.22,0.11 0.55,0 0.66,0.25 0.11,0.28 0.5,0.22 0.66,0.25 3.56,0.72 21.09,-0.28 25.83,-0.36 1.32,-0.03 3.11,0.03 4.41,-0.06l4.41 -0.96c-0.36,-4.85 0.61,-2.51 -4.13,-3.8 -2.59,-0.72 -3.8,-1.24 -5.02,-3.64 -1.38,-2.7 -2.32,-9.81 -2.95,-13.34 -1.6,-9.21 -3.47,-18.38 -5.4,-27.4 -3.14,-14.58 -9.9,-42.23 -9.73,-56.75 14.61,0.3 17.89,8.93 22.22,22.74 1.24,3.97 0.19,3.11 3.14,3.97 0.11,-0.19 0.22,-0.77 0.25,-0.63 0,0.03 0.94,0.22 -0.33,-6.37l-2.84 -25.72 -63.09 2.67zm404.71 -749.15l1.87 10.42c7.25,-1.07 29.96,-8.35 48.48,-11.41 45.62,-7.55 90.74,-6.37 135.58,4.88 8.24,2.04 16.1,4.74 24.12,6.62l2.29 -10.58c-26.02,-10.83 -76.87,-16.73 -106.12,-16.59 -19.24,0.08 -37.79,1.79 -56.34,4.8 -10.8,1.74 -41.98,7.69 -49.89,11.88zm-0.17 237.93l2.09 10.94c7.25,-1.16 29.85,-8.3 48.15,-11.44 18.08,-3.09 36.44,-4.74 55.29,-4.77 43.85,-0.06 64.55,5.84 104.52,16.26l2.45 -10.78c-55.04,-16.65 -104.22,-20.84 -162.02,-11.69 -23.54,3.75 -32.69,7.88 -50.5,11.47zm1.93 251.08c7.28,-1.1 16.73,-4.66 24.31,-6.45 62.76,-14.99 122.49,-12.71 183.74,6.56l2.51 -10.78c-16.62,-4.52 -31.42,-8.99 -49.72,-11.96 -38.34,-6.28 -74.95,-5.9 -113.2,0.41 -21.42,3.56 -35.39,8.71 -49.86,11.36l2.23 10.86zm20.81 261.66c1.57,3.78 10.5,31.92 10.12,34.7l-19.74 0.85 9.62 -35.56zm-27.4 71.91l16.35 -1.05c4.47,-0.52 3.06,0.44 4.33,-2.01 -1.43,-3.61 1.57,-0.58 -7.39,-3.2 -2.45,-7.11 0.85,-16.73 3.17,-24.09l23.43 -1.38c1.46,7.77 7.8,20.12 2.7,23.79 -4,2.84 -5.6,-0.61 -6.17,4.02 1.41,1.3 0.14,1.46 7.61,0.85 2.92,-0.25 5.71,-0.47 8.68,-0.61 3.72,-0.22 14.25,-0.22 16.84,-1.98 -0.94,-5.9 -3.69,-0.83 -7.22,-9.48l-25.52 -83.3c-1.3,-4.52 -1.07,-4.6 -3.22,-5.49 -2.51,1.35 -0.55,-0.69 -1.98,2.4 -0.11,0.25 -0.85,2.78 -0.99,3.34l-24.31 87.96c-3.89,9.59 -6.2,3.86 -6.28,10.23zm23.68 -572.91l2.26 11.22c5.26,-0.58 26.79,-5.9 39.8,-7.69 48.04,-6.59 83.68,-2.15 129.85,7.86l2.34 -11.05c-39.11,-12.93 -90.88,-14.77 -133.08,-8.82 -14.64,2.09 -27.48,5.84 -41.18,8.49zm2.09 251.35c6.26,-0.69 13.78,-3.09 20.29,-4.36 21.78,-4.3 42.59,-6.37 64.99,-6.31 43.5,0.11 48.7,5.02 84.65,10.8l1.87 -10.83c-14.44,-7.69 -67.78,-12.38 -87.38,-12.35 -18.72,0.06 -71.89,4.99 -86.49,12.4l2.07 10.64zm-2.07 -489.83l2.15 11.3 39.2 -7.58c31.26,-4.36 58.99,-4.08 90.22,-0.06 14.44,1.85 27.01,5.49 40.46,7.8l2.09 -10.58c-8.41,-7.47 -70.18,-12.65 -85.89,-12.71 -43.66,-0.17 -51.85,5.43 -88.23,11.82zm571.31 735.94c-1.74,-0.72 -32.97,-3.5 -36.71,-1.74 0.74,5.57 0.06,1.74 5.4,4.47 2.43,1.24 2.95,3.31 3.09,5.84 0.3,4.24 -1.76,11.55 -2.78,15.77 -4.6,19.49 -10.78,37.65 -15.33,57.19 -1.05,4.49 -1.93,10.67 -3.36,14.77 -3.28,9.51 -9.67,-0.06 -9.34,8.82 3.75,1.49 29.36,3.58 34.7,3.56 0.3,-5.84 0.8,-2.98 -4.36,-5.15 -6.84,-2.89 -2.73,-14.94 -0.99,-21.94 2.48,-9.98 5.32,-19.4 8.13,-29.02l11.66 -44.46c3.78,-8.77 10.23,0.03 9.9,-8.1zm-714.53 -18.5c-0.14,7.77 5.07,0.85 8.68,7.17 1.63,2.87 1.68,10.78 1.96,14.53 0.72,10.17 1.6,20.23 2.48,30.43 0.61,7.08 4.33,40.16 1.65,45.81 -0.99,2.09 -1.96,2.48 -4.3,3.47 -4.52,1.9 -3.58,-0.11 -3.58,5.1l27.92 -3.22c5.13,-0.55 7.3,0.66 7.69,-3.78 -0.19,-0.14 -0.52,-0.5 -0.63,-0.3l-5.62 -1.35c-4.96,-1.98 -4.24,-13.62 -4.55,-18.3l-4.02 -59.29c-1.87,-27.07 8.99,-12.82 9.34,-22.44l-37.02 2.18zm591.71 12.46c0.08,-2.48 -0.14,-2.07 -7.72,-2.48l-29.27 -1.65c0.36,11 12.51,-5.51 7.3,23.73l-14.17 69.52c-3.06,7.69 -8.08,1.21 -9.21,7.39 2.21,3.09 19.32,3.56 26.93,4.6 9.07,1.21 6.75,0.74 8.13,-0.28 -0.5,-6.62 -6.84,-0.77 -8.35,-8.9 -1.35,-7.06 5.79,-35.34 7.52,-42.72l8.96 -42.81c3.11,-6.81 9.79,-2.43 9.87,-6.39zm-954.41 9.48l-0.19 -3 -37.57 -3.91c0.33,6.73 5.46,1.98 9.29,8.74l18.77 67.53c1.38,5.13 5.93,18.22 1.38,21.17 -3.5,2.26 -4.36,-0.77 -6.53,2.54 1.16,3.58 4.58,3.14 8.63,3.94l28.31 5.49c-0.14,-4.96 0.58,-3.36 -4.36,-5.1 -7.06,-2.43 -6.5,-8.32 -8.68,-18.03 -4.08,-18.05 -10.53,-37.49 -15.16,-56.56 -6.48,-26.57 -1.35,-19.02 6.12,-22.79zm213.53 -886.5l0.19 -0.17 -2.23 -34.65 29.69 -2.76 -5.51 -29.93 14.39 -2.65 -5.57 -28.56 -13.34 2.34 -9.04 -39.97 12.46 -2.65 -52.07 -255.51c18.61,-6.12 42.97,-10.92 62.51,-15.16 19.65,-4.24 44.93,-10.42 64.75,-12.57 -0.03,1.02 7.22,56.06 10.12,61.36l20.51 -1.79c1.49,-7.08 -4.24,-51.93 -4.93,-63.29 7.17,-4.33 124.31,-16.79 139.42,-16.46 1.96,4.11 5.37,54.08 6.09,63.07l44.35 -1.9 0.17 -64.11c44.02,-2.26 88.97,-1.65 132.72,0 3.03,13.37 -3.28,52.29 0.19,63.56l43.05 2.59 6.01 -63.34c17.2,0.5 132.77,12.1 141.04,16.59 -0.03,10.89 -6.67,56.7 -4.74,62.32l21.09 2.45 8.49 -61.03c20.81,2.37 44.35,8.27 64.77,12.57 14.88,3.11 52.32,13.31 62.24,14.69l-52.01 255.98 12.46 2.67 -8.65 41.59 -13.78 -2.81 -5.46 27.29 14.31 2.84 -5.54 29.71 29.85 2.92 -2.18 32.8 0.06 -0.03 0.06 -1.57c18.8,-34.7 100.39,-45.67 119.46,-77.54 6.2,-10.36 6.59,-22.93 -0.22,-32.88 -12.57,-18.38 -23.57,-3.86 -27.81,-1.13l-10.47 -4.08c4.55,-14.69 22.63,-22.71 42.09,-17.5 17.53,4.66 25.08,16.73 33.77,28.47 11.25,-4.74 9.32,-10.42 14.97,-14.91 0.19,2.87 3.91,13.15 4.96,17.78 5.4,23.87 0.55,38.64 -11.88,56.73 13.48,1.93 29.88,3.86 39.77,13.92 -25.91,7.88 -23.54,20.95 -22.6,35.28 0.52,8.24 -0.91,11.14 -5.18,15.41 2.48,2.51 5.95,4.93 8.19,8.3 2.56,3.89 3.53,7.06 6.97,10.34 9.59,9.04 16.21,2.51 16.23,-10.25 7.14,1.13 11.8,6.42 13.12,12.95 1.87,9.15 -1.76,14.97 -3.69,22.38 27.62,-2.26 63.42,0.39 71.91,30.04 2.01,7 1.35,14.91 -1.65,21.75 -0.96,2.15 -2.98,4.88 -3.45,6.12 -1.79,4.74 15.96,28.8 -3.2,53.64 -8.19,10.64 -28.17,22.99 -50.22,19.49l-3.5 -16.26c13.45,-0.41 24.28,-5.1 29.47,-12.57 12.6,-18.19 4.66,-58.79 -65.93,-32.5 -23.02,8.6 -52.78,30.51 -79.44,18.33 -15.96,-7.3 -20.07,-20.65 -27.21,-36.6 -10.25,6.97 -13.95,20.2 -5.95,34.1 12.51,21.72 63.42,50.83 84.18,65.77 10.06,7.25 19.1,13.53 28.64,20.78 9.7,7.36 19.51,14.5 28.14,22.13l19.63 16.79c13.07,11.93 25.72,24.61 37.1,38.23 30.62,36.66 54.11,76.24 60.25,126.49 6.15,50.33 -8.1,94.52 -38.86,132l-11.44 14.2c30.35,4.24 77.18,32.55 74.61,62.73 -1.54,18.27 -17.72,33.96 -27.81,40.79 -14.33,9.76 -47.38,14.55 -68.85,14.69l-2.51 7.75c-4.3,14.17 -12.16,50.72 -9.95,65.99 17.23,9.95 45.87,24.64 52.67,43.55 2.43,6.73 -0.03,20.78 -1.05,28.14 -6.73,47.63 -20.65,106.67 -46.72,146 -27.65,41.76 -111.14,37.46 -156.42,33.24 -78.36,-7.28 -155.84,-16.84 -233.85,-25.5 -79.93,-8.9 -161.66,-16.65 -243.28,-16.51 -160.06,0.28 -319.46,27.51 -477.15,41.92 -44.27,4.05 -128.75,8.49 -156.7,-32 -26.02,-37.71 -40.6,-100 -47.24,-146.25 -3.78,-26.24 -5.32,-28.61 12.46,-46.69 6.86,-7 28.28,-21.58 39.36,-25.55 -0.66,-25.83 -4.82,-50.06 -12.57,-73.46 -21,0.22 -55.21,-5.9 -69.07,-15.24 -10.34,-6.95 -26.21,-22.38 -27.84,-40.88 -2.7,-30.6 44.29,-58.05 74.61,-62.79 -1.1,-2.04 -0.08,-0.3 -1.19,-1.71l-4.33 -5.29c-2.34,-2.7 -3.47,-3.91 -5.54,-6.56 -11.3,-14.61 -20.89,-29.08 -28.39,-46.86 -11.3,-26.71 -15.02,-53.94 -10.89,-85.61 5.4,-41.21 21.2,-74.06 43.52,-105.38 41.4,-58.02 101.71,-99.06 159.62,-139.33 19.35,-13.45 41.51,-24.75 54.55,-45.09 13.59,-21.22 -3.42,-29.52 -4.71,-34.43 -2.26,1.49 -2.45,3.75 -3.75,7.08 -22.96,60.01 -76.85,21.22 -103.17,11.3 -18.44,-6.92 -53.06,-16.65 -65.63,0.03 -13.95,18.52 -3.56,43.61 28.64,44.74l-3.75 16.46c-38.97,4.41 -67.2,-26.65 -56.92,-61 1.24,-4.08 5.04,-9.4 3.36,-12.84 -2.37,-4.91 -3.8,-5.32 -5.32,-11.93 -3.2,-14.17 5.04,-27.65 15.16,-35.42 14.22,-10.86 36.6,-12.07 57.19,-9.95 -1.05,-7.28 -5.65,-11.41 -3.83,-21.8 1.27,-7.28 6.09,-12.24 13.07,-13.64 0.44,4.93 0.41,10.12 3.72,12.68 4.11,3.2 9.79,0.3 12.46,-1.87 2.95,-2.37 4.58,-6.59 6.95,-10.34 3.17,-4.99 4.3,-4.85 8.46,-8.65 -11.11,-12.46 -0.96,-19.18 -5.37,-33.27 -2.48,-7.97 -13.4,-14.97 -22.41,-17.5 4.16,-4.71 11.47,-7.58 17.36,-9.76 8.79,-3.25 13.51,-2.51 22.41,-4.33 -6.45,-7.17 -12.71,-19.74 -13.7,-33.35 -1.27,-17.17 3.09,-26.71 6.92,-40.88l3.03 4.47c2.92,5.02 6.15,8.05 11.82,10.28 29,-44.6 68.22,-32.66 75.88,-10.92l-11.3 4.36c-12.95,-23.02 -44.05,7.39 -27.21,33.71 10.36,16.18 29.6,25.58 51.21,35.47 20.56,9.45 58.54,28.97 67.45,44.85l-0.14 0.72zm1308.93 -581.26l2986.42 0 0 1758.16 -2986.42 0 0 -1758.16z"/>
   <g>
    <path class="fil0" d="M5793.1 659.26c-42.5,47.3 -90.38,32.61 -141.65,-21.47 45.07,-19.29 62.95,-65.79 94.43,-98.7l-70.81 -62.24c12.95,-8.21 72.96,-8.57 130.9,-19.29 50.77,-71.11 117.12,-140.38 178.12,-208.16 54.96,-61.11 104.52,-121.72 152.34,-169.52 15.02,-6.45 2.15,-15.02 6.45,-23.62 4.27,-4.3 15.3,-11.41 21.44,-12.87 9.95,-2.37 21.14,-0.69 32.19,-2.15 22.55,-29.69 36.66,-37.18 38.62,-12.87l38.64 -8.57 2.15 23.59 -4.3 12.87 8.57 21.47 -122.3 349.78c49.34,27.89 66.51,40.77 62.21,57.94 -2.12,6.42 -4.27,12.87 -12.87,17.17 -17.14,4.27 -55.79,-8.6 -79.38,2.12l-77.26 261.83 0 107.28c-17.36,33.38 -53.94,19.07 -96.55,-15.02 -12.18,-11.41 -22.41,-26.74 -30.04,-47.22 0,-4.27 0,-8.57 8.57,-8.57 1.32,-6.89 2.51,-32.66 3.5,-39.66 2.7,-18.66 3.91,-18.88 0.8,-37.6 -10.72,23.62 -2.32,55.84 -17.17,68.69 6.45,-27.89 3.58,-51.82 7.86,-73.29 2.87,-10.42 15.74,2.45 15.74,-6.12 6.64,-11.96 8.71,-24.31 12.87,-38.62l6.45 -6.45c8.6,-12.87 0,-25.74 0,-30.04 0,-4.3 17.17,-8.57 21.47,-17.17 0,-8.57 -4.3,-8.57 -8.6,-12.87 0,-17.17 8.57,-17.17 12.87,-25.74l6.45 -10.72 21.44 -60.09c-40.77,-6.45 -75.8,7.14 -113.73,10.72l-109.43 135.2zm263.95 -341.21l-83.71 113.73 68.69 -4.27 53 -151.32 -5.82 1.1 -4.27 21.47 -4.3 -0.69 0 9.26 -4.3 0 -2.15 -10.72 -17.14 21.44z"/>
    <path class="fil0" d="M5645.88 590.6c9.12,-48.59 -7.99,-77.48 -47.99,-89.14 -17.14,24.01 -277.62,216.95 -329.14,199.81 -90.1,-51.52 92.56,-360.94 246.86,-494.65 14.94,-3.2 2.07,13.95 -1.16,18.14 -1.07,12.98 -1.07,21.58 1.16,36.71 36.41,36.36 62.16,49.23 109.7,34.29 76.9,-105.24 16.98,-159.12 -52.87,-185.67 -47.68,-9.01 -95.07,-12.51 -143.05,-3.47 -18.91,9.62 -38.12,22.19 -51.05,44.1 -77.98,72.85 -140.13,164.53 -193.33,252.45 -17.89,49.28 -26.38,77.4 -53.14,123.43 -1.38,9.87 -1.57,24.83 -3.06,34.26 -1.24,-0.5 -3.8,-0.22 -4.52,-0.94 -1.21,-2.34 -1.24,-6.04 -2.34,-9.65l-3.83 0.19c-0.39,2.18 0.36,6.7 -0.36,9.37 -2.04,0.99 -5.26,0.55 -7.33,2.73 -0.14,9.73 -2.09,24.81 -2.73,37.32 -0.06,0.99 9.45,-0.47 9.43,0.52 0,0.11 -0.39,-34.65 0.47,-34.54 0.36,0.06 3.58,-0.19 6.06,0.63 0.72,7.83 -1.05,36.08 -1.79,36.14 -3.28,0.22 -10.45,0.41 -14.2,0.44 -0.08,13.67 1.46,30.13 7.19,47.33 30.87,58.27 106.62,114.77 181.31,132.17l82.28 -6.84c108.52,-43.77 197.46,-105.65 267.42,-185.14z"/>
    <path class="fil0" d="M6153.99 755.65l-20.23 1.85c43.63,-107.25 83.49,-214.53 114.97,-321.8l11.22 -9.95 8.32 -18.44 -10.2 -6.78 32.52 -93.3c3.72,-8.96 -1.13,-14.47 -9.9,-16.98 -27.29,-9.65 -34.84,-24.01 -16.9,-44.38l-0.06 -9.34c-4.16,-0.99 -7.83,-1.85 -7.94,-4.3 -0.19,-4.8 -0.08,-5.51 0,-11.93 8.82,-5.21 16.46,-9.59 22.05,-13.86 -0.41,-7.55 -0.99,-10.78 -0.41,-17.83 11.14,-9.98 28.31,-20.07 54.16,-34.07 2.92,-20.04 17.06,-29.41 45.23,-25.44 98.15,-53.42 218.69,-42.7 244.6,16.95 54.36,34.26 109.37,86.27 62.68,189.88 -216.57,335.09 -383.13,369.21 -412.93,439.53l-69.82 30.82 0.06 -46.75c-1.65,-1.76 -3.31,-1.76 -4.96,0.14 -8.1,48.37 -22,49.09 -20.65,15.08l-21.17 -0.14 -0.66 -18.94zm200.25 -192.34c-9.54,7.99 -16.43,10.78 -22.88,31.89 -5.21,3.36 -7.3,2.12 -7.58,-3.56l117.28 -382.88c21.22,-33.43 126.85,-32.36 148.26,-9.15 16.54,41.87 -21.28,101.85 -64.91,181.53 -22.44,27.12 -44.87,49.92 -74.89,74.86 -9.1,15.99 -14.69,33.82 -26.85,48.04 -26.96,16.51 -48.54,55.79 -68.44,59.26z"/>
    <path class="fil0" d="M6701.67 659.26c-42.48,47.3 -90.35,32.61 -141.62,-21.47 45.07,-19.29 62.95,-65.79 94.43,-98.7l-70.81 -62.24c12.95,-8.21 72.96,-8.57 130.9,-19.29 50.77,-71.11 117.12,-140.38 178.09,-208.16 54.96,-61.11 104.55,-121.72 152.37,-169.52 15.02,-6.45 2.15,-15.02 6.42,-23.62 4.3,-4.3 15.33,-11.41 21.47,-12.87 9.95,-2.37 21.14,-0.69 32.19,-2.15 22.55,-29.69 36.63,-37.18 38.62,-12.87l38.64 -8.57 2.12 23.59 -4.27 12.87 8.57 21.47 -122.3 349.78c49.34,27.89 66.51,40.77 62.21,57.94 -2.15,6.42 -4.27,12.87 -12.87,17.17 -17.17,4.27 -55.79,-8.6 -79.38,2.12l-77.26 261.83 0 107.28c-17.36,33.38 -53.94,19.07 -96.58,-15.02 -12.16,-11.41 -22.38,-26.74 -30.04,-47.22 0,-4.27 0,-8.57 8.6,-8.57 1.32,-6.89 2.51,-32.66 3.5,-39.66 2.7,-18.66 3.91,-18.88 0.8,-37.6 -10.75,23.62 -2.32,55.84 -17.17,68.69 6.42,-27.89 3.58,-51.82 7.86,-73.29 2.87,-10.42 15.74,2.45 15.74,-6.12 6.64,-11.96 8.71,-24.31 12.87,-38.62l6.45 -6.45c8.57,-12.87 0,-25.74 0,-30.04 0,-4.3 17.17,-8.57 21.44,-17.17 0,-8.57 -4.27,-8.57 -8.57,-12.87 0,-17.17 8.57,-17.17 12.87,-25.74l6.45 -10.72 21.44 -60.09c-40.77,-6.45 -75.83,7.14 -113.73,10.72l-109.45 135.2zm263.95 -341.21l-83.68 113.73 68.69 -4.27 53 -151.32 -5.82 1.1 -4.3 21.47 -4.27 -0.69 0 9.26 -4.3 0 -2.15 -10.72 -17.17 21.44z"/>
    <path class="fil0" d="M7537.87 234.18c-13.23,-32.77 -51.19,-51.74 -113.09,-38.48 -14.14,192.81 -42.7,280.13 -49.81,406.18 -4.08,44.76 -8.41,85.53 0.28,130.62 16.7,37.76 49.7,57.41 92.06,71.55 12.71,1.35 18.25,-5.29 26.21,-18.19 4.41,-19.18 4.71,-35.86 11.27,-53.14 105.29,-213.92 230.24,-451.74 375,-606.42 5.73,-7.83 8.46,-17.78 2.76,-22.41 -25.14,-19.57 -49.97,-41.87 -66.87,-61.74 -7,-4.6 -15.96,-0.96 -21.47,6.17 -38.7,38.26 -58.49,91.79 -103.72,146.91 -69.76,88.34 -118.11,188.2 -177.15,282.31 -5.29,-59.98 32.69,-184.15 24.53,-243.36zm-156.31 360.7l1.43 -35.8 4.41 -0.03 2.07 -52.07 6.2 -0.58 0.72 -18.99 5.68 0.88 -2.09 19.63 -6.26 0.85 -0.66 46.11 -4.05 0.25 -1.43 41.73 -6.01 -1.98z"/>
    <path class="fil0" d="M7841.2 236.69c0.5,7.5 5.13,10.78 6.23,11.38 20.09,11.33 54.24,17.59 51.3,28.75 -23.9,44.35 -40.44,84.54 -57.88,134.43 -19.68,14.94 -46.17,11.69 -54.08,23.29 0.66,9.32 24.31,16.98 31.53,31.64 -12.93,46.14 -35.72,88.26 -47.11,139.33 -16.15,6.31 -24.09,19.21 -25.14,37.6 -3.69,11.71 -9.65,19.65 -11.11,35.14 26.46,8.02 52.51,52.62 101.98,53.83 39.75,7.58 200.22,-142.7 339.47,-140.3 13.7,-1.6 4.22,-26.05 0,-37.13l0.28 -16.15c12.98,-12.87 16.95,-26.35 4.96,-43.8 -6.89,-1.57 -19.85,0.36 -23.87,-0.74 -54.52,12.46 -170.07,45.56 -259.04,87.02l36.33 -84.37c80.21,-20.84 161.36,-39.14 241.35,-50.06l6.15 -3.61 -5.15 -7.17 -8.82 -5.9 0.96 -11.77c4.91,-3.91 10.5,-6.92 14.72,-11.77l-0.88 -39.53c-0.99,-5.54 -5.37,-9.65 -12.84,-12.49 -63.75,4.99 -126.9,11.19 -189.44,24.06 12.13,-43.11 33.68,-75.58 49.15,-120.2 39.55,-20.04 133.02,-26.6 260.97,-24.53 10.97,-6.53 15.6,-15.77 16.7,-26.49 12.1,-4.58 22.02,-9.29 27.21,-15.49 1.19,-6.48 1.3,-13.53 -0.19,-19.1 -6.45,-7.88 -16.51,-15.08 -33.46,-22.44 -149.31,0.47 -290.44,7.03 -444.6,19.6 -12.65,2.32 -14.33,2.07 -15.82,5.51 0.3,1.93 7.66,7.03 15.35,14.06 -5.13,6.48 -14.14,7.11 -20.34,9.87 -4.91,3.31 -3.5,8.77 0.66,11.47 6.59,2.62 4.69,5.62 5.13,10.25l-0.63 15.79z"/>
    <path class="fil0" d="M8296.72 282.14l-22.63 -1.41c-9.37,-0.91 -3.72,-8.41 3.34,-16.23 91.12,-38.34 130.93,-75.5 264.5,-116.48 69.43,-29.11 107.08,-49.31 167.72,-63.42 22.05,9.29 39.69,32.03 56.28,47.35l1.05 25.96c-2.7,2.23 -7.06,2.84 -8.13,6.7 1.65,6.34 5.24,14.61 13.45,21.66 2.59,7.36 1.05,15.74 1.19,22.3 -93.88,92.59 -186.77,197.05 -279,309.18 80.43,-22.99 162.05,-31.56 244.63,-28.86 12.46,2.43 21.47,11.05 22.88,22.85 -5.18,6.75 -13.01,11.05 -22.96,18.33l2.29 5.43c10.61,4.52 18.5,9.34 24.31,14.39l0.8 9.7 -6.67 17.83 -5.51 7.69 -1.65 10.89c2.26,1.63 5.87,1.05 7.61,2.95 2.48,11.38 9.48,23.46 6.95,36.96 -6.67,10.53 -15.82,15.49 -27.43,14.77 -22.24,-6.86 -47.6,-21.66 -76.19,-27.73 -269.16,15.05 -277.12,42.17 -329.47,72.24l-34.1 10.23c-36.38,22.35 -85.25,68.85 -109.15,67.06 -58.32,-6.04 -61.6,-47.27 -76.13,-67.23 -1.79,-3.58 -1.68,-6.95 1.79,-9.87 67.61,-36.91 102.92,-76.52 159.34,-114.88l4.69 9.04c84.37,-100.39 173.93,-199.59 267.61,-293l-3.72 -9.43 -15.77 16.68 -2.78 -3.5c13.34,-14.97 25.63,-31.59 41.01,-44.49 -75.99,30.35 -132.5,72.99 -194.98,134.15 -63.37,7.99 -89.94,-47.24 -84.43,-65.38l-19.71 -1.93c-1.35,-20.09 19.29,-27.01 28.97,-40.52z"/>
    <path class="fil0" d="M5774.44 1789.06l-24.89 -0.55c-3.45,-2.18 -5.6,-5.46 -4.33,-11.58l137.54 -404.6 6.28 3.03c-11.36,40.52 -23.18,79.85 -30.15,120.4l5.26 1.02c21,-114.97 70.62,-231.89 110.42,-350.5 -58.74,70.12 -125.28,188.26 -179.16,220.67 -34.04,6.28 -65.13,6.84 -99.2,0.06 -37.68,-17.48 -75.03,-43.14 -110.12,-100.55 -25.96,96.44 -47.96,191.04 -65.44,284.07 -5.82,9.62 -20.15,11.27 -25.08,15.88 -13.15,20.26 -16.32,42.75 -44.27,48.4 -2.56,0.22 -4.16,-0.55 -4.85,-2.23l2.37 -22.13 -12.82 -2.51c-5.26,-3.2 -6.39,-5.57 -6.5,-8.3 2.73,-8.74 4.77,-14.77 2.56,-26.41 -2.51,9.18 -10.36,14.61 -19.13,19.1 -12.35,8.16 -26.02,3.97 -35.31,-3.78 -0.61,-7.41 0.55,-14.83 4.3,-20.48 18.91,-34.7 59.1,-242.97 89.8,-369.3 4.27,-12.46 16.7,-26.57 25.41,-28.03l-1.87 16.32 4.55 0.83c21.91,-44.63 13.95,-91.65 15.33,-137.46 3.31,-8.49 9.73,-12.43 17.17,-14.5 26.74,-4.33 52.92,-5.4 79.66,-1.57 15.41,5.43 26.02,15.63 32.3,30.18l64.14 254.96c20.89,-32.94 53.31,-65.52 74.09,-88.75 82.97,-105.84 163.31,-204.49 263.23,-303.39 68.36,-9.45 100.44,9.32 116.98,39.31 -38.86,87.27 -116.07,358.68 -191.98,535.26l-86.41 289.14 -13.45 7.75c-30.46,17.59 -46.36,-9.87 -69.21,-10.34 -9.92,4.91 -16.21,19.87 -27.23,20.59z"/>
    <path class="fil0" d="M6146.68 1112.96c0.5,7.5 5.13,10.78 6.23,11.38 20.09,11.33 54.27,17.59 51.32,28.75 -23.93,44.32 -40.46,84.54 -57.91,134.4 -19.65,14.97 -46.17,11.71 -54.08,23.29 0.66,9.34 24.31,17.01 31.53,31.67 -12.93,46.14 -35.72,88.26 -47.11,139.33 -16.15,6.31 -24.09,19.18 -25.14,37.57 -3.69,11.74 -9.65,19.68 -11.08,35.17 26.43,8.02 52.51,52.62 101.96,53.83 39.75,7.58 200.25,-142.7 339.5,-140.33 13.67,-1.57 4.19,-26.02 0,-37.1l0.25 -16.15c13.01,-12.9 16.95,-26.35 4.96,-43.83 -6.86,-1.57 -19.82,0.39 -23.87,-0.72 -54.52,12.46 -170.07,45.56 -259.01,87.02l36.3 -84.4c80.21,-20.81 161.36,-39.11 241.37,-50.03l6.12 -3.64 -5.15 -7.17 -8.82 -5.87 0.96 -11.77c4.91,-3.94 10.53,-6.95 14.72,-11.8l-0.88 -39.5c-0.99,-5.54 -5.37,-9.65 -12.84,-12.49 -63.75,4.99 -126.87,11.16 -189.42,24.06 12.1,-43.11 33.65,-75.61 49.12,-120.23 39.55,-20.04 133.02,-26.6 260.97,-24.53 10.97,-6.5 15.6,-15.74 16.7,-26.49 12.1,-4.58 22.02,-9.26 27.21,-15.46 1.19,-6.48 1.3,-13.53 -0.19,-19.1 -6.42,-7.88 -16.51,-15.08 -33.46,-22.46 -149.31,0.5 -290.44,7.06 -444.57,19.63 -12.68,2.32 -14.36,2.07 -15.85,5.49 0.3,1.96 7.66,7.03 15.35,14.06 -5.13,6.5 -14.11,7.11 -20.34,9.9 -4.91,3.31 -3.5,8.74 0.66,11.44 6.62,2.65 4.69,5.65 5.13,10.28l-0.63 15.79z"/>
    <path class="fil0" d="M6807.49 968l-84.21 -1.52c-0.74,12.07 -1.3,20.12 -4.22,28.86 -158.79,416.37 -249.73,540.88 -257.61,603.23 -2.18,16.62 -5.46,27.54 -2.95,39.97 26.27,23.76 49.12,45.56 96.33,53.72 24.2,0.41 36.22,-11.85 50,-27.48 87.62,-89.88 197.22,-142.7 294.52,-139.42 16.12,-8.54 17.92,-19.65 15.33,-24.5 -5.51,-15.49 -14.66,-25.5 -26.05,-32.17l0 -41.54c1.32,-1.52 4.85,-1.52 6.17,-3.91 -0.11,-5.65 -0.63,-6.45 -4.63,-9.65 -132,6.31 -177.51,48.65 -248.04,79.6 53.09,-114.61 106.97,-217.5 155.62,-342.34 15.79,-47.19 52.73,-103.83 49.56,-139.97 3.2,-19.79 -11.93,-33.46 -39.83,-42.89zm-253.64 435.89l-0.39 13.2 4.02 -0.08 0.99 -11.77 6.56 -0.63 0.06 -13.78 7.17 -0.22 0.58 -13.56 4.74 -0.83 0.25 -16.04 -5.43 -0.17 0.19 15.44 -5.07 -0.06 0.06 13.31 -7.08 0.61 -0.39 13.75 -6.26 0.83z"/>
    <path class="fil0" d="M7169.2 1270.92l76.32 -212.46c2.18,-16.32 5.18,-83.05 -108.93,-77.95l-86.91 248.29 9.37 -0.25 0.77 -9.1 4.13 -0.08 -0.06 9.15 -5.65 0.06 -0.3 18.05 -7.17 0.08 -0.47 16.29 -5.82 0.22 -1.24 16.7 -7.22 0.36 -0.39 8.05 -4.69 0.03 0.39 -8.88 6.37 0 1.32 -16.32 6.01 -0.06 0.55 -16.51 7.3 0.06 0.3 -13.07 -5.21 -0.08 -26.82 61.52 -124.26 7c-12.87,4.44 -14.91,11.33 -5.82,20.73 32.44,42.97 59.51,58.46 86.3,66.07 3.45,2.92 2.01,7.77 -0.66,12.57l-34.51 81.15 6.09 -0.33 0.28 -9.1 8.41 -0.17 0.44 -12.38 4.33 0.3 -0.11 12.4 -7.44 0.55 -0.63 12.4 -4.49 0.3 -1.3 19.6 -5.1 0.17 0.11 -10.72 -4.6 0 -0.52 12.9 4.69 -0.19 -0.25 21.11 -5.26 0.17 0.58 -17.2 -6.06 0.52 -18.66 48.76 -0.83 7.77 7.33 -0.03 -0.06 -5.35 5.4 -0.28 -0.19 6.2 -5.15 -0.06 -0.22 6.59 -7.61 -0.11c-2.18,29.13 -2.81,59.34 -1.16,88.92l61.99 49.56c15.93,0.39 34.12,-0.8 40.3,-13.31 13.51,-103.34 62.27,-182.5 93.25,-279.58 13.18,-34.48 32.55,-51.13 58.27,-49.5 33.02,-1.02 63.07,-6.59 93.14,-10.56 -19.16,33.52 -33.82,58.46 -42.09,104.91 -5.57,50.61 -30.26,95.34 -28.09,157.91l-5.1 -0.22 -0.03 -25.44 -5.37 -0.17 -0.85 25.77c4.02,29.55 12.13,51.35 22.77,68.33 17.61,13.78 30.51,8.68 47.63,18.25 20.67,6.01 34.65,2.45 38.15,-15.99 11.77,-81.7 33.68,-124.78 50.52,-187.18 16.35,-40.22 34.7,-79.22 49.01,-120.67 15.68,-30.98 47.19,-39.88 27.34,-53.17 -4.11,-3.28 0.83,-9.62 2.73,-14.31 26.24,-64.64 53.86,-123.82 78.72,-193.94l60.34 -139.22c2.62,-9.65 3.17,-16.43 -0.52,-24.75 -10.61,-27.29 -24.97,-41.32 -52.84,-53.94 -13.84,-3.72 -27.23,-3.75 -40.22,-0.5 -11.47,3.86 -19.38,7.69 -25.03,16.26 -3.8,7.88 -5.51,17.67 -6.53,32.36 -2.12,10.47 -15.57,18.55 -20.81,31.59 -0.8,10.14 0.41,20.56 5.68,31.45l-112.93 243.39c-4.13,9.84 -9.18,13.89 -14.94,13.42l-115.52 -5.15z"/>
    <g>
     <path class="fil0" d="M7459.81 1541.87c-0.17,0.85 -2.18,1.3 -4.96,1.74 -1.24,18.08 0.52,53.42 6.15,60.53 25.58,25.36 73.43,46.64 103.75,52.84 23.95,3.09 50.96,3.78 75.52,-9.32 140.74,-93.08 281.95,-433.6 241.68,-629.08 -27.01,-78.94 -143,-93.47 -225.94,-42.89l-34.65 17.61 -1.82 -14.64 -8.77 0.28c-26.6,37.1 -30.79,65.05 -63.62,111.27 -2.4,5.9 3.06,11.96 3.2,18.85 -2.26,4.38 -9.54,7.5 -14.33,11.25 -27.59,59.32 -63.18,186.33 -72.96,249.89l6.26 -0.36 0.69 -11.44 6.56 -1.19 1.82 -16.81 5.13 -0.55 0.08 -14.53 7.44 -1.05 -0.17 -19.16 5.95 -0.55 1.6 -19.46 7.22 -0.74 0.74 -20.51 5.32 -0.33 0.94 -10.86 3.64 0.11 -0.3 10.58 -4.27 0.17 -0.63 21 -5.43 -0.17 -0.72 19.98 -0.33 20.51 -4.33 0.3 -2.4 32.61 -7.06 0.17 -0.69 29.82 -6.5 -0.61 -0.03 24.59 -8.21 1.07 -16.29 88.4 -2.89 14.33c-5.46,2.98 -6.73,7.97 -4.33,13.45 0.55,1.76 6.06,7.8 7.94,12.87zm117.78 54.05c132.58,-126.79 271.25,-485.45 195.07,-582.94 -46.94,-6.26 -101.96,157.44 -156.62,302.48 -25.47,59.98 -59.67,194.24 -38.45,280.46z"/>
     <polygon class="fil0" points="7475.13,1382.23 7472.13,1382.17 7471.69,1394.57 7477.01,1394.96 7477.25,1384.38 7481.17,1384.24 7481.8,1358.74 7489.66,1358.16 7489.9,1342.12 7483.68,1341.98 7481.8,1358.74 7475.21,1358.96 "/>
    </g>
    <path class="fil0" d="M7822.35 1579.14c-5.76,-6.28 -19.18,6.92 -20.31,-7.33l96.28 -262.02 -14.2 -11.88c-16.87,-11.36 -15.27,-14.22 2.84,-16.48 8.63,-1.76 19.46,-5.76 29.05,-13.34l56.09 -142.86c7.06,-19.35 1.07,-33.82 -16.92,-43.74 -8.77,-5.18 -9.4,-10.83 -1.41,-16.92 7.14,-4.91 17.39,-7.69 21.44,-14.75l-25.69 -0.77 -0.47 -15.38 -6.62 -0.85 0.3 -5.1c46.53,-20.78 62.9,-30.1 133.3,-37.05 16.54,-0.06 53.2,-10.61 78.34,-15.08 82.61,-15.3 162.65,-21.39 214.06,-18.22 126.63,20.87 205.49,124.81 119.9,227.1 -100.25,93.14 -231.86,95.53 -346.97,132.58 35.94,96.58 199.95,231.53 315.93,334.29 2.62,11.99 -2.34,16.87 -16.92,12.71l-23.07 -18.52c-3.39,13.42 -1.07,23.37 5.73,38.34 3.25,11.08 -0.19,11.03 -10.09,3.83l-49.61 -29.16c-2.12,7.28 6.67,20.81 4.24,25.03 -3.31,3.97 -9.07,-0.72 -13.67,-2.48l-16.62 -13.23c-4.6,-0.25 -6.23,2.95 -5.6,8.68l8.43 8.63c2.92,6.56 0.19,10.36 -5.32,8.46 -124.04,-78.56 -241.98,-176.16 -320.15,-342.17 -40.68,86.91 -75.17,175.77 -104.3,271.91 -10.36,2.62 -23.1,3.83 -35.36,-0.63 -19.68,-14.53 -35.94,-28.25 -52.65,-43.58zm369.46 -393.17c-3.09,0.77 -4.44,5.4 -4.6,12.62 -51.02,-2.07 -76.38,14.91 -114.58,22.35l34.21 -104.02c31.73,-31.15 231.73,-95.23 278.47,-25.77 15.44,35.36 -129,63.2 -193.5,94.82zm-339.03 253.56l-0.5 17.72 4.63 0 0.39 -17.28 7.8 0 0.25 -16.84 6.37 -0.14 0.47 -16.76 5.9 -0.03 0.44 -17.72 5.87 0.11 0.47 -16.15 6.34 0.03 0.5 -14.61 -4.58 -0.03 -0.19 13.78 -6.5 0.03 -0.3 16.37 -5.87 0.19 -0.72 16.92 -5.68 0 -0.55 17.06 -6.42 0.5 -0.3 16.48 -7.8 0.36z"/>
   </g>
  </g>
 </g>
</svg>
