<?xml version="1.0" encoding="UTF-8"?>
<!DOCTYPE svg PUBLIC "-//W3C//DTD SVG 1.1//EN" "http://www.w3.org/Graphics/SVG/1.1/DTD/svg11.dtd">
<!-- Creator: CorelDRAW -->
<svg xmlns="http://www.w3.org/2000/svg" xml:space="preserve" width="380.493mm" height="87.533mm" version="1.1" style="shape-rendering:geometricPrecision; text-rendering:geometricPrecision; image-rendering:optimizeQuality; fill-rule:evenodd; clip-rule:evenodd"
viewBox="0 0 26458.17 6086.74"
 xmlns:xlink="http://www.w3.org/1999/xlink"
 xmlns:xodm="http://www.corel.com/coreldraw/odm/2003">
 <defs>
  <style type="text/css">
   <![CDATA[
    .fil0 {fill:#FEFEFE}
    .fil1 {fill:#FEFEFE;fill-rule:nonzero}
   ]]>
  </style>
 </defs>
 <g id="Camada_x0020_1">
  <metadata id="CorelCorpID_0Corel-Layer"/>
  <g id="_2111216886928">
   <path class="fil0" d="M16096.56 0l10361.61 0 0 6086.74 -10361.61 0 0 -6086.74zm1077.62 5514.96c-5.04,0 -7.5,-2.48 -7.5,-7.42l0 -489.78c0,-4.95 2.46,-7.43 7.38,-7.43l178.67 0c24.12,0 46.02,3.59 65.71,10.76 19.69,7.17 36.42,17.31 50.21,30.42 13.78,13.11 24.49,28.94 32.11,47.49 7.64,18.55 11.45,39.21 11.45,61.97 0,22.75 -3.81,43.41 -11.45,61.96 -7.62,18.55 -18.2,34.38 -31.99,47.49 -13.78,13.11 -30.4,23.25 -50.08,30.42 -19.57,7.18 -41.48,10.76 -65.59,10.76l-115.54 0c-2.96,0 -4.44,1.48 -4.44,4.45l0 191.46c0,4.94 -2.45,7.42 -7.51,7.42l-51.44 0zm175.23 -264.93c30.89,0 54.89,-7.91 72.11,-23.75 17.11,-15.83 25.72,-37.6 25.72,-65.3 0,-27.71 -8.62,-49.48 -25.72,-65.31 -17.22,-15.83 -41.22,-23.75 -72.11,-23.75l-111.85 0c-2.96,0 -4.44,1.49 -4.44,4.45l0 169.2c0,2.97 1.48,4.45 4.44,4.45l111.85 0zm1059.25 264.93c-4.55,0 -7.75,-2.48 -9.72,-7.42l-100.04 -206.3 -110.38 0c-2.96,0 -4.44,1.48 -4.44,4.45l0 201.85c0,4.94 -2.45,7.42 -7.5,7.42l-51.44 0c-5.04,0 -7.5,-2.48 -7.5,-7.42l0 -489.78c0,-4.95 2.46,-7.43 7.38,-7.43l182 0c23.75,0 45.16,3.46 64.36,10.39 19.32,6.93 35.81,16.7 49.59,29.32 13.91,12.61 24.61,27.95 32.24,46.01 7.63,18.05 11.45,37.97 11.45,59.74 0,34.14 -8.87,63.08 -26.58,86.82 -17.72,23.75 -41.84,40.57 -72.35,50.46l107.06 212.98c1.47,2.48 1.72,4.58 0.74,6.31 -0.99,1.73 -2.71,2.6 -5.17,2.6l-59.68 0zm-103.12 -275.32c29.41,0 52.17,-7.3 68.41,-21.89 16.13,-14.6 24.25,-35.26 24.25,-61.96 0,-26.72 -8.12,-47.38 -24.25,-61.97 -16.24,-14.59 -39,-21.89 -68.41,-21.89l-117.02 0c-2.96,0 -4.44,1.49 -4.44,4.45l0 158.81c0,2.96 1.48,4.45 4.44,4.45l117.02 0zm781.51 -221.88c0,-4.95 2.47,-7.43 7.51,-7.43l302.59 0c4.92,0 7.38,2.48 7.38,7.43l0 46.75c0,4.94 -2.46,7.42 -7.38,7.42l-239.21 0c-2.96,0 -4.43,1.49 -4.43,4.45l0 148.42c0,2.97 1.47,4.46 4.43,4.46l203.04 0c4.92,0 7.38,2.48 7.38,7.42l0 46.75c0,4.95 -2.47,7.43 -7.38,7.43l-203.04 0c-2.96,0 -4.43,1.48 -4.43,4.45l0 153.61c0,2.97 1.47,4.45 4.43,4.45l239.21 0c4.92,0 7.38,2.48 7.38,7.42l0 46.76c0,4.94 -2.46,7.42 -7.38,7.42l-302.59 0c-5.04,0 -7.51,-2.48 -7.51,-7.42l0 -489.78zm929.55 0c0,-4.95 2.46,-7.43 7.51,-7.43l302.59 0c4.92,0 7.38,2.48 7.38,7.43l0 46.75c0,4.94 -2.46,7.42 -7.38,7.42l-239.21 0c-2.96,0 -4.44,1.49 -4.44,4.45l0 153.62c0,2.96 1.48,4.45 4.44,4.45l203.04 0c4.92,0 7.38,2.48 7.38,7.42l0 46.75c0,4.95 -2.46,7.43 -7.38,7.43l-203.04 0c-2.96,0 -4.44,1.48 -4.44,4.45l0 207.05c0,4.94 -2.45,7.42 -7.5,7.42l-51.44 0c-5.05,0 -7.51,-2.48 -7.51,-7.42l0 -489.78zm924.38 0c0,-4.95 2.46,-7.43 7.5,-7.43l302.6 0c4.92,0 7.38,2.48 7.38,7.43l0 46.75c0,4.94 -2.46,7.42 -7.38,7.42l-239.21 0c-2.96,0 -4.44,1.49 -4.44,4.45l0 148.42c0,2.97 1.48,4.46 4.44,4.46l203.03 0c4.92,0 7.38,2.48 7.38,7.42l0 46.75c0,4.95 -2.46,7.43 -7.38,7.43l-203.03 0c-2.96,0 -4.44,1.48 -4.44,4.45l0 153.61c0,2.97 1.48,4.45 4.44,4.45l239.21 0c4.92,0 7.38,2.48 7.38,7.42l0 46.76c0,4.94 -2.46,7.42 -7.38,7.42l-302.6 0c-5.04,0 -7.5,-2.48 -7.5,-7.42l0 -489.78zm929.55 0c0,-4.95 2.46,-7.43 7.5,-7.43l51.44 0c5.06,0 7.51,2.48 7.51,7.43l0 489.78c0,4.94 -2.45,7.42 -7.51,7.42l-51.44 0c-5.04,0 -7.5,-2.48 -7.5,-7.42l0 -489.78zm814.5 497.2c-5.04,0 -7.5,-2.48 -7.5,-7.42l0 -431.16c0,-2.96 -1.47,-4.45 -4.43,-4.45l-137.33 0c-4.92,0 -7.38,-2.48 -7.38,-7.42l0 -46.75c0,-4.95 2.46,-7.43 7.38,-7.43l349.96 0c4.93,0 7.39,2.48 7.39,7.43l0 46.75c0,4.94 -2.46,7.42 -7.39,7.42l-137.33 0c-2.94,0 -4.42,1.49 -4.42,4.45l0 431.16c0,4.94 -2.47,7.42 -7.51,7.42l-51.44 0zm974.1 8.16c-55.75,0 -99.43,-15.71 -130.93,-47.12 -31.62,-31.42 -47.38,-77.05 -47.38,-136.92l0 -321.32c0,-4.95 2.46,-7.43 7.51,-7.43l51.44 0c5.04,0 7.5,2.48 7.5,7.43l0 320.58c0,41.06 10.21,71.86 30.52,92.39 20.42,20.53 47.49,30.8 81.34,30.8 33.35,0 60.17,-10.26 80.6,-30.8 20.3,-20.53 30.51,-51.32 30.51,-92.39l0 -320.58c0,-4.95 2.47,-7.43 7.51,-7.43l51.44 0c5.04,0 7.51,2.48 7.51,7.43l0 321.32c0,59.86 -15.76,105.5 -47.38,136.92 -31.49,31.42 -74.94,47.12 -130.19,47.12zm1102.07 -8.16c-4.55,0 -7.75,-2.48 -9.72,-7.42l-100.04 -206.3 -110.38 0c-2.96,0 -4.44,1.48 -4.44,4.45l0 201.85c0,4.94 -2.45,7.42 -7.5,7.42l-51.44 0c-5.04,0 -7.5,-2.48 -7.5,-7.42l0 -489.78c0,-4.95 2.46,-7.43 7.39,-7.43l181.99 0c23.75,0 45.16,3.46 64.36,10.39 19.32,6.93 35.81,16.7 49.59,29.32 13.91,12.61 24.61,27.95 32.24,46.01 7.63,18.05 11.45,37.97 11.45,59.74 0,34.14 -8.87,63.08 -26.58,86.82 -17.72,23.75 -41.84,40.57 -72.35,50.46l107.06 212.98c1.47,2.48 1.72,4.58 0.74,6.31 -0.99,1.73 -2.71,2.6 -5.17,2.6l-59.68 0zm-103.12 -275.32c29.41,0 52.17,-7.3 68.42,-21.89 16.12,-14.6 24.24,-35.26 24.24,-61.96 0,-26.72 -8.12,-47.38 -24.24,-61.97 -16.24,-14.59 -39.01,-21.89 -68.42,-21.89l-117.02 0c-2.96,0 -4.44,1.49 -4.44,4.45l0 158.81c0,2.96 1.48,4.45 4.44,4.45l117.02 0zm911.46 -221.88c1.48,-4.95 4.44,-7.43 8.86,-7.43l47.99 0c4.92,0 8.12,2.48 9.6,7.43l172.03 489.78c1.47,4.94 -0.25,7.42 -5.17,7.42l-51.69 0c-4.92,0 -8.13,-2.48 -9.6,-7.42l-38.39 -109.83 -203.04 0 -38.4 109.83c-1.97,4.94 -5.17,7.42 -9.6,7.42l-51.69 0c-4.92,0 -6.64,-2.48 -5.17,-7.42l174.24 -489.78zm112.23 319.1l-79 -229.3 -1.48 0 -79.74 229.3 160.23 0zm-6027.15 -4803.37c178.75,140.46 0,0 178.75,140.46 199.19,-229.35 230.26,-31.74 415.06,26.06 204.28,54.12 357.08,-90.79 416.6,-207.24 -187.49,-147.25 0,0 -187.49,-147.25 -44.79,80.89 -75.8,136.79 -178.74,107.45 -77.23,-14 -117.54,-92.69 -219.74,-123.1 -205.77,-61.23 -348.39,90.41 -424.44,203.62zm-2480.09 2144.39l0 -367.6c26.71,5.22 48.49,8.69 65.75,10.43 17.27,1.74 32.88,2.61 47.67,2.61 53.42,0 91.64,-16.95 114.24,-50.41 22.6,-33.45 33.69,-94.29 33.69,-181.63l0 -1272.27 448.73 0 0 1306.6c0,214.65 -36.98,363.26 -111.36,444.95 -74.38,82.12 -204.64,122.97 -391.62,122.97 -34.52,0 -69.04,-1.31 -103.55,-3.91 -34.52,-2.61 -69.04,-6.52 -103.55,-11.73zm1590.31 -315.46c76.84,0 130.26,-39.55 160.26,-118.19 29.59,-79.08 44.38,-244.64 44.38,-496.65 0,-252.46 -14.79,-418.88 -44.38,-498.83 -30.01,-79.52 -83.42,-119.5 -160.26,-119.5 -78.08,0 -131.91,40.41 -161.92,121.67 -29.99,80.82 -45.19,246.37 -45.19,496.66 0,249.41 15.2,414.53 45.19,494.48 30.01,80.38 83.83,120.36 161.92,120.36zm-1.65 349.35c-228.07,0 -399.01,-80.38 -512.84,-241.16 -113.82,-160.77 -170.95,-401.93 -170.95,-723.47 0,-322.41 57.12,-564.44 170.95,-725.65 113.82,-161.21 284.77,-241.59 512.84,-241.59 227.66,0 398.6,80.82 513.25,242.46 114.24,161.64 171.36,403.24 171.36,724.78 0,321.54 -57.12,562.7 -171.36,723.47 -114.64,160.78 -285.59,241.16 -513.25,241.16zm1228.68 -737.81l272.03 0 -131.08 -748.68 -140.95 748.68zm-517.37 703.92l416.27 -1858.87 580.23 0 381.76 1858.87 -456.13 0 -66.57 -375.42 -409.29 0 -74.38 375.42 -371.9 0zm2090.41 -315.46c76.84,0 130.26,-39.55 160.26,-118.19 29.59,-79.08 44.39,-244.64 44.39,-496.65 0,-252.46 -14.8,-418.88 -44.39,-498.83 -30,-79.52 -83.42,-119.5 -160.26,-119.5 -78.08,0 -131.91,40.41 -161.91,121.67 -30,80.82 -45.2,246.37 -45.2,496.66 0,249.41 15.2,414.53 45.2,494.48 30,80.38 83.83,120.36 161.91,120.36zm-1.64 349.35c-228.07,0 -399.02,-80.38 -512.85,-241.16 -113.82,-160.77 -170.95,-401.93 -170.95,-723.47 0,-322.41 57.12,-564.44 170.95,-725.65 113.82,-161.21 284.77,-241.59 512.85,-241.59 227.65,0 398.6,80.82 513.25,242.46 114.24,161.64 171.35,403.24 171.35,724.78 0,321.54 -57.11,562.7 -171.35,723.47 -114.65,160.78 -285.6,241.16 -513.25,241.16zm-3917.22 473.43l0 433.14c194.15,-1.62 350.47,-22.02 362.57,-202.51 0.12,-3.82 0.18,-7.7 0.18,-11.63 0,-78.21 -23.59,-134.26 -70.75,-168.15 -47.59,-33.89 -126.06,-50.84 -235.4,-50.84l-56.6 0zm-470.8 1522.55l0 -39.64c-27.91,-336.13 -10.68,-1377.69 -10.6,-1726.35l-0.64 -119.23c510.98,0.47 1171.74,-103.05 1311.81,361.08 46.01,152.47 33.84,289.9 -10.06,403.06 -26.45,90.86 -74.69,166.57 -144.81,226.83 -112.34,97.33 -270.56,146 -473.8,146 -27.01,0 -56.6,-0.87 -88.76,-3.04 -32.16,-2.18 -69.46,-5.65 -112.34,-9.56l0 760.84 -277.33 0 -189.47 1.06 -0.12 -1.06 -3.88 0zm1458.27 0l0 -1858.87 1149.99 0 0 354.57 -679.18 0 0 362.39 452.79 0 0 354.57 -452.79 0 0 432.78 679.18 0 0 354.57 -1149.99 0zm1584.34 -589.21c36.01,89.95 80.18,158.17 132.49,204.23 52.31,46.49 111.47,69.52 176.65,69.52 61.31,0 108.91,-14.78 143.64,-43.88 34.73,-29.11 52.31,-70.39 52.31,-122.97 0,-44.76 -16.73,-84.3 -49.74,-117.76 -33.02,-33.45 -113.62,-80.38 -241.83,-140.35 -210.1,-99.51 -349.46,-190.32 -418.49,-272.01 -68.6,-82.12 -102.91,-183.8 -102.91,-306.34 0,-168.59 57.88,-307.2 174.08,-414.96 116.2,-107.76 264.56,-161.64 445.51,-161.64 138.49,0 258.55,36.5 361.46,109.5 102.47,73 177.94,175.55 225.53,307.64l-365.74 146c-27.01,-73.43 -60.03,-127.31 -98.62,-162.08 -39.01,-34.32 -85.75,-51.71 -140.21,-51.71 -48.45,0 -87.89,13.91 -117.48,41.28 -29.59,27.81 -44.6,64.31 -44.6,109.5 0,39.97 17.59,75.6 52.74,106.89 35.16,31.72 112.77,74.73 232.4,129.05 12.43,5.22 31.73,13.48 57.88,25.64 125.63,54.32 221.68,106.46 287.71,156.43 63.03,48.23 111.05,107.76 144.93,178.58 33.45,70.83 50.16,148.61 50.16,233.34 0,72.13 -13.29,142.52 -40.3,210.74 -26.58,68.22 -65.61,130.79 -116.63,187.71 -59.61,66.92 -131.64,117.32 -216.11,151.65 -84.47,34.32 -179.65,51.71 -285.13,51.71 -165.94,0 -306.58,-40.41 -422.35,-121.23 -115.34,-81.25 -201.95,-199.44 -259.84,-355.44l382.47 -149.04zm1381.95 0c36.02,89.95 80.18,158.17 132.49,204.23 52.31,46.49 111.47,69.52 176.66,69.52 61.31,0 108.9,-14.78 143.63,-43.88 34.73,-29.11 52.31,-70.39 52.31,-122.97 0,-44.76 -16.72,-84.3 -49.74,-117.76 -33.02,-33.45 -113.62,-80.38 -241.83,-140.35 -210.1,-99.51 -349.46,-190.32 -418.48,-272.01 -68.6,-82.12 -102.91,-183.8 -102.91,-306.34 0,-168.59 57.88,-307.2 174.08,-414.96 116.2,-107.76 264.56,-161.64 445.51,-161.64 138.49,0 258.55,36.5 361.46,109.5 102.47,73 177.94,175.55 225.53,307.64l-365.75 146c-27.01,-73.43 -60.03,-127.31 -98.62,-162.08 -39.02,-34.32 -85.76,-51.71 -140.21,-51.71 -48.46,0 -87.9,13.91 -117.49,41.28 -29.59,27.81 -44.59,64.31 -44.59,109.5 0,39.97 17.58,75.6 52.74,106.89 35.16,31.72 112.77,74.73 232.41,129.05 12.43,5.22 31.73,13.48 57.88,25.64 125.63,54.32 221.68,106.46 287.71,156.43 63.03,48.23 111.05,107.76 144.93,178.58 33.45,70.83 50.17,148.61 50.17,233.34 0,72.13 -13.3,142.52 -40.31,210.74 -26.58,68.22 -65.6,130.79 -116.63,187.71 -59.6,66.92 -131.64,117.32 -216.11,151.65 -84.47,34.32 -179.65,51.71 -285.13,51.71 -165.94,0 -306.58,-40.41 -422.35,-121.23 -115.34,-81.25 -201.95,-199.44 -259.84,-355.44l382.47 -149.04zm1776.43 273.75c80.18,0 135.92,-39.55 167.22,-118.19 30.87,-79.08 46.3,-244.64 46.3,-496.65 0,-252.46 -15.44,-418.88 -46.3,-498.83 -31.31,-79.52 -87.05,-119.5 -167.22,-119.5 -81.48,0 -137.64,40.41 -168.95,121.67 -31.3,80.82 -47.16,246.37 -47.16,496.66 0,249.41 15.86,414.53 47.16,494.48 31.31,80.38 87.47,120.36 168.95,120.36zm-1.72 349.35c-237.97,0 -416.34,-80.38 -535.12,-241.16 -118.77,-160.77 -178.37,-401.93 -178.37,-723.47 0,-322.41 59.6,-564.44 178.37,-725.65 118.78,-161.21 297.14,-241.59 535.12,-241.59 237.54,0 415.91,80.82 535.54,242.46 119.2,161.64 178.8,403.24 178.8,724.78 0,321.54 -59.6,562.7 -178.8,723.47 -119.63,160.78 -298,241.16 -535.54,241.16zm1282.04 -737.81l283.86 0 -136.78 -748.68 -147.08 748.68zm-539.83 703.92l434.35 -1858.87 605.43 0 398.33 1858.87 -475.94 0 -69.46 -375.42 -427.07 0 -77.6 375.42 -388.05 0z"/>
   <path class="fil0" d="M9775.06 0l6276.92 0 0 6086.74 -6276.92 0 0 -6086.74zm2465.1 1638.12c-147.02,20.71 -303.28,50.78 -447.49,85.88 -46.39,11.3 -97.43,27.6 -143.04,36.35l-11.5 -42.6c330.06,-114.05 909.57,-161.19 1266.16,-160.46 353.2,0.73 781.21,36.95 1128.14,121.27 48.39,11.76 96.29,27.66 141.72,38.42l-12.11 42.59 -140.55 -34.82c-562.82,-139.85 -1209.23,-167.24 -1781.33,-86.63zm-424.27 -23.16c-44.44,11.17 -93.75,29.56 -136.17,38.45 -8.69,-15.64 -15.3,-80.12 -18.8,-103.64 170.36,-59.91 388.39,-101.53 580.74,-126.35 433.83,-55.98 890.94,-56.26 1326.14,5.31 101.53,14.37 203.74,32.17 301.17,54.85 66.21,15.43 144.85,34.08 210.35,54.29 20.35,6.28 50.21,17.06 70.07,20.88l-14.16 97.94c-21.46,-4.02 -43.95,-12.66 -65.5,-18.88 -23.45,-6.77 -44.22,-12.15 -68.49,-18.72 -132.11,-35.76 -300.61,-65.35 -436.77,-83.01 -432.88,-56.17 -877.25,-55.17 -1310.13,-3.11 -150.68,18.11 -292.91,45.43 -438.45,81.99zm-196.25 -53.17l20.71 107.07 -53.43 9.98 20.51 112.17 -110.22 10.34 27.43 432.23c-1.12,-0.76 -50.98,-51.82 -80.3,-73.62 -18.91,-14.05 -84.65,-48.07 -94.16,-57.66 70.58,-25.77 141.45,-107.27 88.86,-201.95 -33.02,-59.47 -107.73,-103.87 -184.03,-139.26 -80.18,-37.19 -151.56,-72.42 -189.99,-133.04 -62.56,-98.69 52.82,-212.68 100.95,-126.39l41.9 -16.3c-28.41,-81.54 -174.01,-126.33 -281.55,40.89 -21.12,-8.41 -33.09,-19.71 -43.93,-38.53l-11.27 -16.77c-14.17,53.12 -30.35,88.9 -25.64,153.24 3.73,51.12 26.94,98.21 50.89,125.12 -33.1,6.72 -50.53,3.98 -83.26,16.21 -21.81,8.14 -48.92,18.84 -64.41,36.61 33.49,9.46 73.98,35.73 83.21,65.54 16.36,52.83 -21.28,78.08 19.91,124.8 -15.38,14.25 -19.6,13.74 -31.35,32.46 -8.8,14.05 -14.92,29.82 -25.79,38.77 -9.91,8.15 -31.01,18.93 -46.21,7.02 -12.27,-9.61 -12.22,-29.09 -13.84,-47.62 -25.92,5.35 -43.75,23.88 -48.47,51.21 -6.72,38.99 10.36,54.45 14.23,81.79 -76.48,-7.99 -159.48,-3.53 -212.22,37.31 -37.61,29.09 -68.22,79.59 -56.27,132.72 5.57,24.8 10.93,26.38 19.76,44.8 6.17,12.9 -7.95,32.85 -12.5,48.2 -38.14,128.76 66.6,245.19 211.24,228.62l13.82 -61.65c-119.41,-4.25 -158.01,-98.27 -106.21,-167.73 46.65,-62.53 175.13,-26.12 243.5,-0.09 97.75,37.22 297.63,182.58 382.9,-42.41 4.74,-12.54 5.49,-20.94 13.91,-26.54 4.74,18.42 67.85,49.49 17.45,129.01 -48.33,76.26 -130.57,118.71 -202.41,169.16 -214.86,150.92 -438.71,304.81 -592.31,522.41 -82.86,117.4 -141.44,240.57 -161.47,395.03 -15.4,118.82 -1.54,220.95 40.32,321.05 27.91,66.73 63.44,120.99 105.45,175.69 7.63,9.92 11.77,14.44 20.52,24.62l16.09 19.83c4.05,5.26 0.27,-1.22 4.37,6.45 -112.59,17.8 -286.96,120.7 -276.9,235.37 6.06,69.32 64.97,127.2 103.27,153.26 51.5,35.05 121.15,57.51 199.1,56.74 -12.59,-23.76 -57.04,-57.16 -87.03,-120.33 -31.78,-66.96 -3.62,-102.92 52.33,-124.11 83.39,-31.56 282.15,-21.39 375.05,-8.71l-24.89 6.38c-7.85,0.92 -15.52,1.93 -23.33,2.97 -104.71,13.94 -210.68,36.28 -310.88,67.1 11.34,29.47 31.88,64.68 45.87,97.35 48.28,112.77 73.65,228.72 76.78,355.28 -41.19,14.78 -120.57,69.52 -146.03,95.72 -65.96,67.84 -60.3,76.73 -46.28,175.1 24.7,173.39 78.74,406.95 175.36,548.39 103.69,151.82 417.17,135.16 581.42,119.98 585.23,-54.06 1176.73,-156.15 1770.63,-157.21 302.92,-0.54 606.2,28.57 902.79,61.83 289.4,32.47 576.95,68.36 867.76,95.68 168.04,15.78 477.85,31.89 580.45,-124.62 96.74,-147.56 148.4,-368.9 173.31,-547.41 3.86,-27.62 12.93,-80.41 3.97,-105.56 -25.28,-70.96 -131.6,-126.04 -195.43,-163.27 -8.23,-57.28 20.94,-194.35 36.91,-247.4 11.1,-36.96 23.77,-71.03 37.67,-104.49 14.37,-34.62 31.46,-64.12 46.21,-97.23 -19.98,-14.84 -157.1,-42.43 -177.79,-46.63 -53.9,-10.93 -161.5,-23.82 -188.22,-30.03 33.01,-10.03 151.22,-13.23 193.51,-13.8 450.07,-6.14 172.24,227.89 154.2,265.18 79.7,-0.49 146.03,-20.61 199.22,-57.14 37.4,-25.69 97.48,-84.45 103.22,-152.97 9.47,-113.14 -164.3,-219.26 -276.96,-235.22l42.54 -53.2c114.16,-140.55 166.95,-306.28 144.14,-495.02 -22.77,-188.36 -109.97,-336.73 -223.55,-474.21 -42.22,-51.1 -89.15,-98.62 -137.71,-143.34l-72.8 -62.98c-32.07,-28.63 -68.44,-55.32 -104.42,-82.98 -35.37,-27.2 -68.93,-50.69 -106.28,-77.88 -77.01,-56.05 -265.95,-165.17 -312.35,-246.61 -29.71,-52.13 -15.93,-101.73 22.06,-127.82 26.51,59.8 41.81,109.83 100.99,137.21 98.87,45.72 209.39,-36.5 294.81,-68.67 261.94,-98.64 291.4,53.58 244.62,121.81 -19.21,28 -59.36,45.51 -109.38,47.1l12.99 60.95c81.89,13.14 156.03,-33.17 186.39,-72.99 71.06,-93.2 5.28,-183.37 11.89,-201.13 1.74,-4.69 9.21,-14.89 12.76,-23.02 11.15,-25.53 13.59,-55.23 6.16,-81.46 -31.5,-111.27 -164.44,-121.14 -266.87,-112.68 7.16,-27.79 20.65,-49.57 13.75,-83.92 -4.91,-24.51 -22.2,-44.26 -48.75,-48.51 -0.01,47.76 -24.67,72.28 -60.22,38.35 -12.79,-12.21 -16.35,-24.15 -25.9,-38.72 -8.26,-12.61 -21.22,-21.65 -30.34,-31.06 15.85,-15.99 21.16,-26.92 19.18,-57.81 -3.46,-53.72 -12.25,-102.67 83.92,-132.29 -36.8,-37.73 -97.61,-44.93 -147.64,-52.17 46.1,-67.86 64.15,-123.2 44.06,-212.72 -3.89,-17.31 -17.61,-55.94 -18.41,-66.6 -20.94,16.82 -13.82,38.09 -55.5,55.86 -32.25,-43.97 -60.26,-89.27 -125.3,-106.79 -72.26,-19.48 -139.33,10.57 -156.15,65.65l38.82 15.28c15.74,-10.16 56.6,-64.63 103.25,4.28 25.25,37.29 23.78,84.38 0.76,123.23 -70.77,119.49 -305.59,143.93 -375.4,274.04 -51.64,96.24 20.87,172.51 90.02,200.7 -9.17,8.36 -35.1,19.82 -48.83,27.91 -17.02,10.02 -31.44,19.67 -46.75,30.77 -27.81,20.14 -49.41,39.68 -70.54,65.01l-12.73 10.58 28.64 -435.23 -110.81 -10.92 20.62 -111.41 -53.1 -10.63 20.2 -102.41 51.16 10.59 32.1 -156 -46.14 -10 192.94 -959.72c-36.79,-5.24 -175.75,-43.4 -230.9,-55.11 -75.88,-16.12 -163.23,-38.21 -240.39,-47.16l-31.54 228.84 -78.26 -9.26c-7.09,-21.1 17.56,-192.82 17.69,-233.64 -30.69,-16.84 -459.67,-60.33 -523.43,-62.2l-22.36 237.42 -159.69 -9.69c-12.86,-42.23 10.49,-188.19 -0.76,-238.23 -162.31,-6.3 -329.12,-8.48 -492.52,-0.1l-0.58 240.38 -164.57 7.13c-2.72,-33.7 -15.3,-220.99 -22.58,-236.38 -56,-1.26 -490.74,45.46 -517.39,61.67 2.57,42.58 23.83,210.72 18.3,237.29l-76.05 6.69c-10.74,-19.82 -37.61,-226.22 -37.55,-230.03 -73.59,8.01 -167.39,31.17 -240.32,47.16 -72.44,15.88 -162.88,33.91 -231.92,56.77l193.24 958.05 -46.26 9.98 33.49 149.84 49.53 -8.81zm450.92 -257.63l-181.07 35.8 -212.19 -690.55 304.54 -52.24c8.94,53.46 14.41,118.38 21.87,176.41 7.59,59.28 14.88,118.39 22.55,177.76 11.15,86.27 38.97,278.38 44.31,352.83zm-244.01 45.24l-81.99 23.22c-26.24,-57.45 -34.77,-233.63 -86.14,-273.35 -29.52,-22.81 -48.5,-24.93 -94.05,-25.33l-117.2 -579.7 44 -9.82 24.3 117.82 104.87 -22.84c-1.4,-36.54 -20.94,-88.46 -18.22,-118.55l76.02 -15.75 18.41 113.07c22.56,-1.29 90.99,-10.55 106.82,-19.78l-8.58 -116.06 39.87 -6.5 23.83 163.59 -240.38 48.88c1.54,23.61 94.97,333.01 103.25,359.58 18.62,59.72 34.62,119.76 52.72,179.86l52.47 181.66zm595.98 -90.97l-79.33 6.13c-7.35,-68.28 -17.72,-148.93 -29.34,-216.08 -26.58,-153.65 -157.68,-130.08 -199.58,-59.34 -17.63,29.76 -14.36,62.37 -9.48,99.67 4.72,36.17 9.88,72 14.67,108.35 2.39,18.06 4.81,35.84 7.41,54.55 6.1,44.09 9.15,38.2 -7.73,39.54 -2.41,-4.9 -117.18,-870.99 -115.08,-903.47 16.7,-2.09 39.07,-8.88 54.7,-5.47l16.77 112.95c15.21,2.52 70.55,-8.1 87.64,-12.95l-8.3 -115.2c18.52,-2.64 66.06,-10.43 82.01,-7.89l12.04 115.19c26.38,0.6 30.22,-7.77 53.4,-9.16 17.94,-1.09 7.16,3.29 48.95,-1.45l-2 -118.18 78.75 -6.25c3.07,25.75 8.82,150.7 4.75,170.6l-64.77 4.76 54.52 743.69zm-224.21 548.55c43.11,-3.16 184.1,-15.04 218.07,-9.05l2.74 348.07 -806.57 0.31 -18.18 -263.76c7.82,-4.22 9.88,-4.35 20.6,-6.24 6.96,-1.23 18.78,-3.18 24.76,-4.23 193.8,-33.91 361.24,-50.59 558.58,-65.1zm-588.63 373.88l813.15 -0.86 2.21 379.33 -781.15 1.04c-14.53,-1.61 -11.22,-7.41 -11.9,-24.92 -4.49,-114.94 -18.43,-234.32 -22.31,-354.59zm30.01 412.97l781.47 -0.02 1.55 336.13 -761.77 0.19 -21.24 -336.3zm19.82 369.83l767.57 0 1.54 374.44 -742.47 0 -26.65 -374.44zm31.52 408.08l733.96 -0.02 1.47 360.57 -711.23 -0.01c-6.84,-13.48 -28.13,-333.8 -24.21,-360.55zm-74.62 227.68c8.24,117.72 18.26,237.6 23.37,355.43 -20.83,-4.04 -19.28,-0.72 -26.31,-18.91 -4.23,-10.94 -8.55,-19.77 -14.69,-27.11 -15.24,-18.25 -28.28,-22.89 -57.12,-27.17 7.11,-71.12 -15.81,-97.46 -67.51,-119.89 -7.56,-48.61 -22.17,-91.22 -46.67,-121.4 -23.86,-29.42 -59.86,-52.64 -106.81,-64.35 -104.87,-26.16 -203.83,2.34 -303.55,18.56 -222.04,36.1 -271.05,-166.69 -173.47,-234.64 57.35,-39.93 96.68,-3.23 125.21,10.57 9.12,-7.28 13.25,-6.93 22.26,-17.84 -7.52,-27.73 -28.12,-46.53 -47.18,-59.11 -23.61,-15.56 -52.12,-21.17 -84.58,-22.43 9.59,-18.56 25.03,-32.54 37.56,-48.58 20.49,-26.2 82.32,-85.56 107.75,-108.8 8.79,-8.05 13.25,-14.79 22.56,-22.54l92.56 -81.95c16.68,-12.9 29.79,-26.6 46.43,-40.78l183.87 -165.15c15.62,-14.89 28.86,-27.88 43.4,-43.8 27.3,-29.88 55.18,-59.93 81.14,-93.38 16.52,-21.29 61.56,-81.52 69.32,-109.68 8.66,15.13 25.19,332.1 26.24,347.05l46.22 695.89zm-123.87 367.36c11.63,-7.45 16.67,-13.41 25.59,-22.86 10.25,-10.9 12.67,-19.76 22.63,-29.49 56.5,27.04 10.77,95.67 -14.82,127.84 -11.42,14.35 -22.64,20.92 -33.22,33.11 56.64,-10.27 99.25,-41.76 116.09,-85.69 89.22,0.69 12.56,145.37 -152.44,176.75 -73.66,13.99 -221.8,-24.83 -270.36,17.27 -20.36,17.66 -18.37,51.7 2.57,69.69 7.22,-11.15 3.93,-13.25 14.22,-23.81 22.02,-22.59 62.17,-28.59 89.47,-14.99 -2.02,22.28 -35.96,30.23 -54.85,36.76 -188.09,65.02 -389.22,-0.96 -581.97,-0.79 -78.26,0.07 -191.82,12.76 -253.27,44.33 -89.9,46.19 -68.53,123.26 -19.55,194.44 -41.87,-6.53 -89.51,-61.65 -104.78,-99.93 -40.37,-101.27 51.35,-210.31 155.86,-237.32 72.55,-18.75 113.88,-6.13 183.16,1.74 -24.83,-37.86 -49.66,-42.6 -45.03,-100.02 1.15,-14.37 0.4,-30.9 4.83,-44.5 0.27,-0.81 0.69,-1.97 1.24,-2.86 48.06,-4.33 82.14,9.04 116.34,31.12 94.08,60.75 167.57,174.95 295.51,111.52l12.4 -8.79c-111.72,5.4 -140.25,-34.32 -232.22,-100.8 -30.16,-21.8 -64.83,-43.44 -108.6,-56.26 -41.95,-12.29 -110.08,-11.81 -142.16,12.42 21.39,50.02 -5.1,60.47 11.72,116.97 -30.38,-6.64 -80.04,-75.09 -96.78,-99.16 -97.55,-140.31 -125.04,-287.78 -110.79,-466.56 16.95,-212.93 117.46,-376.93 262.05,-516.32 106.27,-102.43 205.96,-167.85 332.29,-249.39l175.31 -118.71c48.42,-34.79 119.2,-89.49 154.96,-135.76 49.43,-63.95 73.11,-137.28 -7.52,-195.26 -15.57,-11.2 -45.53,-28.39 -69.95,-28.3 0.4,104.27 -64.69,148.34 -171.55,134.17 -134.8,-17.86 -212.52,-117.7 -356.4,-102.57 -51.3,5.38 -79.4,23.86 -104.83,50.32 -26.8,27.88 -36.81,74.94 -19.75,119.51 10.84,28.34 27.36,50.38 48.5,67.84l21.72 18.45c-123.39,-4.69 -145.87,-130.53 -91.79,-213.61 -14.64,-29.69 -48.15,-57.03 -1.27,-125.26 23.42,-34.09 66.56,-50.64 119.69,-57.29 208.26,-26.09 291.09,179.46 387.6,112.23 36.4,-25.35 37.78,-76.7 -37.08,-91.52 -56.75,-11.24 -96.71,-0.03 -144.97,-29.28 -26.48,-16.04 -74.97,-55.41 -76.7,-98.64 35.5,33.6 74.17,-16.55 100.85,-38.63 43.38,-35.89 88.33,1.8 109.16,26.57 24.57,29.24 48.59,61.08 80.82,83.96 95.35,67.68 190.22,-21.4 68.12,-103.68 -57.82,-38.96 -225.55,-21.94 -208.16,-124.57 4.83,-28.48 14.21,-41.72 -1.4,-69.75 -14.89,-26.72 -22.91,-25.37 -39.35,-43.52 25.85,-35.57 95.03,-25.83 127.69,-9.21 77.47,39.45 130.26,154.79 184.72,158.3 45.14,2.91 88.51,-49.04 55.81,-91.84 -19.19,-25.1 -75.93,-43.04 -114.21,-57.15 -76.43,-28.2 -166.55,-63.15 -212.88,-129.6 -25.32,-36.31 -19.27,-104.25 -6.04,-147.42 27.04,19.5 48.06,56.65 74.26,70.17 5.78,-78.74 12.06,-157.95 115.31,-151.13 -26.95,29.5 -56.23,39.54 -64.97,88.46 -21.56,120.72 141.74,189.05 224.74,236.07 105.79,59.93 234.15,149.68 121.85,259.62 -23.89,23.4 -62.78,38.47 -99.49,55.64 33.23,25.87 86.3,43.89 135.05,86.29 178.27,155.04 155.25,317.79 19.2,484.77l-51.32 58.47c-34.12,40.6 -73.63,74.76 -111.95,111.09l-58.52 54.46c-10.92,8.7 -18.48,17.38 -29.22,25.72l-149.05 128.87c-13,10.36 -17.25,17.47 -32.76,27.14 13.83,-38.71 104.95,-129.53 141.51,-163.97 26.06,-24.55 50.44,-50.19 76.92,-74.91 27.02,-25.21 51.33,-48.48 75.67,-76.26 23.44,-26.72 48.96,-52.52 70.25,-81.54 20.05,-27.31 40.82,-59.66 56.3,-95.65 16.81,-39.04 27,-79.93 25.79,-126.67 -1.39,-54.04 -17.89,-78.36 -29.09,-123.84l-23.72 6.38c16.05,78.4 31.71,108.69 6.01,194.12 -29.61,98.46 -121.42,196.34 -195.79,263.04l-233.27 225.44c-61.38,68.4 -123.48,148.04 -167.37,233.27 -9.19,17.85 -8.73,25.44 -22.19,36.07 -46.65,36.85 -69.5,79.67 -66.67,162.74 -40.75,1.59 -50.71,-29.26 -46.68,-67.86 -70.1,16.57 -108.64,90.74 -84.19,155.88 10.01,26.66 23.29,34.62 32.7,53.38 -36.22,26.67 -58.51,96.98 -36.55,154.09 20.4,53.01 58.22,71.07 115.4,94.6 -20.48,20.83 -34.26,49.49 -36.34,91.64l69.31 16.93c-0.24,-25.1 1.74,-49.25 11.15,-69.97 4.85,-10.67 9.26,-16.72 15.35,-23.48 8.69,-9.65 12.93,-11.2 21.32,-19.48 -26.75,-18.07 -107.37,-11.22 -132.68,-98.96 -13.71,-47.55 1.61,-96.95 34.89,-129.2 10.6,-10.27 24.98,-15.51 32.3,-28.25 -27.48,-12.51 -72.05,-48.87 -69.75,-82.8 1.15,-16.96 11.42,-25.26 16.65,-35.99 30.55,15.12 30.48,38.96 92.18,24.28 9.53,-35.87 -13.98,-78.19 20.06,-125.05 26.56,-36.53 57.75,-43.79 115.52,-34.48 -2.9,3.17 -1.35,1.88 -5.64,5.07 -33.61,25.01 -55.21,30.29 -77.33,74.79 -53.5,107.59 12.21,259.05 226.22,223.34 108.89,-18.16 297.9,-94.31 384.46,23.88 30.96,42.29 25.73,79.77 10.75,128.95 -32.72,-28.77 -33.67,-60.68 -99.6,-69.77 -33.03,-4.55 -118.55,10.44 -143.89,24.02 38.29,19.21 111.45,-8.64 159.85,18.66 30.92,17.43 76.72,74.24 31.65,109.07 -24.47,-16.86 -29.41,-25.25 -60.77,-37.93 -94.49,-38.19 -157.23,2.08 -229.63,49.56 -42.8,28.07 -84.97,47.92 -142.24,61.21 -43.5,10.1 -90.78,14.05 -135.93,14.51 -12.31,0.13 -26.65,-2.57 -38.83,-0.12 -9.89,2 -4.9,-0.31 -10.52,4.75 24.28,15.74 92.51,23.96 126.83,22.58 50.03,-1.99 85.27,-14.28 130.15,-19.79 59.55,89.44 274.29,131.65 359.89,64.07 42,-33.15 37.23,-65.23 27.13,-125.04 21.45,-7.63 37.88,-21.81 51.46,-35.51 21.25,-21.42 20.9,-33.61 35.53,-54.34 29.3,19.03 33.52,62.94 14.63,101.26 -16.43,33.32 -43.38,48.87 -66.2,74.94 30.87,-1.68 55.68,-7.41 77.66,-21.5zm4.3 272.56l90.11 -55.32c43.19,-28.32 49.34,-43.54 74.91,-67.03 5.27,-4.84 1.62,-1.8 4.91,-4.15 8.37,16.05 15.04,37.35 22.7,53.95 8.7,18.84 17.64,34.67 28.46,52.31 13.27,21.63 50.93,73.7 66.96,88.85 -16.63,-4.9 -40.08,-17.55 -60.31,-24.43 -71.09,-24.18 -151.85,-36.69 -227.73,-44.18zm-523.39 77.69c201.49,-27.45 543.1,-51.71 741.36,18.31 75.46,26.66 110.28,57.19 151.75,119.71 68.26,102.87 93.68,314.71 83.82,461.01 -43.94,-37.16 -58.6,-51.41 -120.65,-75.29 -155.35,-59.81 -365.21,-66.1 -531.41,-60.54 -169.63,5.68 -357.82,31.69 -520.64,74.15 -53.48,13.95 -101.04,33.86 -150.23,48.14 -6.58,-120.3 6.77,-140.05 -27.66,-275.9 -10.36,-40.84 -22.66,-77.6 -36.65,-115.34 -8.58,-23.15 -43.51,-95.81 -45.44,-108.51 18.22,-8.11 85.94,-19.82 109.46,-24.72 117.4,-24.5 225.8,-44.6 346.3,-61.01zm-59.28 580.62c245.36,-53.45 575.83,-96.52 819.7,-32.26 64.75,17.05 115.83,36.42 160.56,69.07 42.36,30.92 47.77,89.36 -61.98,111.88l-210.97 17.88c-207.74,17.86 -412.02,48.17 -619.65,70 -121.65,12.79 -515.67,40.96 -536.16,-134.06 -7.86,-67.06 71.15,-112.61 103.89,-120.56 3.86,44.61 -3.58,82.17 -9.51,124.18 26.44,-7.23 55.39,-21.44 83.36,-31.46 84.93,-30.47 182.24,-55.39 270.75,-74.68zm1562.44 -2894.1c-11.1,-61.36 -19.5,-65.37 1.86,-71.77 45.5,-13.63 101.98,-34.01 150.99,-40.99l15.33 123.27 69.08 -5.34 -3.57 -129.14 158.93 -14.38 0.33 125.78 85.86 0.46 1.19 -124.17c53.72,-2.13 106.72,7.22 158.97,12.08l-3.41 129.67 66.71 4.96c9.31,-19.78 14.97,-94.62 17.34,-121.78 18.79,-1.48 147.95,36.36 163.89,45.26 -3.07,66.56 -84.79,423.62 -81.08,468.5l56.61 18.21 -19 86.96c-14.37,-1.54 -33.02,-9.54 -44.07,-11.8 -0.65,-0.13 -6.32,-0.9 -7.37,-0.89 -5.08,0.06 -4.28,0.17 -7,1.22l-6.55 30.38 55.72 18.17 -20.59 83.34c-9.51,14.2 -182.29,49.21 -192.75,50.99 -171.13,29.14 -379.91,15.35 -542.13,-43.77 -18.09,-6.59 -15.97,-19.86 -21.18,-40.33 -4.43,-17.34 -8.76,-33.42 -11.91,-51.23l53.79 -17.64c-0.24,-12.35 -1.99,-24.64 -7.57,-32.79l-54.62 14.81 -21.04 -88.38 59.31 -15.99c-2.13,-32.21 -48.17,-270.48 -57.86,-324.5 -4.75,-26.51 -9.39,-52.72 -14.18,-79.2zm236.01 769.74l156.76 -14.15 0.06 125.28 87.08 1 -0.04 -124.12c28.72,-1.57 133.01,5.16 157.75,13.01l-1.85 128.55 66.48 5.12c9.48,-18.43 14.67,-96.29 17.64,-122.55 29.04,-1.55 129.6,36.4 163.98,44.16l-83.83 471.51 59.02 16.37 -18.87 87.07 -56.8 -14.2 -8.43 33.78 54.9 17.68c-2.04,17 -7.77,35.2 -11.38,49.86 -10.35,42.29 0.78,40.51 -116.29,67.71 -150.3,34.93 -288.28,42.44 -441.88,18.86 -52.38,-8.05 -152.58,-29.89 -195,-49.91 -10.01,-15.36 -19.79,-63.24 -22.14,-85.19l54.03 -20.18 -6.23 -31.99 -57.21 14.36 -21.13 -88.33 59.77 -15.48 -84.55 -471.33c50.11,-14.56 112.65,-38.66 164.38,-45.44l15.96 121.99 68.19 -3.95c2.81,-31.24 -7.46,-106.64 -0.38,-129.52zm468.57 1035.29l15.31 -122.34c37.46,-1.08 124.77,36.37 164.68,43.73l-84.09 469.03 59.25 19.82 -19.65 86.29 -58.41 -14.82 -6.11 34.25 54.1 17.4 -19.87 87.43c-71.18,15.63 -94.94,31.72 -197.27,48.5 -147.73,24.23 -298.4,18.02 -442.86,-17.59 -29.91,-7.38 -67.5,-16.92 -95.33,-27.31 -16.4,-6.13 -10.82,-2.58 -20.24,-41.01 -3.88,-15.86 -9.59,-33.87 -11.26,-50.18l53.76 -17.93 -5.98 -32.78 -58.07 15.29 -19.37 -87.49 59.13 -16.89 -84.43 -471.24c51.07,-14.28 110.62,-38.17 164.88,-45.42l15.51 122.31 67.05 -4.36 -1.38 -129.46 158.84 -14.25 0.06 125.67 87.08 0.86 -0.04 -124.17c28.34,-2.25 136.58,4.23 158.4,13.87l-2.68 127.52 68.99 5.28zm209.37 526.33c0.17,-35.48 -3.75,-153.44 2.74,-179.46l625.69 0c-2.26,14.81 -39.76,62.51 -48.52,72.79 -63.49,74.51 -117.15,114.9 -204.9,163.49 -89.81,49.72 -259.43,107.81 -375.76,122.88 0.14,-59.9 0.45,-119.8 0.74,-179.7zm93.52 266.31c128.79,-33.54 230.64,-74.04 342.5,-135.6 18.33,-10.09 33.61,-20.01 50.11,-30.64 15.84,-10.19 32.79,-24.61 48.7,-32.33 -54.48,107.83 -74.91,159.6 -98.2,286.84 -18.25,99.68 -40.66,256.31 4.63,343.09 -72.23,-3.11 -150.04,-13.64 -223.24,-19.37 -478.06,-37.45 -921.2,-36.56 -1398.99,-0.06 -73.66,5.63 -150.56,15.76 -223.53,19.48 61.91,-128.72 -0.89,-427.04 -57.24,-559.16 -9.18,-21.51 -26.55,-48.13 -32.38,-65.88l98.42 61.33c430.92,231.11 1023.27,253.66 1489.22,132.28zm-576.57 437.7c638.53,0.66 1302.91,124.89 1951.54,152.5 170.87,7.27 452.87,40.44 528.49,-158.11 -1.13,95.41 -39.81,261.76 -65.98,348.99 -25.5,84.95 -88.08,237 -139.59,277.17 -71.4,55.68 -240.19,68.49 -348.75,67.76 -236.34,-1.59 -854.44,-98.86 -1125.14,-131.2 -470.25,-56.19 -1123.95,-54.63 -1594.5,0.18 -246.04,28.66 -492.6,66.13 -740.96,95.44 -123.55,14.57 -256.1,34.16 -381.13,35.52 -110.13,1.2 -279.63,-10.88 -353.73,-66 -82.43,-61.31 -159.32,-320.9 -181.89,-444.87 -8.53,-46.78 -26.28,-136.8 -25.17,-182.99 13.28,40.96 48.52,77.71 74.93,97.63 117.63,88.75 302.18,66.46 450.46,60.57 217.73,-8.65 434.84,-29.16 649.51,-51.22 431.15,-44.29 862.28,-101.82 1301.92,-101.36zm480.61 -917.09l1.52 -355.29 719.75 -0.67c-2.67,65.93 -7.62,131.01 -18.76,195.13 -5.7,32.79 -30.39,149.12 -52.26,160.83l-650.25 0zm479.53 794.16c-7.19,-69.42 2.69,-188.28 13.66,-256.43 11.88,-73.83 34.43,-148.59 68.71,-203.01 36.21,-57.49 74.29,-92.96 150.88,-120.52 195.89,-70.45 541.81,-47.58 741.41,-19.25 78.12,11.1 155.69,22.86 232.86,38.12 33.91,6.7 206.22,39.37 225.1,47.86l-44.51 105.95c-50.55,133.55 -69.22,246.31 -64.7,393.1l-153.14 -48.01c-155.54,-41.6 -360.2,-68.67 -521.4,-73.68 -197.9,-6.16 -505.52,-0.92 -648.88,135.87zm39.9 95.76c-25.32,-28.24 -3.82,-60.47 16.11,-77.41 34.07,-28.94 105.06,-54.98 160.62,-68.93 142.15,-35.69 267.97,-39.72 419.43,-26.59 205.37,17.8 473,62.1 668.61,132.77 26.97,9.75 59.25,25.01 85.54,32.37 -5.63,-41.8 -14,-80.09 -9.41,-124.56 25.53,8.71 51.13,26.32 68.98,40.76 67.09,54.3 40.51,153.72 -80.32,193.49 -119.21,39.22 -290.27,34.32 -420.74,20.6 -208.98,-21.97 -409.71,-51.13 -619.76,-70 -74.81,-6.72 -244.06,-2.33 -289.07,-52.5zm-516.2 -1673.65l1.91 -372.93 767.24 -1.53 -23.58 374.44 -745.56 0.02zm3.87 33.57l735.63 0 -22.76 358.73c-24.09,5.87 -672.46,1.9 -714.68,1.9l1.81 -360.62zm635.06 937.32c24.16,-34.2 39.69,-45.36 68.06,-91.84 17.71,-29 40.84,-72.72 50.15,-108.42 23.39,19.7 22.99,33.16 78.99,72.67 8.53,6.01 93.33,57.26 93.7,57.89 -71.53,7.55 -158.28,20.16 -225.33,43.24 -21.17,7.29 -48.7,22.13 -65.57,26.46zm-2319.83 -543.13c79.44,0 698.08,-4.46 720.22,2.09l1.52 353.48 -655.78 0.4c-22.39,-70.19 -31.85,-69.59 -47.29,-162.63 -10.65,-64.1 -15.12,-126.99 -18.66,-193.35zm90.68 389.99l626.55 -0.4 2.55 359.4c-284.81,-48.65 -527.04,-170.7 -629.1,-359zm1596.02 -1225.7l1.85 -336.14 780.87 -0.21 -20.67 333.94c-21.49,7.37 -329.3,2.41 -379.31,2.41 -127.58,0 -255.16,0 -382.74,0zm777.96 1025.69l92.89 -1404.83c9.78,11.1 23.1,40.73 32.29,55.13 38.68,60.55 71.96,95.69 117.91,147.02l227.91 211.43c43.23,34.23 102.3,92.28 140.89,124.1 31.62,26.08 157.11,150.6 171.54,182.32 -54.19,2.84 -117.19,23.65 -131.84,81.66 9.95,9.03 12.27,11.23 22.67,17.85 35.36,-21.53 74.81,-45.21 122.95,-11.62 78.4,54.71 59.86,166.35 -21.8,217.72 -40.53,25.48 -94.99,26.38 -146.78,18.36 -99.85,-15.46 -199.19,-45.15 -303.69,-19.86 -94.28,22.81 -140.36,83.65 -156.3,186.31 -49.16,23.93 -76.46,47.15 -67.73,117.89 -0.87,0.46 -2.21,-0.04 -2.72,1.1 -1.77,3.99 -2.69,1.14 -5.44,1.93 -2.73,0.78 -5.7,1.35 -8.16,1.91 -36.18,8.21 -44.69,27.84 -56.96,56.05 -5.83,13.39 -11.68,12.79 -27.64,15.53zm237.51 -169.86c-33.8,-102.04 18.82,-172.17 112.89,-188.66 106.95,-18.74 188.14,19.49 282.46,35.92 204.86,35.66 280.72,-107.84 226.97,-220.64 -21.06,-44.2 -43.84,-55.02 -84.1,-80.65 47.83,-19.32 91.04,1.7 113.16,29.02 31.58,39.03 18.73,77.54 21.49,127.4 35.21,15.65 66.57,-1.16 90.21,-22.55 49.25,42.98 -8.32,98.71 -50.05,118.07 6.46,12 20.98,17.67 31.08,26.88 34.02,31.03 49.23,80.2 36.64,127.96 -8.69,32.96 -26.16,53.45 -48.07,68.19 -30.12,20.26 -60,20.28 -84.26,33.63l21.1 19.2c20.88,26.58 25.59,58.88 25.72,93.86l68.82 -18.87c0.96,-44.32 -18.56,-67.42 -35.7,-90.2 56.63,-20.59 95.57,-43.82 115.46,-94.53 30.35,-77.42 -13.72,-121.16 -35.73,-158.27 67.37,-70.78 43.08,-181.91 -52.38,-204.7 3.68,39.2 -5.47,67.9 -46.62,68.06 0.82,-37.79 -0.46,-67.2 -14.24,-98.93 -10.68,-24.62 -32.81,-48.85 -50.34,-62.65 -17.02,-13.36 -31.42,-51.16 -42.47,-70.64 -34.43,-60.73 -77.37,-112.77 -120.35,-167.24 -41.19,-52.23 -207.49,-208.97 -260.49,-256.43 -75.41,-67.52 -162.55,-157.6 -196.57,-262.21 -27.92,-85.87 -10.37,-119.23 5.14,-196.77l-23.57 -7.02c-11.83,45.57 -27.88,66.74 -29.25,124.43 -3.67,153.53 126.45,286.3 229.6,382.08 26.98,25.05 51.92,51.2 78.61,76.46 25.55,24.2 52.95,49.12 74.83,77.03 11.43,14.55 23.69,26.31 35.6,41.93 10.25,13.45 23.91,29.96 31.02,44.93 -10.91,-8.46 -16.91,-14.5 -28.66,-24.57l-208.93 -182.1c-39.07,-31.42 -134.46,-126.47 -168.93,-167.02 -16.76,-19.72 -34.08,-41.53 -50.24,-62.96 -150.7,-199.71 -96.61,-380.35 104.21,-503.18 23.07,-14.11 48.31,-25.42 70.71,-40.08 -39.59,-20.38 -68.76,-27.81 -99.01,-56.02 -153.56,-143.23 121.21,-253.34 222.11,-314.28 62.64,-37.85 138.16,-97.72 124.21,-180.76 -8.21,-48.93 -45.97,-66.73 -65.17,-89.26 101,-4.5 106.38,63.4 115.55,150.96 29.89,-16.05 45.23,-51 74.15,-69.86 29.82,110.97 1.36,171.13 -97.55,223.74 -38.07,20.24 -75.56,36.23 -118.93,52.31 -37.36,13.85 -95.58,32.35 -115.35,55.91 -34.75,41.38 5.52,95.2 51.62,94.26 23.04,-0.47 46.53,-18.64 55.39,-29.18 7.26,-8.64 9.51,-12.72 18.65,-23.39 6.41,-7.5 14.25,-16.58 20.54,-24.73 34.75,-45.07 95.56,-101.32 160.28,-96.63 20.47,1.48 51.11,12.36 60.34,24.69 -17.88,18.59 -22.93,14.94 -37.85,41.55 -17.34,30.9 -9.57,38.52 -3.42,69.05 11.33,56.32 -32.55,78.01 -77.14,89.31 -41.59,10.54 -96.38,14.73 -128.55,36.35 -21.47,14.43 -78.62,57.9 -55.75,100.15 21.71,40.1 79.7,30.71 116.09,8.65 19.26,-11.68 31.9,-25.59 44.39,-39.73 13.98,-15.86 26.4,-28.56 39.3,-44.65 19.27,-24.02 66.39,-66.53 110.41,-30.87l44.52 39.48c21.24,16.22 40.32,15.59 58.27,0.08 -3.29,41.15 -48.15,82.16 -74.62,97.59 -66.38,38.66 -177.8,14.21 -203.1,58.78 -12.77,22.47 2.93,51.46 15.1,60.82 96.3,74.13 179.41,-133.93 388.86,-110.03 51.83,5.92 98.77,23.29 119.38,54.2 27.22,40.82 41.38,88.4 1.32,124.76 13.31,47.47 42.86,80.64 20.42,143.78 -15.52,43.68 -54.95,70.88 -112.16,73.81l19.93 -17.46c8.69,-6.74 12.86,-10.32 19.81,-18.87 110.63,-136.33 -26.27,-268.47 -225.45,-202.92 -80.23,26.4 -130.05,71.79 -221.91,85.17 -107.77,15.72 -174.84,-28.64 -174.72,-133.2 -20,-1.91 -55.53,17.69 -68,26.14 -78.22,53.03 -60.91,132.31 -12.17,193.55 112.27,141.02 410.26,293.1 561.17,414.61 9.42,7.59 19.56,15.3 26.42,22.04 61.12,59.82 115.73,102.16 170.03,172.46 98.75,127.85 155.72,240.86 169.93,417.14 14.14,175.23 -14.87,329.22 -112.32,465.3 -14.39,20.1 -28.53,35.57 -42.91,53.99 -13.23,16.95 -29.21,34.85 -52.31,44.62 3.69,-25.1 10.78,-26.01 4.78,-59.47 -5.08,-28.38 -3.38,-36.41 6.71,-58.44 -31.61,-24.09 -98.15,-24.1 -139.42,-13.3 -87.76,23.01 -134.51,81.75 -207.32,125.58 -49.56,29.84 -68.6,36.22 -136.17,32.29 12.36,13.12 36.1,19.25 53.37,23.31 152.91,36.04 204.92,-168.38 373.86,-156.92 2.79,18.3 5.34,72.48 -0.26,88.38 -11.14,31.61 -29.63,38.86 -41.73,58.9 68.14,-8.96 113.18,-20.05 183.44,-1.72 131.76,34.38 229.23,192.82 113.49,298.19 -12.36,11.26 -41.4,34.58 -62.68,39.17 17.27,-31.07 49.34,-71.13 41.04,-122.15 -7.19,-44.1 -42.65,-65.89 -82.41,-82.27 -75.52,-31.13 -208.89,-37.23 -297.4,-32.34 -101.18,5.58 -200.77,24.55 -302.04,26.81 -66.69,1.48 -246.19,-15.05 -269.98,-60.36 14.99,-25.07 69.65,-9.46 88.94,9.13 11.68,11.26 9.07,15.35 16.24,25.03 19.73,-20.76 23.37,-50.5 2.23,-69.35 -69.02,-61.6 -252.73,48.04 -407.75,-80.15 -16.53,-13.67 -35.42,-31.01 -45.53,-54.73 -12.95,-30.41 -6.3,-59.88 30.44,-59.31 22.18,45.21 54.52,75.61 116.22,85.45 -22.76,-22.38 -42.6,-39.56 -60.23,-70.5 -17.95,-31.51 -26.59,-74.39 12.44,-90.33 38.49,42.99 43.76,69.73 125.62,73.72 -24.69,-24.63 -45.96,-36.98 -65.05,-72.55 -19.46,-36.27 -15.85,-88.44 14.87,-104.05 15.72,45.87 44.32,70.27 85.54,90.78 -10.58,52.42 -11.39,92.83 23.47,122.1 62.83,52.73 193.29,39.11 266.07,8.14 40.52,-17.23 78.16,-43.06 97.42,-69.81 44.98,6.22 80.88,18.04 130.47,19.92 38.5,1.46 79.42,-4.12 115.26,-17.18 17.86,-6.5 7.16,0.97 10.8,-8.65 -45.95,-17.02 -158.37,28.42 -326.95,-76.9 -74.77,-46.71 -127.15,-87.87 -227.15,-50.8 -13.54,5.02 -22.43,9.81 -34.23,17.44 -13.59,8.76 -17.63,12.94 -28.71,22.17 -29.37,-22.74 -20.11,-62.57 3.29,-86.27 44.61,-45.16 84.4,-36.52 142.14,-36.85l43.9 -5.26c-2.43,-1.42 -1.46,-1.31 -7.73,-3.66l-25.96 -6.78c-58.17,-14.19 -116.67,-26.75 -168.04,11.02 -14.78,10.86 -21.88,23.31 -33.34,37.71 -3.75,4.71 -2.86,3.78 -6.54,7.29zm87.54 135.03c30.93,-98.32 200.63,-86.59 168.76,10.02 -32.76,99.28 -199.24,86.89 -168.76,-10.02zm-1103.91 -1360.89l0.52 -378.79 813.47 -1.34 -23.84 379.78 -790.14 0.34zm6.17 -413.81l0.2 -348.91c55.92,-6.68 353.46,19.4 426.18,26.83 135.96,13.91 264.37,33.06 396.34,55.69l-16.26 266.01 -806.46 0.37zm1349.57 -57.36c56.44,-28.48 38.94,-9.65 64.04,-24.3 -5.14,20.57 -81.06,87.76 -99.26,69.88 -18.96,-18.62 26.49,-41.17 35.22,-45.58zm-3748.6 -23.69c16.96,6.11 18.39,4.92 35.32,9.12 8.03,1.98 49.49,23.46 57.73,32.77 8.54,9.66 12.15,16.56 6.53,29.04 -26.1,5.61 -65.95,-29.45 -78.85,-43.98l-14.69 -17.75c-5.68,-7.36 -1.4,0.4 -6.05,-9.2zm2917.1 -727.78c-19.93,4.51 -149.53,-28.7 -183.82,-33l90.33 -705.74 307.51 49.81 -214.02 688.93zm-589.73 -84.41l-215.59 -11.87c-5.83,-22.13 17.36,-626.31 19.36,-705.16l247.3 9.84c2.64,35.55 -47.46,697.81 -51.07,707.19zm-643.62 -12.24l-215.76 13.16 -51.09 -707.54c30.72,-3.23 230.49,-14.04 245.69,-8.86l21.16 703.24zm381.34 -1.84c-90.45,1.85 -69.14,15.06 -69.29,-109.3 -0.11,-86.63 19.98,-227.03 -104.61,-227.24 -65.43,-0.1 -104.95,49.2 -104.96,117.38l-0.79 217.37 -57.81 1.97c-8.8,-228.68 -11.85,-460.1 -18.68,-689.43 -0.56,-18.87 -0.9,-37.74 -1.42,-56.6 -0.66,-23.77 3.21,-33.54 2.52,-54.96 -0.82,-24.91 -6.47,-94.83 -1.01,-114.22l43.74 -0.61c-6.68,22.34 0.44,106.68 1.14,136.2 18.51,4.95 75.98,1.51 98.84,1.4l3.36 -138.14 79.04 -0.13 3.8 135.69c14,4.78 85.71,3.81 98.3,-0.17l4.76 -131.77c13.58,-4.14 29.1,-4.75 42.99,-1.27 4.4,28.73 -1.9,83.97 -1.75,116.32 0.1,20.54 3.05,34.96 2.19,58.15l-7.68 284.35c-3.39,150.92 -6.24,304.38 -12.66,455.01zm325.58 -167.41c5.02,-62.8 9.25,-124.89 14.05,-187.45 4.67,-60.7 21.33,-334.16 28.8,-368.52l-68.48 -5.72 6.01 -169.79 80.88 5.56 -2.59 118.55c8.49,0.56 18.5,2.18 26.47,2.18 61.3,-0.05 44.86,8.77 77.19,8.05l12.18 -115.06c15.78,-2.96 63.72,5.49 83.26,7.34l-8.76 117.13 88.85 13.66 16.89 -116.18 55.52 6.41c1.29,24.66 -90.63,717.55 -101.05,797.61l-10.85 86.39c-1.84,18.66 1.47,19.21 -12.72,19.02 -0.54,-0.63 -1.08,-2.59 -1.2,-2.15l2.72 -47.03c2.57,-18.61 5.14,-36.73 7.51,-54.52 4.74,-35.55 9.34,-69.97 14.45,-105.54 5.71,-39.72 4.84,-69.77 -14.99,-99.23 -26.69,-39.65 -80.22,-58.81 -128.84,-40.87 -41.58,15.34 -63.24,65.53 -70.27,111.07 -10.85,70.28 -20.34,142.97 -28.85,213.33 -24.44,-1.99 -59.98,-0.78 -79.41,-10.12 0.9,-57.8 8.59,-125.9 13.24,-184.12zm584.93 -653.51c0.47,-0.51 -0.4,-0.21 0,0zm97.78 185.01c-41.53,-8.8 -81.9,-16.15 -124.45,-23.89l23.58 -158.9c1.98,-1.23 2.79,-1.88 3.09,-2.22 0.3,0.17 1.33,0.26 4.25,-0.12l32.08 4.55 -8.63 117.9 108.7 18.59 18.07 -112.79 79.18 14.35 -20.79 116.52c15.58,8.99 86.36,23.82 106.47,24.2 5.38,-20.14 8.62,-38.43 12.95,-58.39l11.26 -50.36c4.11,-11.13 0.81,-2.73 3.39,-7.33 13.66,2.27 31.55,4.71 40.86,11.21l-118.08 578.43c-83.96,-8.76 -119.13,34.23 -135.28,104.21 -14.07,60.93 -36,134.7 -44.89,193.88l-85.22 -22.2 212.31 -718.21c-2.07,-0.87 -3.21,-2.32 -3.57,-1.64 -0.38,0.67 -1.72,-0.95 -2.24,-1.18 -1.78,-0.76 -5.33,-2.22 -7.22,-2.82l-105.8 -23.79zm568.82 1309.21c-0.32,-16.58 -3.35,-16.36 6.56,-26.74 19.31,-20.23 37.88,-31.26 67.3,-35.98 -4.34,8.73 -21.01,32.42 -28.09,39.74 -14.58,15.1 -13.64,25.02 -45.77,22.97zm-3497.75 2015.49c-25.04,-100.38 145.81,-99.08 170.66,-4.12 26.32,100.49 -146.57,100.77 -170.66,4.12zm-265.7 -1682.9l78.78 13.94c15.61,9.31 9.28,45.78 -41.46,12.36 -13.93,-9.18 -27.86,-15.49 -37.31,-26.3zm218.41 -395.52c31.7,7.27 74.77,22.64 73.99,61.4 -34.32,9.26 -61.56,-36.05 -73.99,-61.4zm3610.12 2065.43l48.79 25.32c-15.19,29.2 -79.61,76.52 -132.21,76.67 37.95,-15.65 74.61,-53.25 83.42,-101.99zm144.57 -1634.85c-20.48,-23.57 25.17,-24.67 56.19,-31.58l18.91 -2.28c7.1,1.2 3.33,0.15 7.57,2.8 -14.76,4.83 -65.36,50.98 -82.67,31.06zm-2114.2 1419.39l2.17 130.58 -122.86 9.99 -15.87 -119.46 -106.75 29.71 80.25 447.54c93.99,-15.24 108.21,-26.84 228.08,-38.82 9.86,-40.34 -3.22,-138.06 2.98,-187.11 16.34,-129.17 176.34,-127.53 195.81,-5.44 7.36,46.15 4.03,137.46 4.97,188.69 14.73,5.85 97.48,12.65 122.05,16.93 22.39,3.9 103.83,24 116.48,22.93l80.13 -444.73 -107.18 -30.62 -15.01 119.3 -123.05 -9.04 2.5 -130.06 -100.28 -9.87 -0.08 124.85 -144.98 -0.1 0.03 -123.3 -99.41 8.02zm244.14 -1678.86l-144 -0.07 -0.76 -123.37 -100.52 7.95c0.74,26.06 7.51,112.68 0.95,130.55l-121.63 9.97 -14.61 -117.86c-21.3,-0.17 -87.1,21.72 -106.71,29.18l80.12 446.54c76.83,-13.28 145.46,-33.69 229.86,-38.8 0,-99.77 -30.9,-284.35 99.56,-284.2 55.48,0.06 91.13,43.1 97.98,95.22 7.09,53.9 -4.06,137.22 5.9,187.26 41.46,3.21 81.99,8.09 121.83,14.99 34.97,6.04 83.16,20.63 113.61,23.7 7.44,-14.55 62.04,-341.34 76.48,-416.65l3.06 -21.84c-0.58,-6.14 -0.17,-3.96 -2,-7.79l-103.13 -30.27 -14.89 119.67 -120.12 -9.1c-0.41,-1.54 -0.9,-3.6 -1.03,-3.17l0.78 -127.36 -99.6 -9.48 -1.12 124.94zm-243.35 778.29l1.47 130.48 -123.87 10.18 -14.73 -117.57c-14.45,-3.23 -93.06,22.2 -106.07,29.99l79.45 445.63c76.52,-17.02 146.75,-32.17 229.26,-38.96 3.71,-58.31 -5.49,-133.38 1.88,-188.45 6.82,-51.05 41.24,-94.31 95.01,-95.55 131.3,-3.05 103.73,179.33 105.59,279.37 11.45,5.38 99.08,13.79 121.4,17.57 34.02,5.76 86.64,21.44 115.53,23.5l81.63 -444.96 -106.55 -31.01 -15.4 118.8 -123.85 -8.54 3.44 -130.07 -100.56 -9.9 -0.06 125.18 -144.98 -0.14 -0.01 -123.57 -98.58 8.02zm322.83 2454.4l30.2 127.25 -75.89 -1.53 45.69 -125.72zm105.35 73.71c100.08,-4.66 101.34,141.03 88.6,157.13 -10.96,13.87 -37.44,9.8 -47.08,-2.42 -8.09,-10.26 -12.77,-33.53 -16.51,-48.24 -8.54,-33.62 -19.47,-73.17 -25.01,-106.47zm-4.14 -16.27c-3.71,-15.75 -36.85,-127.04 -31.51,-137.62 7.49,-14.83 53.93,-12.99 77.17,75.77 12.51,47.75 0.74,62.17 -45.66,61.85zm-140.56 -158.25c9.39,16.47 28.55,4.33 40.47,26.19 7.72,14.12 -4,34.93 -8.91,48.9l-67.28 191.23c-7.01,20.63 -13.98,53.97 -30.56,66.66 -11.65,8.93 -11.59,0.19 -10.48,16.94l74.7 0.94c5.94,-15.19 -4.55,-12.38 -12.31,-15.15 -10.84,-3.87 -6.24,-0.58 -15.69,-8.66 -3.88,-22.44 8.98,-63.11 18.87,-79.41l84.01 0.56c8.22,15.76 21.29,66.11 13.46,81.09 -6.61,9.75 1.54,3.25 -12.1,7.74 -17.04,5.61 -11.65,0.42 -15.38,8.7 3.5,5.65 -4.7,6.17 26.9,6.73 10.04,0.19 20.03,0.42 29.95,0.71 65.96,1.86 146.66,16.34 176.68,-23.82 21.1,-28.22 8.32,-79.04 -7.34,-105.33 -23.27,-39.04 -36.01,-37.41 -76.02,-59.24 21.01,-17.18 42.16,-16.39 42.07,-58.18 -0.18,-75.42 -70.22,-106.11 -142.15,-108.12 -47.81,-1.34 -27.36,-0.59 -42.54,-9.45l-11.25 5.88c-6.28,1.93 -10.53,1.51 -17.61,1.24 -5.54,-0.2 -14.7,-1.27 -19.78,-1.09 -4.14,0.15 -5.38,0.06 -9.37,1.13 -7.94,2.09 -3.98,0.53 -8.34,3.81zm-1626.22 281.5c-3.54,-30.5 -31.76,-155.12 -20.92,-175.91 7.26,-13.92 36.42,-10.41 47.86,-0.58 20.9,17.99 28.65,67.08 31.78,101.68 4.54,50.49 -7.34,74.7 -58.72,74.81zm6.75 20.53c14.4,0.71 19.85,18.2 33.94,41.22 22.13,36.12 64.02,109.35 77.26,144.69 21.83,-1.79 58.64,-1.56 76.32,-9.75 0.34,-24.18 -2.09,-2.77 -16.04,-23.64 -5.24,-7.85 -9.76,-18.05 -13.59,-25.18 -24.07,-44.64 -72.53,-117.53 -85.02,-141.81 2.52,-3.13 0.89,-1.61 5.03,-5.15 0.7,-0.59 2.97,-2.29 3.75,-2.86 10.44,-7.66 14.35,-7.36 23.55,-24.9 23.25,-44.27 9.92,-117.3 -18.29,-148.45 -24.89,-27.46 -48.49,-32.74 -97.45,-29.52 -35.8,2.35 -83.24,3.66 -117.75,9.06 -1.77,29.1 18.32,2.39 30.67,33.63l30.91 169.46c6.91,38.56 14.3,75.99 21.11,114.52 20.62,116.57 -24.02,57.92 -21.49,96.65 13.78,3.57 112.51,-3.57 124.18,-8.9 0.7,-19.19 1.92,-11.2 -15.44,-16.68 -10.49,-3.33 -12.66,-4.63 -16.93,-15.21l-24.72 -157.19zm2502.98 -79.58c2.98,-34.04 13.09,-72.74 17.89,-108.23 1.96,-14.46 0.4,-44.19 12.26,-52.16 20.93,-14.06 84.49,4.95 48.71,113.44 -13.32,40.39 -30.9,48.3 -78.86,46.94zm46.17 -181.3c-20.76,-1.16 -108.82,-12.37 -118.92,-2.38 3.29,25.7 38.98,-14.67 25.71,82.07l-41.65 252.13c-11.92,27.56 -28.94,2.79 -30.22,27.67 13.52,7.69 70.16,9.92 96.56,13.23l29.14 -0.31c-1.27,-15.47 2.72,-7.59 -13.95,-15.15 -23.78,-10.79 -17.41,-36.6 -13.07,-67 2.25,-15.81 7.54,-81.59 20.52,-90.91 11.13,6.23 11.92,24.4 17.42,45.64 14,54.13 35.13,108.06 42.76,137.9 18.75,1.5 65.38,10.44 76.64,5.67 -1.34,-21.59 -0.89,-2.07 -12.36,-21.1 -3.88,-6.44 -6.4,-15.74 -8.97,-23.26 -5.55,-16.22 -10,-30.57 -15.03,-46.44 -8.51,-26.92 -22.66,-72.55 -25.94,-99.81 17.36,-10.51 26.72,-7.41 41.78,-22.72 39.7,-40.35 51.53,-98.75 22.49,-138.74 -19.5,-26.86 -52.91,-34.26 -92.91,-36.49zm-1646.01 65.47c-2.21,-35.73 -15.52,-85.91 26.51,-84.47 88.49,3.06 106.14,284.85 36.73,337.55 -8.89,6.75 -27.61,14.53 -40.52,9.31 -16,-6.46 -11.93,-30.44 -12.59,-45.91 -3.12,-72.12 -5.7,-144.76 -10.13,-216.48zm-99.84 -93.7c3.06,39.51 30.12,-32.63 35.48,80.77 1.75,37.01 4.12,74 6.19,111.18 2,36.03 4.59,72.29 6.3,108.41 0.75,15.99 3.47,41.01 -1.68,55.81 -3.46,9.92 -5.98,10.85 -13.89,15.1 -15.12,8.1 -12.74,-0.15 -12.75,16.45 11.16,4.49 144.94,-5.22 187.24,-39.14 81.4,-65.25 94.47,-263.57 -1.92,-336.6 -26.31,-19.92 -56.21,-23.36 -94.81,-20.85 -25.6,1.65 -92.18,-0.17 -110.17,8.87zm1449.41 22.23c116.95,-32.81 61.07,320.8 -8.86,342.21 -41.05,12.58 -60.09,-24.37 -67.57,-56.64 -14.12,-60.95 6.92,-266.06 76.43,-285.57zm-15.89 -16.22c-115.94,27.72 -173.1,225.68 -94.4,328.95 19.49,25.57 63.69,58.61 117.4,48.08 92.91,-18.22 176.11,-225.17 93.58,-333.24 -19.99,-26.17 -63.81,-56.4 -116.58,-43.79zm-1969.43 227.32c-8.96,-17 -12.25,-69.43 -14.89,-93.07 -3.34,-29.85 -15.48,-70.35 14.76,-78.9 12.15,-3.44 32.91,-3.18 45.66,-0.31 52.42,11.81 48.07,77.68 64.32,92.29l-3.7 -121.29c-30.62,-0.19 -130.85,10.59 -172.78,14.39 -9.92,0.91 -19.79,1.48 -29.71,2.27 -2.72,0.22 -11.53,1.2 -13.47,1.75 -10.77,3.07 -2.86,-1.16 -9.16,4.48l0.67 9.69c22.95,8.67 28.77,-0.15 34.68,28.39l38.67 278.42c14.72,116.58 -25.11,48.39 -25.01,94.95l217.09 -25.33c4.87,-17.29 11.08,-116.13 4.72,-126.61 -16.9,2.9 -6.93,6.25 -17.77,42.61 -16.86,56.56 -68.71,92.48 -102.32,73.85 -19.35,-14.34 -14.98,-61.73 -17.99,-86.05 -3.81,-30.74 -9.32,-60.09 -12.38,-90.97 33.4,0.74 44.76,7.59 56.62,30.58 16.75,32.45 11.13,51.83 22.75,57.72 4.72,-6.14 1.04,2.65 2.74,-7.03 1.81,-10.31 -16.04,-131.97 -18.82,-154.16 -4.91,-39.34 0.19,-41.14 -13.68,-44.41 -12.22,38.1 13.14,89.39 -51.01,96.73zm240.91 -155.78c-4.77,-59.52 45.21,-43.02 58.36,-11.57 6.57,15.68 34.6,129.39 -17.16,151.6 -31.21,13.39 -28,2.16 -30.41,-23.14 -3.68,-38.67 -7.66,-78.02 -10.79,-116.88zm-61 355.41l5.18 1.81c14.43,2.41 112.08,-12.11 118.58,-14.73 2.38,-41.63 -28.74,27.65 -36.24,-74.38 -2.43,-32.98 -8.53,-68.2 -9.68,-100.1 16.95,-7.85 144.04,-0.96 116.76,-148.13 -18.3,-98.73 -89.77,-81.18 -185.28,-73.17 -11.11,0.93 -63.24,-0.19 -43.3,16.74 15.31,12.99 23.18,-6.38 31.16,36.97l30.85 309.97c-3.21,41.15 -25.65,19.28 -28.03,45.02zm2521.53 -132.47c38.01,24.25 34.39,-5.76 18.59,86.61 -6.01,35.14 -10.16,77.34 -58.15,59.31 -27.86,-10.46 -41.87,-48.54 -41.9,-84.46 -0.03,-76.25 40.76,-236.83 90.8,-281.29 31.86,-28.32 62.21,-3.28 78.25,18.85 28.6,39.51 20.53,80.28 28.45,95.58 10.65,-3.3 5.63,4.94 10.76,-13.26 6.62,-23.45 20.44,-104.54 16.65,-125.12 -12.77,0.56 -14.69,13.83 -20.19,24.25 -31.56,1.29 -51.4,-42.51 -111.3,-30.13 -36.94,7.64 -67.1,40.25 -83.19,62.42 -122.21,168.49 -81.16,381.67 81.45,353.14 98.49,-17.28 47.59,-67.82 82.87,-133.96 16.9,-31.67 36.76,-0.3 37.87,-31.95 -15.4,-4.1 -54.7,-5.81 -72.87,-7.37 -54.32,-4.64 -55,-11.84 -58.09,7.37zm473.36 -95.44c-10.8,-46.99 -27.5,-82.51 -40.19,-124.09l-82.48 -0.18c0.2,21.38 11.01,8.5 23.84,48.59 7.13,22.23 -59.82,228.99 -69.22,266.6 -7.64,30.53 -8.74,64.06 -30.56,72.82 -18.14,7.29 -16.17,-4.63 -16.61,15.89 15.49,8.46 63.13,7.73 83.99,7.94 0.52,-20.85 4.14,-11.15 -11.35,-19.23 -6.49,-3.38 -8.79,-2.7 -13.62,-12.04 -6.81,-13.18 -4.01,-30.21 -0.67,-44.43l69.8 -243.91c12.11,21.22 38.05,194.4 60.91,264.82 5.13,15.78 17.8,69.33 33.95,71.57 3.37,-5.36 18.55,-98.61 22.63,-115.14 16.38,-66.15 46.13,-140.75 65.88,-211.95 4.69,-16.87 9.56,-41.86 15.28,-55.84 13.33,-32.62 30.03,-2.89 31.96,-36.21l-83.95 -3.71c-0.54,26.65 5.3,8.96 19.82,26.09 7.1,8.37 9.07,20.63 8.57,32.62 -1.29,31.22 -49.51,182.97 -60.81,199.41 -6.91,-14.84 -21.11,-113.14 -27.19,-139.59zm158.53 -108.12c2.42,24.53 29.74,-2.16 28.32,41.94 -0.58,18.11 -8.13,39.58 -13.04,56.34 -20.29,69.39 -49.35,140.25 -68.48,209.34 -7.47,26.97 -11.3,63.82 -29.95,73.41 -16.82,8.65 -17.38,-0.79 -20.92,16.4 0.85,0.55 2.18,0.1 2.74,1.29l57.27 -0.51c19.8,-1.65 39.43,-3.87 58.5,-6.53 38.13,-5.33 74.47,-14.82 110.3,-19.78 3.37,-19.92 9.19,-42.38 16.27,-60.75 7.6,-19.71 18.82,-38.54 24.45,-55.31 -14.74,1.88 -12.29,3.14 -19.15,15.41 -4.4,7.86 -8.3,13.92 -13.61,21.86 -17.16,25.64 -42.62,56.8 -71.18,71.02 -16.9,8.42 -37.74,14.45 -59.35,9.48 -14.05,-19.51 3.88,-63.91 11.07,-86.82 7.07,-22.54 19.34,-64.13 29.89,-83.32 71.33,-6.35 26.31,67.25 35.53,84.73 11.36,-4.62 14.48,-25.49 22.02,-46.47 6.03,-16.77 12.2,-32.92 18.49,-49.37l31.2 -85.56c0.88,-3.48 1.09,-3.6 0.99,-6.71 -0.28,-8.86 2.14,0.02 -1.61,-5.69 -20.7,6.47 -22.13,84.47 -98.69,88.32 1.33,-13.61 19.03,-55.59 24.38,-72.88 4.41,-14.25 17.28,-73.19 22.34,-80.93 12.73,-19.54 62.62,-11.47 79.87,1.38 21.33,15.9 18.87,49.6 15.82,81.11 13.71,0.22 11.23,-3.07 15.31,-16.78 3.01,-10.11 5.82,-19.88 8.43,-30.4 4.53,-18.31 9.32,-42.66 7.73,-61.82l-215.13 -8.13c-20.1,3.42 -2.24,-0.06 -9.82,5.76zm-4058.82 182.74c-34.72,-46.85 -112.64,-148.37 -136.45,-195.34l-83.56 -3.13c1.07,19.05 4.42,11.84 15.67,24.75 27.14,31.19 24.85,43.33 34.73,84.66 10.09,42.22 65.16,232.59 57.18,257.38 -5.37,16.7 -17.13,8.33 -25.42,17.27 -11.24,12.13 9.69,13.47 18.74,14.55 14.56,1.71 56.63,9.71 66.7,4.85 -3.8,-28.52 -29.13,0.65 -42.76,-61.22 -13.91,-63.13 -57.73,-214.83 -60.68,-248.63 54.21,64.84 167.31,218.6 214.06,292.11 14.87,23.39 16.91,37.22 30.77,40.46 12.76,-25.06 -51.84,-290.02 -58.61,-322.4 -22.21,-106.26 14.45,-63.97 17.7,-94.51 -5.18,-4.58 -5.18,-5.38 -20.3,-5.47l-63.58 5.47c3.48,19.4 -4.03,5.87 11.18,13.56 11.6,5.86 19.17,8.32 27.82,33.46l46.75 205.54c-14.46,-14.44 -36.02,-44.58 -49.93,-63.35zm1651.76 -1029.27c6.26,4.12 8.05,4.52 16.81,7.06 6.25,1.81 11.66,2.96 17.77,4.51 12.34,3.15 23.58,6.1 36.37,9.15 24.83,5.94 49.89,10.37 75.86,14.41 54.84,8.55 111.07,12.77 167.65,12.52 70.66,-0.32 260.73,-19.28 311.75,-47.66l-17.07 -7.41c-92.85,-25.41 -202.22,-41.12 -297.92,-40.48 -65.49,0.43 -267.44,21.6 -311.23,47.89zm631.15 -1795.57c-113.58,-25.4 -193.74,-47.19 -319.92,-46.76 -104.69,0.35 -221.86,19.09 -315.73,47.57 78.65,31.96 226.08,48.22 318.96,47.91 73.53,-0.24 257.95,-19.09 316.68,-48.72zm-634.43 893.84c0.72,0.51 1.75,1.08 2.29,1.38 52.92,27.93 241.62,47.51 308.99,47.65 83.77,0.17 168.79,-9.8 249.61,-28.25l70.09 -20.53c-60.93,-28.9 -239.69,-47.12 -316.47,-46.76 -118.57,0.52 -207.96,21.2 -314.51,46.51zm-1578.33 1736.41c-0.53,17.77 7.7,94.21 13.07,110.91 5.91,18.39 -2.36,6.63 9,10.99 14.02,-18.24 -21.88,-99.94 64.56,-106.39l57.13 304.09c21.45,107.34 -23.69,55.57 -25.25,89.67 0.74,0.45 1.95,0.02 2.4,0.99 0.45,0.99 1.84,0.76 2.49,0.88 13.12,2.73 78.26,-1.02 95.79,-1.32 5,-0.08 11.54,0.07 16.34,-0.25l16.38 -3.53c-1.31,-18.23 2.25,-9.51 -15.26,-14.32 -9.69,-2.66 -14.14,-4.68 -18.66,-13.62 -5.11,-10.13 -8.59,-36.83 -10.88,-50.09 -5.95,-34.46 -12.96,-68.92 -20.13,-102.67 -11.59,-54.69 -36.73,-158.38 -36.07,-212.82 54.15,1.13 66.35,33.52 82.41,85.31 4.62,14.87 0.7,11.63 11.69,14.83 0.45,-0.73 0.83,-2.84 0.92,-2.39 0.01,0.06 3.45,0.8 -1.25,-23.86l-10.49 -96.43 -234.17 10.02zm1501.81 -2808.87l7.03 39.07c26.82,-4.1 111.13,-31.31 179.81,-42.81 169.31,-28.35 336.73,-23.81 503.15,18.25 30.6,7.74 59.76,17.82 89.56,24.89l8.46 -39.7c-96.58,-40.6 -285.26,-62.7 -393.74,-62.22 -71.44,0.32 -140.25,6.68 -209.1,17.93 -40.11,6.56 -155.78,28.91 -185.17,44.59zm-0.55 892.12l7.73 41.01c26.86,-4.33 110.77,-31.13 178.72,-42.89 67.03,-11.59 135.16,-17.81 205.13,-17.89 162.77,-0.18 239.56,21.92 387.87,61l9.16 -40.44c-204.32,-62.44 -386.82,-78.17 -601.29,-43.78 -87.36,14 -121.29,29.51 -187.32,42.99zm7.13 941.38c27.01,-4.14 62.12,-17.47 90.22,-24.25 232.84,-56.12 454.54,-47.56 681.8,24.71l9.33 -40.51c-61.72,-16.89 -116.59,-33.61 -184.56,-44.84 -142.26,-23.49 -278.06,-22.15 -420.02,1.62 -79.51,13.31 -131.35,32.56 -185.02,42.49l8.25 40.77zm77.22 981.05c5.8,14.17 38.94,119.7 37.56,130.17l-73.24 3.17 35.69 -133.34zm-101.67 269.66l60.66 -3.88c16.59,-1.98 11.35,1.64 16.1,-7.6 -5.41,-13.54 5.75,-2.15 -27.45,-11.96 -9.12,-26.66 3.12,-62.8 11.7,-90.36l86.97 -5.16c5.43,29.14 28.99,75.41 10.04,89.15 -14.78,10.72 -20.78,-2.23 -22.87,15.11 5.19,4.87 0.5,5.47 28.2,3.21 10.88,-0.9 21.16,-1.69 32.17,-2.29 13.91,-0.76 52.9,-0.76 62.56,-7.38 -3.5,-22.15 -13.76,-3.07 -26.81,-35.62l-94.7 -312.32c-4.85,-16.88 -4.09,-17.22 -12.02,-20.49 -9.28,5.08 -2.06,-2.59 -7.32,8.97 -0.4,0.86 -3.14,10.39 -3.73,12.47l-90.15 329.8c-14.4,35.98 -23.05,14.44 -23.36,38.35zm87.89 -2148.13l8.39 42.13c19.52,-2.18 99.4,-22.2 147.64,-28.88 178.31,-24.71 310.6,-8.09 481.89,29.5l8.7 -41.41c-145.17,-48.52 -337.25,-55.51 -493.78,-33.12 -54.41,7.8 -102.07,21.88 -152.84,31.79zm7.79 942.45c23.15,-2.62 51.09,-11.52 75.27,-16.33 80.72,-16.07 157.97,-23.84 241.19,-23.61 161.42,0.43 180.71,18.75 314.09,40.53l6.94 -40.64c-53.56,-28.89 -251.49,-46.44 -324.26,-46.28 -69.38,0.16 -266.74,18.62 -320.88,46.46l7.66 39.87zm-7.66 -1836.61l7.95 42.35 145.41 -28.37c115.98,-16.37 218.86,-15.31 334.76,-0.24 53.66,6.97 100.22,20.57 150.21,29.26l7.77 -39.68c-31.19,-28.01 -260.42,-47.42 -318.76,-47.63 -162,-0.63 -192.41,20.39 -327.34,44.31zm2119.95 2759.41c-6.47,-2.67 -122.36,-13.14 -136.2,-6.46 2.72,20.84 0.2,6.47 19.98,16.72 9.05,4.69 10.94,12.38 11.56,21.86 1.04,15.96 -6.65,43.38 -10.35,59.17 -17.11,73.01 -39.98,141.15 -56.89,214.42 -3.9,16.91 -7.22,40.02 -12.47,55.41 -12.17,35.65 -35.91,-0.21 -34.72,33.07 13.96,5.63 108.94,13.45 128.82,13.35 1.06,-21.9 2.91,-11.16 -16.16,-19.32 -25.46,-10.88 -10.12,-56.07 -3.68,-82.28 9.21,-37.42 19.69,-72.74 30.11,-108.78l43.25 -166.74c14,-32.91 37.96,0.06 36.76,-30.42zm-2651.44 -69.27c-0.54,29.06 18.75,3.1 32.15,26.85 6.02,10.67 6.27,40.41 7.27,54.47 2.7,38.05 5.97,75.83 9.19,114.02 2.24,26.61 16.13,150.62 6.16,171.77 -3.7,7.84 -7.2,9.33 -15.96,13.05 -16.73,7.11 -13.28,-0.42 -13.26,19.09l103.55 -12.1c19.14,-2.02 27.17,2.55 28.6,-14.16 -0.7,-0.5 -1.93,-1.8 -2.34,-1.08l-20.83 -5.1c-18.44,-7.4 -15.78,-51.01 -16.94,-68.6l-14.9 -222.32c-7,-101.43 33.35,-48.06 34.59,-84.08l-137.28 8.18zm2195.73 46.65c0.24,-9.27 -0.6,-7.77 -28.69,-9.32l-108.59 -6.13c1.25,41.18 46.37,-20.73 27.11,88.97l-52.67 260.58c-11.26,28.9 -29.89,4.61 -34.06,27.77 8.18,11.57 71.66,13.25 99.87,17.15 33.66,4.65 25.12,2.88 30.24,-0.99 -1.85,-24.8 -25.37,-2.88 -31.09,-33.42 -4.95,-26.44 21.52,-132.41 27.93,-160.19l33.34 -160.44c11.54,-25.49 36.24,-9.1 36.62,-23.98zm-3541.71 35.53l-0.74 -11.28 -139.39 -14.67c1.24,25.3 20.28,7.49 34.45,32.81l69.76 253.15c5.05,19.23 21.91,68.33 5.02,79.4 -12.91,8.46 -16.09,-2.89 -24.23,9.55 4.26,13.41 17.04,11.74 32.06,14.74l105.01 20.62c-0.47,-18.62 2.16,-12.68 -16.2,-19.1 -26.2,-9.17 -24.09,-31.31 -32.19,-67.65 -15.1,-67.72 -39.05,-140.54 -56.28,-212.09 -24.01,-99.68 -4.96,-71.28 22.72,-85.5z"/>
   <g>
    <path class="fil1" d="M1502.17 3771.56l0 -1144.32 525.59 0 0 176.44 -320.31 0 0 273.32 294.65 0 0 176.44 -294.65 0 0 333.75 332.24 0 0 184.36 -537.52 0zm894.07 -971.11l0 791.5 87.76 0c64.55,0 109.13,-25.14 133.5,-75.74 24.51,-50.32 36.64,-157.1 36.64,-319.99 0,-162.88 -12.13,-269.66 -36.64,-319.98 -24.37,-50.6 -68.95,-75.79 -133.5,-75.79l-87.76 0zm-206.68 -173.22l321.45 0c125.36,0 213.37,42.13 264.25,126.33 50.67,84.54 76.08,233.11 76.08,446.1 0,212.72 -25.41,361.02 -76.08,445.55 -50.87,84.21 -138.89,126.33 -264.25,126.33l-321.45 0 0 -1144.32zm1480.46 0l0 717.07c0,159.99 -25.71,274.41 -77.23,343.26 -51.32,68.63 -135.94,103.06 -253.66,103.06 -113.47,0 -196.99,-33.66 -250.56,-100.65 -53.56,-67.26 -80.32,-171.41 -80.32,-312.28l0 -750.46 202.53 0 0 688.17c0,131.14 9.48,214.03 28.36,249.28 18.92,35.24 53.37,52.73 102.89,52.73 47.92,0 81.27,-19.62 99.94,-59.07 18.67,-39.23 28.16,-120.27 28.16,-242.94l0 -688.17 199.89 0zm787.54 753.36c0.9,6.06 1.34,12.95 1.59,20.1 0.2,7.16 0.4,18.04 0.4,32.63 0,113.6 -26.06,201.3 -78.53,262.99 -52.22,61.74 -126.95,92.73 -223.96,92.73 -44.83,0 -86.66,-6.88 -125.6,-20.93 -38.74,-14.04 -70,-33.11 -93.21,-57.49 -40.04,-40.82 -68.4,-98.79 -85.02,-173.76 -16.67,-74.97 -25.01,-196.55 -25.01,-364.47 0,-115.51 5.14,-205.07 15.52,-268.62 10.33,-63.55 27.46,-116.55 51.77,-158.95 24.12,-42.9 58.52,-75.73 103.09,-98.25 44.58,-22.51 97.05,-33.66 157.1,-33.66 98.35,0 172.63,29.39 222.36,88.46 50.02,59.06 74.98,146.77 74.98,263.32l0 21.74 -203.48 0 0 -21.74c0,-60.66 -7.84,-105.4 -24.06,-134.59 -15.97,-29.39 -40.54,-43.93 -73.44,-43.93 -45.68,0 -77.13,25.69 -94.31,76.83 -17.07,51.09 -25.61,170.32 -25.61,357.04 0,156.55 8.99,260.92 26.76,313.1 17.77,51.92 49.77,77.87 95.9,77.87 32.85,0 57.66,-15.9 74.04,-47.38 16.42,-31.53 24.81,-79.23 24.81,-143.6 0,-3.98 -0.25,-10.33 -0.7,-18.8 -0.5,-8.74 -0.65,-15.62 -0.65,-20.65l205.24 0zm362.14 -39.73l207.78 0 -100.84 -495.61 -106.93 495.61zm296.89 430.69l-51.96 -254.3 -282.46 0 -51.77 254.3 -203.94 0 274.13 -1144.32 259.3 0 270.13 1144.32 -213.42 0zm929.41 -390.96c0.9,6.06 1.35,12.95 1.6,20.1 0.15,7.16 0.4,18.04 0.4,32.63 0,113.6 -26.11,201.3 -78.58,262.99 -52.17,61.74 -126.9,92.73 -223.9,92.73 -44.83,0 -86.67,-6.88 -125.6,-20.93 -38.75,-14.04 -70.04,-33.11 -93.21,-57.49 -40.04,-40.82 -68.44,-98.79 -85.07,-173.76 -16.67,-74.97 -24.96,-196.55 -24.96,-364.47 0,-115.51 5.15,-205.07 15.53,-268.62 10.33,-63.55 27.41,-116.55 51.77,-158.95 24.07,-42.9 58.51,-75.73 103.04,-98.25 44.59,-22.51 97.05,-33.66 157.16,-33.66 98.35,0 172.63,29.39 222.36,88.46 50.02,59.06 74.98,146.77 74.98,263.32l0 21.74 -203.53 0 0 -21.74c0,-60.66 -7.84,-105.4 -24.01,-134.59 -15.98,-29.39 -40.54,-43.93 -73.44,-43.93 -45.68,0 -77.18,25.69 -94.31,76.83 -17.07,51.09 -25.61,170.32 -25.61,357.04 0,156.55 8.94,260.92 26.76,313.1 17.77,51.92 49.77,77.87 95.9,77.87 32.85,0 57.61,-15.9 74.04,-47.38 16.42,-31.53 24.76,-79.23 24.76,-143.6 0,-3.98 -0.2,-10.33 -0.7,-18.8 -0.45,-8.74 -0.65,-15.62 -0.65,-20.65l205.28 0zm-488.89 731.06l0 -100.1c35.55,10.88 67.55,19.07 96.1,24.91 28.61,5.52 52.67,8.47 72.49,8.47 23.21,0 40.03,-4.53 50.62,-13.5 10.58,-9.29 15.77,-23.6 15.77,-43.22 0,-19.83 -6.04,-33.88 -18.47,-42.07 -12.38,-8.25 -32.85,-12.46 -61.41,-12.46 -10.18,0 -17.77,0.27 -23.01,0.49 -5.35,0.27 -10.09,0.54 -14.63,1.09l0 -163.71 67.55 0 0 69.95 9.23 0c51.77,0 90.71,12.45 116.57,37.32 25.91,24.64 38.99,61.74 38.99,110.97 0,51.69 -14.43,90.6 -43.49,116.33 -29,25.96 -72.48,38.91 -130.49,38.91 -22.77,0 -49.08,-2.89 -79.03,-8.47 -29.75,-5.85 -62.16,-14.04 -96.8,-24.91zm851.03 -770.78l207.78 0 -100.84 -495.61 -106.94 495.61zm296.89 430.69l-51.97 -254.3 -282.51 0 -51.77 254.3 -203.93 0 274.18 -1144.32 259.29 0 270.09 1144.32 -213.37 0zm6.74 -1490.81c-11.03,64.1 -27.01,111.04 -47.72,140.92 -20.92,29.94 -47.92,45.02 -80.77,45.02 -8.34,0 -15.98,-0.49 -23.17,-1.86 -7.04,-1.31 -13.98,-3.44 -20.97,-5.79l-54.66 -21.2c-7.19,-2.41 -13.98,-4.48 -20.97,-5.85 -6.74,-1.31 -13.27,-1.86 -19.37,-1.86 -13.73,0 -24.32,5.08 -31.9,15.14 -7.68,10.05 -13.28,26.23 -16.93,48.47l-72.48 0c10.13,-64.09 25.46,-110.98 45.93,-140.92 20.27,-29.94 47.03,-45.02 79.93,-45.02 8.09,0 16.67,1.04 26.06,3.17 9.48,2.13 18.92,4.75 28.16,8.47l54.71 18.52c5.19,2.13 10.58,3.71 15.78,4.8 5.15,1.04 11.48,1.59 18.42,1.59 12.83,0 23.02,-5.3 31.06,-15.62 7.89,-10.33 13.08,-26.23 15.78,-47.98l73.13 0zm622.84 1508.3c-44.78,0 -86.66,-6.88 -125.56,-20.93 -38.99,-14.04 -70.04,-33.11 -93.21,-57.49 -40.09,-40.82 -68.7,-100.1 -86.02,-177.48 -17.32,-77.59 -26.11,-193.37 -26.11,-346.97 0,-118.96 5.19,-211.69 15.78,-278.4 10.58,-66.78 27.91,-121.09 52.17,-162.95 23.66,-42.35 58.11,-74.92 103.14,-97.7 44.98,-22.79 97.9,-34.21 158.4,-34.21 46.63,0 89.16,7.16 127.9,21.47 38.75,14.04 70.2,33.88 95.01,59.34 38.24,39.72 65.45,94.8 81.87,165.57 16.47,70.43 24.76,174.8 24.76,313.1 0,143.55 -5.15,248.95 -15.73,316 -10.58,66.99 -28.35,122.34 -53.36,166.33 -23.86,42.4 -58.26,75.52 -103.54,99.06 -45.23,23.61 -97.21,35.25 -155.51,35.25zm-126.95 -592.27c0,168.47 8.98,279.72 27.01,333.48 18.02,53.77 50.42,80.76 97.05,80.76 48.37,0 81.42,-25.95 99.69,-77.87 18.22,-52.18 27.4,-168.19 27.4,-348.07 0,-159.17 -8.94,-264.85 -26.96,-316.54 -18.02,-51.64 -50.67,-77.6 -97.7,-77.6 -47.72,0 -80.77,26.5 -99.04,79.17 -18.23,52.74 -27.46,161.58 -27.46,326.65zm946.48 574.78l0 -1144.32 525.59 0 0 176.44 -320.31 0 0 273.32 294.59 0 0 176.44 -294.59 0 0 333.75 332.24 0 0 184.36 -537.52 0zm-3943.25 1171.15c0.9,6.07 1.35,12.95 1.6,20.11 0.15,7.16 0.4,18.03 0.4,32.62 0,113.6 -26.11,201.31 -78.58,262.99 -52.17,61.75 -126.95,92.73 -223.9,92.73 -44.83,0 -86.67,-6.89 -125.6,-20.93 -38.75,-14.05 -70.04,-33.11 -93.21,-57.49 -40.09,-40.82 -68.44,-98.79 -85.07,-173.76 -16.67,-74.97 -24.96,-196.55 -24.96,-364.47 0,-115.51 5.15,-205.07 15.48,-268.62 10.38,-63.55 27.46,-116.55 51.77,-158.95 24.12,-42.9 58.51,-75.74 103.09,-98.25 44.59,-22.52 97.05,-33.66 157.16,-33.66 98.3,0 172.63,29.4 222.36,88.46 49.97,59.07 74.98,146.77 74.98,263.33l0 21.74 -203.53 0 0 -21.74c0,-60.66 -7.84,-105.41 -24.06,-134.59 -15.93,-29.4 -40.54,-43.93 -73.39,-43.93 -45.68,0 -77.18,25.69 -94.31,76.83 -17.07,51.09 -25.61,170.32 -25.61,357.03 0,156.55 8.94,260.92 26.71,313.1 17.82,51.91 49.77,77.87 95.95,77.87 32.8,0 57.61,-15.9 73.99,-47.38 16.47,-31.53 24.81,-79.23 24.81,-143.6 0,-3.99 -0.25,-10.33 -0.7,-18.8 -0.45,-8.75 -0.65,-15.63 -0.65,-20.66l205.28 0zm803.56 -753.35l0 717.07c0,159.99 -25.71,274.41 -77.23,343.26 -51.32,68.63 -135.94,103.05 -253.66,103.05 -113.48,0 -196.95,-33.66 -250.57,-100.65 -53.56,-67.26 -80.32,-171.41 -80.32,-312.28l0 -750.46 202.53 0 0 688.17c0,131.14 9.48,214.03 28.41,249.27 18.87,35.25 53.32,52.73 102.89,52.73 47.88,0 81.23,-19.62 99.9,-59.06 18.67,-39.23 28.16,-120.27 28.16,-242.94l0 -688.17 199.89 0zm173.08 1144.32l0 -1144.32 205.29 0 0 942.47 297.04 0 0 201.85 -502.33 0zm686.69 0l0 -956.79 -221.51 0 0 -187.53 653.69 0 0 187.53 -222.81 0 0 956.79 -209.37 0zm1189.61 -1144.32l0 717.07c0,159.99 -25.66,274.41 -77.18,343.26 -51.32,68.63 -135.99,103.05 -253.66,103.05 -113.53,0 -197,-33.66 -250.57,-100.65 -53.56,-67.26 -80.32,-171.41 -80.32,-312.28l0 -750.46 202.53 0 0 688.17c0,131.14 9.48,214.03 28.36,249.27 18.92,35.25 53.37,52.73 102.89,52.73 47.92,0 81.27,-19.62 99.94,-59.06 18.67,-39.23 28.11,-120.27 28.11,-242.94l0 -688.17 199.89 0zm462.08 0c119.07,0 199.89,21.2 242.68,63.61 42.54,42.35 63.9,119.17 63.9,230.42 0,87.92 -10.79,153.65 -32.6,197.09 -21.87,43.45 -58.11,72.57 -109.23,87.38 58.11,14.04 97.7,38.41 118.67,72.62 21.17,34.43 31.75,100.93 31.75,199.17 0,6.12 -0.25,15.62 -0.95,28.63 -0.65,12.95 -1.1,22.52 -1.1,28.85 0,52.19 2.2,96.94 6.29,134.59 4.29,37.32 10.58,71.53 19.57,101.96l-211.77 0c-9.23,-37.38 -14.23,-112.84 -15.12,-226.77 -0.45,-38.63 -0.85,-68.85 -1.3,-90.05 -1.35,-56.94 -10.38,-96.93 -27.06,-120.27 -16.63,-23.27 -44.58,-34.97 -83.72,-34.97l-85.12 0 0 472.06 -203.83 0 0 -1144.32 288.95 0zm-85.12 494.29l50.27 0c54.47,0 92.26,-12.18 113.68,-36.56 21.31,-24.37 31.95,-66.77 31.95,-127.43 0,-58.52 -9.68,-98.52 -29.05,-119.99 -19.37,-21.47 -56.96,-32.29 -112.77,-32.29l-54.07 0 0 316.27zm775.45 219.34l207.78 0 -100.84 -495.61 -106.94 495.61zm296.89 430.69l-51.97 -254.31 -282.51 0 -51.77 254.31 -203.93 0 274.13 -1144.32 259.34 0 270.09 1144.32 -213.37 0z"/>
    <path class="fil1" d="M0.44 1818.21l-0.35 42.07c-0.9,49.95 5.29,98.85 18.97,146.77 19.97,68.74 59.21,119.72 117.42,152.89 94.1,46.55 190.95,55.08 290.65,26.01 86.62,-27.7 146.73,-87.21 180.62,-178.9 29.31,-95.08 29.01,-189.88 -1.24,-284.63 -14.93,-44.09 -40.14,-79.67 -75.63,-106.38 -30.55,-20.49 -62.6,-37.98 -96.25,-52.29l-178.52 -71.86c-23.32,-9.56 -44.83,-22.56 -64.1,-39.34 -20.92,-17.81 -34.9,-40.71 -42.44,-68.74 -7.74,-34.59 -9.63,-69.45 -5.24,-104.69 8.69,-61.58 38.89,-105.02 90.66,-130.33 48.22,-20.54 97.45,-22.56 147.32,-6.17 52.32,19.19 84.37,58.14 96.2,117.32 4.39,26.01 6.89,52.35 7.84,78.68l116.77 0 0 -10.27c1.24,-36.94 -2.5,-73.17 -11.24,-108.74 -18.02,-76.99 -59.51,-133.43 -124.25,-169.34 -81.32,-37.32 -164.45,-43.82 -249.82,-19.18 -75.68,21.2 -131.1,70.16 -165.99,146.77 -32.4,84.15 -37.99,170.37 -16.82,258.62 10.58,45.85 32.05,84.15 64.45,114.92 29,25.68 61.05,45.51 95.95,59.5l187.86 75.63c23.01,9.23 44.53,21.53 64.75,37.26 27.41,21.58 45.18,50.32 52.97,86.23 7.43,38.3 8.69,76.99 3.99,115.95 -9.64,68.41 -43.28,116.66 -100.89,144.69 -38.89,16.45 -79.08,21.91 -120.87,16.45 -58.86,-7.54 -104.99,-37.97 -138.29,-91.69 -11.78,-22.56 -19.32,-46.88 -22.41,-72.51 -3.69,-34.54 -5.59,-69.45 -5.29,-104.69l-116.77 0zm773.36 -777.89l0 1142.9 520.2 0 0 -119.72 -402.43 0 0 -420.09 376.22 0 0 -114.59 -376.22 0 0 -367.74 402.43 0 0 -120.76 -520.2 0zm1173.33 339.71l119.62 0 -3.74 -44.48c-3.05,-38.68 -8.99,-76.99 -17.72,-114.58 -21.51,-73.93 -62.9,-130 -124.61,-168.3 -57.31,-28.74 -117.42,-40.05 -180.37,-34.21 -74.73,4.75 -138.23,36.56 -190.61,95.4 -45.48,55.41 -74.43,119.72 -86.57,192.94 -32.4,200.48 -32.4,400.91 -0.35,601.39 7.84,47.87 21.52,93.71 41.44,137.48 20.57,45.18 50.17,81.09 88.76,108.14 66.05,39.34 136.44,54.37 211.22,44.81 66,-7.22 122.11,-37.33 168.14,-90 40.54,-52.67 67.35,-112.89 80.08,-180.92 8.73,-52.73 13.73,-106.06 15.27,-159.77l-118.96 0 -4.39 49.94c-2.75,53.01 -12.43,104.7 -28.96,154.97 -13.38,37.97 -35.49,67.7 -66.64,89.61 -43.93,25.69 -89.71,30.82 -137.39,15.41 -33.9,-12.35 -60.75,-34.53 -80.32,-67.05 -26.22,-43.44 -42.69,-90.97 -49.22,-142.67 -14.98,-126.88 -19.32,-254.14 -13.08,-381.73 1.24,-74.26 12.13,-146.76 32.7,-217.59 8.09,-29.07 21.17,-55.07 39.24,-77.97 35.85,-42.46 80.08,-62.62 132.7,-60.55 40.19,0 75.38,14.37 105.58,43.44 26.46,29.4 44.53,64.31 53.87,104.65 6.89,33.55 11.53,67.43 14.32,101.63zm245.17 -342.12l0 1145.31 119.27 0 0 -508.67 157.01 0c34.55,-1.04 68.49,3.06 102.14,12.29 26.16,7.54 48.32,22.56 66.34,44.8 13.38,16.78 22.77,35.96 27.71,57.49 8.14,37.26 13.13,74.92 15.28,113.22l6.24 144.36c2.2,39.67 9.03,77.98 20.87,114.96 1.54,5.14 3.74,9.9 6.24,14.37 0.6,1.37 1.25,2.35 2.15,3.39 1.3,1.04 2.84,2.08 4.39,2.73 1.24,0.33 2.45,0.33 3.99,0.33l5.64 0.72 127.06 0 0 -22.57c-5.54,-6.5 -10.88,-13 -15.88,-19.51 -3.69,-4.43 -6.84,-9.23 -9.64,-14.37 -4.69,-8.91 -8.39,-18.47 -10.88,-28.74 -4.04,-18.47 -6.59,-37.26 -7.84,-56.45l-7.14 -143.65c-1.84,-40.05 -5.59,-79.72 -11.48,-118.68 -4.99,-31.15 -14.98,-60.22 -29.6,-87.27 -14.03,-22.89 -32.4,-40.38 -55.16,-52.35 -21.17,-11.25 -42.99,-20.49 -65.71,-27.7l28.01 -13.33c51.37,-23.93 89.71,-62.95 114.97,-117.32 28.96,-73.55 35.5,-149.5 19.62,-227.86 -22.77,-106.38 -82.28,-174.08 -178.48,-203.16 -39.89,-8.58 -80.37,-12.68 -121.16,-12.35l-313.96 0zm119.27 118.03l157.01 0c31.45,0 62.55,2.4 93.7,7.54 58.26,13.66 96.6,51.64 114.97,113.55 19.92,73.93 10.94,143.33 -27.11,208.35 -21.47,32.52 -49.82,53.38 -85.37,62.95 -27.36,6.83 -55.11,10.27 -83.12,9.89l-10.88 0 -159.2 0 0 -402.28zm691.73 -115.63l0 1142.9 520.2 0 0 -119.72 -402.43 0 0 -420.09 376.27 0 0 -114.59 -376.27 0 0 -367.74 402.43 0 0 -120.76 -520.2 0zm645.35 -0.33l0 114.91 259.5 0 0 1028.32 118.66 0 0 -1028.32 263.49 0 0 -114.91 -641.66 0zm630.43 1143.23l123.01 0 75.98 -328.07 335.18 0 75.98 328.07 125.86 0 -291.25 -1147 -157.9 0 -286.86 1147zm226.75 -446.43l137.69 -602.05 140.73 602.05 -278.42 0zm657.18 -698.88l0 1145.31 119.27 0 0 -508.67 157.01 0c34.55,-1.04 68.49,3.06 102.14,12.29 26.16,7.54 48.27,22.56 66.34,44.8 13.38,16.78 22.77,35.96 27.71,57.49 8.14,37.26 13.08,74.92 15.27,113.22l6.24 144.36c2.2,39.67 9.03,77.98 20.82,114.96 1.59,5.14 3.79,9.9 6.29,14.37 0.6,1.37 1.25,2.35 2.15,3.39 1.3,1.04 2.84,2.08 4.39,2.73 1.24,0.33 2.45,0.33 3.99,0.33l5.64 0.72 127.06 0 0 -22.57c-5.54,-6.5 -10.88,-13 -15.88,-19.51 -3.7,-4.43 -6.84,-9.23 -9.64,-14.37 -4.69,-8.91 -8.39,-18.47 -10.88,-28.74 -4.04,-18.47 -6.59,-37.26 -7.84,-56.45l-7.14 -143.65c-1.84,-40.05 -5.59,-79.72 -11.48,-118.68 -4.99,-31.15 -14.98,-60.22 -29.6,-87.27 -14.03,-22.89 -32.4,-40.38 -55.17,-52.35 -21.17,-11.25 -42.98,-20.49 -65.7,-27.7l28.01 -13.33c51.37,-23.93 89.71,-62.95 114.97,-117.32 28.96,-73.55 35.5,-149.5 19.62,-227.86 -22.77,-106.38 -82.28,-174.08 -178.48,-203.16 -39.89,-8.58 -80.37,-12.68 -121.16,-12.35l-313.96 0zm119.27 118.03l157.01 0c31.45,0 62.55,2.4 93.7,7.54 58.26,13.66 96.6,51.64 114.97,113.55 19.92,73.93 10.94,143.33 -27.11,208.35 -21.47,32.52 -49.82,53.38 -85.37,62.95 -27.36,6.83 -55.11,10.27 -83.12,9.89l-10.88 0 -159.2 0 0 -402.28zm669.36 -117.65l0 1144.93 122.11 0 0 -1144.93 -122.11 0zm249.47 1144.93l123.06 0 75.93 -328.07 335.23 0 75.93 328.07 125.85 0 -291.2 -1147 -157.96 0 -286.85 1147zm226.74 -446.43l137.69 -602.05 140.78 602.05 -278.47 0zm969.01 -698.88l0 1145.31 294.04 0c28.66,0 57.31,-2.41 85.97,-6.84 28.31,-3.77 55.11,-12.68 80.33,-27.04 42.98,-28.75 77.23,-67.05 103.09,-114.59 27.4,-54.04 46.73,-111.2 57.61,-171.36 26.86,-161.85 30.55,-323.97 11.28,-486.8 -10.63,-83.12 -38.04,-159.06 -81.97,-227.48 -36.4,-54.04 -84.72,-87.92 -144.82,-101.58 -37.65,-6.88 -75.38,-9.94 -113.38,-9.62l-292.14 0zm119.56 118.03l172.58 0.33c23.07,0.71 45.83,3.77 68.55,9.29 42.03,12.95 74.73,40.32 97.75,81.74 21.51,40 35.84,83.12 43.28,129.29 14.68,96.5 19.37,193.27 14.08,290.75 -2.2,72.9 -10.63,145.08 -25.26,216.22 -9.34,43.77 -26.16,83.44 -50.42,119.07 -24.01,34.21 -55.46,54.04 -94.4,59.83 -37.99,4.1 -75.98,5.85 -114.28,4.81l-111.88 0 0 -911.33zm673.76 -115.63l0 1142.9 520.15 0 0 -119.72 -402.38 0 0 -420.09 376.22 0 0 -114.59 -376.22 0 0 -367.74 402.38 0 0 -120.76 -520.15 0z"/>
   </g>
  </g>
 </g>
</svg>
