<?xml version="1.0" encoding="UTF-8"?>
<!DOCTYPE svg PUBLIC "-//W3C//DTD SVG 1.1//EN" "http://www.w3.org/Graphics/SVG/1.1/DTD/svg11.dtd">
<!-- Creator: CorelDRAW -->
<svg xmlns="http://www.w3.org/2000/svg" xml:space="preserve" width="31.5334mm" height="7.5625mm" version="1.1" style="shape-rendering:geometricPrecision; text-rendering:geometricPrecision; image-rendering:optimizeQuality; fill-rule:evenodd; clip-rule:evenodd"
viewBox="0 0 2792.93 669.81"
 xmlns:xlink="http://www.w3.org/1999/xlink"
 xmlns:xodm="http://www.corel.com/coreldraw/odm/2003">
 <defs>
  <style type="text/css">
   <![CDATA[
    .fil0 {fill:#6352A0;fill-rule:nonzero}
    .fil1 {fill:#110828;fill-rule:nonzero}
   ]]>
  </style>
 </defs>
 <g id="Camada_x0020_1">
  <metadata id="CorelCorpID_0Corel-Layer"/>
  <g id="_2026497968624">
   <path class="fil0" d="M241.38 283.43l65.04 -61.1c5.08,-4.77 7.94,-11.25 7.94,-18.01l0 -58.96c0,-14.06 -12.13,-25.46 -27.09,-25.46l-130.08 0c-14.97,0 -27.1,11.4 -27.1,25.46l0 58.96c0,6.76 2.86,13.23 7.94,18.01l65.04 61.1c10.58,9.94 27.74,9.94 38.32,0z"/>
   <polygon class="fil0" points="314.35,315.16 299.98,328.66 314.35,342.17 "/>
   <path class="fil0" d="M203.06 373.89l-65.04 61.1c-5.08,4.77 -7.94,11.25 -7.94,18l0 58.97c0,14.06 12.13,25.46 27.09,25.46l130.08 0c14.97,0 27.09,-11.4 27.09,-25.46l0 -58.97c0,-6.75 -2.85,-13.22 -7.94,-18l-65.04 -61.1c-10.58,-9.95 -27.74,-9.95 -38.32,0z"/>
   <polygon class="fil0" points="144.45,328.66 130.08,315.16 130.08,342.17 "/>
   <path class="fil0" d="M174.07 310.66l-65.04 -61.1c-5.08,-4.77 -11.97,-7.46 -19.17,-7.46l-62.76 0c-14.97,0 -27.1,11.4 -27.1,25.46l0 122.19c0,14.06 12.13,25.46 27.1,25.46l62.76 0c7.19,0 14.08,-2.67 19.17,-7.45l65.04 -61.1c10.58,-9.95 10.58,-26.06 0,-36z"/>
   <path class="fil0" d="M335.41 249.57l-65.05 61.1c-10.58,9.94 -10.58,26.06 0,36l65.05 61.1c5.08,4.77 11.97,7.45 19.16,7.45l62.77 0c14.97,0 27.1,-11.39 27.1,-25.46l0 -122.19c0,-14.06 -12.13,-25.46 -27.1,-25.46l-62.77 0c-7.19,0 -14.08,2.68 -19.16,7.46z"/>
   <path class="fil1" d="M988.64 45.19l0 489.93 -151.12 0 0 -29.71c-22.97,24.21 -58.11,36.31 -105.43,36.31 -33.75,0 -64.79,-7.6 -93.14,-22.78 -28.36,-15.19 -50.84,-37.08 -67.47,-65.7 -16.63,-28.61 -24.95,-61.62 -24.95,-99.04 0,-37.41 8.32,-70.32 24.95,-98.71 16.63,-28.4 39.11,-50.18 67.47,-65.37 28.35,-15.19 59.4,-22.78 93.14,-22.78 42.64,0 75.21,10.35 97.7,31.04l0 -153.18 158.85 0zm-173.62 361.5l0 0c11.71,-12.54 17.57,-30.04 17.57,-52.49 0,-22.45 -5.86,-39.84 -17.57,-52.17 -11.72,-12.31 -26.71,-18.48 -44.98,-18.48 -18.28,0 -33.28,6.17 -44.98,18.48 -11.72,12.33 -17.57,29.72 -17.57,52.17 0,22.44 5.85,39.95 17.57,52.49 11.71,12.55 26.7,18.82 44.98,18.82 18.27,0 33.27,-6.27 44.98,-18.82z"/>
   <path class="fil1" d="M1051.39 118.43c-14.93,-12.99 -22.39,-29.48 -22.39,-49.48 0,-19.98 7.46,-36.47 22.39,-49.47 14.94,-12.98 34.54,-19.49 58.84,-19.49 24.68,0 44.39,6.2 59.13,18.58 14.73,12.4 22.1,28.4 22.1,47.98 0,20.79 -7.37,37.88 -22.1,51.26 -14.74,13.4 -34.45,20.1 -59.13,20.1 -24.29,0 -43.9,-6.5 -58.84,-19.49z"/>
   <polygon class="fil1" points="1030.81,173.94 1189.65,173.94 1189.65,535.12 1030.81,535.12 "/>
   <path class="fil1" d="M1661.28 173.94l0 289.2c0,68.67 -20.26,120.28 -60.79,154.84 -40.54,34.55 -98.3,51.83 -173.26,51.83 -38.43,0 -74.28,-3.85 -107.54,-11.55 -33.28,-7.71 -61.63,-18.82 -85.05,-33.35l53.42 -101.69c14.99,10.57 33.97,19.15 56.93,25.76 22.96,6.6 44.98,9.9 66.07,9.9 31.86,0 55.06,-6.39 69.58,-19.15 14.53,-12.76 21.8,-31.47 21.8,-56.12l0 -6.61c-23.9,25.53 -59.29,38.3 -106.14,38.3 -32.81,0 -63.38,-7.16 -91.72,-21.46 -28.36,-14.3 -50.96,-34.77 -67.83,-61.41 -16.87,-26.62 -25.3,-57.12 -25.3,-91.45 0,-34.34 8.43,-64.71 25.3,-91.12 16.86,-26.41 39.47,-46.77 67.83,-61.08 28.34,-14.3 58.92,-21.46 91.72,-21.46 52.48,0 90.43,15.85 113.87,47.54l0 -40.94 151.12 0zm-176.07 208.97l0 0c12.41,-10.78 18.63,-24.76 18.63,-41.92 0,-17.16 -6.22,-31.04 -18.63,-41.6 -12.42,-10.57 -28.01,-15.85 -46.74,-15.85 -19.22,0 -35.04,5.28 -47.45,15.85 -12.43,10.57 -18.63,24.44 -18.63,41.6 0,17.16 6.32,31.14 18.98,41.92 12.65,10.8 28.34,16.18 47.09,16.18 18.73,0 34.32,-5.39 46.74,-16.18z"/>
   <path class="fil1" d="M1724.37 118.26c-14.86,-12.94 -22.28,-29.38 -22.28,-49.31 0,-19.91 7.42,-36.35 22.28,-49.3 14.85,-12.94 34.36,-19.42 58.52,-19.42 24.56,0 44.16,6.18 58.82,18.53 14.65,12.36 21.99,28.29 21.99,47.81 0,20.72 -7.34,37.75 -21.99,51.1 -14.66,13.35 -34.26,20.02 -58.82,20.02 -24.16,0 -43.67,-6.47 -58.52,-19.42z"/>
   <polygon class="fil1" points="1703.46,173.94 1862.32,173.94 1862.32,535.12 1703.46,535.12 "/>
   <path class="fil1" d="M2168.76 522.57c-23.9,12.76 -56.47,19.15 -97.69,19.15 -53.9,0 -95.36,-12.21 -124.41,-36.65 -29.06,-24.43 -43.58,-61.08 -43.58,-109.93l0 -302.42 158.85 0 0 101.03 78.72 0 0 108.94 -78.72 0 0 91.11c0,11.01 3.05,19.6 9.14,25.76 6.08,6.17 14.06,9.25 23.9,9.25 13.58,0 25.53,-3.3 35.84,-9.9l37.95 103.66z"/>
   <polygon class="fil1" points="2634.08,45.19 2792.93,45.19 2792.93,535.12 2634.08,535.12 "/>
   <path class="fil1" d="M2433.06 173.94l0 24.43c-22.5,-20.68 -55.07,-31.04 -97.7,-31.04 -33.75,0 -64.79,7.6 -93.13,22.78 -28.36,15.19 -50.86,36.98 -67.48,65.37 -16.64,28.4 -24.95,61.31 -24.95,98.72 0,37.42 8.31,70.43 24.95,99.04 16.62,28.62 39.12,50.51 67.48,65.7 28.34,15.18 59.39,22.78 93.13,22.78 47.32,0 82.47,-12.11 105.43,-36.31l0 29.71 151.12 0 0 -361.17 -158.85 0zm-128.06 107.67l0 0 17.26 -12.45c1.22,-0.89 2.98,-0.66 3.93,0.49 0.94,1.15 0.71,2.81 -0.52,3.69l-17.26 12.44c-0.5,0.37 -1.11,0.55 -1.7,0.55 -0.84,0 -1.67,-0.35 -2.23,-1.03 -0.94,-1.16 -0.71,-2.81 0.52,-3.69zm-16.57 -28.5l0 0c0.2,-1.44 1.59,-2.44 3.14,-2.27 1.54,0.19 2.62,1.51 2.42,2.95l-2.83 20.26c-0.19,1.33 -1.39,2.29 -2.78,2.29 -0.12,0 -0.24,-0.01 -0.36,-0.03 -1.54,-0.19 -2.62,-1.51 -2.42,-2.95l2.83 -20.26zm-53.01 42.93l0 0c-1.54,-0.19 -2.62,-1.51 -2.42,-2.95 0.2,-1.44 1.6,-2.46 3.14,-2.28l21.56 2.67c1.54,0.19 2.62,1.51 2.42,2.96 -0.19,1.32 -1.39,2.29 -2.77,2.29 -0.12,0 -0.25,0 -0.37,-0.02l-21.56 -2.67zm29.13 21.35l0 0 -17.26 12.4c-0.51,0.36 -1.11,0.54 -1.7,0.54 -0.84,0 -1.67,-0.35 -2.23,-1.03 -0.94,-1.16 -0.7,-2.82 0.52,-3.69l17.27 -12.4c1.23,-0.89 2.98,-0.66 3.92,0.49 0.95,1.16 0.71,2.81 -0.52,3.69zm5.08 -36.42l0 0c-0.51,0.36 -1.11,0.54 -1.7,0.54 -0.85,0 -1.68,-0.35 -2.23,-1.04l-13.2 -16.22c-0.95,-1.16 -0.71,-2.81 0.52,-3.69 1.22,-0.88 2.98,-0.66 3.92,0.5l13.21 16.22c0.94,1.15 0.71,2.81 -0.52,3.69zm137.47 158.72l0 0 -43.29 -40.67 -15.47 31.78c-2.61,5.37 -10.77,5.23 -13.19,-0.21l-57.64 -129.92c-2.47,-5.57 3.48,-11.17 9.41,-8.85l138.32 54.15c5.79,2.27 5.93,9.94 0.22,12.39l-33.83 14.53 43.29 40.67 -27.82 26.13z"/>
  </g>
 </g>
</svg>
