<?xml version="1.0" encoding="UTF-8"?>
<!DOCTYPE svg PUBLIC "-//W3C//DTD SVG 1.1//EN" "http://www.w3.org/Graphics/SVG/1.1/DTD/svg11.dtd">
<!-- Creator: CorelDRAW -->
<svg xmlns="http://www.w3.org/2000/svg" xml:space="preserve" width="262.012mm" height="95.3391mm" version="1.1" style="shape-rendering:geometricPrecision; text-rendering:geometricPrecision; image-rendering:optimizeQuality; fill-rule:evenodd; clip-rule:evenodd"
viewBox="0 0 26305.41 9571.82"
 xmlns:xlink="http://www.w3.org/1999/xlink"
 xmlns:xodm="http://www.corel.com/coreldraw/odm/2003">
 <defs>
  <style type="text/css">
   <![CDATA[
    .fil2 {fill:#FEFEFE}
    .fil0 {fill:#3B3B3B}
    .fil3 {fill:#C00812}
    .fil1 {fill:#FEFEFE;fill-rule:nonzero}
   ]]>
  </style>
 </defs>
 <g id="Camada_x0020_1">
  <metadata id="CorelCorpID_0Corel-Layer"/>
  <g id="_2111778274224">
   <polygon class="fil0" points="-0,0 26305.41,0 26305.41,9571.82 -0,9571.82 "/>
   <g>
    <path class="fil1" d="M11688.99 8672.64c-7.93,0 -11.81,-3.89 -11.81,-11.67l0 -770.23c0,-7.78 3.88,-11.68 11.61,-11.68l280.98 0c37.92,0 72.38,5.64 103.34,16.93 30.95,11.28 57.28,27.23 78.95,47.85 21.68,20.61 38.5,45.51 50.5,74.69 12,29.18 18,61.65 18,97.45 0,35.79 -6,68.27 -18,97.45 -12,29.18 -28.63,54.07 -50.31,74.69 -21.68,20.62 -47.8,36.56 -78.76,47.85 -30.77,11.28 -65.21,16.93 -103.15,16.93l-181.7 0c-4.65,0 -6.97,2.33 -6.97,7l0 301.09c0,7.78 -3.88,11.67 -11.81,11.67l-80.88 0zm275.55 -416.62c48.58,0 86.31,-12.45 113.41,-37.35 26.9,-24.9 40.44,-59.12 40.44,-102.7 0,-43.57 -13.54,-77.8 -40.44,-102.7 -27.1,-24.9 -64.83,-37.35 -113.41,-37.35l-175.9 0c-4.65,0 -6.97,2.34 -6.97,7.01l0 266.07c0,4.67 2.32,7.01 6.97,7.01l175.9 0zm1665.75 416.62c-7.16,0 -12.19,-3.89 -15.29,-11.67l-157.32 -324.43 -173.58 0c-4.65,0 -6.97,2.34 -6.97,7.01l0 317.43c0,7.78 -3.88,11.67 -11.81,11.67l-80.89 0c-7.93,0 -11.81,-3.89 -11.81,-11.67l0 -770.23c0,-7.78 3.88,-11.68 11.61,-11.68l286.21 0c37.35,0 71.02,5.45 101.21,16.34 30.38,10.89 56.3,26.25 77.98,46.09 21.87,19.84 38.71,43.96 50.71,72.36 12,28.4 17.98,59.72 17.98,93.94 0,53.68 -13.92,99.2 -41.79,136.54 -27.87,37.35 -65.8,63.8 -113.79,79.36l168.36 334.93c2.33,3.9 2.71,7.2 1.15,9.92 -1.55,2.72 -4.25,4.09 -8.11,4.09l-93.86 0zm-162.16 -432.96c46.24,0 82.04,-11.48 107.59,-34.43 25.35,-22.95 38.13,-55.43 38.13,-97.45 0,-42.01 -12.78,-74.5 -38.13,-97.45 -25.54,-22.95 -61.34,-34.43 -107.59,-34.43l-184.03 0c-4.65,0 -6.97,2.34 -6.97,7.01l0 249.74c0,4.67 2.32,7 6.97,7l184.03 0zm1228.98 -348.93c0,-7.78 3.88,-11.68 11.81,-11.68l475.84 0c7.74,0 11.62,3.9 11.62,11.68l0 73.52c0,7.78 -3.88,11.67 -11.62,11.67l-376.18 0c-4.65,0 -6.97,2.34 -6.97,7.01l0 233.4c0,4.67 2.32,7 6.97,7l319.29 0c7.74,0 11.61,3.89 11.61,11.67l0 73.52c0,7.78 -3.87,11.68 -11.61,11.68l-319.29 0c-4.65,0 -6.97,2.33 -6.97,7l0 241.58c0,4.67 2.32,7 6.97,7l376.18 0c7.74,0 11.62,3.9 11.62,11.68l0 73.52c0,7.78 -3.88,11.67 -11.62,11.67l-475.84 0c-7.93,0 -11.81,-3.89 -11.81,-11.67l0 -770.23zm1461.79 0c0,-7.78 3.88,-11.68 11.81,-11.68l475.84 0c7.74,0 11.62,3.9 11.62,11.68l0 73.52c0,7.78 -3.88,11.67 -11.62,11.67l-376.19 0c-4.64,0 -6.96,2.34 -6.96,7.01l0 241.57c0,4.67 2.32,7.01 6.96,7.01l319.3 0c7.74,0 11.61,3.89 11.61,11.67l0 73.52c0,7.78 -3.87,11.67 -11.61,11.67l-319.3 0c-4.64,0 -6.96,2.34 -6.96,7.01l0 325.6c0,7.78 -3.88,11.67 -11.81,11.67l-80.89 0c-7.93,0 -11.81,-3.89 -11.81,-11.67l0 -770.23zm1453.66 0c0,-7.78 3.88,-11.68 11.81,-11.68l475.84 0c7.74,0 11.62,3.9 11.62,11.68l0 73.52c0,7.78 -3.88,11.67 -11.62,11.67l-376.19 0c-4.64,0 -6.96,2.34 -6.96,7.01l0 233.4c0,4.67 2.32,7 6.96,7l319.3 0c7.74,0 11.61,3.89 11.61,11.67l0 73.52c0,7.78 -3.87,11.68 -11.61,11.68l-319.3 0c-4.64,0 -6.96,2.33 -6.96,7l0 241.58c0,4.67 2.32,7 6.96,7l376.19 0c7.74,0 11.62,3.9 11.62,11.68l0 73.52c0,7.78 -3.88,11.67 -11.62,11.67l-475.84 0c-7.93,0 -11.81,-3.89 -11.81,-11.67l0 -770.23zm1461.79 0c0,-7.78 3.88,-11.68 11.81,-11.68l80.89 0c7.93,0 11.81,3.9 11.81,11.68l0 770.23c0,7.78 -3.88,11.67 -11.81,11.67l-80.89 0c-7.93,0 -11.81,-3.89 -11.81,-11.67l0 -770.23zm1280.84 781.9c-7.93,0 -11.8,-3.89 -11.8,-11.67l0 -678.04c0,-4.67 -2.33,-7.01 -6.97,-7.01l-215.96 0c-7.75,0 -11.63,-3.89 -11.63,-11.67l0 -73.52c0,-7.78 3.88,-11.68 11.63,-11.68l550.34 0c7.74,0 11.61,3.9 11.61,11.68l0 73.52c0,7.78 -3.87,11.67 -11.61,11.67l-215.97 0c-4.63,0 -6.96,2.34 -6.96,7.01l0 678.04c0,7.78 -3.87,11.67 -11.81,11.67l-80.89 0zm1531.84 12.84c-87.66,0 -156.36,-24.71 -205.9,-74.11 -49.74,-49.4 -74.51,-121.17 -74.51,-215.31l0 -505.31c0,-7.78 3.87,-11.68 11.81,-11.68l80.89 0c7.93,0 11.8,3.9 11.8,11.68l0 504.15c0,64.58 16.06,113.01 47.99,145.3 32.13,32.29 74.7,48.43 127.92,48.43 52.45,0 94.62,-16.14 126.75,-48.43 31.94,-32.29 47.99,-80.72 47.99,-145.3l0 -504.15c0,-7.78 3.87,-11.68 11.8,-11.68l80.89 0c7.94,0 11.81,3.9 11.81,11.68l0 505.31c0,94.14 -24.77,165.92 -74.51,215.31 -49.54,49.41 -117.85,74.11 -204.73,74.11zm1733.09 -12.84c-7.16,0 -12.2,-3.89 -15.29,-11.67l-157.32 -324.43 -173.59 0c-4.64,0 -6.96,2.34 -6.96,7.01l0 317.43c0,7.78 -3.88,11.67 -11.81,11.67l-80.89 0c-7.93,0 -11.81,-3.89 -11.81,-11.67l0 -770.23c0,-7.78 3.88,-11.68 11.61,-11.68l286.2 0c37.35,0 71.02,5.45 101.22,16.34 30.37,10.89 56.3,26.25 77.98,46.09 21.87,19.84 38.71,43.96 50.7,72.36 12,28.4 17.99,59.72 17.99,93.94 0,53.68 -13.93,99.2 -41.79,136.54 -27.87,37.35 -65.8,63.8 -113.8,79.36l168.37 334.93c2.33,3.9 2.7,7.2 1.15,9.92 -1.55,2.72 -4.26,4.09 -8.12,4.09l-93.85 0zm-162.16 -432.96c46.24,0 82.04,-11.48 107.59,-34.43 25.35,-22.95 38.12,-55.43 38.12,-97.45 0,-42.01 -12.77,-74.5 -38.12,-97.45 -25.54,-22.95 -61.34,-34.43 -107.59,-34.43l-184.04 0c-4.64,0 -6.96,2.34 -6.96,7.01l0 249.74c0,4.67 2.32,7 6.96,7l184.04 0zm1433.33 -348.93c2.33,-7.78 6.97,-11.68 13.94,-11.68l75.47 0c7.74,0 12.77,3.9 15.1,11.68l270.52 770.23c2.33,7.78 -0.38,11.67 -8.12,11.67l-81.27 0c-7.74,0 -12.78,-3.89 -15.1,-11.67l-60.38 -172.72 -319.28 0 -60.39 172.72c-3.09,7.78 -8.12,11.67 -15.09,11.67l-81.28 0c-7.74,0 -10.44,-3.89 -8.12,-11.67l274.02 -770.23zm176.48 501.82l-124.23 -360.61 -2.32 0 -125.4 360.61 251.95 0z"/>
    <path class="fil2" d="M12414.73 4967.11c302.72,1.96 589.13,50.17 587.71,370.69 -1.42,318.97 -260.46,350.41 -582.88,352.36l-4.83 -723.04zm-740.71 -341c-0.14,572.72 -29.71,2334.46 22.95,2778.8l703.01 -3.95 17.87 -1195.65c401.51,17.46 786.53,20.95 1059.22,-216.41 221.63,-192.92 389.63,-549.11 258.85,-982.46 -220.28,-729.87 -1259.37,-567.1 -2062.91,-567.83l1 187.49z"/>
    <path class="fil2" d="M15589.65 838.93c281.1,220.88 0,0 281.1,220.88 313.25,-360.67 362.09,-49.91 652.71,40.99 321.25,85.11 561.53,-142.78 655.13,-325.91 -294.84,-231.55 0,0 -294.84,-231.55 -70.43,127.19 -119.21,215.11 -281.08,168.97 -121.46,-22.01 -184.83,-145.77 -345.55,-193.59 -323.59,-96.28 -547.88,142.18 -667.48,320.2z"/>
    <path class="fil1" d="M11689.55 4211.14l0 -578.08c42,8.19 76.25,13.66 103.39,16.39 27.14,2.73 51.69,4.1 74.97,4.1 83.99,0 144.1,-26.65 179.64,-79.26 35.54,-52.61 52.99,-148.28 52.99,-285.62l0 -2000.74 705.67 0 0 2054.73c0,337.56 -58.16,571.25 -175.13,699.71 -116.96,129.14 -321.81,193.38 -615.85,193.38 -54.27,0 -108.56,-2.05 -162.84,-6.14 -54.27,-4.11 -108.56,-10.25 -162.83,-18.45zm2500.85 -496.08c120.85,0 204.85,-62.19 252.03,-185.87 46.52,-124.36 69.8,-384.7 69.8,-781.02 0,-397 -23.27,-658.71 -69.8,-784.45 -47.18,-125.05 -131.18,-187.9 -252.03,-187.9 -122.78,0 -207.43,63.54 -254.61,191.33 -47.18,127.09 -71.08,387.43 -71.08,781.02 0,392.22 23.9,651.88 71.08,777.61 47.18,126.41 131.83,189.28 254.61,189.28zm-2.58 549.39c-358.66,0 -627.48,-126.41 -806.48,-379.24 -179,-252.82 -268.82,-632.06 -268.82,-1137.72 0,-507.02 89.83,-887.63 268.82,-1141.13 179,-253.51 447.82,-379.92 806.48,-379.92 358.01,0 626.83,127.09 807.13,381.29 179.65,254.19 269.47,634.11 269.47,1139.76 0,505.65 -89.82,884.89 -269.47,1137.72 -180.29,252.83 -449.12,379.24 -807.13,379.24zm1932.18 -1160.26l427.79 0 -206.14 -1177.35 -221.66 1177.35zm-813.58 1106.96l654.61 -2923.22 912.46 0 600.34 2923.22 -717.3 0 -104.69 -590.38 -643.63 0 -116.96 590.38 -584.83 0zm3287.31 -496.08c120.85,0 204.85,-62.19 252.03,-185.87 46.52,-124.36 69.79,-384.7 69.79,-781.02 0,-397 -23.26,-658.71 -69.79,-784.45 -47.18,-125.05 -131.18,-187.9 -252.03,-187.9 -122.78,0 -207.43,63.54 -254.62,191.33 -47.17,127.09 -71.07,387.43 -71.07,781.02 0,392.22 23.9,651.88 71.07,777.61 47.19,126.41 131.84,189.28 254.62,189.28zm-2.59 549.39c-358.65,0 -627.47,-126.41 -806.48,-379.24 -178.99,-252.82 -268.82,-632.06 -268.82,-1137.72 0,-507.02 89.84,-887.63 268.82,-1141.13 179.01,-253.51 447.83,-379.92 806.48,-379.92 358.01,0 626.83,127.09 807.13,381.29 179.65,254.19 269.48,634.11 269.48,1139.76 0,505.65 -89.83,884.89 -269.48,1137.72 -180.29,252.83 -449.12,379.24 -807.13,379.24z"/>
    <path class="fil1" d="M12431.06 5008.92l0 688.79 89 0c171.95,0 295.34,-26.66 370.18,-79.96 74.18,-53.29 111.27,-141.44 111.27,-264.44 0,-123 -37.09,-211.15 -111.27,-264.44 -74.84,-53.3 -198.22,-79.96 -370.18,-79.96l-89 0zm-740.36 2394.33l0 -2923.22 995.24 0c356.69,0 624.38,73.12 803.74,219.35 178.7,146.23 268.37,364.2 268.37,653.93 0,276.06 -88.33,491.31 -265.67,643.68 -176.66,153.07 -425.47,229.6 -745.08,229.6 -42.48,0 -89,-1.38 -139.58,-4.79 -50.56,-3.41 -109.23,-8.89 -176.66,-15.03l0 1196.48 -740.36 0zm2293.24 0l0 -2923.22 1808.42 0 0 557.59 -1068.06 0 0 569.89 712.04 0 0 557.58 -712.04 0 0 680.58 1068.06 0 0 557.59 -1808.42 0zm2491.48 -926.57c56.64,141.44 126.09,248.72 208.36,321.15 82.27,73.12 175.31,109.33 277.8,109.33 96.43,0 171.28,-23.23 225.89,-69.01 54.62,-45.78 82.26,-110.7 82.26,-193.38 0,-70.39 -26.29,-132.56 -78.21,-185.18 -51.93,-52.61 -178.69,-126.41 -380.3,-220.7 -330.41,-156.48 -549.55,-299.3 -658.11,-427.75 -107.89,-129.15 -161.83,-289.04 -161.83,-481.74 0,-265.13 91.03,-483.1 273.76,-652.56 182.72,-169.46 416.03,-254.2 700.58,-254.2 217.78,0 406.59,57.4 568.42,172.2 161.15,114.79 279.83,276.05 354.67,483.79l-575.17 229.59c-42.49,-115.48 -94.4,-200.21 -155.08,-254.88 -61.36,-53.97 -134.86,-81.31 -220.49,-81.31 -76.2,0 -138.23,21.87 -184.75,64.92 -46.53,43.73 -70.13,101.13 -70.13,172.19 0,62.87 27.65,118.9 82.94,168.1 55.29,49.89 177.33,117.54 365.47,202.94 19.54,8.2 49.89,21.18 91.02,40.32 197.57,85.41 348.6,167.41 452.44,245.99 99.12,75.84 174.64,169.46 227.91,280.83 52.6,111.38 78.89,233.7 78.89,366.94 0,113.43 -20.9,224.13 -63.39,331.4 -41.8,107.28 -103.16,205.68 -183.4,295.2 -93.73,105.23 -207.01,184.49 -339.85,238.47 -132.84,53.98 -282.52,81.31 -448.4,81.31 -260.95,0 -482.11,-63.55 -664.17,-190.64 -181.38,-127.78 -317.59,-313.64 -408.62,-558.94l601.46 -234.38zm2173.23 0c56.64,141.44 126.09,248.72 208.36,321.15 82.27,73.12 175.31,109.33 277.8,109.33 96.42,0 171.28,-23.23 225.89,-69.01 54.62,-45.78 82.26,-110.7 82.26,-193.38 0,-70.39 -26.29,-132.56 -78.22,-185.18 -51.92,-52.61 -178.68,-126.41 -380.29,-220.7 -330.41,-156.48 -549.56,-299.3 -658.11,-427.75 -107.89,-129.15 -161.83,-289.04 -161.83,-481.74 0,-265.13 91.03,-483.1 273.76,-652.56 182.72,-169.46 416.03,-254.2 700.58,-254.2 217.78,0 406.58,57.4 568.42,172.2 161.15,114.79 279.82,276.05 354.67,483.79l-575.17 229.59c-42.49,-115.48 -94.4,-200.21 -155.09,-254.88 -61.35,-53.97 -134.85,-81.31 -220.48,-81.31 -76.2,0 -138.23,21.87 -184.75,64.92 -46.53,43.73 -70.14,101.13 -70.14,172.19 0,62.87 27.66,118.9 82.95,168.1 55.29,49.89 177.33,117.54 365.46,202.94 19.55,8.2 49.9,21.18 91.03,40.32 197.57,85.41 348.6,167.41 452.44,245.99 99.12,75.84 174.64,169.46 227.91,280.83 52.6,111.38 78.89,233.7 78.89,366.94 0,113.43 -20.91,224.13 -63.39,331.4 -41.8,107.28 -103.16,205.68 -183.4,295.2 -93.73,105.23 -207.01,184.49 -339.85,238.47 -132.84,53.98 -282.52,81.31 -448.4,81.31 -260.95,0 -482.11,-63.55 -664.17,-190.64 -181.39,-127.78 -317.59,-313.64 -408.63,-558.94l601.47 -234.38zm2793.56 430.48c126.1,0 213.76,-62.19 262.97,-185.87 48.55,-124.36 72.83,-384.7 72.83,-781.02 0,-397 -24.28,-658.71 -72.83,-784.45 -49.21,-125.05 -136.87,-187.9 -262.97,-187.9 -128.11,0 -216.44,63.54 -265.67,191.33 -49.21,127.09 -74.16,387.43 -74.16,781.02 0,392.22 24.95,651.88 74.16,777.61 49.23,126.41 137.56,189.28 265.67,189.28zm-2.69 549.39c-374.23,0 -654.73,-126.41 -841.51,-379.24 -186.77,-252.82 -280.5,-632.06 -280.5,-1137.72 0,-507.02 93.73,-887.63 280.5,-1141.13 186.78,-253.51 467.28,-379.92 841.51,-379.92 373.55,0 654.05,127.09 842.19,381.29 187.45,254.19 281.17,634.11 281.17,1139.76 0,505.65 -93.72,884.89 -281.17,1137.72 -188.14,252.83 -468.64,379.24 -842.19,379.24zm2016.1 -1160.26l446.38 0 -215.09 -1177.35 -231.29 1177.35zm-848.92 1106.96l683.04 -2923.22 952.1 0 626.4 2923.22 -748.45 0 -109.23 -590.38 -671.58 0 -122.05 590.38 -610.23 0z"/>
   </g>
   <polygon class="fil3" points="-0,0 9977.59,0 9977.59,9571.82 -0,9571.82 "/>
   <g>
    <path class="fil2" d="M3916.17 2633.76c-231.21,32.57 -476.94,79.87 -703.71,135.05 -72.95,17.76 -153.23,43.39 -224.94,57.15l-18.07 -66.98c519.04,-179.35 1430.35,-253.48 1991.11,-252.33 555.43,1.14 1228.51,58.1 1774.09,190.71 76.08,18.49 151.41,43.5 222.86,60.41l-19.06 66.99 -221.02 -54.77c-885.09,-219.93 -1901.6,-263 -2801.26,-136.23zm-667.2 -36.42c-69.89,17.56 -147.42,46.48 -214.14,60.46 -13.67,-24.6 -24.06,-125.99 -29.56,-162.98 267.91,-94.2 610.77,-159.66 913.26,-198.7 682.23,-88.03 1401.08,-88.49 2085.45,8.34 159.66,22.6 320.4,50.59 473.6,86.26 104.12,24.26 227.8,53.58 330.8,85.37 32,9.88 78.95,26.83 110.19,32.84l-22.26 154.02c-33.74,-6.32 -69.11,-19.9 -103.01,-29.69 -36.89,-10.64 -69.55,-19.11 -107.72,-29.44 -207.74,-56.23 -472.73,-102.77 -686.85,-130.55 -680.73,-88.33 -1379.52,-86.75 -2060.27,-4.89 -236.95,28.49 -460.61,71.44 -689.49,128.94zm-308.6 -83.62l32.56 168.37 -84.02 15.69 32.25 176.4 -173.32 16.26 43.12 679.71c-1.76,-1.19 -80.16,-81.49 -126.27,-115.78 -29.74,-22.1 -133.12,-75.59 -148.08,-90.67 110.99,-40.53 222.44,-168.69 139.74,-317.59 -51.93,-93.52 -169.42,-163.33 -289.4,-218.98 -126.1,-58.48 -238.34,-113.89 -298.78,-209.23 -98.38,-155.19 83.08,-334.45 158.75,-198.76l65.89 -25.63c-44.68,-128.23 -273.64,-198.67 -442.76,64.3 -33.21,-13.22 -52.04,-31 -69.08,-60.6l-17.74 -26.35c-22.28,83.52 -47.71,139.79 -40.31,240.96 5.87,80.4 42.36,154.44 80.04,196.77 -52.06,10.58 -79.46,6.26 -130.93,25.49 -34.29,12.81 -76.92,29.63 -101.29,57.58 52.66,14.88 116.34,56.18 130.85,103.07 25.73,83.08 -33.46,122.79 31.31,196.26 -24.2,22.42 -30.83,21.61 -49.3,51.04 -13.85,22.09 -23.46,46.9 -40.56,60.95 -15.59,12.82 -48.76,29.77 -72.68,11.05 -19.3,-15.12 -19.22,-45.74 -21.78,-74.89 -40.75,8.4 -68.8,37.56 -76.22,80.54 -10.57,61.32 16.28,85.62 22.38,128.62 -120.28,-12.57 -250.79,-5.54 -333.73,58.66 -59.12,45.75 -107.28,125.17 -88.48,208.73 8.76,38.98 17.2,41.47 31.06,70.44 9.71,20.29 -12.51,51.66 -19.67,75.8 -59.98,202.47 104.73,385.57 332.2,359.51l21.73 -96.95c-187.77,-6.68 -248.47,-154.52 -167.01,-263.76 73.34,-98.32 275.41,-41.06 382.91,-0.13 153.72,58.53 468.04,287.12 602.12,-66.7 7.46,-19.72 8.64,-32.93 21.87,-41.74 7.47,28.96 106.71,77.82 27.44,202.88 -76.01,119.92 -205.32,186.68 -318.29,266.02 -337.88,237.31 -689.9,479.32 -931.45,821.51 -130.31,184.61 -222.44,378.31 -253.93,621.21 -24.23,186.85 -2.42,347.45 63.4,504.87 43.87,104.94 99.76,190.26 165.84,276.28 11.99,15.61 18.5,22.72 32.27,38.72l25.29 31.17c6.39,8.29 0.44,-1.92 6.88,10.15 -177.04,27.99 -451.26,189.81 -435.44,370.15 9.55,109.01 102.18,200.02 162.4,241 80.98,55.13 190.52,90.46 313.11,89.23 -19.81,-37.37 -89.72,-89.89 -136.87,-189.23 -49.98,-105.3 -5.7,-161.85 82.3,-195.16 131.14,-49.65 443.71,-33.64 589.79,-13.7l-39.13 10.02c-12.34,1.45 -24.41,3.04 -36.69,4.67 -164.66,21.93 -331.31,57.07 -488.89,105.52 17.84,46.34 50.13,101.7 72.13,153.09 75.93,177.35 115.83,359.68 120.75,558.69 -64.77,23.24 -189.6,109.33 -229.65,150.53 -103.73,106.68 -94.84,120.68 -72.79,275.36 38.85,272.67 123.84,639.95 275.76,862.38 163.06,238.75 656.04,212.54 914.33,188.68 920.31,-85.02 1850.49,-245.57 2784.44,-247.23 476.37,-0.85 953.29,44.93 1419.69,97.25 455.11,51.06 907.3,107.5 1364.6,150.45 264.27,24.82 751.46,50.16 912.8,-195.97 152.13,-232.07 233.37,-580.13 272.54,-860.85 6.06,-43.44 20.34,-126.44 6.23,-166 -39.76,-111.58 -206.94,-198.19 -307.32,-256.76 -12.94,-90.07 32.94,-305.62 58.04,-389.05 17.48,-58.13 37.39,-111.71 59.23,-164.32 22.61,-54.45 49.48,-100.84 72.68,-152.9 -31.43,-23.33 -247.05,-66.72 -279.6,-73.33 -84.77,-17.19 -253.97,-37.46 -295.99,-47.23 51.92,-15.77 237.81,-20.79 304.3,-21.7 707.76,-9.66 270.87,358.36 242.5,417.01 125.34,-0.76 229.63,-32.41 313.29,-89.86 58.8,-40.39 153.29,-132.81 162.31,-240.56 14.89,-177.92 -258.36,-344.8 -435.53,-369.9l66.88 -83.66c179.52,-221.02 262.55,-481.65 226.68,-778.44 -35.8,-296.21 -172.92,-529.54 -351.55,-745.73 -66.38,-80.36 -140.2,-155.09 -216.55,-225.4l-114.49 -99.04c-50.44,-45.02 -107.65,-86.98 -164.21,-130.49 -55.63,-42.78 -108.4,-79.71 -167.14,-122.46 -121.1,-88.16 -418.23,-259.75 -491.2,-387.82 -46.71,-81.98 -25.04,-159.98 34.7,-201.02 41.7,94.04 65.73,172.72 158.8,215.77 155.49,71.89 329.28,-57.41 463.62,-108 411.92,-155.12 458.25,84.27 384.68,191.56 -30.2,44.02 -93.36,71.57 -172.01,74.08l20.43 95.84c128.77,20.66 245.35,-52.16 293.1,-114.78 111.75,-146.56 8.32,-288.36 18.7,-316.28 2.74,-7.39 14.49,-23.42 20.07,-36.21 17.53,-40.15 21.37,-86.84 9.69,-128.1 -49.53,-174.97 -258.58,-190.5 -419.66,-177.19 11.24,-43.7 32.46,-77.95 21.62,-131.97 -7.73,-38.55 -34.92,-69.62 -76.66,-76.28 -0.02,75.09 -38.79,113.66 -94.68,60.3 -20.13,-19.21 -25.71,-37.98 -40.73,-60.9 -12.99,-19.83 -33.37,-34.04 -47.71,-48.84 24.93,-25.15 33.28,-42.35 30.16,-90.92 -5.43,-84.46 -19.26,-161.46 131.97,-208.02 -57.87,-59.33 -153.5,-70.67 -232.17,-82.03 72.5,-106.71 100.89,-193.75 69.27,-334.52 -6.12,-27.22 -27.68,-87.96 -28.95,-104.72 -32.93,26.44 -21.73,59.9 -87.28,87.84 -50.72,-69.15 -94.77,-140.38 -197.04,-167.94 -113.64,-30.63 -219.1,16.63 -245.55,103.24l61.04 24.05c24.73,-15.98 88.99,-101.63 162.36,6.73 39.71,58.64 37.4,132.69 1.21,193.79 -111.29,187.9 -480.57,226.34 -590.35,430.95 -81.2,151.34 32.82,271.27 141.55,315.62 -14.42,13.13 -55.19,31.17 -76.78,43.88 -26.78,15.76 -49.43,30.93 -73.52,48.39 -43.72,31.68 -77.69,62.39 -110.93,102.23l-20.01 16.63 45.04 -684.42 -174.25 -17.19 32.43 -175.19 -83.51 -16.73 31.77 -161.04 80.46 16.66 50.47 -245.32 -72.56 -15.72 303.41 -1509.23c-57.86,-8.22 -276.39,-68.24 -363.12,-86.65 -119.31,-25.35 -256.68,-60.1 -378.03,-74.15l-49.61 359.87 -123.06 -14.57c-11.15,-33.18 27.6,-303.23 27.81,-367.4 -48.25,-26.48 -722.86,-94.87 -823.12,-97.82l-35.16 373.36 -251.12 -15.24c-20.24,-66.41 16.49,-295.94 -1.19,-374.63 -255.25,-9.9 -517.58,-13.33 -774.52,-0.15l-0.92 378.01 -258.8 11.2c-4.27,-52.98 -24.06,-347.52 -35.5,-371.71 -88.07,-1.98 -771.73,71.48 -813.62,96.98 4.03,66.97 37.46,331.37 28.78,373.16l-119.59 10.52c-16.9,-31.17 -59.15,-355.74 -59.05,-361.73 -115.73,12.6 -263.22,49.01 -377.92,74.16 -113.91,24.97 -256.13,53.31 -364.7,89.27l303.88 1506.6 -72.74 15.68 52.66 235.63 77.9 -13.85zm709.11 -405.13l-284.76 56.31 -333.68 -1085.94 478.9 -82.16c14.07,84.06 22.68,186.16 34.4,277.41 11.95,93.21 23.4,186.18 35.47,279.54 17.54,135.65 61.28,437.76 69.68,554.84zm-383.73 71.14l-128.94 36.51c-41.25,-90.35 -54.68,-367.4 -135.46,-429.85 -46.41,-35.87 -76.27,-39.21 -147.9,-39.84l-184.3 -911.61 69.18 -15.43 38.22 185.26 164.91 -35.91c-2.22,-57.47 -32.94,-139.12 -28.65,-186.42l119.55 -24.77 28.94 177.82c35.49,-2.04 143.09,-16.6 167.98,-31.11l-13.49 -182.52 62.7 -10.22 37.48 257.25 -378.02 76.86c2.42,37.13 149.34,523.68 162.37,565.47 29.3,93.91 54.44,188.33 82.91,282.83l82.51 285.67zm937.21 -143.06l-124.73 9.65c-11.57,-107.38 -27.88,-234.2 -46.14,-339.81 -41.8,-241.64 -247.96,-204.56 -313.85,-93.32 -27.72,46.81 -22.58,98.09 -14.91,156.75 7.43,56.87 15.54,113.21 23.06,170.39 3.74,28.39 7.56,56.35 11.64,85.77 9.6,69.35 14.41,60.07 -12.16,62.19 -3.77,-7.7 -184.27,-1369.69 -180.97,-1420.77 26.27,-3.29 61.42,-13.97 86.02,-8.6l26.35 177.61c23.91,3.97 110.96,-12.74 137.83,-20.36l-13.04 -181.16c29.14,-4.16 103.88,-16.4 128.97,-12.41l18.95 181.15c41.47,0.94 47.52,-12.21 83.97,-14.42 28.21,-1.72 11.23,5.18 76.97,-2.28l-3.14 -185.85 123.84 -9.83c4.82,40.49 13.88,236.99 7.47,268.28l-101.85 7.48 85.73 1169.52zm-352.57 862.63c67.79,-4.98 289.51,-23.65 342.92,-14.24l4.31 547.37 -1268.38 0.49 -28.59 -414.78c12.31,-6.64 15.53,-6.86 32.4,-9.83 10.95,-1.93 29.54,-5 38.94,-6.65 304.76,-53.33 568.06,-79.57 878.41,-102.37zm-925.67 587.95l1278.72 -1.37 3.48 596.53 -1228.4 1.63c-22.84,-2.53 -17.65,-11.64 -18.72,-39.19 -7.05,-180.76 -28.97,-368.48 -35.08,-557.61zm47.2 649.41l1228.92 -0.02 2.43 528.58 -1197.94 0.3 -33.4 -528.86zm31.16 581.59l1207.06 0 2.42 588.82 -1167.57 0 -41.91 -588.82zm49.57 641.72l1154.21 -0.04 2.31 567.04 -1118.45 -0.01c-10.76,-21.2 -44.24,-524.92 -38.07,-566.99zm-117.33 358.05c12.95,185.12 28.71,373.64 36.75,558.94 -32.76,-6.36 -30.32,-1.14 -41.37,-29.73 -6.67,-17.22 -13.44,-31.09 -23.09,-42.64 -23.97,-28.69 -44.48,-35.99 -89.84,-42.73 11.17,-111.83 -24.86,-153.27 -106.16,-188.54 -11.89,-76.44 -34.87,-143.45 -73.38,-190.93 -37.53,-46.26 -94.13,-82.78 -167.98,-101.19 -164.9,-41.13 -320.53,3.68 -477.35,29.19 -349.17,56.76 -426.25,-262.13 -272.8,-368.99 90.19,-62.8 152.04,-5.07 196.9,16.64 14.33,-11.46 20.83,-10.9 35,-28.06 -11.82,-43.6 -44.22,-73.17 -74.19,-92.95 -37.12,-24.48 -81.96,-33.28 -133,-35.27 15.08,-29.19 39.35,-51.17 59.06,-76.39 32.22,-41.2 129.46,-134.54 169.42,-171.1 13.83,-12.66 20.85,-23.26 35.49,-35.44l145.57 -128.87c26.22,-20.29 46.84,-41.85 73,-64.12l289.17 -259.71c24.57,-23.41 45.38,-43.84 68.25,-68.88 42.92,-46.99 86.76,-94.24 127.6,-146.85 25.98,-33.48 96.81,-128.19 109.02,-172.48 13.6,23.8 39.61,522.26 41.25,545.76l72.69 1094.34zm-194.8 577.71c18.28,-11.72 26.22,-21.08 40.24,-35.96 16.11,-17.13 19.93,-31.06 35.59,-46.36 88.84,42.5 16.94,150.44 -23.31,201.02 -17.96,22.57 -35.6,32.91 -52.23,52.07 89.06,-16.14 156.07,-65.67 182.55,-134.75 140.31,1.08 19.75,228.61 -239.73,277.94 -115.83,22.02 -348.79,-39.03 -425.15,27.17 -32.02,27.75 -28.88,81.29 4.04,109.58 11.38,-17.53 6.18,-20.83 22.37,-37.44 34.62,-35.51 97.76,-44.96 140.69,-23.56 -3.16,35.04 -56.54,47.55 -86.25,57.81 -295.79,102.25 -612.06,-1.52 -915.17,-1.23 -123.07,0.11 -301.65,20.06 -398.3,69.72 -141.36,72.64 -107.76,193.84 -30.74,305.76 -65.84,-10.27 -140.78,-96.95 -164.78,-157.14 -63.5,-159.25 80.75,-330.73 245.1,-373.21 114.08,-29.48 179.08,-9.65 288.02,2.73 -39.04,-59.55 -78.09,-66.99 -70.81,-157.28 1.82,-22.6 0.62,-48.59 7.6,-69.99 0.42,-1.28 1.08,-3.11 1.96,-4.49 75.58,-6.82 129.16,14.21 182.95,48.93 147.96,95.55 263.51,275.12 464.71,175.37l19.5 -13.82c-175.69,8.49 -220.55,-53.97 -365.18,-158.52 -47.43,-34.29 -101.94,-68.31 -170.8,-88.47 -65.96,-19.32 -173.11,-18.56 -223.56,19.53 33.64,78.67 -8,95.1 18.44,183.96 -47.77,-10.44 -125.87,-118.08 -152.19,-155.94 -153.41,-220.64 -196.63,-452.55 -174.23,-733.69 26.67,-334.86 184.71,-592.75 412.09,-811.96 167.11,-161.09 323.89,-263.95 522.54,-392.17l275.68 -186.67c76.14,-54.72 187.45,-140.74 243.7,-213.5 77.73,-100.55 114.97,-215.87 -11.83,-307.05 -24.49,-17.61 -71.6,-44.66 -110.02,-44.51 0.64,163.97 -101.73,233.25 -269.77,210.99 -211.97,-28.08 -334.2,-185.08 -560.46,-161.3 -80.67,8.47 -124.87,37.53 -164.86,79.14 -42.15,43.84 -57.88,117.85 -31.06,187.93 17.06,44.56 43.02,79.22 76.28,106.68l34.15 29.01c-194.03,-7.38 -229.38,-205.28 -144.33,-335.93 -23.03,-46.67 -75.73,-89.69 -2.02,-196.97 36.84,-53.61 104.68,-79.63 188.23,-90.1 327.51,-41.02 457.75,282.22 609.53,176.5 57.24,-39.87 59.41,-120.62 -58.32,-143.92 -89.24,-17.67 -152.08,-0.05 -227.98,-46.04 -41.63,-25.22 -117.89,-87.14 -120.6,-155.12 55.81,52.83 116.62,-26.03 158.59,-60.75 68.21,-56.44 138.91,2.83 171.66,41.79 38.64,45.98 76.4,96.05 127.07,132.02 149.95,106.44 299.13,-33.64 107.14,-163.04 -90.92,-61.27 -354.69,-34.51 -327.35,-195.91 7.58,-44.78 22.35,-65.61 -2.21,-109.68 -23.41,-42.02 -36.01,-39.89 -61.89,-68.43 40.64,-55.95 149.45,-40.61 200.81,-14.48 121.83,62.03 204.83,243.41 290.48,248.94 71,4.57 139.19,-77.12 87.77,-144.43 -30.17,-39.49 -119.4,-67.68 -179.59,-89.88 -120.21,-44.35 -261.92,-99.3 -334.78,-203.8 -39.82,-57.1 -30.3,-163.94 -9.5,-231.82 42.53,30.66 75.58,89.08 116.78,110.35 9.09,-123.83 18.96,-248.39 181.33,-237.67 -42.39,46.39 -88.43,62.18 -102.17,139.1 -33.9,189.85 222.88,297.3 353.41,371.24 166.37,94.24 368.22,235.39 191.63,408.28 -37.59,36.79 -98.73,60.49 -156.45,87.5 52.25,40.69 135.71,69.02 212.38,135.71 280.33,243.82 244.14,499.74 30.18,762.34l-80.7 91.93c-53.65,63.84 -115.79,117.58 -176.04,174.7l-92.02 85.65c-17.17,13.68 -29.06,27.33 -45.94,40.45l-234.4 202.65c-20.45,16.29 -27.14,27.47 -51.51,42.68 21.76,-60.88 165.04,-203.71 222.52,-257.85 40.98,-38.61 79.32,-78.93 120.98,-117.81 42.49,-39.64 80.71,-76.24 118.99,-119.91 36.86,-42.02 76.98,-82.61 110.47,-128.23 31.53,-42.96 64.19,-93.81 88.55,-150.42 26.42,-61.38 42.46,-125.7 40.56,-199.2 -2.2,-85 -28.14,-123.24 -45.75,-194.77l-37.31 10.04c25.24,123.29 49.86,170.92 9.46,305.27 -46.56,154.83 -190.95,308.75 -307.9,413.63l-366.84 354.53c-96.51,107.57 -194.18,232.8 -263.19,366.83 -14.46,28.06 -13.73,40 -34.9,56.71 -73.34,57.95 -109.29,125.3 -104.84,255.91 -64.07,2.51 -79.75,-46.02 -73.41,-106.71 -110.24,26.06 -170.86,142.7 -132.39,245.13 15.74,41.93 36.64,54.44 51.43,83.94 -56.97,41.94 -92.01,152.51 -57.48,242.31 32.08,83.37 91.55,111.77 181.48,148.77 -32.2,32.75 -53.87,77.82 -57.15,144.11l108.99 26.62c-0.37,-39.48 2.73,-77.45 17.54,-110.04 7.63,-16.78 14.55,-26.3 24.13,-36.93 13.68,-15.18 20.33,-17.62 33.52,-30.65 -42.06,-28.4 -168.85,-17.64 -208.64,-155.62 -21.57,-74.78 2.53,-152.46 54.86,-203.16 16.68,-16.15 39.3,-24.4 50.78,-44.44 -43.21,-19.67 -113.3,-76.85 -109.67,-130.2 1.82,-26.68 17.96,-39.72 26.18,-56.6 48.04,23.78 47.92,61.26 144.97,38.17 14.99,-56.4 -22,-122.96 31.54,-196.65 41.77,-57.47 90.82,-68.88 181.66,-54.23 -4.57,4.99 -2.12,2.96 -8.87,7.97 -52.86,39.33 -86.82,47.64 -121.62,117.62 -84.12,169.21 19.22,407.37 355.75,351.23 171.24,-28.56 468.48,-148.31 604.58,37.55 48.69,66.5 40.46,125.44 16.92,202.78 -51.45,-45.25 -52.95,-95.43 -156.62,-109.71 -51.95,-7.16 -186.43,16.42 -226.28,37.78 60.21,30.22 175.25,-13.59 251.38,29.35 48.63,27.42 120.66,116.74 49.78,171.52 -38.47,-26.5 -46.24,-39.71 -95.56,-59.65 -148.59,-60.05 -247.26,3.28 -361.11,77.94 -67.31,44.14 -133.63,75.37 -223.69,96.26 -68.4,15.87 -142.75,22.1 -213.76,22.82 -19.37,0.2 -41.9,-4.05 -61.06,-0.18 -15.55,3.14 -7.7,-0.49 -16.55,7.46 38.18,24.76 145.49,37.67 199.45,35.51 78.68,-3.13 134.09,-22.47 204.67,-31.12 93.65,140.65 431.35,207.03 565.96,100.76 66.04,-52.14 58.55,-102.58 42.67,-196.64 33.72,-12 59.57,-34.31 80.93,-55.84 33.41,-33.67 32.86,-52.85 55.87,-85.45 46.07,29.93 52.71,98.98 23.01,159.24 -25.84,52.4 -68.22,76.85 -104.1,117.85 48.54,-2.64 87.56,-11.65 122.12,-33.8zm6.77 428.62l141.7 -87c67.92,-44.55 77.6,-68.48 117.81,-105.41 8.28,-7.61 2.55,-2.84 7.71,-6.53 13.16,25.24 23.65,58.73 35.69,84.83 13.68,29.65 27.75,54.53 44.77,82.28 20.86,34 80.08,115.89 105.29,139.7 -26.15,-7.7 -63.03,-27.59 -94.84,-38.41 -111.79,-38.02 -238.79,-57.7 -358.13,-69.46zm-823.08 122.15c316.86,-43.17 854.07,-81.32 1165.84,28.79 118.68,41.93 173.42,89.93 238.65,188.25 107.35,161.78 147.31,494.91 131.81,724.97 -69.1,-58.43 -92.15,-80.84 -189.73,-118.4 -244.31,-94.05 -574.33,-103.95 -835.67,-95.2 -266.77,8.94 -562.71,49.84 -818.75,116.6 -84.09,21.93 -158.88,53.23 -236.26,75.7 -10.34,-189.17 10.65,-220.24 -43.5,-433.87 -16.29,-64.23 -35.62,-122.02 -57.62,-181.39 -13.49,-36.4 -68.42,-150.67 -71.46,-170.64 28.65,-12.75 135.15,-31.16 172.13,-38.87 184.61,-38.53 355.09,-70.14 544.57,-95.95zm-93.21 913.08c385.84,-84.05 905.52,-151.78 1289.02,-50.75 101.83,26.83 182.16,57.28 252.51,108.62 66.61,48.62 75.11,140.54 -97.47,175.95l-331.77 28.12c-326.67,28.1 -647.92,75.75 -974.44,110.08 -191.31,20.11 -810.92,64.42 -843.16,-210.81 -12.35,-105.46 111.89,-177.08 163.38,-189.57 6.07,70.16 -5.63,129.21 -14.95,195.27 41.57,-11.39 87.1,-33.71 131.09,-49.48 133.56,-47.91 286.58,-87.1 425.79,-117.43zm2457.05 -4551.17c-17.46,-96.48 -30.67,-102.8 2.91,-112.86 71.55,-21.43 160.37,-53.49 237.45,-64.46l24.11 193.84 108.63 -8.4 -5.63 -203.06 249.92 -22.62 0.53 197.8 135.02 0.72 1.88 -195.26c84.48,-3.36 167.82,11.34 249.98,18.99l-5.36 203.93 104.9 7.8c14.65,-31.09 23.55,-148.79 27.27,-191.5 29.55,-2.33 232.66,57.18 257.73,71.17 -4.82,104.66 -133.34,666.17 -127.5,736.75l89.02 28.63 -29.87 136.76c-22.61,-2.43 -51.93,-15.01 -69.3,-18.56 -1.02,-0.2 -9.94,-1.42 -11.59,-1.41 -7.99,0.09 -6.74,0.28 -11.01,1.93l-10.3 47.78 87.63 28.56 -32.39 131.07c-14.96,22.32 -286.67,77.39 -303.1,80.19 -269.12,45.82 -597.45,24.13 -852.55,-68.83 -28.45,-10.37 -25.11,-31.23 -33.31,-63.42 -6.96,-27.27 -13.78,-52.56 -18.72,-80.55l84.57 -27.75c-0.38,-19.43 -3.12,-38.74 -11.91,-51.56l-85.89 23.29 -33.09 -138.98 93.26 -25.14c-3.34,-50.66 -75.75,-425.35 -90.99,-510.3 -7.47,-41.68 -14.76,-82.9 -22.29,-124.54zm371.13 1210.48l246.53 -22.27 0.09 197.03 136.93 1.57 -0.06 -195.18c45.16,-2.47 209.16,8.11 248.07,20.45l-2.9 202.16 104.53 8.06c14.92,-28.98 23.07,-151.43 27.75,-192.71 45.66,-2.45 203.81,57.23 257.86,69.43l-131.81 741.48 92.82 25.75 -29.69 136.9 -89.3 -22.33 -13.26 53.13 86.32 27.8c-3.21,26.74 -12.22,55.35 -17.88,78.4 -16.28,66.5 1.22,63.7 -182.87,106.48 -236.35,54.93 -453.34,66.74 -694.89,29.66 -82.38,-12.65 -239.94,-47 -306.65,-78.48 -15.73,-24.16 -31.12,-99.45 -34.81,-133.96l84.96 -31.74 -9.8 -50.31 -89.98 22.6 -33.21 -138.91 93.99 -24.35 -132.96 -741.19c78.81,-22.89 177.14,-60.8 258.5,-71.44l25.1 191.84 107.22 -6.2c4.43,-49.13 -11.74,-167.71 -0.6,-203.68zm736.85 1628.06l24.08 -192.38c58.92,-1.71 196.22,57.2 258.98,68.76l-132.24 737.59 93.18 31.17 -30.9 135.7 -91.85 -23.31 -9.62 53.87 85.09 27.36 -31.24 137.48c-111.93,24.59 -149.29,49.88 -310.23,76.28 -232.31,38.1 -469.26,28.32 -696.43,-27.67 -47.03,-11.6 -106.15,-26.6 -149.92,-42.95 -25.78,-9.63 -17.01,-4.06 -31.82,-64.49 -6.1,-24.95 -15.08,-53.27 -17.7,-78.92l84.54 -28.2 -9.41 -51.54 -91.32 24.04 -30.47 -137.58 93 -26.56 -132.78 -741.06c80.32,-22.44 173.96,-60.03 259.28,-71.43l24.4 192.35 105.46 -6.85 -2.18 -203.6 249.78 -22.41 0.11 197.62 136.93 1.34 -0.06 -195.27c44.56,-3.52 214.78,6.66 249.09,21.82l-4.22 200.53 108.49 8.31zm329.24 827.69c0.26,-55.8 -5.88,-241.31 4.32,-282.22l983.94 0c-3.55,23.29 -62.53,98.31 -76.29,114.46 -99.86,117.17 -184.23,180.69 -322.22,257.1 -141.22,78.19 -407.98,169.54 -590.91,193.25 0.21,-94.19 0.71,-188.4 1.16,-282.59zm147.07 418.79c202.53,-52.76 362.7,-116.43 538.59,-213.25 28.82,-15.85 52.86,-31.46 78.81,-48.17 24.91,-16.02 51.56,-38.7 76.56,-50.83 -85.68,169.56 -117.8,250.97 -154.42,451.07 -28.69,156.76 -63.94,403.07 7.28,539.55 -113.58,-4.9 -235.94,-21.45 -351.06,-30.47 -751.78,-58.87 -1448.64,-57.48 -2199.99,-0.07 -115.84,8.86 -236.77,24.77 -351.51,30.63 97.36,-202.42 -1.4,-671.54 -90.02,-879.31 -14.43,-33.82 -41.76,-75.69 -50.92,-103.6l154.77 96.45c677.64,363.44 1609.15,398.89 2341.9,208.01zm-906.7 688.31c1004.14,1.03 2048.92,196.41 3068.93,239.82 268.72,11.44 712.18,63.58 831.09,-248.64 -1.78,150.04 -62.61,411.64 -103.76,548.81 -40.1,133.6 -138.51,372.71 -219.52,435.88 -112.28,87.56 -377.72,107.71 -548.44,106.56 -371.66,-2.49 -1343.67,-155.46 -1769.35,-206.32 -739.5,-88.36 -1767.5,-85.93 -2507.46,0.27 -386.92,45.07 -774.66,104 -1165.21,150.08 -194.29,22.92 -402.72,53.72 -599.35,55.86 -173.18,1.89 -439.73,-17.12 -556.26,-103.79 -129.61,-96.42 -250.53,-504.64 -286.03,-699.59 -13.4,-73.58 -41.33,-215.13 -39.58,-287.77 20.87,64.42 76.3,122.21 117.82,153.53 184.97,139.57 475.19,104.51 708.38,95.25 342.4,-13.6 683.81,-45.85 1021.4,-80.54 678.02,-69.66 1356,-160.12 2047.35,-159.41zm755.8 -1442.18l2.39 -558.72 1131.85 -1.06c-4.21,103.69 -11.99,206.03 -29.51,306.88 -8.96,51.56 -47.78,234.5 -82.18,252.91l-1022.56 0zm754.09 1248.88c-11.3,-109.16 4.24,-296.07 21.49,-403.26 18.68,-116.09 54.14,-233.66 108.05,-319.24 56.96,-90.41 116.82,-146.19 237.27,-189.51 308.06,-110.81 852.04,-74.84 1165.93,-30.28 122.85,17.45 244.84,35.94 366.19,59.94 53.31,10.54 324.29,61.93 353.98,75.26l-70 166.61c-79.48,210.01 -108.86,387.32 -101.74,618.18l-240.81 -75.5c-244.6,-65.42 -566.44,-107.98 -819.94,-115.86 -311.21,-9.69 -794.97,-1.47 -1020.41,213.67zm62.75 150.58c-39.82,-44.4 -6.02,-95.09 25.33,-121.72 53.58,-45.51 165.21,-86.45 252.59,-108.4 223.55,-56.12 421.4,-62.46 659.58,-41.81 322.96,27.99 743.84,97.65 1051.44,208.79 42.42,15.33 93.19,39.33 134.52,50.91 -8.85,-65.74 -22.02,-125.96 -14.79,-195.89 40.15,13.7 80.4,41.38 108.48,64.1 105.5,85.39 63.7,241.73 -126.32,304.25 -187.46,61.68 -456.48,53.97 -661.65,32.41 -328.63,-34.55 -644.3,-80.41 -974.61,-110.09 -117.65,-10.56 -383.8,-3.66 -454.58,-82.57zm-811.75 -2631.92l2.99 -586.45 1206.54 -2.4 -37.09 588.82 -1172.44 0.03zm6.09 52.8l1156.83 0 -35.79 564.11c-37.87,9.23 -1057.49,2.98 -1123.89,2.98l2.85 -567.1zm998.67 1474c37.98,-53.78 62.42,-71.33 107.02,-144.41 27.84,-45.61 64.21,-114.37 78.86,-170.51 36.78,30.97 36.15,52.15 124.21,114.27 13.42,9.46 146.78,90.04 147.36,91.03 -112.49,11.88 -248.91,31.71 -354.34,68 -33.3,11.47 -76.58,34.82 -103.12,41.61zm-3648.1 -854.1c124.92,0 1097.8,-7.02 1132.61,3.28l2.37 555.88 -1031.25 0.62c-35.2,-110.38 -50.1,-109.44 -74.36,-255.73 -16.74,-100.81 -23.77,-199.71 -29.36,-304.05zm142.6 613.29l985.29 -0.63 4.02 565.19c-447.87,-76.51 -828.81,-268.44 -989.31,-564.56zm2509.84 -1927.5l2.9 -528.6 1227.98 -0.32 -32.51 525.15c-33.79,11.59 -517.86,3.77 -596.49,3.77 -200.62,0 -401.26,0 -601.88,0zm1223.39 1612.97l146.09 -2209.21c15.37,17.46 36.32,64.04 50.78,86.69 60.82,95.22 113.16,150.49 185.41,231.21l358.4 332.49c67.99,53.81 160.86,145.1 221.56,195.16 49.72,40.99 247.06,236.82 269.75,286.71 -85.21,4.47 -184.28,37.2 -207.32,128.42 15.65,14.2 19.29,17.67 35.64,28.08 55.61,-33.86 117.64,-71.1 193.36,-18.27 123.29,86.03 94.13,261.6 -34.28,342.37 -63.73,40.08 -149.37,41.49 -230.83,28.88 -157.01,-24.31 -313.23,-71 -477.57,-31.22 -148.26,35.88 -220.71,131.54 -245.79,292.98 -77.31,37.64 -120.24,74.13 -106.5,185.39 -1.36,0.72 -3.47,-0.07 -4.27,1.73 -2.79,6.27 -4.24,1.8 -8.55,3.03 -4.3,1.22 -8.97,2.12 -12.83,2.99 -56.9,12.91 -70.28,43.78 -89.57,88.15 -9.17,21.06 -18.36,20.11 -43.46,24.43zm373.51 -267.13c-53.16,-160.48 29.59,-270.75 177.51,-296.68 168.19,-29.48 295.85,30.65 444.2,56.47 322.15,56.08 441.44,-169.59 356.93,-346.95 -33.12,-69.52 -68.93,-86.53 -132.26,-126.84 75.21,-30.37 143.18,2.68 177.95,45.65 49.67,61.38 29.46,121.93 33.8,200.35 55.37,24.61 104.67,-1.83 141.85,-35.46 77.46,67.59 -13.08,155.23 -78.7,185.68 10.16,18.87 32.99,27.78 48.87,42.26 53.5,48.79 77.43,126.12 57.62,201.24 -13.65,51.83 -41.13,84.05 -75.59,107.23 -47.37,31.87 -94.35,31.9 -132.51,52.89l33.19 30.2c32.84,41.79 40.23,92.59 40.45,147.59l108.22 -29.66c1.51,-69.71 -29.18,-106.02 -56.13,-141.84 89.05,-32.38 150.29,-68.91 181.56,-148.66 47.73,-121.74 -21.57,-190.53 -56.19,-248.88 105.95,-111.31 67.75,-286.06 -82.38,-321.9 5.78,61.64 -8.6,106.78 -73.31,107.03 1.3,-59.45 -0.71,-105.69 -22.39,-155.59 -16.81,-38.69 -51.59,-76.81 -79.18,-98.51 -26.75,-21.03 -49.41,-80.46 -66.78,-111.09 -54.13,-95.5 -121.68,-177.35 -189.26,-263 -64.79,-82.14 -326.29,-328.62 -409.64,-403.26 -118.58,-106.18 -255.62,-247.83 -309.11,-412.33 -43.9,-135.04 -16.3,-187.51 8.08,-309.46l-37.07 -11.02c-18.6,71.66 -43.82,104.95 -45.99,195.66 -5.76,241.44 198.85,450.22 361.07,600.84 42.44,39.41 81.65,80.52 123.62,120.25 40.19,38.05 83.26,77.24 117.69,121.13 17.97,22.89 37.25,41.37 55.97,65.94 16.11,21.14 37.61,47.11 48.78,70.66 -17.17,-13.31 -26.61,-22.8 -45.08,-38.64l-328.55 -286.35c-61.44,-49.43 -211.45,-198.89 -265.65,-262.66 -26.35,-31.01 -53.59,-65.31 -79.01,-99 -236.98,-314.05 -151.93,-598.13 163.9,-791.28 36.27,-22.19 75.97,-39.99 111.19,-63.03 -62.27,-32.06 -108.13,-43.73 -155.69,-88.1 -241.49,-225.23 190.6,-398.38 349.26,-494.23 98.51,-59.52 217.27,-153.67 195.34,-284.27 -12.92,-76.94 -72.3,-104.94 -102.49,-140.36 158.84,-7.08 167.29,99.69 181.71,237.39 47.01,-25.24 71.13,-80.2 116.6,-109.87 46.89,174.5 2.13,269.12 -153.42,351.84 -59.86,31.84 -118.81,56.98 -187.01,82.27 -58.74,21.78 -150.32,50.87 -181.41,87.92 -54.64,65.08 8.68,149.7 81.18,148.23 36.22,-0.73 73.18,-29.31 87.09,-45.89 11.42,-13.6 14.97,-20.01 29.33,-36.8 10.08,-11.8 22.42,-26.06 32.31,-38.88 54.64,-70.86 150.27,-159.33 252.06,-151.96 32.19,2.33 80.37,19.44 94.89,38.82 -28.12,29.24 -36.06,23.49 -59.53,65.33 -27.26,48.6 -15.05,60.57 -5.38,108.59 17.81,88.57 -51.19,122.67 -121.3,140.45 -65.41,16.59 -151.57,23.16 -202.16,57.17 -33.76,22.7 -123.63,91.06 -87.67,157.5 34.13,63.06 125.33,48.3 182.55,13.61 30.29,-18.36 50.18,-40.25 69.8,-62.5 21.99,-24.94 41.52,-44.91 61.8,-70.21 30.3,-37.77 104.4,-104.62 173.64,-48.54l70 62.09c33.4,25.51 63.4,24.53 91.64,0.14 -5.18,64.71 -75.72,129.2 -117.35,153.46 -104.38,60.79 -279.6,22.34 -319.39,92.44 -20.07,35.34 4.61,80.92 23.76,95.66 151.43,116.57 282.14,-210.61 611.49,-173.05 81.51,9.3 155.33,36.63 187.73,85.24 42.8,64.18 65.08,139.02 2.08,196.19 20.93,74.66 67.41,126.82 32.12,226.11 -24.41,68.68 -86.41,111.46 -176.39,116.06l31.34 -27.45c13.67,-10.59 20.24,-16.22 31.16,-29.68 173.97,-214.4 -41.32,-422.18 -354.53,-319.11 -126.18,41.52 -204.52,112.89 -348.96,133.94 -169.48,24.71 -274.95,-45.04 -274.77,-209.48 -31.44,-3.01 -87.32,27.82 -106.92,41.11 -123.02,83.39 -95.8,208.06 -19.14,304.36 176.55,221.77 645.15,460.94 882.46,652.01 14.81,11.93 30.76,24.08 41.56,34.66 96.1,94.07 181.98,160.66 267.38,271.21 155.29,201.05 244.87,378.76 267.23,655.98 22.23,275.57 -23.38,517.72 -176.63,731.72 -22.63,31.62 -44.88,55.93 -67.49,84.91 -20.81,26.66 -45.92,54.81 -82.26,70.17 5.8,-39.47 16.94,-40.91 7.52,-93.53 -7.98,-44.63 -5.32,-57.26 10.55,-91.9 -49.72,-37.87 -154.35,-37.9 -219.25,-20.89 -138.01,36.17 -211.53,128.54 -326.03,197.47 -77.94,46.93 -107.88,56.96 -214.14,50.77 19.43,20.64 56.76,30.27 83.92,36.67 240.46,56.67 322.25,-264.79 587.93,-246.76 4.39,28.77 8.39,113.98 -0.41,138.98 -17.52,49.72 -46.6,61.12 -65.62,92.63 107.14,-14.09 177.98,-31.52 288.45,-2.7 207.21,54.06 360.48,303.22 178.49,468.93 -19.45,17.71 -65.11,54.38 -98.58,61.58 27.16,-48.84 77.6,-111.85 64.54,-192.08 -11.3,-69.36 -67.07,-103.62 -129.58,-129.38 -118.77,-48.95 -328.5,-58.54 -467.68,-50.86 -159.12,8.77 -315.73,38.61 -474.98,42.16 -104.88,2.34 -387.15,-23.65 -424.55,-94.92 23.56,-39.43 109.51,-14.88 139.85,14.36 18.37,17.71 14.27,24.14 25.55,39.38 31.02,-32.65 36.75,-79.41 3.49,-109.07 -108.53,-96.85 -397.43,75.54 -641.21,-126.03 -26,-21.5 -55.71,-48.75 -71.59,-86.06 -20.36,-47.83 -9.9,-94.15 47.86,-93.28 34.89,71.1 85.74,118.91 182.76,134.38 -35.79,-35.2 -67,-62.22 -94.72,-110.87 -28.23,-49.54 -41.81,-116.98 19.57,-142.06 60.52,67.61 68.81,109.66 197.54,115.94 -38.83,-38.74 -72.28,-58.17 -102.3,-114.1 -30.61,-57.04 -24.92,-139.06 23.39,-163.62 24.71,72.13 69.69,110.49 134.5,142.75 -16.64,82.43 -17.91,145.99 36.92,192.01 98.8,82.92 303.96,61.49 418.42,12.8 63.72,-27.11 122.91,-67.73 153.2,-109.78 70.73,9.78 127.19,28.35 205.17,31.31 60.54,2.3 124.9,-6.48 181.27,-27 28.07,-10.23 11.24,1.53 16.98,-13.61 -72.26,-26.76 -249.05,44.69 -514.15,-120.92 -117.6,-73.46 -199.97,-138.19 -357.21,-79.9 -21.29,7.89 -35.26,15.43 -53.82,27.42 -21.36,13.78 -27.72,20.35 -45.15,34.87 -46.19,-35.76 -31.63,-98.4 5.17,-135.68 70.15,-71.02 132.72,-57.43 223.53,-57.96l69.03 -8.27c-3.83,-2.22 -2.3,-2.05 -12.17,-5.76l-40.81 -10.66c-91.48,-22.31 -183.48,-42.07 -264.26,17.33 -23.24,17.09 -34.41,36.66 -52.43,59.3 -5.89,7.41 -4.5,5.94 -10.28,11.48zm137.66 212.34c48.63,-154.62 315.51,-136.17 265.38,15.76 -51.51,156.12 -313.32,136.64 -265.38,-15.76zm-1735.97 -2140.07l0.82 -595.68 1279.24 -2.1 -37.51 597.24 -1242.55 0.54zm9.71 -650.74l0.31 -548.68c87.94,-10.5 555.84,30.5 670.19,42.2 213.8,21.88 415.74,52 623.28,87.59l-25.58 418.32 -1268.2 0.58zm2122.28 -90.21c88.76,-44.8 61.24,-15.18 100.72,-38.21 -8.08,32.33 -127.47,138 -156.1,109.89 -29.81,-29.28 41.64,-64.74 55.38,-71.67zm-5894.92 -37.26c26.68,9.61 28.93,7.73 55.56,14.34 12.62,3.12 77.83,36.91 90.78,51.55 13.43,15.18 19.12,26.03 10.27,45.66 -41.05,8.81 -103.71,-46.31 -123.99,-69.17l-23.09 -27.91c-8.95,-11.58 -2.21,0.61 -9.53,-14.47zm4587.35 -1144.48c-31.34,7.09 -235.15,-45.13 -289.07,-51.9l142.05 -1109.83 483.58 78.33 -336.55 1083.39zm-927.38 -132.74l-339.03 -18.67c-9.17,-34.79 27.3,-984.91 30.45,-1108.89l388.88 15.47c4.15,55.91 -74.63,1097.36 -80.3,1112.09zm-1012.13 -19.25l-339.3 20.7 -80.34 -1112.67c48.31,-5.07 362.46,-22.07 386.36,-13.93l33.28 1105.89zm599.67 -2.89c-142.23,2.91 -108.73,23.69 -108.97,-171.88 -0.17,-136.24 31.43,-357.02 -164.51,-357.36 -102.89,-0.16 -165.03,77.39 -165.04,184.59l-1.25 341.82 -90.89 3.11c-13.84,-359.61 -18.63,-723.54 -29.39,-1084.17 -0.88,-29.68 -1.42,-59.35 -2.24,-89.01 -1.03,-37.37 5.05,-52.76 3.96,-86.42 -1.29,-39.18 -10.16,-149.14 -1.58,-179.63l68.78 -0.95c-10.5,35.12 0.68,167.76 1.79,214.19 29.12,7.78 119.48,2.36 155.44,2.19l5.28 -217.24 124.29 -0.19 5.97 213.37c22.03,7.52 134.79,5.98 154.58,-0.26l7.48 -207.22c21.36,-6.53 45.76,-7.47 67.61,-2 6.92,45.17 -2.98,132.04 -2.75,182.91 0.15,32.31 4.79,54.98 3.44,91.46l-12.08 447.14c-5.32,237.34 -9.83,478.66 -19.92,715.54zm512.01 -263.26c7.9,-98.75 14.55,-196.41 22.1,-294.78 7.34,-95.46 33.54,-525.49 45.28,-579.51l-107.69 -9.01 9.46 -267 127.19 8.74 -4.08 186.43c13.35,0.88 29.1,3.43 41.61,3.42 96.41,-0.07 70.55,13.78 121.39,12.65l19.15 -180.94c24.81,-4.66 100.21,8.63 130.94,11.55l-13.78 184.18 139.73 21.5 26.56 -182.7 87.33 10.09c2.02,38.77 -142.52,1128.4 -158.91,1254.29l-17.08 135.85c-2.88,29.36 2.33,30.22 -20,29.91 -0.84,-0.97 -1.71,-4.08 -1.89,-3.38l4.27 -73.94c4.04,-29.28 8.08,-57.76 11.82,-85.74 7.45,-55.9 14.69,-110.03 22.72,-165.96 8.98,-62.47 7.61,-109.71 -23.56,-156.05 -41.97,-62.36 -126.15,-92.49 -202.61,-64.27 -65.39,24.13 -99.45,103.06 -110.52,174.67 -17.06,110.52 -31.98,224.83 -45.36,335.48 -38.43,-3.13 -94.33,-1.22 -124.88,-15.92 1.42,-90.9 13.49,-197.99 20.82,-289.55zm919.84 -1027.69c0.73,-0.81 -0.62,-0.33 0,0zm153.77 290.94c-65.3,-13.84 -128.79,-25.4 -195.69,-37.56l37.08 -249.9c3.11,-1.93 4.39,-2.96 4.85,-3.48 0.47,0.26 2.1,0.41 6.69,-0.18l50.44 7.16 -13.56 185.39 170.93 29.25 28.42 -177.37 124.51 22.57 -32.7 183.24c24.5,14.13 135.81,37.45 167.42,38.04 8.45,-31.66 13.55,-60.43 20.37,-91.81l17.71 -79.19c6.47,-17.5 1.29,-4.3 5.33,-11.53 21.48,3.57 49.61,7.42 64.24,17.63l-185.69 909.61c-132.03,-13.77 -187.34,53.83 -212.73,163.88 -22.13,95.82 -56.62,211.82 -70.6,304.89l-134.01 -34.91 333.87 -1129.43c-3.25,-1.37 -5.04,-3.64 -5.62,-2.58 -0.59,1.05 -2.7,-1.5 -3.52,-1.86 -2.79,-1.19 -8.38,-3.48 -11.35,-4.44l-166.38 -37.41zm894.51 2058.83c-0.5,-26.09 -5.26,-25.73 10.31,-42.05 30.37,-31.82 59.57,-49.17 105.85,-56.59 -6.83,13.74 -33.05,50.99 -44.18,62.51 -22.93,23.73 -21.45,39.35 -71.98,36.13zm-5640.71 3189.81l72.36 -39.17c13.41,17.17 7.7,50.45 49.98,95.67 17.97,19.23 53.17,51.85 85.32,62.93 -61.06,1.95 -144.61,-46.38 -187.11,-93.2 -3.65,-4.02 -18.42,-24.47 -20.54,-26.23zm140.27 -20.32c-39.38,-157.87 229.29,-155.82 268.38,-6.49 41.38,158.04 -230.49,158.46 -268.38,6.49zm-417.83 -2646.47l123.88 21.92c24.55,14.63 14.6,71.99 -65.21,19.43 -21.91,-14.43 -43.8,-24.36 -58.67,-41.34zm343.45 -621.98c49.86,11.44 117.59,35.6 116.36,96.55 -53.98,14.55 -96.8,-56.69 -116.36,-96.55zm5677.17 3248.01l76.72 39.83c-23.89,45.91 -125.21,120.33 -207.91,120.57 59.69,-24.61 117.33,-83.74 131.19,-160.4zm227.33 -2570.9c-32.21,-37.06 39.59,-38.79 88.37,-49.66l29.73 -3.59c11.16,1.89 5.24,0.23 11.91,4.41 -23.2,7.59 -102.78,80.17 -130,48.84z"/>
    <path class="fil2" d="M4703.89 5875.16l3.41 205.33 -193.21 15.71 -24.95 -187.85 -167.88 46.71 126.2 703.8c147.81,-23.97 170.16,-42.21 358.67,-61.04 15.51,-63.43 -5.07,-217.11 4.69,-294.24 25.69,-203.13 277.32,-200.54 307.93,-8.55 11.58,72.57 6.34,216.17 7.83,296.74 23.15,9.21 153.3,19.89 191.92,26.62 35.21,6.13 163.28,37.75 183.18,36.05l126.01 -699.38 -168.55 -48.14 -23.59 187.59 -193.51 -14.21 3.93 -204.54 -157.7 -15.51 -0.11 196.33 -227.99 -0.15 0.06 -193.9 -156.33 12.63z"/>
    <path class="fil2" d="M5087.81 3235.04l-226.47 -0.11 -1.19 -194.01 -158.07 12.5c1.15,40.98 11.81,177.2 1.49,205.29l-191.26 15.68 -22.98 -185.34c-33.49,-0.27 -136.97,34.14 -167.8,45.88l125.99 702.22c120.83,-20.88 228.75,-52.98 361.47,-61.01 0,-156.9 -48.59,-447.16 156.56,-446.93 87.26,0.1 143.3,67.79 154.07,149.74 11.14,84.76 -6.39,215.78 9.28,294.49 65.21,5.05 128.94,12.73 191.59,23.57 55,9.51 130.78,32.44 178.67,37.26 11.7,-22.88 97.56,-536.78 120.28,-655.19l4.81 -34.36c-0.91,-9.65 -0.27,-6.23 -3.14,-12.25l-162.18 -47.6 -23.42 188.2 -188.9 -14.32c-0.65,-2.42 -1.43,-5.66 -1.62,-4.98l1.21 -200.28 -156.62 -14.93 -1.76 196.48z"/>
    <path class="fil2" d="M4705.12 4458.95l2.31 205.18 -194.79 16.01 -23.18 -184.89c-22.72,-5.09 -146.35,34.91 -166.8,47.17l124.92 700.79c120.34,-26.77 230.78,-50.6 360.54,-61.27 5.83,-91.69 -8.62,-209.74 2.96,-296.34 10.73,-80.28 64.85,-148.31 149.42,-150.28 206.48,-4.79 163.13,282.04 166.05,439.34 18,8.46 155.81,21.69 190.91,27.63 53.5,9.06 136.24,33.71 181.69,36.97l128.37 -699.74 -167.56 -48.76 -24.23 186.83 -194.76 -13.44 5.4 -204.53 -158.14 -15.58 -0.08 196.86 -227.99 -0.22 -0.01 -194.31 -155.02 12.6z"/>
    <path class="fil2" d="M5212.8 8318.67l47.49 200.11 -119.35 -2.42 71.86 -197.69zm165.66 115.91c157.37,-7.33 159.36,221.77 139.33,247.1 -17.23,21.8 -58.86,15.41 -74.04,-3.81 -12.72,-16.12 -20.09,-52.74 -25.96,-75.86 -13.42,-52.88 -30.61,-115.06 -39.33,-167.43zm-6.5 -25.6c-5.83,-24.76 -57.95,-199.77 -49.56,-216.41 11.77,-23.32 84.79,-20.42 121.34,119.15 19.68,75.1 1.18,97.75 -71.78,97.26zm-221.05 -248.86c14.77,25.89 44.89,6.82 63.64,41.18 12.14,22.22 -6.29,54.93 -14.03,76.9l-105.8 300.7c-11.03,32.46 -22,84.88 -48.06,104.83 -18.32,14.05 -18.24,0.3 -16.49,26.64l117.47 1.48c9.34,-23.89 -7.15,-19.46 -19.36,-23.8 -17.05,-6.08 -9.83,-0.91 -24.67,-13.61 -6.1,-35.3 14.13,-99.25 29.68,-124.88l132.12 0.88c12.92,24.8 33.46,103.96 21.16,127.51 -10.4,15.34 2.42,5.12 -19.03,12.18 -26.8,8.81 -18.32,0.64 -24.2,13.67 5.51,8.89 -7.39,9.71 42.31,10.59 15.78,0.28 31.49,0.66 47.1,1.1 103.72,2.93 230.63,25.7 277.83,-37.45 33.19,-44.39 13.08,-124.29 -11.54,-165.63 -36.58,-61.41 -56.63,-58.83 -119.54,-93.16 33.03,-27.03 66.29,-25.78 66.15,-91.49 -0.28,-118.61 -110.43,-166.87 -223.55,-170.03 -75.18,-2.11 -43.03,-0.93 -66.88,-14.86l-17.7 9.25c-9.88,3.02 -16.56,2.37 -27.7,1.96 -8.71,-0.31 -23.11,-2 -31.1,-1.72 -6.51,0.23 -8.44,0.1 -14.73,1.77 -12.49,3.29 -6.25,0.83 -13.1,5.99z"/>
    <path class="fil2" d="M2593.57 8602.8c-5.56,-47.95 -49.94,-243.94 -32.89,-276.64 11.41,-21.89 57.28,-16.36 75.26,-0.89 32.88,28.27 45.06,105.49 49.97,159.89 7.15,79.4 -11.54,117.47 -92.34,117.64zm10.62 32.3c22.64,1.11 31.2,28.62 53.37,64.82 34.79,56.79 100.66,171.97 121.49,227.54 34.33,-2.81 92.23,-2.46 120.02,-15.33 0.53,-38.03 -3.29,-4.36 -25.22,-37.18 -8.24,-12.34 -15.34,-28.39 -21.38,-39.6 -37.84,-70.19 -114.04,-184.82 -133.7,-223.01 3.97,-4.92 1.42,-2.52 7.91,-8.08 1.1,-0.94 4.67,-3.61 5.89,-4.51 16.43,-12.03 22.56,-11.58 37.04,-39.16 36.56,-69.63 15.61,-184.46 -28.76,-233.44 -39.13,-43.18 -76.25,-51.47 -153.24,-46.41 -56.29,3.69 -130.9,5.76 -185.17,14.25 -2.79,45.77 28.8,3.76 48.23,52.9l48.6 266.49c10.88,60.64 22.5,119.49 33.21,180.09 32.41,183.31 -37.79,91.08 -33.79,151.98 21.67,5.61 176.93,-5.61 195.28,-14 1.08,-30.17 3.01,-17.61 -24.3,-26.24 -16.51,-5.23 -19.91,-7.28 -26.62,-23.91l-38.86 -247.19z"/>
    <path class="fil2" d="M6540.29 8509.94c4.67,-53.52 20.58,-114.39 28.13,-170.18 3.08,-22.74 0.63,-69.5 19.28,-82.03 32.92,-22.11 132.86,7.79 76.6,178.41 -20.95,63.51 -48.59,75.94 -124.01,73.81zm72.6 -285.1c-32.63,-1.82 -171.14,-19.45 -187,-3.74 5.16,40.42 61.29,-23.05 40.43,129.06l-65.49 396.5c-18.74,43.33 -45.51,4.38 -47.53,43.51 21.25,12.09 110.34,15.59 151.85,20.8l45.82 -0.47c-2.01,-24.34 4.27,-11.93 -21.95,-23.83 -37.4,-16.98 -27.37,-57.56 -20.54,-105.36 3.54,-24.87 11.87,-128.32 32.27,-142.97 17.51,9.79 18.74,38.37 27.39,71.77 22.03,85.13 55.25,169.91 67.25,216.86 29.48,2.35 102.82,16.42 120.53,8.93 -2.11,-33.96 -1.41,-3.26 -19.44,-33.19 -6.1,-10.13 -10.06,-24.75 -14.11,-36.58 -8.72,-25.51 -15.72,-48.07 -23.62,-73.03 -13.39,-42.34 -35.63,-114.09 -40.8,-156.97 27.31,-16.52 42.03,-11.65 65.7,-35.71 62.42,-63.46 81.02,-155.28 35.36,-218.18 -30.66,-42.24 -83.2,-53.87 -146.12,-57.39z"/>
    <path class="fil2" d="M4024.44 8327.8c-3.48,-56.18 -24.41,-135.11 41.7,-132.83 139.15,4.81 166.91,447.94 57.76,530.82 -13.98,10.61 -43.42,22.84 -63.71,14.64 -25.17,-10.16 -18.76,-47.88 -19.81,-72.21 -4.9,-113.41 -8.96,-227.65 -15.93,-340.43zm-157 -147.35c4.81,62.14 47.36,-51.3 55.78,127.02 2.75,58.2 6.49,116.37 9.74,174.83 3.14,56.64 7.22,113.68 9.9,170.49 1.18,25.15 5.47,64.5 -2.64,87.77 -5.43,15.6 -9.4,17.08 -21.83,23.73 -23.78,12.74 -20.04,-0.23 -20.05,25.88 17.56,7.05 227.92,-8.21 294.46,-61.55 128.01,-102.62 148.55,-414.49 -3.02,-529.33 -41.36,-31.33 -88.4,-36.75 -149.09,-32.79 -40.25,2.61 -144.95,-0.26 -173.25,13.95z"/>
    <path class="fil2" d="M6146.71 8215.41c183.91,-51.61 96.04,504.47 -13.93,538.14 -64.56,19.78 -94.49,-38.32 -106.25,-89.06 -22.21,-95.85 10.87,-418.4 120.18,-449.08zm-24.98 -25.52c-182.32,43.59 -272.22,354.9 -148.45,517.3 30.65,40.21 100.15,92.16 184.61,75.61 146.12,-28.65 276.95,-354.1 147.16,-524.05 -31.44,-41.16 -100.36,-88.7 -183.33,-68.86z"/>
    <path class="fil2" d="M3024.67 8547.37c-14.08,-26.74 -19.27,-109.18 -23.41,-146.36 -5.24,-46.96 -24.34,-110.63 23.2,-124.07 19.13,-5.41 51.76,-5 71.82,-0.48 82.44,18.56 75.59,122.14 101.14,145.12l-5.81 -190.74c-48.16,-0.3 -205.78,16.65 -271.71,22.64 -15.59,1.43 -31.12,2.33 -46.73,3.57 -4.28,0.34 -18.13,1.88 -21.18,2.74 -16.94,4.82 -4.49,-1.83 -14.41,7.04l1.04 15.24c36.09,13.64 45.24,-0.23 54.55,44.66l60.81 437.84c23.14,183.32 -39.49,76.09 -39.33,149.31l341.4 -39.83c7.65,-27.2 17.43,-182.63 7.41,-199.11 -26.57,4.57 -10.88,9.83 -27.93,67.01 -26.52,88.94 -108.05,145.44 -160.91,116.14 -30.42,-22.55 -23.55,-97.06 -28.29,-135.31 -5.98,-48.35 -14.65,-94.5 -19.46,-143.08 52.51,1.16 70.38,11.93 89.03,48.08 26.33,51.03 17.51,81.5 35.77,90.78 7.43,-9.66 1.64,4.17 4.32,-11.05 2.85,-16.22 -25.24,-207.54 -29.6,-242.43 -7.72,-61.86 0.29,-64.7 -21.52,-69.85 -19.23,59.93 20.65,140.59 -80.23,152.12z"/>
    <path class="fil2" d="M3403.52 8302.4c-7.5,-93.59 71.08,-67.65 91.77,-18.19 10.32,24.66 54.41,203.49 -27,238.4 -49.07,21.04 -44.03,3.38 -47.82,-36.39 -5.78,-60.81 -12.05,-122.7 -16.96,-183.82zm-95.93 558.91l8.14 2.84c22.69,3.8 176.26,-19.05 186.48,-23.16 3.73,-65.47 -45.2,43.48 -57,-116.95 -3.82,-51.87 -13.41,-107.26 -15.22,-157.42 26.65,-12.36 226.51,-1.51 183.62,-232.94 -28.77,-155.26 -141.18,-127.67 -291.37,-115.08 -17.48,1.47 -99.45,-0.31 -68.09,26.32 24.08,20.43 36.46,-10.02 48.99,58.15l48.52 487.44c-5.06,64.72 -40.33,30.32 -44.07,70.8z"/>
    <path class="fil2" d="M7272.85 8652.99c59.78,38.13 54.09,-9.06 29.24,136.2 -9.46,55.26 -15.98,121.62 -91.44,93.28 -43.81,-16.46 -65.84,-76.33 -65.88,-132.83 -0.06,-119.9 64.09,-372.43 142.79,-442.35 50.11,-44.53 97.85,-5.15 123.06,29.66 44.98,62.12 32.29,126.23 44.74,150.3 16.74,-5.18 8.86,7.76 16.93,-20.85 10.4,-36.88 32.15,-164.4 26.18,-196.76 -20.08,0.88 -23.1,21.76 -31.74,38.13 -49.64,2.02 -80.83,-66.85 -175.03,-47.38 -58.08,12.01 -105.53,63.29 -130.82,98.17 -192.19,264.96 -127.64,600.21 128.08,555.33 154.88,-27.17 74.84,-106.65 130.32,-210.65 26.57,-49.8 57.8,-0.47 59.55,-50.24 -24.22,-6.46 -86.01,-9.14 -114.59,-11.59 -85.42,-7.3 -86.49,-18.62 -91.36,11.59z"/>
    <path class="fil2" d="M8017.24 8502.9c-16.98,-73.89 -43.25,-129.75 -63.19,-195.15l-129.71 -0.27c0.32,33.61 17.33,13.36 37.5,76.39 11.2,34.96 -94.06,360.1 -108.86,419.24 -12,48.02 -13.75,100.75 -48.06,114.51 -28.52,11.46 -25.44,-7.29 -26.11,24.98 24.36,13.31 99.28,12.16 132.09,12.5 0.81,-32.79 6.52,-17.54 -17.85,-30.24 -10.2,-5.31 -13.82,-4.25 -21.42,-18.95 -10.7,-20.71 -6.3,-47.5 -1.06,-69.86l109.77 -383.57c19.05,33.37 59.83,305.72 95.79,416.45 8.06,24.81 27.99,109.03 53.39,112.54 5.29,-8.43 29.17,-155.06 35.6,-181.06 25.75,-104.03 72.54,-221.34 103.6,-333.31 7.37,-26.54 15.04,-65.83 24.03,-87.82 20.97,-51.29 47.23,-4.56 50.27,-56.96l-132.02 -5.84c-0.85,41.91 8.33,14.11 31.16,41.03 11.16,13.16 14.26,32.45 13.48,51.29 -2.04,49.1 -77.87,287.74 -95.63,313.59 -10.86,-23.33 -33.19,-177.9 -42.76,-219.51z"/>
    <path class="fil2" d="M8266.54 8332.88c3.81,38.56 46.78,-3.4 44.55,65.94 -0.91,28.47 -12.79,62.25 -20.5,88.6 -31.92,109.12 -77.61,220.54 -107.7,329.2 -11.75,42.4 -17.76,100.36 -47.1,115.44 -26.45,13.59 -27.34,-1.24 -32.9,25.79 1.33,0.86 3.43,0.17 4.31,2.02l90.06 -0.81c31.13,-2.58 62.02,-6.07 92,-10.26 59.96,-8.37 117.11,-23.3 173.45,-31.11 5.31,-31.31 14.45,-66.64 25.59,-95.54 11.95,-30.99 29.6,-60.61 38.45,-86.97 -23.19,2.96 -19.33,4.93 -30.12,24.24 -6.92,12.37 -13.05,21.89 -21.4,34.38 -26.98,40.32 -67.02,89.32 -111.92,111.68 -26.59,13.24 -59.35,22.72 -93.33,14.91 -22.12,-30.69 6.09,-100.51 17.4,-136.54 11.12,-35.44 30.42,-100.83 47.01,-131.01 112.17,-9.99 41.38,105.75 55.88,133.24 17.85,-7.28 22.76,-40.08 34.62,-73.08 9.49,-26.37 19.19,-51.76 29.09,-77.65l49.06 -134.55c1.4,-5.47 1.72,-5.64 1.56,-10.54 -0.44,-13.94 3.36,0.03 -2.53,-8.95 -32.56,10.18 -34.8,132.83 -155.19,138.88 2.09,-21.39 29.94,-87.42 38.34,-114.6 6.93,-22.42 27.18,-115.11 35.13,-127.28 20.03,-30.72 98.49,-18.02 125.6,2.18 33.56,24.99 29.69,78 24.89,127.54 21.56,0.35 17.66,-4.82 24.08,-26.37 4.73,-15.91 9.16,-31.26 13.25,-47.81 7.13,-28.8 14.67,-67.09 12.15,-97.24l-338.31 -12.78c-31.61,5.38 -3.52,-0.08 -15.44,9.08z"/>
    <path class="fil2" d="M1883.77 8620.25c-54.61,-73.67 -177.14,-233.32 -214.58,-307.19l-131.41 -4.92c1.69,29.94 6.97,18.61 24.64,38.91 42.68,49.04 39.07,68.13 54.62,133.13 15.87,66.39 102.48,365.76 89.93,404.76 -8.44,26.25 -26.93,13.09 -39.97,27.16 -17.67,19.08 15.23,21.18 29.48,22.87 22.89,2.7 89.05,15.27 104.89,7.63 -5.97,-44.85 -45.8,1.03 -67.24,-96.26 -21.88,-99.28 -90.79,-337.84 -95.44,-391 85.26,101.95 263.11,343.76 336.63,459.36 23.39,36.78 26.59,58.53 48.38,63.63 20.06,-39.41 -81.51,-456.07 -92.16,-507 -34.94,-167.1 22.71,-100.59 27.83,-148.62 -8.14,-7.2 -8.14,-8.46 -31.93,-8.6l-99.99 8.6c5.47,30.5 -6.35,9.22 17.58,21.31 18.24,9.23 30.15,13.07 43.75,52.62l73.52 323.22c-22.75,-22.71 -56.65,-70.1 -78.53,-99.62z"/>
    <path class="fil2" d="M4481.29 7001.65c9.84,6.49 12.65,7.11 26.43,11.1 9.83,2.84 18.34,4.65 27.95,7.11 19.42,4.94 37.08,9.58 57.19,14.38 39.05,9.34 78.47,16.31 119.3,22.67 86.24,13.44 174.67,20.08 263.63,19.69 111.12,-0.5 410.02,-30.3 490.26,-74.95l-26.86 -11.64c-146,-39.96 -318,-64.67 -468.49,-63.67 -102.99,0.68 -420.57,33.97 -489.43,75.31z"/>
    <path class="fil2" d="M5473.8 4178.01c-178.6,-39.95 -304.67,-74.2 -503.08,-73.53 -164.64,0.55 -348.9,30.02 -496.51,74.81 123.67,50.26 355.54,75.84 501.59,75.35 115.65,-0.38 405.64,-30.03 498,-76.62z"/>
    <path class="fil2" d="M4476.12 5583.63c1.14,0.8 2.75,1.7 3.61,2.16 83.23,43.93 379.96,74.73 485.9,74.95 131.74,0.28 265.45,-15.42 392.53,-44.43l110.22 -32.28c-95.82,-45.44 -376.93,-74.08 -497.67,-73.54 -186.46,0.82 -327.03,33.34 -494.6,73.14z"/>
    <path class="fil2" d="M1994.1 8314.27c-0.83,27.94 12.1,148.14 20.54,174.41 9.3,28.91 -3.71,10.43 14.15,17.28 22.06,-28.68 -34.41,-157.17 101.52,-167.31l89.86 478.2c33.71,168.81 -37.27,87.4 -39.71,141.01 1.16,0.69 3.07,0.03 3.76,1.57 0.7,1.56 2.9,1.18 3.92,1.4 20.64,4.3 123.07,-1.61 150.63,-2.08 7.86,-0.13 18.16,0.1 25.7,-0.4l25.76 -5.56c-2.07,-28.65 3.53,-14.95 -24.01,-22.51 -15.23,-4.19 -22.24,-7.36 -29.35,-21.41 -8.04,-15.92 -13.51,-57.91 -17.11,-78.76 -9.36,-54.17 -20.39,-108.38 -31.66,-161.46 -18.23,-86 -57.76,-249.06 -56.72,-334.69 85.16,1.78 104.33,52.73 129.6,134.16 7.25,23.39 1.09,18.28 18.38,23.31 0.69,-1.14 1.31,-4.46 1.44,-3.75 0.02,0.1 5.43,1.27 -1.96,-37.51l-16.51 -151.65 -368.25 15.76z"/>
    <path class="fil2" d="M4355.79 3897.12l11.05 61.45c42.18,-6.45 174.76,-49.25 282.76,-67.33 266.24,-44.58 529.54,-37.44 791.24,28.7 48.12,12.17 93.97,28 140.83,39.13l13.31 -62.44c-151.88,-63.83 -448.59,-98.6 -619.19,-97.84 -112.34,0.5 -220.54,10.51 -328.82,28.2 -63.07,10.31 -244.95,45.45 -291.18,70.11z"/>
    <path class="fil2" d="M4354.93 5300.04l12.16 64.5c42.25,-6.8 174.2,-48.95 281.04,-67.44 105.41,-18.24 212.54,-28.01 322.59,-28.14 255.97,-0.29 376.72,34.47 609.95,95.92l14.41 -63.58c-321.29,-98.2 -608.29,-122.93 -945.56,-68.85 -137.36,22.03 -190.75,46.4 -294.58,67.6z"/>
    <path class="fil2" d="M4366.14 6780.42c42.47,-6.51 97.69,-27.47 141.88,-38.12 366.16,-88.25 714.79,-74.81 1072.18,38.85l14.67 -63.7c-97.05,-26.57 -183.35,-52.86 -290.24,-70.51 -223.73,-36.95 -437.27,-34.83 -660.51,2.55 -125.05,20.93 -206.56,51.2 -290.95,66.82l12.97 64.1z"/>
    <path class="fil2" d="M4487.57 8323.2c9.12,22.28 61.23,188.24 59.05,204.69l-115.18 4.98 56.12 -209.67zm-159.88 424.05l95.4 -6.1c26.09,-3.1 17.85,2.59 25.32,-11.95 -8.49,-21.28 9.06,-3.37 -43.17,-18.8 -14.34,-41.93 4.92,-98.75 18.4,-142.1l136.76 -8.11c8.53,45.83 45.59,118.6 15.79,140.2 -23.24,16.85 -32.68,-3.51 -35.97,23.75 8.16,7.65 0.79,8.6 44.36,5.03 17.11,-1.41 33.27,-2.64 50.6,-3.59 21.87,-1.19 83.19,-1.2 98.38,-11.61 -5.51,-34.84 -21.65,-4.83 -42.16,-56.01l-148.93 -491.13c-7.62,-26.55 -6.42,-27.08 -18.89,-32.22 -14.6,7.98 -3.25,-4.07 -11.53,14.11 -0.62,1.36 -4.93,16.34 -5.86,19.61l-141.77 518.63c-22.65,56.58 -36.24,22.71 -36.73,60.31z"/>
    <path class="fil2" d="M4465.91 5369.17l13.19 66.25c30.7,-3.43 156.33,-34.92 232.19,-45.42 280.4,-38.86 488.43,-12.73 757.8,46.39l13.67 -65.13c-228.29,-76.29 -530.35,-87.3 -776.51,-52.08 -85.55,12.25 -160.51,34.4 -240.35,49.98z"/>
    <path class="fil2" d="M4478.15 6851.24c36.4,-4.12 80.34,-18.11 118.37,-25.68 126.94,-25.28 248.4,-37.49 379.27,-37.14 253.84,0.67 284.19,29.49 493.93,63.73l10.91 -63.91c-84.22,-45.42 -395.49,-73.03 -509.92,-72.78 -109.11,0.25 -419.47,29.29 -504.6,73.07l12.04 62.71z"/>
    <path class="fil2" d="M4466.12 3963.04l12.49 66.59 228.67 -44.61c182.39,-25.75 344.17,-24.1 526.44,-0.38 84.37,10.97 157.6,32.35 236.22,46.01l12.23 -62.39c-49.04,-44.04 -409.53,-74.57 -501.29,-74.92 -254.75,-0.97 -302.57,32.07 -514.76,69.69z"/>
    <path class="fil2" d="M7799.88 8302.4c-10.17,-4.2 -192.41,-20.64 -214.19,-10.16 4.27,32.79 0.31,10.18 31.41,26.29 14.24,7.37 17.2,19.48 18.17,34.38 1.64,25.09 -10.47,68.21 -16.28,93.04 -26.9,114.82 -62.88,221.96 -89.45,337.2 -6.13,26.6 -11.34,62.94 -19.61,87.14 -19.14,56.06 -56.47,-0.33 -54.6,52.01 21.95,8.85 171.31,21.15 202.57,21 1.68,-34.45 4.58,-17.56 -25.42,-30.38 -40.03,-17.11 -15.9,-88.17 -5.77,-129.38 14.48,-58.86 30.96,-114.39 47.35,-171.07l68.01 -262.22c22.02,-51.74 59.71,0.09 57.81,-47.84z"/>
    <path class="fil2" d="M3630.31 8193.48c-0.86,45.69 29.49,4.87 50.56,42.22 9.47,16.78 9.86,63.55 11.43,85.66 4.25,59.85 9.39,119.25 14.46,179.3 3.52,41.85 25.36,236.86 9.68,270.13 -5.81,12.32 -11.3,14.67 -25.09,20.52 -26.31,11.18 -20.88,-0.65 -20.85,30.01l162.84 -19.02c30.08,-3.19 42.72,4.01 44.97,-22.29 -1.1,-0.77 -3.04,-2.82 -3.68,-1.69l-32.77 -8.01c-28.99,-11.65 -24.82,-80.23 -26.63,-107.88l-23.44 -349.61c-11,-159.51 52.45,-75.57 54.41,-132.22l-215.87 12.88z"/>
    <path class="fil2" d="M7083.24 8266.83c0.37,-14.57 -0.93,-12.21 -45.12,-14.65l-170.76 -9.64c1.97,64.75 72.93,-32.6 42.62,139.91l-82.83 409.77c-17.71,45.45 -47,7.26 -53.57,43.67 12.88,18.19 112.71,20.84 157.06,26.98 52.94,7.31 39.5,4.53 47.56,-1.57 -2.92,-38.99 -39.91,-4.53 -48.89,-52.57 -7.78,-41.56 33.84,-208.21 43.91,-251.9l52.42 -252.31c18.15,-40.07 57,-14.31 57.6,-37.71z"/>
    <path class="fil2" d="M1513.66 8322.7l-1.17 -17.74 -219.21 -23.06c1.97,39.79 31.9,11.79 54.17,51.6l109.7 398.1c7.94,30.23 34.45,107.46 7.89,124.85 -20.29,13.3 -25.31,-4.55 -38.09,15.02 6.69,21.08 26.79,18.46 50.41,23.18l165.14 32.43c-0.74,-29.29 3.4,-19.93 -25.46,-30.04 -41.21,-14.43 -37.88,-49.23 -50.62,-106.37 -23.74,-106.5 -61.41,-221.01 -88.51,-333.52 -37.76,-156.76 -7.79,-112.09 35.74,-134.45z"/>
    <path class="fil2" d="M1990.03 5842.21c-39.91,17.2 -46.53,41.47 -133.58,67.29 -55.22,16.38 -121.16,21.94 -183.24,14.22 -78.86,-9.81 -152.99,-39.57 -207.55,-91.58 -18,-17.15 -29.78,-39.4 -46.48,-56.01 53.5,255.38 473.88,261.22 570.85,66.09z"/>
    <path class="fil2" d="M7939.94 5835.37c36.13,49.44 50.92,74.68 116.26,108.08 165.03,84.38 415.75,24.41 460.57,-167.77 -35.32,33.87 -30.44,55.32 -104.72,99.46 -42.68,25.37 -98.36,42.71 -153.79,49.08 -143.16,16.47 -235.12,-27.18 -318.32,-88.85z"/>
    <path class="fil2" d="M2058.22 6254.73c2.12,1.77 16.89,22.22 20.54,26.23 42.5,46.82 126.05,95.15 187.11,93.2 -32.15,-11.08 -67.35,-43.7 -85.32,-62.93 -42.28,-45.22 -36.56,-78.5 -49.98,-95.67l-72.36 39.17z"/>
    <path class="fil2" d="M7257.66 6514.95c14.04,-13.43 10.02,-23.3 35.6,-25.99 18.67,-1.97 39.26,6.5 56.4,9.22 101.53,16.14 91.94,-122.74 -34.21,-58.19 -29.28,14.98 -53.35,33.51 -57.8,74.97z"/>
    <path class="fil2" d="M2678.17 6515c-10.61,-85.34 -132.71,-111.81 -154.89,-75.33 -21.74,35.75 15.85,64.61 58.81,59.28 17.32,-2.15 37.78,-11.06 56.32,-10.22 28.12,1.29 25.06,13.08 39.76,26.26z"/>
    <path class="fil2" d="M7354.94 3714.21l28.58 17.35 33.45 -49.81 -34.19 -11.54c-8.63,15.88 -20.87,28.08 -27.85,43.99z"/>
    <path class="fil2" d="M2520.69 3681.89l29.63 49.75 31.3 -15.81c-8.7,-17.86 -19.91,-28.25 -28.14,-43.84l-32.79 9.91z"/>
    <path class="fil2" d="M2462.7 3621.66c6.83,18.42 2.94,10.78 16.91,22.99 9.27,8.11 12.54,11.87 21.71,17.61 14.99,-6.61 9.59,-1.92 20.67,-14.11 -9.96,-10.89 -41.6,-41.65 -59.28,-26.49z"/>
    <path class="fil2" d="M7413.71 3648.16l20.87 14.75c13.76,-10.97 28.57,-22.79 38.73,-36.23 -24.83,-19.87 -46.51,6.13 -59.61,21.49z"/>
    <path class="fil2" d="M2456.65 3602.43c-11.94,-13.48 -37.39,-28.7 -57.01,-31.59 7.54,20.99 2.7,9.66 24.86,27.31 17.79,14.17 14.42,19.95 32.15,4.28z"/>
    <path class="fil2" d="M7477.92 3601.28c4.67,4.74 5.08,5.14 11.34,10.51 15.82,-6.17 42.1,-23.56 46.69,-40.07 -17.48,0.92 -45.75,19.02 -58.04,29.56z"/>
    <path class="fil2" d="M1856.45 5909.49c-55.22,16.38 -121.16,21.94 -183.24,14.22 -78.86,-9.81 -152.99,-39.57 -207.55,-91.58 -18,-17.15 -29.78,-39.4 -46.48,-56.01 53.5,255.38 473.88,261.22 570.85,66.09 -39.91,17.2 -46.53,41.47 -133.58,67.29z"/>
    <path class="fil2" d="M2678.17 6515c-10.61,-85.34 -132.71,-111.81 -154.89,-75.33 -21.74,35.75 15.85,64.61 58.81,59.28 17.32,-2.15 37.78,-11.06 56.32,-10.22 28.12,1.29 25.06,13.08 39.76,26.26z"/>
    <path class="fil2" d="M8056.2 5943.45c165.03,84.38 415.75,24.41 460.57,-167.77 -35.32,33.87 -30.44,55.32 -104.72,99.46 -42.68,25.37 -98.36,42.71 -153.79,49.08 -143.16,16.47 -235.12,-27.18 -318.32,-88.85 36.13,49.44 50.92,74.68 116.26,108.08z"/>
    <path class="fil2" d="M7349.67 6498.17c101.53,16.14 91.94,-122.74 -34.21,-58.19 -29.28,14.98 -53.35,33.51 -57.8,74.97 14.04,-13.43 10.02,-23.3 35.6,-25.99 18.67,-1.97 39.26,6.5 56.4,9.22z"/>
    <path class="fil2" d="M2424.5 3598.15c17.79,14.17 14.42,19.95 32.15,4.28 -11.94,-13.48 -37.39,-28.7 -57.01,-31.59 7.54,20.99 2.7,9.66 24.86,27.31z"/>
    <path class="fil2" d="M2462.7 3621.66c6.83,18.42 2.94,10.78 16.91,22.99 9.27,8.11 12.54,11.87 21.71,17.61 14.99,-6.61 9.59,-1.92 20.67,-14.11 -9.96,-10.89 -41.6,-41.65 -59.28,-26.49z"/>
    <path class="fil2" d="M2553.48 3671.98l-32.79 9.91 29.63 49.75 31.3 -15.81c-8.7,-17.86 -19.91,-28.25 -28.14,-43.84z"/>
    <path class="fil2" d="M7382.79 3670.21c-8.63,15.88 -20.87,28.08 -27.85,43.99l28.58 17.35 33.45 -49.81 -34.19 -11.54z"/>
    <path class="fil2" d="M7413.71 3648.16l20.87 14.75c13.76,-10.97 28.57,-22.79 38.73,-36.23 -24.83,-19.87 -46.51,6.13 -59.61,21.49z"/>
    <path class="fil2" d="M7477.92 3601.28c4.67,4.74 5.08,5.14 11.34,10.51 15.82,-6.17 42.1,-23.56 46.69,-40.07 -17.48,0.92 -45.75,19.02 -58.04,29.56z"/>
   </g>
  </g>
 </g>
</svg>
