<?xml version="1.0" encoding="utf-8"?>
<!-- Generator: Adobe Illustrator 24.0.1, SVG Export Plug-In . SVG Version: 6.00 Build 0)  -->
<svg version="1.1" id="Layer_1" xmlns="http://www.w3.org/2000/svg" xmlns:xlink="http://www.w3.org/1999/xlink" x="0px" y="0px"
	 viewBox="0 0 380.12 417.18" style="enable-background:new 0 0 380.12 417.18;" xml:space="preserve">
<path d="M86.9,25.52c0,2.99-2.03,5.52-4.79,6.26H53.2c-14.56,0-22.07,7.53-22.08,22.14v76.92h-0.04c-0.38,3.23-3.13,5.73-6.45,5.73
	c-2.88,0-5.32-1.86-6.18-4.45c0.02-24.74-0.04-49.47-0.31-74.2c-0.21-19.01,7.14-34.2,27.72-38.9h34.55
	C83.99,19.02,86.9,21.93,86.9,25.52z"/>
<path d="M319.63,38c-2.52,1.78-5.34,1.94-7.58-0.19c-5.4-5.15-11.85-6.11-18.98-6.1c-55.36,0.07-110.72,0.07-166.08,0.07
	c-2.76-0.75-4.78-3.27-4.78-6.26c0-3.33,2.5-6.08,5.73-6.46v-0.04h174.67c6,1.73,11.89,3.69,16.49,8.18c1.13,1.1,2.34,2.41,2.8,3.85
	C322.77,33.74,322.06,36.29,319.63,38z"/>
<path d="M329.72,369.36c-0.18,19.35-13.77,32.89-33.12,32.9c-81.46,0.03-162.91,0.02-244.37,0.01c-20.2,0-33.86-13.57-33.88-33.76
	c-0.04-51.01-0.01-102.03-0.01-153.05c0-12.96,0.02-25.93,0.05-38.9c0.78-2.7,3.28-4.68,6.24-4.68c3.58,0,6.49,2.91,6.49,6.49
	c0,63.05,0,126.09,0.01,189.14c0,14.38,7.58,22.01,21.84,22.01c80.83,0,161.66-0.11,242.49,0.13c12.07,0.03,22.38-8.24,21.55-21.65
	c-0.35-5.68-0.06-11.41-0.06-17.56h-5.1c-80.96,0-161.91,0-242.87-0.02c-1.73,0-3.53,0.01-5.18-0.43c-3.17-0.84-4.74-3.14-4.54-6.42
	c0.21-3.29,2.08-5.27,5.33-5.77c1.35-0.2,2.74-0.14,4.11-0.14c83.82-0.01,167.65-0.01,251.47-0.01c8.06,0,9.56,1.51,9.56,9.63
	C329.73,354.64,329.78,362,329.72,369.36z"/>
<path d="M368.8,77.48c-4.63-10.59-13.32-15.73-24.19-16.45c-8.84,0.17-15.61,3.48-21.45,9.34c-18.13,18.16-36.27,36.32-54.42,54.47
	c-2.05,2.54-1.91,6.27,0.45,8.65c2.18,2.2,5.55,2.51,8.07,0.92c14.97-14.98,29.93-29.95,44.9-44.93c3.97-3.97,7.82-8.07,11.98-11.83
	c4.58-4.16,10-4.98,15.64-2.44c5.66,2.55,8.38,7.21,8.67,12.85c-0.1,5.13-2.18,8.77-5.42,12c-17.95,17.86-35.82,35.8-53.74,53.7
	c-29.56,29.54-59.11,59.09-88.77,88.54c-2.13,2.11-4.94,3.75-7.72,4.97c-6.95,3.05-14.03,5.84-21.15,8.47
	c-1.5,0.55-3.85,0.55-5.01-0.29c-0.79-0.57-0.67-3.24-0.13-4.66c2.99-7.92,6.13-15.79,9.46-23.57c0.85-1.99,2.39-3.79,3.95-5.34
	c20.35-20.4,54.71-54.87,54.71-54.87l-0.03-0.03c2.03-2.55,1.87-6.26-0.48-8.62c-2.1-2.12-5.31-2.49-7.8-1.08
	c-18.84,18.83-37.66,37.66-56.48,56.5c-1.56,1.57-3.26,3.28-4.1,5.26c-4.24,9.96-8.47,19.94-12.2,30.1
	c-2.22,6.06-0.26,11.63,4.39,15.99c4.53,4.26,9.95,5.66,15.9,3.47c6.42-2.37,12.63-5.33,19.13-7.45c7.93-2.6,14.25-7.21,20.08-13.06
	c38.1-38.26,76.35-76.37,114.53-114.54c8.82-8.81,17.85-17.44,26.33-26.57C371.86,98.41,373.47,88.17,368.8,77.48z"/>
<path d="M329.73,247.7c0,18.69,0,37.38-0.01,56.07c0,1.37,0.07,2.76-0.14,4.1c-0.48,3.08-2.44,4.89-5.47,5.26
	c-3.06,0.37-5.35-1.05-6.52-3.9c-0.46-1.11-0.61-2.42-0.61-3.64c-0.03-38.62-0.02-77.25-0.04-115.87c0-3.41,1-6.22,4.45-7.42
	c4.25-1.47,8.23,1.51,8.29,6.35c0.12,9.72,0.05,19.44,0.05,29.15C329.73,227.77,329.73,237.73,329.73,247.7z"/>
<path d="M174.06,362.47c1.99,0,3.98-0.11,5.95,0.02c3.43,0.24,5.52,2.14,5.88,5.58c0.35,3.43-1.24,6.24-4.58,6.62
	c-4.75,0.54-9.65,0.47-14.42,0.02c-3.16-0.3-5.16-3.59-4.7-6.59c0.51-3.31,2.42-5.41,5.91-5.63
	C170.08,362.37,172.08,362.47,174.06,362.47z"/>
</svg>
