<?xml version="1.0" encoding="UTF-8"?>
<!DOCTYPE svg PUBLIC "-//W3C//DTD SVG 1.1//EN" "http://www.w3.org/Graphics/SVG/1.1/DTD/svg11.dtd">
<!-- Creator: CorelDRAW -->
<svg xmlns="http://www.w3.org/2000/svg" xml:space="preserve" width="68.0862mm" height="20.1084mm" version="1.1" style="shape-rendering:geometricPrecision; text-rendering:geometricPrecision; image-rendering:optimizeQuality; fill-rule:evenodd; clip-rule:evenodd"
viewBox="0 0 2098.34 619.72"
 xmlns:xlink="http://www.w3.org/1999/xlink"
 xmlns:xodm="http://www.corel.com/coreldraw/odm/2003">
 <defs>
  <style type="text/css">
   <![CDATA[
    .fil1 {fill:none}
    .fil3 {fill:none;fill-rule:nonzero}
    .fil2 {fill:#7534D1;fill-rule:nonzero}
    .fil0 {fill:#FFBA44;fill-rule:nonzero}
   ]]>
  </style>
    <clipPath id="id0">
     <path d="M173.96 0l597.97 0 0 619.72 -597.97 0 0 -619.72zm0 0z"/>
    </clipPath>
    <clipPath id="id1">
     <path d="M1674.32 152.21l424.02 0 0 445.76 -424.02 0 0 -445.76zm0 0z"/>
    </clipPath>
    <clipPath id="id2" style="clip-rule:nonzero">
     <path d="M-0 184.83l173.96 0 0 173.95 -173.96 0 0 -173.95zm0 0z"/>
    </clipPath>
    <clipPath id="id3" style="clip-rule:nonzero">
     <path d="M1478.62 32.62l239.19 0 0 250.06 -239.19 0 0 -250.06zm0 0z"/>
    </clipPath>
 </defs>
 <g id="Camada_x0020_1">
  <metadata id="CorelCorpID_0Corel-Layer"/>
  <g id="_2963713909136">
   <g>
   </g>
   <g style="clip-path:url(#id0)">
    <g>
     <g>
      <path class="fil0" d="M529.3 27.78l218.89 190.39 -55.34 284.76 -274.23 94.41 -219.02 -190.35 55.46 -284.8 274.23 -94.41 0 0zm4.16 -21.19l-294.74 101.46 -59.5 305.97 0.01 0.04 235.22 204.48 294.74 -101.46 58.59 -301.29 -2.67 -7.77 -231.66 -201.42z"/>
     </g>
    </g>
   </g>
   <path class="fil1" d="M173.96 0l597.97 0 0 619.72 -597.97 0 0 -619.72zm0 0z"/>
   <g>
   </g>
   <g style="clip-path:url(#id1)">
    <g>
     <polygon class="fil0" points="1716.66,517.75 1682.14,299.12 1854.22,159.86 2060.84,239.27 2095.37,457.91 1923.28,597.17 "/>
    </g>
   </g>
   <path class="fil1" d="M1674.32 152.21l424.02 0 0 445.76 -424.02 0 0 -445.76zm0 0z"/>
   <g>
    <g>
     <g>
      <path class="fil2" d="M566.32 597.07l0 -60.22 -156.59 0 0 -90.33 103.88 0 0 15.08 -88.8 0 0 60.22 118.91 0 30.11 -30.11 0 -75.3 -30.11 -30.11 -164.1 0 -30.11 30.11 0 150.56 30.11 30.11 186.7 0zm0 0z"/>
     </g>
    </g>
   </g>
   <g>
    <g>
     <g>
      <path class="fil2" d="M825.23 597.07l-79.16 -105.37 79.16 -105.41 -75.26 0 -41.53 55.42 -41.28 -55.42 -75.25 0 79.16 105.41 -79.16 105.37 75.25 0 41.28 -55.08 41.53 55.08 75.26 0zm0 0z"/>
     </g>
    </g>
   </g>
   <g>
    <g>
     <g>
      <path class="fil2" d="M1023.94 551.92l30.11 -30.11 0 -105.41 -30.11 -30.11 -194.21 0 0 60.22 164.1 0 0 45.19 -81.29 0 0 -30.11 -60.22 0 0 135.48 60.22 0 0 -45.15 111.4 0zm0 0z"/>
     </g>
    </g>
   </g>
   <g>
    <g>
     <g>
      <path class="fil2" d="M1303.96 597.07l-45.19 -45.15 30.11 -30.11 0 -105.41 -30.11 -30.11 -194.21 0 0 60.22 164.1 0 0 45.19 -81.29 0 0 -30.11 -60.22 0 0 135.48 60.22 0 0 -45.15 38.22 0 45.19 45.15 73.17 0zm0 0z"/>
     </g>
    </g>
   </g>
   <g>
    <g>
     <g>
      <path class="fil2" d="M1538.79 597.07l0 -60.22 -156.59 0 0 -90.33 103.88 0 0 15.08 -88.8 0 0 60.22 118.92 0 30.11 -30.11 0 -75.3 -30.11 -30.11 -164.1 0 -30.11 30.11 0 150.56 30.11 30.11 186.7 0zm0 0z"/>
     </g>
    </g>
   </g>
   <g>
    <g>
     <g>
      <path class="fil2" d="M1758.58 597.07l30.11 -30.11 0 -75.26 -30.11 -30.11 -121.97 0 0 -15.08 152.09 0 0 -60.22 -182.2 0 -30.11 30.11 0 75.3 30.11 30.11 121.97 0 0 15.03 -152.08 0 0 60.22 182.19 0zm0 0z"/>
     </g>
    </g>
   </g>
   <g>
    <g>
     <g>
      <path class="fil2" d="M2000.94 597.07l30.11 -30.11 0 -75.26 -30.11 -30.11 -121.97 0 0 -15.08 152.09 0 0 -60.22 -182.2 0 -30.11 30.11 0 75.3 30.11 30.11 121.97 0 0 15.03 -152.08 0 0 60.22 182.19 0zm0 0z"/>
     </g>
    </g>
   </g>
   <g>
   </g>
   <g style="clip-path:url(#id2)">
    <g>
     <polygon class="fil0" points="68.62,348.79 9.92,289.5 9.91,289.45 32.11,208.36 113.48,187 172.64,246.79 150.65,327.27 "/>
    </g>
   </g>
   <path class="fil3" d="M-0 184.83l173.96 0 0 173.95 -173.96 0 0 -173.95zm0 0z"/>
   <g>
   </g>
   <g style="clip-path:url(#id3)">
    <g>
     <g>
      <path class="fil0" d="M1570.31 47.99l108.42 33.04 25.61 110.42 -82.77 77.38 -108.47 -33 -25.61 -110.46 82.82 -77.38 0 0zm-23.39 11.88l-67.49 63.08 27.52 118.62 115.1 35.08 90.08 -84.15 -26.44 -114.01 -3.92 -4.2 -113.36 -34.5 -21.49 20.08z"/>
     </g>
    </g>
   </g>
   <path class="fil3" d="M1478.62 32.62l239.19 0 0 250.06 -239.19 0 0 -250.06zm0 0z"/>
   <g>
    <g>
     <g>
      <path class="fil2" d="M129.95 221.2l0 -45.14 45.15 0 0 -36.14 -45.15 0 0 -45.15 -36.14 0 0 45.15 -45.19 0 0 36.14 45.19 0 0 45.14 36.14 0zm0 0z"/>
     </g>
    </g>
   </g>
   <g>
    <g>
     <g>
      <path class="fil2" d="M385.85 263.37l30.11 -30.11 0 -150.56 -30.11 -30.11 -194.21 0 0 60.22 164.1 0 0 90.33 -81.29 0 0 -75.26 -60.22 0 0 135.48 171.62 0zm0 0z"/>
     </g>
    </g>
   </g>
   <g>
    <g>
     <g>
      <path class="fil2" d="M506.26 263.37l0 -210.78 -60.22 0 0 210.78 60.22 0zm0 0z"/>
     </g>
    </g>
   </g>
   <g>
    <g>
     <g>
      <path class="fil2" d="M730.58 263.37l30.11 -30.11 0 -105.37 -105.37 0 0 60.22 45.14 0 0 15.04 -103.88 0 0 -90.33 141.51 0 0 -60.22 -171.62 0 -30.11 30.11 0 150.56 30.11 30.11 164.1 0zm0 0z"/>
     </g>
    </g>
   </g>
   <g>
    <g>
     <g>
      <path class="fil2" d="M850.99 263.37l0 -210.78 -60.22 0 0 210.78 60.22 0zm0 0z"/>
     </g>
    </g>
   </g>
   <g>
    <g>
     <g>
      <path class="fil2" d="M1010.88 263.37l0 -150.55 83.11 0 0 -60.22 -226.45 0 0 60.22 83.11 0 0 150.55 60.22 0zm0 0z"/>
     </g>
    </g>
   </g>
   <g>
    <g>
     <g>
      <path class="fil2" d="M1334.83 263.37l0 -180.67 -30.11 -30.11 -186.65 0 0 60.22 156.54 0 0 15.08 -133.99 0 -30.11 30.11 0 75.26 30.11 30.11 118.95 0 0 -60.22 -88.84 0 0 -15.04 103.88 0 0 45.15 30.11 30.11 30.11 0zm0 0z"/>
     </g>
    </g>
   </g>
   <g>
    <g>
     <g>
      <path class="fil2" d="M1569.66 263.37l0 -60.22 -135.48 0 0 -150.56 -82.82 0 0 60.22 22.59 0 0 150.55 195.7 0zm0 0z"/>
     </g>
    </g>
   </g>
  </g>
 </g>
</svg>
