<?xml version="1.0" encoding="UTF-8"?>
<!DOCTYPE svg PUBLIC "-//W3C//DTD SVG 1.1//EN" "http://www.w3.org/Graphics/SVG/1.1/DTD/svg11.dtd">
<!-- Creator: CorelDRAW -->
<svg xmlns="http://www.w3.org/2000/svg" xml:space="preserve" width="84.8242mm" height="19.7555mm" version="1.1" style="shape-rendering:geometricPrecision; text-rendering:geometricPrecision; image-rendering:optimizeQuality; fill-rule:evenodd; clip-rule:evenodd"
viewBox="0 0 3809.23 887.17"
 xmlns:xlink="http://www.w3.org/1999/xlink"
 xmlns:xodm="http://www.corel.com/coreldraw/odm/2003">
 <defs>
  <style type="text/css">
   <![CDATA[
    .fil1 {fill:none}
    .fil2 {fill:#7534D1;fill-rule:nonzero}
    .fil0 {fill:#FFBA44;fill-rule:nonzero}
   ]]>
  </style>
    <clipPath id="id0">
     <path d="M2922.06 79.21l887.17 0 0 807.96 -887.17 0 0 -807.96zm0 0z"/>
    </clipPath>
    <clipPath id="id1">
     <path d="M2430.95 0l554.48 0 0 506.95 -554.48 0 0 -506.95zm0 0z"/>
    </clipPath>
    <clipPath id="id2">
     <path d="M22.92 142.58l570.32 0 0 554.48 -570.32 0 0 -554.48zm0 0z"/>
    </clipPath>
 </defs>
 <g id="Camada_x0020_1">
  <metadata id="CorelCorpID_0Corel-Layer"/>
  <g id="_2963741201232">
   <g>
   </g>
   <g style="clip-path:url(#id0)">
    <g>
     <polygon class="fil0" points="3190.7,874.54 2933.26,526.39 3106.04,129.34 3536.32,80.51 3793.76,428.67 3620.92,825.66 "/>
    </g>
   </g>
   <path class="fil1" d="M2922.06 79.21l887.17 0 0 807.96 -887.17 0 0 -807.96zm0 0z"/>
   <g>
   </g>
   <g style="clip-path:url(#id1)">
    <g>
     <g>
      <path class="fil0" d="M2805.59 19.12l147.22 200.57 -100 227.86 -247.29 27.23 -147.35 -200.57 100.13 -227.86 247.29 -27.23 0 0zm7.49 -16.96l-265.73 29.27 -107.54 244.77 0.01 0.08 154.95 211.01 271.28 -29.89 105.27 -239.75 -158.24 -215.48z"/>
     </g>
    </g>
   </g>
   <path class="fil1" d="M2430.95 0l554.48 0 0 506.95 -554.48 0 0 -506.95zm0 0z"/>
   <g>
   </g>
   <g style="clip-path:url(#id2)">
    <g>
     <polygon class="fil0" points="209.23,691.61 24.28,476.75 118.83,206.44 400.16,153.16 586.99,370.19 493.43,637.8 "/>
    </g>
   </g>
   <path class="fil1" d="M22.92 142.58l570.32 0 0 554.48 -570.32 0 0 -554.48zm0 0z"/>
   <g>
    <g>
     <g>
      <path class="fil2" d="M853.35 400.86l0 -263.26 -43.87 -43.87 -271.98 0 0 87.75 228.1 0 0 21.97 -195.24 0 -43.87 43.87 0 109.66 43.87 43.87 173.34 0 0 -87.75 -129.46 0 0 -21.91 151.36 0 0 65.78 43.88 43.87 43.87 0zm0 0z"/>
     </g>
    </g>
   </g>
   <g>
    <g>
     <g>
      <path class="fil2" d="M1226.29 356.98l0 -263.26 -87.75 0 0 219.38 -140.42 0 0 -219.38 -120.67 0 0 87.75 32.92 0 0 175.5 43.87 43.87 228.17 0 43.88 -43.87zm0 0z"/>
     </g>
    </g>
   </g>
   <g>
    <g>
     <g>
      <path class="fil2" d="M1568.43 400.86l0 -87.75 -197.41 0 0 -219.38 -120.68 0 0 87.75 32.92 0 0 219.38 285.16 0zm0 0z"/>
     </g>
    </g>
   </g>
   <g>
    <g>
     <g>
      <path class="fil2" d="M1921.6 400.86l0 -263.26 -43.87 -43.87 -271.98 0 0 87.75 228.1 0 0 21.97 -195.24 0 -43.87 43.87 0 109.66 43.87 43.87 173.34 0 0 -87.75 -129.46 0 0 -21.91 151.36 0 0 65.78 43.88 43.87 43.87 0zm-30.69 -372.92l-111.89 0 -31.99 17.58 -31.62 -17.58 -2.17 0 -87.75 48.27 111.89 0 31.56 -17.57 32.05 17.57 2.16 0 87.75 -48.27zm0 0z"/>
     </g>
    </g>
   </g>
   <g>
    <g>
     <g>
      <path class="fil2" d="M2259.38 400.86l43.88 -43.87 0 -219.38 -43.88 -43.87 -250.07 0 -43.87 43.87 0 219.38 43.87 43.87 250.07 0zm-43.87 -87.75l-162.32 0 0 -131.62 162.32 0 0 131.62zm0 0z"/>
     </g>
    </g>
   </g>
   <g>
    <g>
     <g>
      <path class="fil2" d="M315.92 847.46l0 -87.75 -228.17 0 0 -131.63 151.37 0 0 43.88 87.75 0 0 -87.75 -43.87 -43.87 -239.12 0 -43.88 43.87 0 219.38 43.88 43.87 272.04 0zm0 0z"/>
     </g>
    </g>
   </g>
   <g>
    <g>
     <g>
      <path class="fil2" d="M699.81 847.46l0 -307.13 -87.75 0 0 109.72 -140.41 0 0 -109.72 -120.68 0 0 87.75 32.92 0 0 219.38 87.75 0 0 -109.66 140.41 0 0 109.66 87.75 0zm0 0z"/>
     </g>
    </g>
   </g>
   <g>
    <g>
     <g>
      <path class="fil2" d="M1072.7 847.46l-65.84 -65.78 43.87 -43.87 0 -153.6 -43.87 -43.87 -283 0 0 87.75 239.12 0 0 65.85 -118.45 0 0 -43.88 -87.75 0 0 197.41 87.75 0 0 -65.78 55.69 0 65.85 65.78 106.62 0zm0 0z"/>
     </g>
    </g>
   </g>
   <g>
    <g>
     <g>
      <path class="fil2" d="M1392.9 847.46l43.88 -43.87 0 -219.38 -43.88 -43.87 -250.07 0 -43.87 43.87 0 219.38 43.87 43.87 250.07 0zm-43.87 -87.75l-162.32 0 0 -131.63 162.32 0 0 131.63zm0 0z"/>
     </g>
    </g>
   </g>
   <g>
    <g>
     <g>
      <path class="fil2" d="M1842.59 847.46l0 -307.13 -87.75 0 -86.82 117.15 -86.46 -117.15 -120.67 0 0 87.75 32.92 0 0 219.38 87.75 0 0 -160.16 86.46 117.15 86.82 -117.15 0 160.16 87.75 0zm0 0z"/>
     </g>
    </g>
   </g>
   <g>
    <g>
     <g>
      <path class="fil2" d="M2202.34 847.46l0 -87.75 -228.17 0 0 -131.63 151.37 0 0 21.97 -129.4 0 0 87.75 173.28 0 43.88 -43.87 0 -109.72 -43.88 -43.87 -239.12 0 -43.87 43.87 0 219.38 43.87 43.87 272.04 0zm0 0z"/>
     </g>
    </g>
   </g>
   <g>
    <g>
     <g>
      <path class="fil2" d="M2520.39 847.46l43.87 -43.87 0 -65.78 -43.87 -43.87 43.87 -43.88 0 -65.84 -43.87 -43.87 -283 0 0 87.75 32.92 0 0 219.38 250.08 0zm-43.87 -87.75l-118.45 0 0 -21.91 118.45 0 0 21.91zm0 -109.66l-118.45 0 0 -21.97 118.45 0 0 21.97zm0 0z"/>
     </g>
    </g>
   </g>
   <g>
    <g>
     <g>
      <path class="fil2" d="M2902.05 847.46l43.87 -43.87 0 -219.38 -43.87 -43.87 -250.08 0 -43.87 43.87 0 219.38 43.87 43.87 250.08 0zm-43.88 -87.75l-162.32 0 0 -131.63 162.32 0 0 131.63zm0 0z"/>
     </g>
    </g>
   </g>
   <g>
    <g>
     <g>
      <path class="fil2" d="M3283.72 847.46l43.87 -43.87 0 -219.38 -43.87 -43.87 -250.08 0 -43.87 43.87 0 219.38 43.87 43.87 250.08 0zm-43.88 -87.75l-162.32 0 0 -131.63 162.32 0 0 131.63zm0 0z"/>
     </g>
    </g>
   </g>
   <g>
    <g>
     <g>
      <path class="fil2" d="M3696.58 847.46l-71.97 -153.53 71.97 -153.6 -96.54 0 -51.3 109.72 -76.36 0 0 -109.72 -120.68 0 0 87.75 32.92 0 0 219.38 87.75 0 0 -109.66 77.66 0 50 109.66 96.54 0zm0 0z"/>
     </g>
    </g>
   </g>
  </g>
 </g>
</svg>
