<?xml version="1.0" encoding="UTF-8"?>
<!DOCTYPE svg PUBLIC "-//W3C//DTD SVG 1.1//EN" "http://www.w3.org/Graphics/SVG/1.1/DTD/svg11.dtd">
<!-- Creator: CorelDRAW -->
<svg xmlns="http://www.w3.org/2000/svg" xml:space="preserve" width="76.2mm" height="17.6677mm" version="1.1" style="shape-rendering:geometricPrecision; text-rendering:geometricPrecision; image-rendering:optimizeQuality; fill-rule:evenodd; clip-rule:evenodd"
viewBox="0 0 6224.21 1443.14"
 xmlns:xlink="http://www.w3.org/1999/xlink"
 xmlns:xodm="http://www.corel.com/coreldraw/odm/2003">
 <defs>
  <style type="text/css">
   <![CDATA[
    .fil1 {fill:none}
    .fil3 {fill:none;fill-rule:nonzero}
    .fil2 {fill:#7534D1;fill-rule:nonzero}
    .fil0 {fill:#FFBA44;fill-rule:nonzero}
   ]]>
  </style>
   <clipPath id="id0">
    <path d="M-0 146.43l1008.55 0 0 950.92 -1008.55 0 0 -950.92zm0 0z"/>
   </clipPath>
   <clipPath id="id1">
    <path d="M5013.94 290.51l1210.27 0 0 1123.81 -1210.27 0 0 -1123.81zm0 0z"/>
   </clipPath>
   <clipPath id="id2">
    <path d="M950.92 549.85l922.11 0 0 893.29 -922.11 0 0 -893.29zm0 0z"/>
   </clipPath>
   <clipPath id="id3" style="clip-rule:nonzero">
    <path d="M4668.16 59.99l518.68 0 0 489.87 -518.68 0 0 -489.87zm0 0z"/>
   </clipPath>
 </defs>
 <g id="Camada_x0020_1">
  <metadata id="CorelCorpID_0Corel-Layer"/>
  <g>
  </g>
  <g style="clip-path:url(#id0)">
   <g id="_2999993209648">
    <polygon class="fil0" points="333.51,1085.68 19.69,707.33 191.91,242.56 680.55,159.26 986.72,528.52 991.38,555.87 826.16,1001.75 "/>
   </g>
  </g>
  <path class="fil1" d="M-0 146.43l1008.55 0 0 950.92 -1008.55 0 0 -950.92zm0 0z"/>
  <g>
  </g>
  <g style="clip-path:url(#id1)">
   <g id="_2999993211712">
    <polygon class="fil0" points="5032.42,752.16 5409.02,296.83 5409.05,296.82 5994.58,395.87 6201.58,952.49 5823.03,1410.05 5240.54,1311.63 "/>
   </g>
  </g>
  <path class="fil1" d="M5013.94 290.51l1210.27 0 0 1123.81 -1210.27 0 0 -1123.81zm0 0z"/>
  <g>
  </g>
  <g style="clip-path:url(#id2)">
   <g id="_2999993194432">
    <g>
     <path class="fil0" d="M1554.93 606.81l271.16 318.32 -140.03 393.86 -411.08 75.75 -271.28 -318.32 140.14 -393.97 411.08 -75.64 0 0zm10.58 -29.38l-441.92 81.39 -150.48 423.19 0.01 0.07 284.84 334.24 451.76 -83.16 146.61 -412.42 -0.45 -2.45 -290.38 -340.87z"/>
    </g>
   </g>
  </g>
  <path class="fil1" d="M950.92 549.85l922.11 0 0 893.29 -922.11 0 0 -893.29zm0 0z"/>
  <g id="_2999993193664">
   <g>
    <g>
     <path class="fil2" d="M900.71 558.64l0 -159.61 -415.02 0 0 -239.42 275.33 0 0 39.96 -235.37 0 0 159.62 315.17 0 79.81 -79.81 0 -199.57 -79.81 -79.81 -434.93 0 -79.8 79.81 0 399.03 79.8 79.8 494.82 0zm0 0z"/>
    </g>
   </g>
  </g>
  <g id="_2999993193808">
   <g>
    <g>
     <path class="fil2" d="M1279.73 359.19l0 -159.62 -279.38 0 0 159.62 279.38 0zm0 0z"/>
    </g>
   </g>
  </g>
  <g id="_2999993194768">
   <g>
    <g>
     <path class="fil2" d="M1838.27 558.64l79.8 -79.8 0 -119.65 -79.8 -79.81 79.8 -79.8 0 -119.76 -79.8 -79.81 -514.75 0 0 159.62 59.88 0 0 399.03 454.87 0zm-79.8 -159.61l-215.45 0 0 -39.84 215.45 0 0 39.84zm0 -199.46l-215.45 0 0 -39.96 215.45 0 0 39.96zm0 0z"/>
    </g>
   </g>
  </g>
  <g id="_2999993197312">
   <g>
    <g>
     <path class="fil2" d="M2532.48 558.64l79.8 -79.8 0 -399.03 -79.8 -79.81 -454.87 0 -79.8 79.81 0 399.03 79.8 79.8 454.87 0zm-79.81 -159.61l-295.25 0 0 -239.42 295.25 0 0 239.42zm0 0z"/>
    </g>
   </g>
  </g>
  <g id="_2999993199904">
   <g>
    <g>
     <path class="fil2" d="M3226.71 558.64l79.8 -79.8 0 -399.03 -79.8 -79.81 -454.87 0 -79.8 79.81 0 399.03 79.8 79.8 454.87 0zm-79.81 -159.61l-295.25 0 0 -239.42 295.25 0 0 239.42zm0 0z"/>
    </g>
   </g>
  </g>
  <g id="_2999993199664">
   <g>
    <g>
     <path class="fil2" d="M3977.66 558.64l-130.91 -279.26 130.91 -279.38 -175.59 0 -93.31 199.57 -138.9 0 0 -199.57 -219.5 0 0 159.62 59.88 0 0 399.03 159.62 0 0 -199.45 141.26 0 90.95 199.45 175.59 0zm0 0z"/>
    </g>
   </g>
  </g>
  <g id="_2999993199760">
   <g>
    <g>
     <path class="fil2" d="M4524.28 558.64l79.8 -79.8 0 -199.46 -79.8 -79.8 -323.27 0 0 -39.96 403.08 0 0 -159.62 -482.89 0 -79.8 79.81 0 199.57 79.8 79.81 323.27 0 0 39.84 -403.08 0 0 159.61 482.89 0zm0 0z"/>
    </g>
   </g>
  </g>
  <g id="_2999993202064">
   <g>
    <g>
     <path class="fil2" d="M1308.7 1370.97l0 -399.03 220.28 0 0 -159.62 -600.18 0 0 159.62 220.28 0 0 399.03 159.62 0zm0 0z"/>
    </g>
   </g>
  </g>
  <g id="_2999993205232">
   <g>
    <g>
     <path class="fil2" d="M2171.36 1291.16l0 -478.84 -159.61 0 0 399.04 -255.4 0 0 -399.04 -219.5 0 0 159.62 59.88 0 0 319.22 79.81 79.8 415.01 0 79.8 -79.8zm0 0z"/>
    </g>
   </g>
  </g>
  <g id="_3000015131888">
   <g>
    <g>
     <path class="fil2" d="M2595.01 1370.97l0 -399.03 220.28 0 0 -159.62 -600.18 0 0 159.62 220.29 0 0 399.03 159.61 0zm0 0z"/>
    </g>
   </g>
  </g>
  <g id="_3000015129728">
   <g>
    <g>
     <path class="fil2" d="M3393.75 1370.97l79.8 -79.8 0 -399.04 -79.8 -79.8 -454.87 0 -79.8 79.8 0 399.04 79.8 79.8 454.87 0zm-79.81 -159.61l-295.25 0 0 -239.42 295.25 0 0 239.42zm0 0z"/>
    </g>
   </g>
  </g>
  <g id="_3000015129872">
   <g>
    <g>
     <path class="fil2" d="M4151.91 1370.97l-119.77 -119.65 79.81 -79.81 0 -279.38 -79.81 -79.8 -514.74 0 0 159.62 434.93 0 0 119.76 -215.45 0 0 -79.8 -159.61 0 0 359.07 159.61 0 0 -119.65 101.31 0 119.76 119.65 193.95 0zm0 0z"/>
    </g>
   </g>
  </g>
  <g id="_3000015128960">
   <g>
    <g>
     <path class="fil2" d="M4359.27 1370.97l0 -558.64 -159.62 0 0 558.64 159.62 0zm0 0z"/>
    </g>
   </g>
  </g>
  <g id="_3000015135728">
   <g>
    <g>
     <path class="fil2" d="M5033.59 1370.97l0 -478.84 -79.8 -79.8 -494.71 0 0 159.62 414.91 0 0 39.96 -355.13 0 -79.81 79.8 0 199.46 79.81 79.8 315.29 0 0 -159.61 -235.48 0 0 -39.85 275.33 0 0 119.66 79.8 79.8 79.8 0zm0 0z"/>
    </g>
   </g>
  </g>
  <g id="_3000015164672">
   <g>
    <g>
     <path class="fil2" d="M5272.93 1370.97l0 -558.64 -159.62 0 0 558.64 159.62 0zm0 0z"/>
    </g>
   </g>
  </g>
  <g id="_3000015163328">
   <g>
    <g>
     <path class="fil2" d="M5835.6 1370.97l79.8 -79.8 0 -199.46 -79.8 -79.8 -323.27 0 0 -39.96 403.08 0 0 -159.62 -482.88 0 -79.81 79.8 0 199.57 79.81 79.8 323.27 0 0 39.85 -403.09 0 0 159.61 482.89 0zm0 0z"/>
    </g>
   </g>
  </g>
  <g>
  </g>
  <g style="clip-path:url(#id3)">
   <g id="_3000015098768">
    <g>
     <path class="fil0" d="M5071.8 109.29l91.85 220.51 -145.09 189.77 -236.83 -30.61 -91.85 -220.62 145.09 -189.77 236.83 30.73 0 0zm-243.72 -47.12l-155.87 203.91 0 0.01 0 0.01 98.71 236.94 254.61 32.98 155.44 -203.51 0.13 -0.96 -98.5 -236.43 -254.53 -32.93z"/>
    </g>
   </g>
  </g>
  <path class="fil3" d="M4668.16 59.99l518.68 0 0 489.87 -518.68 0 0 -489.87zm0 0z"/>
 </g>
</svg>
