<?xml version="1.0" encoding="UTF-8"?>
<!DOCTYPE svg PUBLIC "-//W3C//DTD SVG 1.1//EN" "http://www.w3.org/Graphics/SVG/1.1/DTD/svg11.dtd">
<!-- Creator: CorelDRAW -->
<svg xmlns="http://www.w3.org/2000/svg" xml:space="preserve" width="76.2mm" height="17.6677mm" version="1.1" style="shape-rendering:geometricPrecision; text-rendering:geometricPrecision; image-rendering:optimizeQuality; fill-rule:evenodd; clip-rule:evenodd"
viewBox="0 0 59120.29 13707.61"
 xmlns:xlink="http://www.w3.org/1999/xlink"
 xmlns:xodm="http://www.corel.com/coreldraw/odm/2003">
 <defs>
  <style type="text/css">
   <![CDATA[
    .fil1 {fill:none}
    .fil3 {fill:none;fill-rule:nonzero}
    .fil2 {fill:#7534D1;fill-rule:nonzero}
    .fil0 {fill:#FFBA44;fill-rule:nonzero}
   ]]>
  </style>
   <clipPath id="id0">
    <path d="M-0 1390.88l9579.66 0 0 9032.29 -9579.66 0 0 -9032.29zm0 0z"/>
   </clipPath>
   <clipPath id="id1">
    <path d="M47624.65 2759.41l11495.64 0 0 10674.47 -11495.64 0 0 -10674.47zm0 0z"/>
   </clipPath>
   <clipPath id="id2">
    <path d="M9032.21 5222.76l8758.57 0 0 8484.85 -8758.57 0 0 -8484.85zm0 0z"/>
   </clipPath>
   <clipPath id="id3" style="clip-rule:nonzero">
    <path d="M44340.22 569.79l4926.69 0 0 4652.97 -4926.69 0 0 -4652.97zm0 0z"/>
   </clipPath>
 </defs>
 <g id="Camada_x0020_1">
  <metadata id="CorelCorpID_0Corel-Layer"/>
  <g>
  </g>
  <g style="clip-path:url(#id0)">
   <g id="_2963713341232">
    <polygon class="fil0" points="3167.82,10312.22 187.06,6718.53 1822.88,2303.98 6464.13,1512.77 9372.35,5020.1 9416.57,5279.94 7847.25,9515.11 "/>
   </g>
  </g>
  <path class="fil1" d="M-0 1390.88l9579.66 0 0 9032.29 -9579.66 0 0 -9032.29zm0 0z"/>
  <g>
  </g>
  <g style="clip-path:url(#id1)">
   <g id="_2963713351024">
    <polygon class="fil0" points="47800.15,7144.32 51377.24,2819.46 51377.55,2819.31 56939.2,3760.19 58905.38,9047.19 55309.75,13393.31 49776.96,12458.4 "/>
   </g>
  </g>
  <path class="fil1" d="M47624.65 2759.41l11495.64 0 0 10674.47 -11495.64 0 0 -10674.47zm0 0z"/>
  <g>
  </g>
  <g style="clip-path:url(#id2)">
   <g id="_2963713361200">
    <g>
     <path class="fil0" d="M14769.37 5763.76l2575.61 3023.59 -1330.05 3741.03 -3904.58 719.53 -2576.7 -3023.59 1331.14 -3742.11 3904.58 -718.44 0 0zm100.47 -279.08l-4197.54 773.06 -1429.28 4019.64 0.08 0.7 2705.57 3174.81 4291.03 -789.9 1392.59 -3917.3 -4.27 -23.28 -2758.17 -3237.73z"/>
    </g>
   </g>
  </g>
  <path class="fil1" d="M9032.21 5222.76l8758.57 0 0 8484.85 -8758.57 0 0 -8484.85zm0 0z"/>
  <g id="_2963713360816">
   <g>
    <g>
     <path class="fil2" d="M7986.44 5306.24l758.09 -758.01 0 -2652.58 -2652.58 0 0 1516.1 1136.48 0 0 378.46 -2615.18 0 0 -2274.11 3562.5 0 0 -1516.1 -4320.51 0 -758.01 758.09 0 3790.14 758.01 758.01 4131.2 0zm0 0z"/>
    </g>
   </g>
  </g>
  <g id="_2963713360960">
   <g>
    <g>
     <path class="fil2" d="M15149.07 5306.24l0 -4548.15 -758.01 -758.09 -4698.98 0 0 1516.1 3940.96 0 0 379.55 -3373.19 0 -758.09 758.01 0 1894.56 758.09 758.01 2994.73 0 0 -1516.02 -2236.72 0 0 -378.46 2615.18 0 0 1136.48 758.01 758.01 758.01 0zm0 0z"/>
    </g>
   </g>
  </g>
  <g id="_2963713368880">
   <g>
    <g>
     <path class="fil2" d="M21060.79 5306.24l0 -1516.02 -3410.59 0 0 -3790.22 -2084.88 0 0 1516.1 568.78 0 0 3790.14 4926.69 0zm0 0z"/>
    </g>
   </g>
  </g>
  <g id="_2963619081680">
   <g>
    <g>
     <path class="fil2" d="M26973.2 5306.24l0 -1516.02 -3941.97 0 0 -2274.11 2615.18 0 0 379.55 -2235.63 0 0 1516.1 2993.64 0 758.01 -758.09 0 -1895.57 -758.01 -758.09 -4131.2 0 -758.09 758.09 0 3790.14 758.09 758.01 4699.99 0zm0 0z"/>
    </g>
   </g>
  </g>
  <g id="_2963619082880">
   <g>
    <g>
     <path class="fil2" d="M33605.54 5306.24l-1137.56 -1136.48 758.01 -758.01 0 -2653.66 -758.01 -758.09 -4889.29 0 0 1516.1 4131.2 0 0 1137.56 -2046.32 0 0 -758.01 -1516.1 0 0 3410.59 1516.1 0 0 -1136.48 962.22 0 1137.56 1136.48 1842.19 0zm0 0z"/>
    </g>
   </g>
  </g>
  <g id="_2963619082928">
   <g>
    <g>
     <path class="fil2" d="M35575.13 5306.24l0 -5306.24 -1516.1 0 0 5306.24 1516.1 0zm0 0z"/>
    </g>
   </g>
  </g>
  <g id="_2963619089216">
   <g>
    <g>
     <path class="fil2" d="M41980.22 5306.24l0 -4548.15 -758.09 -758.09 -4698.9 0 0 1516.1 3940.89 0 0 379.55 -3373.19 0 -758.01 758.01 0 1894.56 758.01 758.01 2994.73 0 0 -1516.02 -2236.72 0 0 -378.46 2615.18 0 0 1136.48 758.01 758.01 758.09 0zm0 0z"/>
    </g>
   </g>
  </g>
  <g id="_2963619099440">
   <g>
    <g>
     <path class="fil2" d="M13711.48 13022.06l758.01 -758.01 0 -3790.14 -758.01 -758.09 -4889.29 0 0 1516.1 4131.2 0 0 2274.11 -2046.32 0 0 -1894.56 -1516.1 0 0 3410.59 4320.51 0zm0 0z"/>
    </g>
   </g>
  </g>
  <g id="_2963619102752">
   <g>
    <g>
     <path class="fil2" d="M20684.81 13022.06l0 -1516.02 -3941.97 0 0 -2274.11 2615.18 0 0 379.55 -2235.63 0 0 1516.02 2993.64 0 758.01 -758.01 0 -1895.57 -758.01 -758.09 -4131.2 0 -758.09 758.09 0 3790.14 758.09 758.01 4699.99 0zm0 0z"/>
    </g>
   </g>
  </g>
  <g id="_2963619105248">
   <g>
    <g>
     <path class="fil2" d="M29059.48 11127.49l0 -1516.02 -2652.58 0 0 -379.55 3410.67 0 0 -1516.1 -5495.55 0 0 1516.1 568.86 0 0 3790.14 1516.02 0 0 -1894.56 2652.58 0zm0 0z"/>
    </g>
   </g>
  </g>
  <g id="_2963619106544">
   <g>
    <g>
     <path class="fil2" d="M35350.36 13022.06l758.09 -758.01 0 -3790.14 -758.09 -758.09 -4320.44 0 -758.01 758.09 0 3790.14 758.01 758.01 4320.44 0zm-758.01 -1516.02l-2804.41 0 0 -2274.11 2804.41 0 0 2274.11zm0 0z"/>
    </g>
   </g>
  </g>
  <g id="_2963619111968">
   <g>
    <g>
     <path class="fil2" d="M40133.29 13022.06l0 -3790.14 2092.41 0 0 -1516.1 -5700.76 0 0 1516.1 2092.33 0 0 3790.14 1516.02 0zm0 0z"/>
    </g>
   </g>
  </g>
  <g id="_2963619114896">
   <g>
    <g>
     <path class="fil2" d="M47720 13022.06l758.01 -758.01 0 -3790.14 -758.01 -758.09 -4320.51 0 -758.01 758.09 0 3790.14 758.01 758.01 4320.51 0zm-758.09 -1516.02l-2804.33 0 0 -2274.11 2804.33 0 0 2274.11zm0 0z"/>
    </g>
   </g>
  </g>
  <g id="_2963619115952">
   <g>
    <g>
     <path class="fil2" d="M53822.27 13022.06l758.01 -758.01 0 -1894.56 -758.01 -758.01 -3070.69 0 0 -379.55 3828.7 0 0 -1516.1 -4586.71 0 -758.01 758.09 0 1895.57 758.01 758.01 3070.61 0 0 378.54 -3828.62 0 0 1516.02 4586.71 0zm0 0z"/>
    </g>
   </g>
  </g>
  <g>
  </g>
  <g style="clip-path:url(#id3)">
   <g id="_2963619067424">
    <g>
     <path class="fil0" d="M48174.19 1038.1l872.45 2094.5 -1378.15 1802.55 -2249.52 -290.79 -872.45 -2095.59 1378.15 -1802.55 2249.52 291.88 0 0zm-2315 -447.59l-1480.49 1936.85 0 0.08 0 0.08 937.62 2250.53 2418.42 313.21 1476.46 -1933.05 1.24 -9.16 -935.61 -2245.72 -2417.65 -312.83z"/>
    </g>
   </g>
  </g>
  <path class="fil3" d="M44340.22 569.79l4926.69 0 0 4652.97 -4926.69 0 0 -4652.97zm0 0z"/>
 </g>
</svg>
