<?xml version="1.0" encoding="UTF-8"?>
<!DOCTYPE svg PUBLIC "-//W3C//DTD SVG 1.1//EN" "http://www.w3.org/Graphics/SVG/1.1/DTD/svg11.dtd">
<!-- Creator: CorelDRAW -->
<svg xmlns="http://www.w3.org/2000/svg" xml:space="preserve" width="76.223mm" height="19.2424mm" version="1.1" style="shape-rendering:geometricPrecision; text-rendering:geometricPrecision; image-rendering:optimizeQuality; fill-rule:evenodd; clip-rule:evenodd"
viewBox="0 0 7302.72 1843.56"
 xmlns:xlink="http://www.w3.org/1999/xlink"
 xmlns:xodm="http://www.corel.com/coreldraw/odm/2003">
 <defs>
  <style type="text/css">
   <![CDATA[
    .fil1 {fill:none}
    .fil3 {fill:none;fill-rule:nonzero}
    .fil2 {fill:#7534D1;fill-rule:nonzero}
    .fil0 {fill:#FFBA44;fill-rule:nonzero}
   ]]>
  </style>
    <clipPath id="id0">
     <path d="M3413.67 0l1047.76 0 0 1047.77 -1047.76 0 0 -1047.77zm0 0z"/>
    </clipPath>
    <clipPath id="id1">
     <path d="M-0 304.19l1487.15 0 0 1419.55 -1487.15 0 0 -1419.55zm0 0z"/>
    </clipPath>
    <clipPath id="id2">
     <path d="M4495.23 405.59l1385.75 0 0 1385.75 -1385.75 0 0 -1385.75zm0 0z"/>
    </clipPath>
    <clipPath id="id3" style="clip-rule:nonzero">
     <path d="M6692.14 506.98l540.78 0 0 540.78 -540.78 0 0 -540.78zm0 0z"/>
    </clipPath>
 </defs>
 <g id="Camada_x0020_1">
  <metadata id="CorelCorpID_0Corel-Layer"/>
  <g id="_2963713358464">
   <g>
   </g>
   <g style="clip-path:url(#id0)">
    <g>
     <g>
      <path class="fil0" d="M4085.82 56.91l334.29 358.85 -143.39 468.82 -477.8 110.25 -334.43 -358.72 143.65 -468.96 477.67 -110.24 0 0zm10.69 -34.85l-513.45 118.43 -154.07 503.81 351.11 376.78 525.06 -121.07 150.24 -490.98 -0.64 -2.8 -358.24 -384.17z"/>
     </g>
    </g>
   </g>
   <path class="fil1" d="M3413.67 0l1047.76 0 0 1047.77 -1047.76 0 0 -1047.77zm0 0z"/>
   <g>
   </g>
   <g style="clip-path:url(#id1)">
    <g>
     <polygon class="fil0" points="507.16,334.07 1217.41,467.88 1217.6,468.03 1457.31,1151.67 985.05,1701.17 273.03,1567.03 33.8,884.75 "/>
    </g>
   </g>
   <path class="fil1" d="M-0 304.19l1487.15 0 0 1419.55 -1487.15 0 0 -1419.55zm0 0z"/>
   <g>
   </g>
   <g style="clip-path:url(#id2)">
    <g>
     <polygon class="fil0" points="4508.14,1268.21 4686.36,602.62 4686.59,602.39 5362.91,421.3 5858.01,916.4 5676.86,1592.9 5011.09,1771.16 "/>
    </g>
   </g>
   <path class="fil1" d="M4495.23 405.59l1385.75 0 0 1385.75 -1385.75 0 0 -1385.75zm0 0z"/>
   <g>
    <g>
     <g>
      <path class="fil2" d="M1466.05 865.67l0 -187.22 -486.78 0 0 -280.82 322.94 0 0 46.87 -276.07 0 0 187.22 369.67 0 93.6 -93.61 0 -234.08 -93.6 -93.61 -510.16 0 -93.6 93.61 0 468.03 93.6 93.61 580.39 0zm0 0z"/>
     </g>
    </g>
   </g>
   <g>
    <g>
     <g>
      <path class="fil2" d="M1770.15 865.67l0 -655.26 -187.21 0 0 655.26 187.21 0zm0 0z"/>
     </g>
    </g>
   </g>
   <g>
    <g>
     <g>
      <path class="fil2" d="M2551.71 865.67l-246.1 -327.57 246.1 -327.69 -233.95 0 -129.12 172.3 -128.33 -172.3 -233.95 0 246.1 327.69 -246.1 327.57 233.95 0 128.33 -171.25 129.12 171.25 233.95 0zm0 0z"/>
     </g>
    </g>
   </g>
   <g>
    <g>
     <g>
      <path class="fil2" d="M3234.93 865.67l93.6 -93.61 0 -468.03 -93.6 -93.61 -533.52 0 -93.6 93.61 0 468.03 93.6 93.61 533.52 0zm-93.6 -187.22l-346.31 0 0 -280.82 346.31 0 0 280.82zm0 0z"/>
     </g>
    </g>
   </g>
   <g>
    <g>
     <g>
      <path class="fil2" d="M3988.47 865.67l93.6 -93.61 0 -233.95 -93.6 -93.6 -379.18 0 0 -46.87 472.78 0 0 -187.22 -566.39 0 -93.6 93.61 0 234.08 93.6 93.61 379.19 0 0 46.73 -472.79 0 0 187.22 566.39 0zm0 0z"/>
     </g>
    </g>
   </g>
   <g>
    <g>
     <g>
      <path class="fil2" d="M619.93 1609.61l0 -187.22 -327.56 0 0 -46.87 421.16 0 0 -187.21 -678.61 0 0 187.21 70.24 0 0 468.04 187.22 0 0 -233.95 327.56 0zm0 0z"/>
     </g>
    </g>
   </g>
   <g>
    <g>
     <g>
      <path class="fil2" d="M1396.77 1843.56l93.6 -93.6 0 -468.04 -93.6 -93.6 -533.52 0 -93.6 93.6 0 468.04 93.6 93.6 533.52 0zm-93.61 -187.22l-346.3 0 0 -280.82 346.3 0 0 280.82zm0 0z"/>
     </g>
    </g>
   </g>
   <g>
    <g>
     <g>
      <path class="fil2" d="M2286.03 1843.56l-140.47 -140.35 93.6 -93.6 0 -327.69 -93.6 -93.6 -603.76 0 0 187.21 510.15 0 0 140.48 -252.69 0 0 -93.61 -187.22 0 0 421.17 187.22 0 0 -140.35 118.82 0 140.47 140.35 227.49 0zm0 0z"/>
     </g>
    </g>
   </g>
   <g>
    <g>
     <g>
      <path class="fil2" d="M3114.26 1843.56l0 -655.25 -187.22 0 -185.23 249.92 -184.44 -249.92 -257.45 0 0 187.21 70.25 0 0 468.04 187.21 0 0 -341.69 184.44 249.92 185.23 -249.92 0 341.69 187.22 0zm0 0z"/>
     </g>
    </g>
   </g>
   <g>
    <g>
     <g>
      <path class="fil2" d="M3905.15 1843.56l0 -561.64 -93.6 -93.6 -580.26 0 0 187.21 486.65 0 0 46.87 -416.54 0 -93.61 93.61 0 233.95 93.61 93.6 369.81 0 0 -187.22 -276.2 0 0 -46.73 322.94 0 0 140.35 93.6 93.6 93.6 0zm0 0z"/>
     </g>
    </g>
   </g>
   <g>
    <g>
     <g>
      <path class="fil2" d="M4402.14 1843.56l0 -468.04 258.37 0 0 -187.21 -703.96 0 0 187.21 258.37 0 0 468.04 187.22 0zm0 0z"/>
     </g>
    </g>
   </g>
   <g>
    <g>
     <g>
      <path class="fil2" d="M4899.07 1843.56l0 -655.25 -187.22 0 0 655.25 187.22 0zm0 0z"/>
     </g>
    </g>
   </g>
   <g>
    <g>
     <g>
      <path class="fil2" d="M5466.36 1843.56l306.04 -655.25 -205.97 0 -130.97 279.89 -72.09 197.52 -72.09 -197.52 -130.05 -279.89 -205.96 0 0 187.21 87 0 218.11 468.04 205.97 0zm0 0z"/>
     </g>
    </g>
   </g>
   <g>
    <g>
     <g>
      <path class="fil2" d="M6455.57 1843.56l93.61 -93.6 0 -468.04 -93.61 -93.6 -533.51 0 -93.6 93.6 0 468.04 93.6 93.6 533.51 0zm-93.6 -187.22l-346.31 0 0 -280.82 346.31 0 0 280.82zm0 0z"/>
     </g>
    </g>
   </g>
   <g>
    <g>
     <g>
      <path class="fil2" d="M7209.11 1843.56l93.61 -93.6 0 -233.95 -93.61 -93.61 -379.18 0 0 -46.87 472.79 0 0 -187.21 -566.39 0 -93.6 93.6 0 234.09 93.6 93.6 379.18 0 0 46.73 -472.78 0 0 187.22 566.38 0zm0 0z"/>
     </g>
    </g>
   </g>
   <g>
   </g>
   <g style="clip-path:url(#id3)">
    <g>
     <g>
      <path class="fil0" d="M7183.55 727.34l-63.24 236.06 -236.19 63.38 -172.82 -172.83 63.23 -236.19 236.2 -63.24 172.82 172.83 0 0zm17.7 -4.75l-185.76 -185.76 -253.76 67.98 -66.85 249.51 188.81 188.88 249.57 -66.87 67.99 -253.75z"/>
     </g>
    </g>
   </g>
   <path class="fil3" d="M6692.14 506.98l540.78 0 0 540.78 -540.78 0 0 -540.78zm0 0z"/>
  </g>
 </g>
</svg>
