<svg xmlns="http://www.w3.org/2000/svg" xmlns:xlink="http://www.w3.org/1999/xlink" width="380" zoomAndPan="magnify" viewBox="0 0 285 68.249996" height="91" preserveAspectRatio="xMidYMid meet" version="1.0"><defs><g/><clipPath id="69af7e00e7"><path d="M 160 12 L 194 12 L 194 44 L 160 44 Z M 160 12 " clip-rule="nonzero"/></clipPath><clipPath id="1591ae8c48"><path d="M 158.65625 15.230469 L 192.539062 11.15625 L 195.992188 39.882812 L 162.109375 43.957031 Z M 158.65625 15.230469 " clip-rule="nonzero"/></clipPath><clipPath id="8f3e99bbed"><path d="M 158.65625 15.230469 L 192.539062 11.15625 L 195.992188 39.882812 L 162.109375 43.957031 Z M 158.65625 15.230469 " clip-rule="nonzero"/></clipPath><clipPath id="39daafa28e"><path d="M 130 29 L 170 29 L 170 66 L 130 66 Z M 130 29 " clip-rule="nonzero"/></clipPath><clipPath id="d8a97ee8da"><path d="M 148.78125 73.589844 L 124.902344 42.351562 L 152.011719 21.628906 L 175.890625 52.863281 Z M 148.78125 73.589844 " clip-rule="nonzero"/></clipPath><clipPath id="72a1e00fb9"><path d="M 148.78125 73.589844 L 124.902344 42.351562 L 152.011719 21.628906 L 175.890625 52.863281 Z M 148.78125 73.589844 " clip-rule="nonzero"/></clipPath><clipPath id="1da3d33f4f"><path d="M 65 1 L 136 1 L 136 66 L 65 66 Z M 65 1 " clip-rule="nonzero"/></clipPath><clipPath id="19e10f9d49"><path d="M 62.25 7.128906 L 132.355469 -0.09375 L 138.585938 60.417969 L 68.480469 67.636719 Z M 62.25 7.128906 " clip-rule="nonzero"/></clipPath><clipPath id="fcfe43400b"><path d="M 62.25 7.128906 L 132.355469 -0.09375 L 138.585938 60.417969 L 68.480469 67.636719 Z M 62.25 7.128906 " clip-rule="nonzero"/></clipPath></defs><g clip-path="url(#69af7e00e7)"><g clip-path="url(#1591ae8c48)"><g clip-path="url(#8f3e99bbed)"><path fill="#ffba44" d="M 183.328125 13.285156 L 192.746094 25.855469 L 186.578125 40.296875 L 170.988281 42.171875 L 161.5625 29.605469 L 167.738281 15.160156 L 183.328125 13.285156 M 183.792969 12.210938 L 167.035156 14.226562 L 160.402344 29.742188 L 170.523438 43.246094 L 187.28125 41.234375 L 193.914062 25.714844 Z M 183.792969 12.210938 " fill-opacity="1" fill-rule="nonzero"/></g></g></g><g clip-path="url(#39daafa28e)"><g clip-path="url(#d8a97ee8da)"><g clip-path="url(#72a1e00fb9)"><path fill="#ffba44" d="M 169.734375 45.273438 L 162.226562 63.3125 L 142.851562 65.824219 L 130.988281 50.304688 L 138.496094 32.269531 L 157.871094 29.753906 Z M 169.734375 45.273438 " fill-opacity="1" fill-rule="nonzero"/></g></g></g><g clip-path="url(#1da3d33f4f)"><g clip-path="url(#19e10f9d49)"><g clip-path="url(#fcfe43400b)"><path fill="#ffba44" d="M 85.910156 65.753906 L 65.359375 37.34375 L 79.691406 5.339844 L 114.570312 1.75 L 135.121094 30.160156 L 120.789062 62.160156 Z M 85.910156 65.753906 " fill-opacity="1" fill-rule="nonzero"/></g></g></g><g fill="#8f5fc5" fill-opacity="1"><g transform="translate(92.442657, 43.398092)"><g><path d="M 21.324219 0 L 21.324219 -5.539062 L 6.921875 -5.539062 L 6.921875 -13.847656 L 16.476562 -13.847656 L 16.476562 -12.460938 L 8.308594 -12.460938 L 8.308594 -6.921875 L 19.246094 -6.921875 L 22.015625 -9.691406 L 22.015625 -16.617188 L 19.246094 -19.386719 L 4.152344 -19.386719 L 1.382812 -16.617188 L 1.382812 -2.769531 L 4.152344 0 Z M 21.324219 0 "/></g></g></g><g fill="#8f5fc5" fill-opacity="1"><g transform="translate(115.842285, 43.398092)"><g><path d="M 6.921875 0 L 6.921875 -19.386719 L 1.382812 -19.386719 L 1.382812 0 Z M 6.921875 0 "/></g></g></g><g fill="#8f5fc5" fill-opacity="1"><g transform="translate(124.149845, 43.398092)"><g><path d="M 21.738281 0 L 14.457031 -9.691406 L 21.738281 -19.386719 L 14.816406 -19.386719 L 10.996094 -14.289062 L 7.199219 -19.386719 L 0.277344 -19.386719 L 7.558594 -9.691406 L 0.277344 0 L 7.199219 0 L 10.996094 -5.066406 L 14.816406 0 Z M 21.738281 0 "/></g></g></g><g fill="#8f5fc5" fill-opacity="1"><g transform="translate(146.164881, 43.398092)"><g><path d="M 19.9375 0 L 22.707031 -2.769531 L 22.707031 -16.617188 L 19.9375 -19.386719 L 4.152344 -19.386719 L 1.382812 -16.617188 L 1.382812 -2.769531 L 4.152344 0 Z M 17.167969 -5.539062 L 6.921875 -5.539062 L 6.921875 -13.847656 L 17.167969 -13.847656 Z M 17.167969 -5.539062 "/></g></g></g><g fill="#8f5fc5" fill-opacity="1"><g transform="translate(170.256811, 43.398092)"><g><path d="M 18.140625 0 L 20.910156 -2.769531 L 20.910156 -9.691406 L 18.140625 -12.460938 L 6.921875 -12.460938 L 6.921875 -13.847656 L 20.910156 -13.847656 L 20.910156 -19.386719 L 4.152344 -19.386719 L 1.382812 -16.617188 L 1.382812 -9.691406 L 4.152344 -6.921875 L 15.371094 -6.921875 L 15.371094 -5.539062 L 1.382812 -5.539062 L 1.382812 0 Z M 18.140625 0 "/></g></g></g></svg>