<svg xmlns="http://www.w3.org/2000/svg" xmlns:xlink="http://www.w3.org/1999/xlink" width="380" zoomAndPan="magnify" viewBox="0 0 285 68.249996" height="91" preserveAspectRatio="xMidYMid meet" version="1.0"><defs><g/><clipPath id="0643c286a7"><path d="M 13 0 L 84 0 L 84 67 L 13 67 Z M 13 0 " clip-rule="nonzero"/></clipPath><clipPath id="37ff382713"><path d="M 8.300781 10.339844 L 77.542969 -2.773438 L 88.863281 56.996094 L 19.617188 70.109375 Z M 8.300781 10.339844 " clip-rule="nonzero"/></clipPath><clipPath id="49d9eda46d"><path d="M 8.300781 10.339844 L 77.542969 -2.773438 L 88.863281 56.996094 L 19.617188 70.109375 Z M 8.300781 10.339844 " clip-rule="nonzero"/></clipPath><clipPath id="4488ce5579"><path d="M 188 4 L 223 4 L 223 36 L 188 36 Z M 188 4 " clip-rule="nonzero"/></clipPath><clipPath id="75d42e3f50"><path d="M 186.957031 6.90625 L 220.878906 3.167969 L 224.046875 31.925781 L 190.128906 35.664062 Z M 186.957031 6.90625 " clip-rule="nonzero"/></clipPath><clipPath id="f643584832"><path d="M 186.957031 6.90625 L 220.878906 3.167969 L 224.046875 31.925781 L 190.128906 35.664062 Z M 186.957031 6.90625 " clip-rule="nonzero"/></clipPath><clipPath id="a0ec06f40d"><path d="M 222 16 L 272 16 L 272 65 L 222 65 Z M 222 16 " clip-rule="nonzero"/></clipPath><clipPath id="95283bdc56"><path d="M 218.222656 25.109375 L 267.4375 14.039062 L 277.042969 56.742188 L 227.828125 67.8125 Z M 218.222656 25.109375 " clip-rule="nonzero"/></clipPath><clipPath id="9302af72ea"><path d="M 218.222656 25.109375 L 267.4375 14.039062 L 277.042969 56.742188 L 227.828125 67.8125 Z M 218.222656 25.109375 " clip-rule="nonzero"/></clipPath></defs><g clip-path="url(#0643c286a7)"><g clip-path="url(#37ff382713)"><g clip-path="url(#49d9eda46d)"><path fill="#ffba44" d="M 36.941406 66.980469 L 13.972656 40.304688 L 25.597656 7.074219 L 60.183594 0.527344 L 83.152344 27.203125 L 71.527344 60.433594 Z M 36.941406 66.980469 " fill-opacity="1" fill-rule="nonzero"/></g></g></g><g clip-path="url(#4488ce5579)"><g clip-path="url(#75d42e3f50)"><g clip-path="url(#f643584832)"><path fill="#ffba44" d="M 211.648438 5.207031 L 220.941406 17.867188 L 214.628906 32.25 L 199.019531 33.96875 L 189.71875 21.308594 L 196.039062 6.925781 L 211.648438 5.207031 M 212.121094 4.136719 L 195.347656 5.984375 L 188.558594 21.4375 L 198.546875 35.039062 L 215.324219 33.191406 L 222.109375 17.738281 Z M 212.121094 4.136719 " fill-opacity="1" fill-rule="nonzero"/></g></g></g><g clip-path="url(#a0ec06f40d)"><g clip-path="url(#95283bdc56)"><g clip-path="url(#9302af72ea)"><path fill="#ffba44" d="M 239.988281 64.738281 L 222.988281 46.304688 L 230.457031 22.363281 L 254.921875 16.859375 L 271.921875 35.292969 L 264.457031 59.234375 Z M 239.988281 64.738281 " fill-opacity="1" fill-rule="nonzero"/></g></g></g><g fill="#8f5fc5" fill-opacity="1"><g transform="translate(33.170833, 29.302984)"><g><path d="M 22.015625 0 L 22.015625 -16.617188 L 19.246094 -19.386719 L 2.078125 -19.386719 L 2.078125 -13.847656 L 16.476562 -13.847656 L 16.476562 -12.460938 L 4.152344 -12.460938 L 1.382812 -9.691406 L 1.382812 -2.769531 L 4.152344 0 L 15.09375 0 L 15.09375 -5.539062 L 6.921875 -5.539062 L 6.921875 -6.921875 L 16.476562 -6.921875 L 16.476562 -2.769531 L 19.246094 0 Z M 22.015625 0 "/></g></g></g><g fill="#8f5fc5" fill-opacity="1"><g transform="translate(56.570461, 29.302984)"><g><path d="M 22.15625 -2.769531 L 22.15625 -19.386719 L 16.617188 -19.386719 L 16.617188 -5.539062 L 7.753906 -5.539062 L 7.753906 -19.386719 L 0.136719 -19.386719 L 0.136719 -13.847656 L 2.214844 -13.847656 L 2.214844 -2.769531 L 4.984375 0 L 19.386719 0 Z M 22.15625 -2.769531 "/></g></g></g><g fill="#8f5fc5" fill-opacity="1"><g transform="translate(80.108551, 29.302984)"><g><path d="M 20.214844 0 L 20.214844 -5.539062 L 7.753906 -5.539062 L 7.753906 -19.386719 L 0.136719 -19.386719 L 0.136719 -13.847656 L 2.214844 -13.847656 L 2.214844 0 Z M 20.214844 0 "/></g></g></g><g fill="#8f5fc5" fill-opacity="1"><g transform="translate(100.600533, 29.302984)"><g><path d="M 22.015625 0 L 22.015625 -16.617188 L 19.246094 -19.386719 L 2.078125 -19.386719 L 2.078125 -13.847656 L 16.476562 -13.847656 L 16.476562 -12.460938 L 4.152344 -12.460938 L 1.382812 -9.691406 L 1.382812 -2.769531 L 4.152344 0 L 15.09375 0 L 15.09375 -5.539062 L 6.921875 -5.539062 L 6.921875 -6.921875 L 16.476562 -6.921875 L 16.476562 -2.769531 L 19.246094 0 Z M 20.078125 -23.539062 L 13.015625 -23.539062 L 10.996094 -22.429688 L 9 -23.539062 L 8.863281 -23.539062 L 3.324219 -20.492188 L 10.386719 -20.492188 L 12.378906 -21.601562 L 14.402344 -20.492188 L 14.539062 -20.492188 Z M 20.078125 -23.539062 "/></g></g></g><g fill="#8f5fc5" fill-opacity="1"><g transform="translate(124.000161, 29.302984)"><g><path d="M 19.9375 0 L 22.707031 -2.769531 L 22.707031 -16.617188 L 19.9375 -19.386719 L 4.152344 -19.386719 L 1.382812 -16.617188 L 1.382812 -2.769531 L 4.152344 0 Z M 17.167969 -5.539062 L 6.921875 -5.539062 L 6.921875 -13.847656 L 17.167969 -13.847656 Z M 17.167969 -5.539062 "/></g></g></g><g fill="#8f5fc5" fill-opacity="1"><g transform="translate(148.099279, 29.302984)"><g/></g></g><g fill="#8f5fc5" fill-opacity="1"><g transform="translate(33.170833, 57.493199)"><g><path d="M 21.324219 0 L 21.324219 -5.539062 L 6.921875 -5.539062 L 6.921875 -13.847656 L 16.476562 -13.847656 L 16.476562 -11.078125 L 22.015625 -11.078125 L 22.015625 -16.617188 L 19.246094 -19.386719 L 4.152344 -19.386719 L 1.382812 -16.617188 L 1.382812 -2.769531 L 4.152344 0 Z M 21.324219 0 "/></g></g></g><g fill="#8f5fc5" fill-opacity="1"><g transform="translate(56.570461, 57.493199)"><g><path d="M 22.15625 0 L 22.15625 -19.386719 L 16.617188 -19.386719 L 16.617188 -12.460938 L 7.753906 -12.460938 L 7.753906 -19.386719 L 0.136719 -19.386719 L 0.136719 -13.847656 L 2.214844 -13.847656 L 2.214844 0 L 7.753906 0 L 7.753906 -6.921875 L 16.617188 -6.921875 L 16.617188 0 Z M 22.15625 0 "/></g></g></g><g fill="#8f5fc5" fill-opacity="1"><g transform="translate(80.108551, 57.493199)"><g><path d="M 22.15625 0 L 18 -4.152344 L 20.769531 -6.921875 L 20.769531 -16.617188 L 18 -19.386719 L 0.136719 -19.386719 L 0.136719 -13.847656 L 15.230469 -13.847656 L 15.230469 -9.691406 L 7.753906 -9.691406 L 7.753906 -12.460938 L 2.214844 -12.460938 L 2.214844 0 L 7.753906 0 L 7.753906 -4.152344 L 11.269531 -4.152344 L 15.425781 0 Z M 22.15625 0 "/></g></g></g><g fill="#8f5fc5" fill-opacity="1"><g transform="translate(102.538963, 57.493199)"><g><path d="M 19.9375 0 L 22.707031 -2.769531 L 22.707031 -16.617188 L 19.9375 -19.386719 L 4.152344 -19.386719 L 1.382812 -16.617188 L 1.382812 -2.769531 L 4.152344 0 Z M 17.167969 -5.539062 L 6.921875 -5.539062 L 6.921875 -13.847656 L 17.167969 -13.847656 Z M 17.167969 -5.539062 "/></g></g></g><g fill="#8f5fc5" fill-opacity="1"><g transform="translate(126.630893, 57.493199)"><g><path d="M 24.230469 0 L 24.230469 -19.386719 L 18.691406 -19.386719 L 13.210938 -11.992188 L 7.753906 -19.386719 L 0.136719 -19.386719 L 0.136719 -13.847656 L 2.214844 -13.847656 L 2.214844 0 L 7.753906 0 L 7.753906 -10.109375 L 13.210938 -2.714844 L 18.691406 -10.109375 L 18.691406 0 Z M 24.230469 0 "/></g></g></g><g fill="#8f5fc5" fill-opacity="1"><g transform="translate(152.245876, 57.493199)"><g><path d="M 21.324219 0 L 21.324219 -5.539062 L 6.921875 -5.539062 L 6.921875 -13.847656 L 16.476562 -13.847656 L 16.476562 -12.460938 L 8.308594 -12.460938 L 8.308594 -6.921875 L 19.246094 -6.921875 L 22.015625 -9.691406 L 22.015625 -16.617188 L 19.246094 -19.386719 L 4.152344 -19.386719 L 1.382812 -16.617188 L 1.382812 -2.769531 L 4.152344 0 Z M 21.324219 0 "/></g></g></g><g fill="#8f5fc5" fill-opacity="1"><g transform="translate(175.645503, 57.493199)"><g><path d="M 18 0 L 20.769531 -2.769531 L 20.769531 -6.921875 L 18 -9.691406 L 20.769531 -12.460938 L 20.769531 -16.617188 L 18 -19.386719 L 0.136719 -19.386719 L 0.136719 -13.847656 L 2.214844 -13.847656 L 2.214844 0 Z M 15.230469 -5.539062 L 7.753906 -5.539062 L 7.753906 -6.921875 L 15.230469 -6.921875 Z M 15.230469 -12.460938 L 7.753906 -12.460938 L 7.753906 -13.847656 L 15.230469 -13.847656 Z M 15.230469 -12.460938 "/></g></g></g><g fill="#8f5fc5" fill-opacity="1"><g transform="translate(197.799002, 57.493199)"><g><path d="M 19.9375 0 L 22.707031 -2.769531 L 22.707031 -16.617188 L 19.9375 -19.386719 L 4.152344 -19.386719 L 1.382812 -16.617188 L 1.382812 -2.769531 L 4.152344 0 Z M 17.167969 -5.539062 L 6.921875 -5.539062 L 6.921875 -13.847656 L 17.167969 -13.847656 Z M 17.167969 -5.539062 "/></g></g></g><g fill="#8f5fc5" fill-opacity="1"><g transform="translate(221.890932, 57.493199)"><g><path d="M 19.9375 0 L 22.707031 -2.769531 L 22.707031 -16.617188 L 19.9375 -19.386719 L 4.152344 -19.386719 L 1.382812 -16.617188 L 1.382812 -2.769531 L 4.152344 0 Z M 17.167969 -5.539062 L 6.921875 -5.539062 L 6.921875 -13.847656 L 17.167969 -13.847656 Z M 17.167969 -5.539062 "/></g></g></g><g fill="#8f5fc5" fill-opacity="1"><g transform="translate(245.982861, 57.493199)"><g><path d="M 21.90625 0 L 17.363281 -9.691406 L 21.90625 -19.386719 L 15.8125 -19.386719 L 12.574219 -12.460938 L 7.753906 -12.460938 L 7.753906 -19.386719 L 0.136719 -19.386719 L 0.136719 -13.847656 L 2.214844 -13.847656 L 2.214844 0 L 7.753906 0 L 7.753906 -6.921875 L 12.65625 -6.921875 L 15.8125 0 Z M 21.90625 0 "/></g></g></g></svg>