<svg xmlns="http://www.w3.org/2000/svg" xmlns:xlink="http://www.w3.org/1999/xlink" width="380" zoomAndPan="magnify" viewBox="0 0 285 68.249996" height="91" preserveAspectRatio="xMidYMid meet" version="1.0"><defs><g/><clipPath id="5d5ee16c0c"><path d="M 230 9 L 263 9 L 263 44 L 230 44 Z M 230 9 " clip-rule="nonzero"/></clipPath><clipPath id="2cd4147f14"><path d="M 225.4375 17.984375 L 258.40625 6.636719 L 268.066406 34.695312 L 235.097656 46.042969 Z M 225.4375 17.984375 " clip-rule="nonzero"/></clipPath><clipPath id="b04c341b7a"><path d="M 225.4375 17.984375 L 258.40625 6.636719 L 268.066406 34.695312 L 235.097656 46.042969 Z M 225.4375 17.984375 " clip-rule="nonzero"/></clipPath><clipPath id="b53e548b49"><path d="M 99 18 L 148 18 L 148 67.507812 L 99 67.507812 Z M 99 18 " clip-rule="nonzero"/></clipPath><clipPath id="dd50339f51"><path d="M 119.773438 10.441406 L 156.308594 44.140625 L 127.132812 75.769531 L 90.597656 42.066406 Z M 119.773438 10.441406 " clip-rule="nonzero"/></clipPath><clipPath id="f74e786f4d"><path d="M 119.773438 10.441406 L 156.308594 44.140625 L 127.132812 75.769531 L 90.597656 42.066406 Z M 119.773438 10.441406 " clip-rule="nonzero"/></clipPath><clipPath id="0e2df0a1bd"><path d="M 38 0 L 104 0 L 104 67 L 38 67 Z M 38 0 " clip-rule="nonzero"/></clipPath><clipPath id="bc925324aa"><path d="M 29.976562 16.097656 L 94.316406 -4.335938 L 112.054688 51.519531 L 47.714844 71.953125 Z M 29.976562 16.097656 " clip-rule="nonzero"/></clipPath><clipPath id="4e7772adea"><path d="M 29.976562 16.097656 L 94.316406 -4.335938 L 112.054688 51.519531 L 47.714844 71.953125 Z M 29.976562 16.097656 " clip-rule="nonzero"/></clipPath></defs><g clip-path="url(#5d5ee16c0c)"><g clip-path="url(#2cd4147f14)"><g clip-path="url(#b04c341b7a)"><path fill="#ffba44" d="M 249.6875 10.734375 L 261.804688 21.273438 L 258.742188 37.042969 L 243.558594 42.269531 L 231.433594 31.730469 L 234.503906 15.960938 L 249.6875 10.734375 M 249.917969 9.558594 L 233.597656 15.175781 L 230.304688 32.121094 L 243.328125 43.445312 L 259.648438 37.824219 L 262.941406 20.882812 Z M 249.917969 9.558594 " fill-opacity="1" fill-rule="nonzero"/></g></g></g><g clip-path="url(#b53e548b49)"><g clip-path="url(#dd50339f51)"><g clip-path="url(#f74e786f4d)"><path fill="#ffba44" d="M 99.832031 50.28125 L 105.261719 26.171875 L 128.851562 18.820312 L 147.019531 35.574219 L 141.589844 59.683594 L 117.996094 67.039062 Z M 99.832031 50.28125 " fill-opacity="1" fill-rule="nonzero"/></g></g></g><g clip-path="url(#0e2df0a1bd)"><g clip-path="url(#bc925324aa)"><g clip-path="url(#4e7772adea)"><path fill="#ffba44" d="M 63.765625 66.726562 L 38.828125 43.96875 L 46.066406 10.996094 L 78.242188 0.777344 L 103.179688 23.53125 L 95.941406 56.507812 Z M 63.765625 66.726562 " fill-opacity="1" fill-rule="nonzero"/></g></g></g><g fill="#8f5fc5" fill-opacity="1"><g transform="translate(63.782992, 43.398092)"><g><path d="M 21.324219 0 L 21.324219 -5.539062 L 6.921875 -5.539062 L 6.921875 -13.847656 L 16.476562 -13.847656 L 16.476562 -12.460938 L 8.308594 -12.460938 L 8.308594 -6.921875 L 19.246094 -6.921875 L 22.015625 -9.691406 L 22.015625 -16.617188 L 19.246094 -19.386719 L 4.152344 -19.386719 L 1.382812 -16.617188 L 1.382812 -2.769531 L 4.152344 0 Z M 21.324219 0 "/></g></g></g><g fill="#8f5fc5" fill-opacity="1"><g transform="translate(87.182619, 43.398092)"><g><path d="M 21.738281 0 L 14.457031 -9.691406 L 21.738281 -19.386719 L 14.816406 -19.386719 L 10.996094 -14.289062 L 7.199219 -19.386719 L 0.277344 -19.386719 L 7.558594 -9.691406 L 0.277344 0 L 7.199219 0 L 10.996094 -5.066406 L 14.816406 0 Z M 21.738281 0 "/></g></g></g><g fill="#8f5fc5" fill-opacity="1"><g transform="translate(109.197655, 43.398092)"><g><path d="M 18 -4.152344 L 20.769531 -6.921875 L 20.769531 -16.617188 L 18 -19.386719 L 0.136719 -19.386719 L 0.136719 -13.847656 L 15.230469 -13.847656 L 15.230469 -9.691406 L 7.753906 -9.691406 L 7.753906 -12.460938 L 2.214844 -12.460938 L 2.214844 0 L 7.753906 0 L 7.753906 -4.152344 Z M 18 -4.152344 "/></g></g></g><g fill="#8f5fc5" fill-opacity="1"><g transform="translate(130.797315, 43.398092)"><g><path d="M 22.15625 0 L 18 -4.152344 L 20.769531 -6.921875 L 20.769531 -16.617188 L 18 -19.386719 L 0.136719 -19.386719 L 0.136719 -13.847656 L 15.230469 -13.847656 L 15.230469 -9.691406 L 7.753906 -9.691406 L 7.753906 -12.460938 L 2.214844 -12.460938 L 2.214844 0 L 7.753906 0 L 7.753906 -4.152344 L 11.269531 -4.152344 L 15.425781 0 Z M 22.15625 0 "/></g></g></g><g fill="#8f5fc5" fill-opacity="1"><g transform="translate(153.227728, 43.398092)"><g><path d="M 21.324219 0 L 21.324219 -5.539062 L 6.921875 -5.539062 L 6.921875 -13.847656 L 16.476562 -13.847656 L 16.476562 -12.460938 L 8.308594 -12.460938 L 8.308594 -6.921875 L 19.246094 -6.921875 L 22.015625 -9.691406 L 22.015625 -16.617188 L 19.246094 -19.386719 L 4.152344 -19.386719 L 1.382812 -16.617188 L 1.382812 -2.769531 L 4.152344 0 Z M 21.324219 0 "/></g></g></g><g fill="#8f5fc5" fill-opacity="1"><g transform="translate(176.627355, 43.398092)"><g><path d="M 18.140625 0 L 20.910156 -2.769531 L 20.910156 -9.691406 L 18.140625 -12.460938 L 6.921875 -12.460938 L 6.921875 -13.847656 L 20.910156 -13.847656 L 20.910156 -19.386719 L 4.152344 -19.386719 L 1.382812 -16.617188 L 1.382812 -9.691406 L 4.152344 -6.921875 L 15.371094 -6.921875 L 15.371094 -5.539062 L 1.382812 -5.539062 L 1.382812 0 Z M 18.140625 0 "/></g></g></g><g fill="#8f5fc5" fill-opacity="1"><g transform="translate(198.919316, 43.398092)"><g><path d="M 18.140625 0 L 20.910156 -2.769531 L 20.910156 -9.691406 L 18.140625 -12.460938 L 6.921875 -12.460938 L 6.921875 -13.847656 L 20.910156 -13.847656 L 20.910156 -19.386719 L 4.152344 -19.386719 L 1.382812 -16.617188 L 1.382812 -9.691406 L 4.152344 -6.921875 L 15.371094 -6.921875 L 15.371094 -5.539062 L 1.382812 -5.539062 L 1.382812 0 Z M 18.140625 0 "/></g></g></g></svg>