<svg xmlns="http://www.w3.org/2000/svg" xmlns:xlink="http://www.w3.org/1999/xlink" width="380" zoomAndPan="magnify" viewBox="0 0 285 68.249996" height="91" preserveAspectRatio="xMidYMid meet" version="1.0"><defs><g/><clipPath id="fedbefdf9e"><path d="M 11 2 L 78 2 L 78 65 L 11 65 Z M 11 2 " clip-rule="nonzero"/></clipPath><clipPath id="1b9e983952"><path d="M 7.585938 8.863281 L 74.628906 0.953125 L 81.5 59.152344 L 14.457031 67.066406 Z M 7.585938 8.863281 " clip-rule="nonzero"/></clipPath><clipPath id="bd10708262"><path d="M 7.585938 8.863281 L 74.628906 0.953125 L 81.5 59.152344 L 14.457031 67.066406 Z M 7.585938 8.863281 " clip-rule="nonzero"/></clipPath><clipPath id="47b3ace1f5"><path d="M 136 16 L 190 16 L 190 66 L 136 66 Z M 136 16 " clip-rule="nonzero"/></clipPath><clipPath id="195c144de8"><path d="M 140.246094 14.226562 L 193.074219 22.101562 L 186.296875 67.59375 L 133.46875 59.71875 Z M 140.246094 14.226562 " clip-rule="nonzero"/></clipPath><clipPath id="d7ba4a13d5"><path d="M 140.246094 14.226562 L 193.074219 22.101562 L 186.296875 67.59375 L 133.46875 59.71875 Z M 140.246094 14.226562 " clip-rule="nonzero"/></clipPath><clipPath id="6645ee88d0"><path d="M 185 0 L 258 0 L 258 67 L 185 67 Z M 185 0 " clip-rule="nonzero"/></clipPath><clipPath id="a579c92139"><path d="M 189.4375 -1.601562 L 260.863281 7.132812 L 253.296875 68.988281 L 181.871094 60.25 Z M 189.4375 -1.601562 " clip-rule="nonzero"/></clipPath><clipPath id="6d867d7820"><path d="M 189.4375 -1.601562 L 260.863281 7.132812 L 253.296875 68.988281 L 181.871094 60.25 Z M 189.4375 -1.601562 " clip-rule="nonzero"/></clipPath></defs><g clip-path="url(#fedbefdf9e)"><g clip-path="url(#1b9e983952)"><g clip-path="url(#bd10708262)"><path fill="#ffba44" d="M 56.832031 5.097656 L 75.574219 30.21875 L 63.195312 59.011719 L 32.074219 62.683594 L 13.320312 37.566406 L 25.710938 8.769531 L 56.832031 5.097656 M 57.757812 2.953125 L 24.3125 6.898438 L 11.007812 37.839844 L 31.148438 64.828125 L 64.59375 60.882812 L 77.898438 29.945312 Z M 57.757812 2.953125 " fill-opacity="1" fill-rule="nonzero"/></g></g></g><g clip-path="url(#47b3ace1f5)"><g clip-path="url(#195c144de8)"><g clip-path="url(#d7ba4a13d5)"><path fill="#ffba44" d="M 146.589844 61.632812 L 136.859375 36.957031 L 153.363281 16.191406 L 179.601562 20.097656 L 189.332031 44.777344 L 172.828125 65.542969 Z M 146.589844 61.632812 " fill-opacity="1" fill-rule="nonzero"/></g></g></g><g clip-path="url(#6645ee88d0)"><g clip-path="url(#a579c92139)"><g clip-path="url(#6d867d7820)"><path fill="#ffba44" d="M 199.742188 62.535156 L 185.648438 29.375 L 207.320312 0.589844 L 243.082031 4.964844 L 257.175781 38.125 L 235.503906 66.910156 Z M 199.742188 62.535156 " fill-opacity="1" fill-rule="nonzero"/></g></g></g><g fill="#8f5fc5" fill-opacity="1"><g transform="translate(33.170833, 29.302984)"><g><path d="M 21.324219 0 L 21.324219 -5.539062 L 6.921875 -5.539062 L 6.921875 -13.847656 L 16.476562 -13.847656 L 16.476562 -12.460938 L 8.308594 -12.460938 L 8.308594 -6.921875 L 19.246094 -6.921875 L 22.015625 -9.691406 L 22.015625 -16.617188 L 19.246094 -19.386719 L 4.152344 -19.386719 L 1.382812 -16.617188 L 1.382812 -2.769531 L 4.152344 0 Z M 21.324219 0 "/></g></g></g><g fill="#8f5fc5" fill-opacity="1"><g transform="translate(56.570461, 29.302984)"><g><path d="M 18 0 L 20.769531 -2.769531 L 20.769531 -6.921875 L 18 -9.691406 L 20.769531 -12.460938 L 20.769531 -16.617188 L 18 -19.386719 L 0.136719 -19.386719 L 0.136719 -13.847656 L 2.214844 -13.847656 L 2.214844 0 Z M 15.230469 -5.539062 L 7.753906 -5.539062 L 7.753906 -6.921875 L 15.230469 -6.921875 Z M 15.230469 -12.460938 L 7.753906 -12.460938 L 7.753906 -13.847656 L 15.230469 -13.847656 Z M 15.230469 -12.460938 "/></g></g></g><g fill="#8f5fc5" fill-opacity="1"><g transform="translate(78.72396, 29.302984)"><g><path d="M 19.9375 0 L 22.707031 -2.769531 L 22.707031 -16.617188 L 19.9375 -19.386719 L 4.152344 -19.386719 L 1.382812 -16.617188 L 1.382812 -2.769531 L 4.152344 0 Z M 17.167969 -5.539062 L 6.921875 -5.539062 L 6.921875 -13.847656 L 17.167969 -13.847656 Z M 17.167969 -5.539062 "/></g></g></g><g fill="#8f5fc5" fill-opacity="1"><g transform="translate(102.815889, 29.302984)"><g><path d="M 19.9375 0 L 22.707031 -2.769531 L 22.707031 -16.617188 L 19.9375 -19.386719 L 4.152344 -19.386719 L 1.382812 -16.617188 L 1.382812 -2.769531 L 4.152344 0 Z M 17.167969 -5.539062 L 6.921875 -5.539062 L 6.921875 -13.847656 L 17.167969 -13.847656 Z M 17.167969 -5.539062 "/></g></g></g><g fill="#8f5fc5" fill-opacity="1"><g transform="translate(126.907819, 29.302984)"><g><path d="M 21.90625 0 L 17.363281 -9.691406 L 21.90625 -19.386719 L 15.8125 -19.386719 L 12.574219 -12.460938 L 7.753906 -12.460938 L 7.753906 -19.386719 L 0.136719 -19.386719 L 0.136719 -13.847656 L 2.214844 -13.847656 L 2.214844 0 L 7.753906 0 L 7.753906 -6.921875 L 12.65625 -6.921875 L 15.8125 0 Z M 21.90625 0 "/></g></g></g><g fill="#8f5fc5" fill-opacity="1"><g transform="translate(149.642844, 29.302984)"><g><path d="M 18.140625 0 L 20.910156 -2.769531 L 20.910156 -9.691406 L 18.140625 -12.460938 L 6.921875 -12.460938 L 6.921875 -13.847656 L 20.910156 -13.847656 L 20.910156 -19.386719 L 4.152344 -19.386719 L 1.382812 -16.617188 L 1.382812 -9.691406 L 4.152344 -6.921875 L 15.371094 -6.921875 L 15.371094 -5.539062 L 1.382812 -5.539062 L 1.382812 0 Z M 18.140625 0 "/></g></g></g><g fill="#8f5fc5" fill-opacity="1"><g transform="translate(171.942729, 29.302984)"><g/></g></g><g fill="#8f5fc5" fill-opacity="1"><g transform="translate(33.170833, 57.493199)"><g><path d="M 13.320312 0 L 13.320312 -13.847656 L 20.964844 -13.847656 L 20.964844 -19.386719 L 0.136719 -19.386719 L 0.136719 -13.847656 L 7.78125 -13.847656 L 7.78125 0 Z M 13.320312 0 "/></g></g></g><g fill="#8f5fc5" fill-opacity="1"><g transform="translate(54.272041, 57.493199)"><g><path d="M 22.15625 -2.769531 L 22.15625 -19.386719 L 16.617188 -19.386719 L 16.617188 -5.539062 L 7.753906 -5.539062 L 7.753906 -19.386719 L 0.136719 -19.386719 L 0.136719 -13.847656 L 2.214844 -13.847656 L 2.214844 -2.769531 L 4.984375 0 L 19.386719 0 Z M 22.15625 -2.769531 "/></g></g></g><g fill="#8f5fc5" fill-opacity="1"><g transform="translate(77.810132, 57.493199)"><g><path d="M 13.320312 0 L 13.320312 -13.847656 L 20.964844 -13.847656 L 20.964844 -19.386719 L 0.136719 -19.386719 L 0.136719 -13.847656 L 7.78125 -13.847656 L 7.78125 0 Z M 13.320312 0 "/></g></g></g><g fill="#8f5fc5" fill-opacity="1"><g transform="translate(98.91134, 57.493199)"><g><path d="M 19.9375 0 L 22.707031 -2.769531 L 22.707031 -16.617188 L 19.9375 -19.386719 L 4.152344 -19.386719 L 1.382812 -16.617188 L 1.382812 -2.769531 L 4.152344 0 Z M 17.167969 -5.539062 L 6.921875 -5.539062 L 6.921875 -13.847656 L 17.167969 -13.847656 Z M 17.167969 -5.539062 "/></g></g></g><g fill="#8f5fc5" fill-opacity="1"><g transform="translate(123.003269, 57.493199)"><g><path d="M 22.15625 0 L 18 -4.152344 L 20.769531 -6.921875 L 20.769531 -16.617188 L 18 -19.386719 L 0.136719 -19.386719 L 0.136719 -13.847656 L 15.230469 -13.847656 L 15.230469 -9.691406 L 7.753906 -9.691406 L 7.753906 -12.460938 L 2.214844 -12.460938 L 2.214844 0 L 7.753906 0 L 7.753906 -4.152344 L 11.269531 -4.152344 L 15.425781 0 Z M 22.15625 0 "/></g></g></g><g fill="#8f5fc5" fill-opacity="1"><g transform="translate(145.433682, 57.493199)"><g><path d="M 6.921875 0 L 6.921875 -19.386719 L 1.382812 -19.386719 L 1.382812 0 Z M 6.921875 0 "/></g></g></g><g fill="#8f5fc5" fill-opacity="1"><g transform="translate(153.741242, 57.493199)"><g><path d="M 22.015625 0 L 22.015625 -16.617188 L 19.246094 -19.386719 L 2.078125 -19.386719 L 2.078125 -13.847656 L 16.476562 -13.847656 L 16.476562 -12.460938 L 4.152344 -12.460938 L 1.382812 -9.691406 L 1.382812 -2.769531 L 4.152344 0 L 15.09375 0 L 15.09375 -5.539062 L 6.921875 -5.539062 L 6.921875 -6.921875 L 16.476562 -6.921875 L 16.476562 -2.769531 L 19.246094 0 Z M 22.015625 0 "/></g></g></g><g fill="#8f5fc5" fill-opacity="1"><g transform="translate(177.14087, 57.493199)"><g><path d="M 6.921875 0 L 6.921875 -19.386719 L 1.382812 -19.386719 L 1.382812 0 Z M 6.921875 0 "/></g></g></g><g fill="#8f5fc5" fill-opacity="1"><g transform="translate(185.44843, 57.493199)"><g><path d="M 18.140625 0 L 20.910156 -2.769531 L 20.910156 -9.691406 L 18.140625 -12.460938 L 6.921875 -12.460938 L 6.921875 -13.847656 L 20.910156 -13.847656 L 20.910156 -19.386719 L 4.152344 -19.386719 L 1.382812 -16.617188 L 1.382812 -9.691406 L 4.152344 -6.921875 L 15.371094 -6.921875 L 15.371094 -5.539062 L 1.382812 -5.539062 L 1.382812 0 Z M 18.140625 0 "/></g></g></g></svg>